%TF.GenerationSoftware,KiCad,Pcbnew,9.0.4-1.fc42app3*%
%TF.CreationDate,2025-10-21T18:27:53-04:00*%
%TF.ProjectId,BMW_E30_Early_Cluster_Nexus,424d575f-4533-4305-9f45-61726c795f43,rev?*%
%TF.SameCoordinates,Original*%
%TF.FileFunction,Soldermask,Bot*%
%TF.FilePolarity,Negative*%
%FSLAX46Y46*%
G04 Gerber Fmt 4.6, Leading zero omitted, Abs format (unit mm)*
G04 Created by KiCad (PCBNEW 9.0.4-1.fc42app3) date 2025-10-21 18:27:53*
%MOMM*%
%LPD*%
G01*
G04 APERTURE LIST*
G04 Aperture macros list*
%AMOutline4P*
0 Free polygon, 4 corners , with rotation*
0 The origin of the aperture is its center*
0 number of corners: always 4*
0 $1 to $8 corner X, Y*
0 $9 Rotation angle, in degrees counterclockwise*
0 create outline with 4 corners*
4,1,4,$1,$2,$3,$4,$5,$6,$7,$8,$1,$2,$9*%
G04 Aperture macros list end*
%ADD10O,2.900000X9.000000*%
%ADD11C,1.400000*%
%ADD12Outline4P,-1.700000X-2.000000X1.700000X-3.000000X1.700000X3.000000X-1.700000X2.000000X0.000000*%
%ADD13Outline4P,-1.700000X-2.000000X1.700000X-3.000000X1.700000X3.000000X-1.700000X2.000000X180.000000*%
%ADD14C,8.000000*%
%ADD15O,4.900000X3.000000*%
%ADD16C,2.210000*%
%ADD17C,1.524000*%
%ADD18C,2.400000*%
%ADD19C,1.600000*%
G04 APERTURE END LIST*
D10*
%TO.C,J5*%
X239500000Y-197104000D03*
X236000000Y-197104000D03*
X232500000Y-197104000D03*
X229000000Y-197104000D03*
X225500000Y-197104000D03*
X222000000Y-197104000D03*
X218500000Y-197104000D03*
X201000000Y-197104000D03*
X197500000Y-197104000D03*
X194000000Y-197104000D03*
X190500000Y-197104000D03*
X187000000Y-197104000D03*
X183500000Y-197104000D03*
X180000000Y-197104000D03*
X176500000Y-197104000D03*
%TD*%
D11*
%TO.C,LA13b1*%
X326286000Y-167150000D03*
X313286000Y-167150000D03*
%TD*%
D12*
%TO.C,U2*%
X59000000Y-171958000D03*
D13*
X66000000Y-171958000D03*
D14*
X62500000Y-161958000D03*
D12*
X59000000Y-151958000D03*
D13*
X66000000Y-151958000D03*
%TD*%
D12*
%TO.C,U1*%
X350068000Y-171958000D03*
D13*
X357068000Y-171958000D03*
D14*
X353568000Y-161958000D03*
D12*
X350068000Y-151958000D03*
D13*
X357068000Y-151958000D03*
%TD*%
D11*
%TO.C,LA13a1*%
X102900000Y-167150000D03*
X89900000Y-167150000D03*
%TD*%
D15*
%TO.C,J4*%
X222250000Y-102870000D03*
X222250000Y-106370000D03*
X222250000Y-109870000D03*
X222250000Y-113370000D03*
X222250000Y-116870000D03*
X222250000Y-120370000D03*
X222250000Y-123870000D03*
X222250000Y-127370000D03*
X222250000Y-130870000D03*
X222250000Y-134370000D03*
X222250000Y-137870000D03*
X213250000Y-106370000D03*
X213250000Y-109870000D03*
X213250000Y-113370000D03*
X213250000Y-116870000D03*
X213250000Y-120370000D03*
%TD*%
D16*
%TO.C,J2*%
X77460000Y-151460000D03*
X80500000Y-156760000D03*
D17*
X79460000Y-154000000D03*
X79460000Y-151460000D03*
X79460000Y-148920000D03*
X79460000Y-146380000D03*
X79460000Y-143840000D03*
X79460000Y-141300000D03*
X79460000Y-138760000D03*
X79460000Y-136220000D03*
X79460000Y-133680000D03*
X79460000Y-131140000D03*
X79460000Y-128600000D03*
X79460000Y-126060000D03*
X79460000Y-123520000D03*
X82000000Y-154000000D03*
X82000000Y-151460000D03*
X82000000Y-148920000D03*
X82000000Y-146380000D03*
X82000000Y-143840000D03*
X82000000Y-141300000D03*
X82000000Y-138760000D03*
X82000000Y-136220000D03*
X82000000Y-133680000D03*
X82000000Y-131140000D03*
X82000000Y-128600000D03*
X82000000Y-126060000D03*
X82000000Y-123520000D03*
%TD*%
D16*
%TO.C,J3*%
X233860000Y-185540000D03*
D17*
X230860000Y-183540000D03*
X228320000Y-183540000D03*
X225780000Y-183540000D03*
X223240000Y-183540000D03*
X220700000Y-183540000D03*
X218160000Y-183540000D03*
X215620000Y-183540000D03*
X213080000Y-183540000D03*
X210540000Y-183540000D03*
X208000000Y-183540000D03*
X205460000Y-183540000D03*
X202920000Y-183540000D03*
X200380000Y-183540000D03*
X230860000Y-181000000D03*
X228320000Y-181000000D03*
X225780000Y-181000000D03*
X223240000Y-181000000D03*
X220700000Y-181000000D03*
X218160000Y-181000000D03*
X215620000Y-181000000D03*
X213080000Y-181000000D03*
X210540000Y-181000000D03*
X208000000Y-181000000D03*
X205460000Y-181000000D03*
X202920000Y-181000000D03*
X200380000Y-181000000D03*
%TD*%
D16*
%TO.C,J1*%
X332960000Y-142860000D03*
X338500000Y-156260000D03*
D17*
X334960000Y-154000000D03*
X334960000Y-151460000D03*
X334960000Y-148920000D03*
X334960000Y-146380000D03*
X334960000Y-143840000D03*
X334960000Y-141300000D03*
X334960000Y-138760000D03*
X334960000Y-136220000D03*
X334960000Y-133680000D03*
X334960000Y-131140000D03*
X334960000Y-128600000D03*
X334960000Y-126060000D03*
X334960000Y-123520000D03*
X337500000Y-154000000D03*
X337500000Y-151460000D03*
X337500000Y-148920000D03*
X337500000Y-146380000D03*
X337500000Y-143840000D03*
X337500000Y-141300000D03*
X337500000Y-138760000D03*
X337500000Y-136220000D03*
X337500000Y-133680000D03*
X337500000Y-131140000D03*
X337500000Y-128600000D03*
X337500000Y-126060000D03*
X337500000Y-123520000D03*
%TD*%
D18*
%TO.C,R2*%
X364000000Y-151840000D03*
X364000000Y-172160000D03*
%TD*%
%TO.C,R4*%
X337312000Y-162814000D03*
X337312000Y-178054000D03*
%TD*%
%TO.C,R3*%
X52070000Y-151638000D03*
X52070000Y-171958000D03*
%TD*%
D19*
%TO.C,R1*%
X320294000Y-149606000D03*
X320294000Y-139446000D03*
%TD*%
M02*
