%TF.GenerationSoftware,KiCad,Pcbnew,9.0.4-1.fc42app3*%
%TF.CreationDate,2025-10-25T21:48:41-04:00*%
%TF.ProjectId,BMW_E30_Early_Cluster_Nexus,424d575f-4533-4305-9f45-61726c795f43,rev?*%
%TF.SameCoordinates,Original*%
%TF.FileFunction,AssemblyDrawing,Top*%
%FSLAX46Y46*%
G04 Gerber Fmt 4.6, Leading zero omitted, Abs format (unit mm)*
G04 Created by KiCad (PCBNEW 9.0.4-1.fc42app3) date 2025-10-25 21:48:41*
%MOMM*%
%LPD*%
G01*
G04 APERTURE LIST*
%ADD10C,0.150000*%
%ADD11C,0.050000*%
G04 APERTURE END LIST*
D10*
X201135158Y-184403669D02*
X201087539Y-184451289D01*
X201087539Y-184451289D02*
X200944682Y-184498908D01*
X200944682Y-184498908D02*
X200849444Y-184498908D01*
X200849444Y-184498908D02*
X200706587Y-184451289D01*
X200706587Y-184451289D02*
X200611349Y-184356050D01*
X200611349Y-184356050D02*
X200563730Y-184260812D01*
X200563730Y-184260812D02*
X200516111Y-184070336D01*
X200516111Y-184070336D02*
X200516111Y-183927479D01*
X200516111Y-183927479D02*
X200563730Y-183737003D01*
X200563730Y-183737003D02*
X200611349Y-183641765D01*
X200611349Y-183641765D02*
X200706587Y-183546527D01*
X200706587Y-183546527D02*
X200849444Y-183498908D01*
X200849444Y-183498908D02*
X200944682Y-183498908D01*
X200944682Y-183498908D02*
X201087539Y-183546527D01*
X201087539Y-183546527D02*
X201135158Y-183594146D01*
X201706587Y-184498908D02*
X201611349Y-184451289D01*
X201611349Y-184451289D02*
X201563730Y-184403669D01*
X201563730Y-184403669D02*
X201516111Y-184308431D01*
X201516111Y-184308431D02*
X201516111Y-184022717D01*
X201516111Y-184022717D02*
X201563730Y-183927479D01*
X201563730Y-183927479D02*
X201611349Y-183879860D01*
X201611349Y-183879860D02*
X201706587Y-183832241D01*
X201706587Y-183832241D02*
X201849444Y-183832241D01*
X201849444Y-183832241D02*
X201944682Y-183879860D01*
X201944682Y-183879860D02*
X201992301Y-183927479D01*
X201992301Y-183927479D02*
X202039920Y-184022717D01*
X202039920Y-184022717D02*
X202039920Y-184308431D01*
X202039920Y-184308431D02*
X201992301Y-184403669D01*
X201992301Y-184403669D02*
X201944682Y-184451289D01*
X201944682Y-184451289D02*
X201849444Y-184498908D01*
X201849444Y-184498908D02*
X201706587Y-184498908D01*
X202468492Y-183832241D02*
X202468492Y-184498908D01*
X202468492Y-183927479D02*
X202516111Y-183879860D01*
X202516111Y-183879860D02*
X202611349Y-183832241D01*
X202611349Y-183832241D02*
X202754206Y-183832241D01*
X202754206Y-183832241D02*
X202849444Y-183879860D01*
X202849444Y-183879860D02*
X202897063Y-183975098D01*
X202897063Y-183975098D02*
X202897063Y-184498908D01*
X203373254Y-183832241D02*
X203373254Y-184498908D01*
X203373254Y-183927479D02*
X203420873Y-183879860D01*
X203420873Y-183879860D02*
X203516111Y-183832241D01*
X203516111Y-183832241D02*
X203658968Y-183832241D01*
X203658968Y-183832241D02*
X203754206Y-183879860D01*
X203754206Y-183879860D02*
X203801825Y-183975098D01*
X203801825Y-183975098D02*
X203801825Y-184498908D01*
X204039921Y-184594146D02*
X204801825Y-184594146D01*
X205230397Y-183498908D02*
X205325635Y-183498908D01*
X205325635Y-183498908D02*
X205420873Y-183546527D01*
X205420873Y-183546527D02*
X205468492Y-183594146D01*
X205468492Y-183594146D02*
X205516111Y-183689384D01*
X205516111Y-183689384D02*
X205563730Y-183879860D01*
X205563730Y-183879860D02*
X205563730Y-184117955D01*
X205563730Y-184117955D02*
X205516111Y-184308431D01*
X205516111Y-184308431D02*
X205468492Y-184403669D01*
X205468492Y-184403669D02*
X205420873Y-184451289D01*
X205420873Y-184451289D02*
X205325635Y-184498908D01*
X205325635Y-184498908D02*
X205230397Y-184498908D01*
X205230397Y-184498908D02*
X205135159Y-184451289D01*
X205135159Y-184451289D02*
X205087540Y-184403669D01*
X205087540Y-184403669D02*
X205039921Y-184308431D01*
X205039921Y-184308431D02*
X204992302Y-184117955D01*
X204992302Y-184117955D02*
X204992302Y-183879860D01*
X204992302Y-183879860D02*
X205039921Y-183689384D01*
X205039921Y-183689384D02*
X205087540Y-183594146D01*
X205087540Y-183594146D02*
X205135159Y-183546527D01*
X205135159Y-183546527D02*
X205230397Y-183498908D01*
X206516111Y-184498908D02*
X205944683Y-184498908D01*
X206230397Y-184498908D02*
X206230397Y-183498908D01*
X206230397Y-183498908D02*
X206135159Y-183641765D01*
X206135159Y-183641765D02*
X206039921Y-183737003D01*
X206039921Y-183737003D02*
X205944683Y-183784622D01*
X206849445Y-184498908D02*
X207373254Y-183832241D01*
X206849445Y-183832241D02*
X207373254Y-184498908D01*
X208278016Y-184498908D02*
X207706588Y-184498908D01*
X207992302Y-184498908D02*
X207992302Y-183498908D01*
X207992302Y-183498908D02*
X207897064Y-183641765D01*
X207897064Y-183641765D02*
X207801826Y-183737003D01*
X207801826Y-183737003D02*
X207706588Y-183784622D01*
X208754207Y-184498908D02*
X208944683Y-184498908D01*
X208944683Y-184498908D02*
X209039921Y-184451289D01*
X209039921Y-184451289D02*
X209087540Y-184403669D01*
X209087540Y-184403669D02*
X209182778Y-184260812D01*
X209182778Y-184260812D02*
X209230397Y-184070336D01*
X209230397Y-184070336D02*
X209230397Y-183689384D01*
X209230397Y-183689384D02*
X209182778Y-183594146D01*
X209182778Y-183594146D02*
X209135159Y-183546527D01*
X209135159Y-183546527D02*
X209039921Y-183498908D01*
X209039921Y-183498908D02*
X208849445Y-183498908D01*
X208849445Y-183498908D02*
X208754207Y-183546527D01*
X208754207Y-183546527D02*
X208706588Y-183594146D01*
X208706588Y-183594146D02*
X208658969Y-183689384D01*
X208658969Y-183689384D02*
X208658969Y-183927479D01*
X208658969Y-183927479D02*
X208706588Y-184022717D01*
X208706588Y-184022717D02*
X208754207Y-184070336D01*
X208754207Y-184070336D02*
X208849445Y-184117955D01*
X208849445Y-184117955D02*
X209039921Y-184117955D01*
X209039921Y-184117955D02*
X209135159Y-184070336D01*
X209135159Y-184070336D02*
X209182778Y-184022717D01*
X209182778Y-184022717D02*
X209230397Y-183927479D01*
X209420874Y-184594146D02*
X210182778Y-184594146D01*
X210373255Y-184451289D02*
X210516112Y-184498908D01*
X210516112Y-184498908D02*
X210754207Y-184498908D01*
X210754207Y-184498908D02*
X210849445Y-184451289D01*
X210849445Y-184451289D02*
X210897064Y-184403669D01*
X210897064Y-184403669D02*
X210944683Y-184308431D01*
X210944683Y-184308431D02*
X210944683Y-184213193D01*
X210944683Y-184213193D02*
X210897064Y-184117955D01*
X210897064Y-184117955D02*
X210849445Y-184070336D01*
X210849445Y-184070336D02*
X210754207Y-184022717D01*
X210754207Y-184022717D02*
X210563731Y-183975098D01*
X210563731Y-183975098D02*
X210468493Y-183927479D01*
X210468493Y-183927479D02*
X210420874Y-183879860D01*
X210420874Y-183879860D02*
X210373255Y-183784622D01*
X210373255Y-183784622D02*
X210373255Y-183689384D01*
X210373255Y-183689384D02*
X210420874Y-183594146D01*
X210420874Y-183594146D02*
X210468493Y-183546527D01*
X210468493Y-183546527D02*
X210563731Y-183498908D01*
X210563731Y-183498908D02*
X210801826Y-183498908D01*
X210801826Y-183498908D02*
X210944683Y-183546527D01*
X211516112Y-184498908D02*
X211420874Y-184451289D01*
X211420874Y-184451289D02*
X211373255Y-184403669D01*
X211373255Y-184403669D02*
X211325636Y-184308431D01*
X211325636Y-184308431D02*
X211325636Y-184022717D01*
X211325636Y-184022717D02*
X211373255Y-183927479D01*
X211373255Y-183927479D02*
X211420874Y-183879860D01*
X211420874Y-183879860D02*
X211516112Y-183832241D01*
X211516112Y-183832241D02*
X211658969Y-183832241D01*
X211658969Y-183832241D02*
X211754207Y-183879860D01*
X211754207Y-183879860D02*
X211801826Y-183927479D01*
X211801826Y-183927479D02*
X211849445Y-184022717D01*
X211849445Y-184022717D02*
X211849445Y-184308431D01*
X211849445Y-184308431D02*
X211801826Y-184403669D01*
X211801826Y-184403669D02*
X211754207Y-184451289D01*
X211754207Y-184451289D02*
X211658969Y-184498908D01*
X211658969Y-184498908D02*
X211516112Y-184498908D01*
X212706588Y-184451289D02*
X212611350Y-184498908D01*
X212611350Y-184498908D02*
X212420874Y-184498908D01*
X212420874Y-184498908D02*
X212325636Y-184451289D01*
X212325636Y-184451289D02*
X212278017Y-184403669D01*
X212278017Y-184403669D02*
X212230398Y-184308431D01*
X212230398Y-184308431D02*
X212230398Y-184022717D01*
X212230398Y-184022717D02*
X212278017Y-183927479D01*
X212278017Y-183927479D02*
X212325636Y-183879860D01*
X212325636Y-183879860D02*
X212420874Y-183832241D01*
X212420874Y-183832241D02*
X212611350Y-183832241D01*
X212611350Y-183832241D02*
X212706588Y-183879860D01*
X213135160Y-184498908D02*
X213135160Y-183498908D01*
X213230398Y-184117955D02*
X213516112Y-184498908D01*
X213516112Y-183832241D02*
X213135160Y-184213193D01*
X214325636Y-184451289D02*
X214230398Y-184498908D01*
X214230398Y-184498908D02*
X214039922Y-184498908D01*
X214039922Y-184498908D02*
X213944684Y-184451289D01*
X213944684Y-184451289D02*
X213897065Y-184356050D01*
X213897065Y-184356050D02*
X213897065Y-183975098D01*
X213897065Y-183975098D02*
X213944684Y-183879860D01*
X213944684Y-183879860D02*
X214039922Y-183832241D01*
X214039922Y-183832241D02*
X214230398Y-183832241D01*
X214230398Y-183832241D02*
X214325636Y-183879860D01*
X214325636Y-183879860D02*
X214373255Y-183975098D01*
X214373255Y-183975098D02*
X214373255Y-184070336D01*
X214373255Y-184070336D02*
X213897065Y-184165574D01*
X214658970Y-183832241D02*
X215039922Y-183832241D01*
X214801827Y-183498908D02*
X214801827Y-184356050D01*
X214801827Y-184356050D02*
X214849446Y-184451289D01*
X214849446Y-184451289D02*
X214944684Y-184498908D01*
X214944684Y-184498908D02*
X215039922Y-184498908D01*
X207397064Y-184998908D02*
X207397064Y-185713193D01*
X207397064Y-185713193D02*
X207349445Y-185856050D01*
X207349445Y-185856050D02*
X207254207Y-185951289D01*
X207254207Y-185951289D02*
X207111350Y-185998908D01*
X207111350Y-185998908D02*
X207016112Y-185998908D01*
X208349445Y-184998908D02*
X207873255Y-184998908D01*
X207873255Y-184998908D02*
X207825636Y-185475098D01*
X207825636Y-185475098D02*
X207873255Y-185427479D01*
X207873255Y-185427479D02*
X207968493Y-185379860D01*
X207968493Y-185379860D02*
X208206588Y-185379860D01*
X208206588Y-185379860D02*
X208301826Y-185427479D01*
X208301826Y-185427479D02*
X208349445Y-185475098D01*
X208349445Y-185475098D02*
X208397064Y-185570336D01*
X208397064Y-185570336D02*
X208397064Y-185808431D01*
X208397064Y-185808431D02*
X208349445Y-185903669D01*
X208349445Y-185903669D02*
X208301826Y-185951289D01*
X208301826Y-185951289D02*
X208206588Y-185998908D01*
X208206588Y-185998908D02*
X207968493Y-185998908D01*
X207968493Y-185998908D02*
X207873255Y-185951289D01*
X207873255Y-185951289D02*
X207825636Y-185903669D01*
X326675999Y-163694819D02*
X326199809Y-163694819D01*
X326199809Y-163694819D02*
X326199809Y-162694819D01*
X326961714Y-163409104D02*
X327437904Y-163409104D01*
X326866476Y-163694819D02*
X327199809Y-162694819D01*
X327199809Y-162694819D02*
X327533142Y-163694819D01*
X328390285Y-163694819D02*
X327818857Y-163694819D01*
X328104571Y-163694819D02*
X328104571Y-162694819D01*
X328104571Y-162694819D02*
X328009333Y-162837676D01*
X328009333Y-162837676D02*
X327914095Y-162932914D01*
X327914095Y-162932914D02*
X327818857Y-162980533D01*
X328723619Y-162694819D02*
X329342666Y-162694819D01*
X329342666Y-162694819D02*
X329009333Y-163075771D01*
X329009333Y-163075771D02*
X329152190Y-163075771D01*
X329152190Y-163075771D02*
X329247428Y-163123390D01*
X329247428Y-163123390D02*
X329295047Y-163171009D01*
X329295047Y-163171009D02*
X329342666Y-163266247D01*
X329342666Y-163266247D02*
X329342666Y-163504342D01*
X329342666Y-163504342D02*
X329295047Y-163599580D01*
X329295047Y-163599580D02*
X329247428Y-163647200D01*
X329247428Y-163647200D02*
X329152190Y-163694819D01*
X329152190Y-163694819D02*
X328866476Y-163694819D01*
X328866476Y-163694819D02*
X328771238Y-163647200D01*
X328771238Y-163647200D02*
X328723619Y-163599580D01*
X329771238Y-163694819D02*
X329771238Y-162694819D01*
X329771238Y-163075771D02*
X329866476Y-163028152D01*
X329866476Y-163028152D02*
X330056952Y-163028152D01*
X330056952Y-163028152D02*
X330152190Y-163075771D01*
X330152190Y-163075771D02*
X330199809Y-163123390D01*
X330199809Y-163123390D02*
X330247428Y-163218628D01*
X330247428Y-163218628D02*
X330247428Y-163504342D01*
X330247428Y-163504342D02*
X330199809Y-163599580D01*
X330199809Y-163599580D02*
X330152190Y-163647200D01*
X330152190Y-163647200D02*
X330056952Y-163694819D01*
X330056952Y-163694819D02*
X329866476Y-163694819D01*
X329866476Y-163694819D02*
X329771238Y-163647200D01*
X331199809Y-163694819D02*
X330628381Y-163694819D01*
X330914095Y-163694819D02*
X330914095Y-162694819D01*
X330914095Y-162694819D02*
X330818857Y-162837676D01*
X330818857Y-162837676D02*
X330723619Y-162932914D01*
X330723619Y-162932914D02*
X330628381Y-162980533D01*
X359300819Y-188777428D02*
X359300819Y-189253618D01*
X359300819Y-189253618D02*
X358300819Y-189253618D01*
X359015104Y-188491713D02*
X359015104Y-188015523D01*
X359300819Y-188586951D02*
X358300819Y-188253618D01*
X358300819Y-188253618D02*
X359300819Y-187920285D01*
X359300819Y-187063142D02*
X359300819Y-187634570D01*
X359300819Y-187348856D02*
X358300819Y-187348856D01*
X358300819Y-187348856D02*
X358443676Y-187444094D01*
X358443676Y-187444094D02*
X358538914Y-187539332D01*
X358538914Y-187539332D02*
X358586533Y-187634570D01*
X358396057Y-186682189D02*
X358348438Y-186634570D01*
X358348438Y-186634570D02*
X358300819Y-186539332D01*
X358300819Y-186539332D02*
X358300819Y-186301237D01*
X358300819Y-186301237D02*
X358348438Y-186205999D01*
X358348438Y-186205999D02*
X358396057Y-186158380D01*
X358396057Y-186158380D02*
X358491295Y-186110761D01*
X358491295Y-186110761D02*
X358586533Y-186110761D01*
X358586533Y-186110761D02*
X358729390Y-186158380D01*
X358729390Y-186158380D02*
X359300819Y-186729808D01*
X359300819Y-186729808D02*
X359300819Y-186110761D01*
X60812623Y-144697813D02*
X60479290Y-144697813D01*
X60479290Y-145221623D02*
X60479290Y-144221623D01*
X60479290Y-144221623D02*
X60955480Y-144221623D01*
X61765004Y-144554956D02*
X61765004Y-145221623D01*
X61336433Y-144554956D02*
X61336433Y-145078765D01*
X61336433Y-145078765D02*
X61384052Y-145174004D01*
X61384052Y-145174004D02*
X61479290Y-145221623D01*
X61479290Y-145221623D02*
X61622147Y-145221623D01*
X61622147Y-145221623D02*
X61717385Y-145174004D01*
X61717385Y-145174004D02*
X61765004Y-145126384D01*
X62622147Y-145174004D02*
X62526909Y-145221623D01*
X62526909Y-145221623D02*
X62336433Y-145221623D01*
X62336433Y-145221623D02*
X62241195Y-145174004D01*
X62241195Y-145174004D02*
X62193576Y-145078765D01*
X62193576Y-145078765D02*
X62193576Y-144697813D01*
X62193576Y-144697813D02*
X62241195Y-144602575D01*
X62241195Y-144602575D02*
X62336433Y-144554956D01*
X62336433Y-144554956D02*
X62526909Y-144554956D01*
X62526909Y-144554956D02*
X62622147Y-144602575D01*
X62622147Y-144602575D02*
X62669766Y-144697813D01*
X62669766Y-144697813D02*
X62669766Y-144793051D01*
X62669766Y-144793051D02*
X62193576Y-144888289D01*
X63241195Y-145221623D02*
X63145957Y-145174004D01*
X63145957Y-145174004D02*
X63098338Y-145078765D01*
X63098338Y-145078765D02*
X63098338Y-144221623D01*
X64907862Y-144269242D02*
X64812624Y-144221623D01*
X64812624Y-144221623D02*
X64669767Y-144221623D01*
X64669767Y-144221623D02*
X64526910Y-144269242D01*
X64526910Y-144269242D02*
X64431672Y-144364480D01*
X64431672Y-144364480D02*
X64384053Y-144459718D01*
X64384053Y-144459718D02*
X64336434Y-144650194D01*
X64336434Y-144650194D02*
X64336434Y-144793051D01*
X64336434Y-144793051D02*
X64384053Y-144983527D01*
X64384053Y-144983527D02*
X64431672Y-145078765D01*
X64431672Y-145078765D02*
X64526910Y-145174004D01*
X64526910Y-145174004D02*
X64669767Y-145221623D01*
X64669767Y-145221623D02*
X64765005Y-145221623D01*
X64765005Y-145221623D02*
X64907862Y-145174004D01*
X64907862Y-145174004D02*
X64955481Y-145126384D01*
X64955481Y-145126384D02*
X64955481Y-144793051D01*
X64955481Y-144793051D02*
X64765005Y-144793051D01*
X65812624Y-145221623D02*
X65812624Y-144697813D01*
X65812624Y-144697813D02*
X65765005Y-144602575D01*
X65765005Y-144602575D02*
X65669767Y-144554956D01*
X65669767Y-144554956D02*
X65479291Y-144554956D01*
X65479291Y-144554956D02*
X65384053Y-144602575D01*
X65812624Y-145174004D02*
X65717386Y-145221623D01*
X65717386Y-145221623D02*
X65479291Y-145221623D01*
X65479291Y-145221623D02*
X65384053Y-145174004D01*
X65384053Y-145174004D02*
X65336434Y-145078765D01*
X65336434Y-145078765D02*
X65336434Y-144983527D01*
X65336434Y-144983527D02*
X65384053Y-144888289D01*
X65384053Y-144888289D02*
X65479291Y-144840670D01*
X65479291Y-144840670D02*
X65717386Y-144840670D01*
X65717386Y-144840670D02*
X65812624Y-144793051D01*
X66717386Y-144554956D02*
X66717386Y-145221623D01*
X66288815Y-144554956D02*
X66288815Y-145078765D01*
X66288815Y-145078765D02*
X66336434Y-145174004D01*
X66336434Y-145174004D02*
X66431672Y-145221623D01*
X66431672Y-145221623D02*
X66574529Y-145221623D01*
X66574529Y-145221623D02*
X66669767Y-145174004D01*
X66669767Y-145174004D02*
X66717386Y-145126384D01*
X67622148Y-144554956D02*
X67622148Y-145364480D01*
X67622148Y-145364480D02*
X67574529Y-145459718D01*
X67574529Y-145459718D02*
X67526910Y-145507337D01*
X67526910Y-145507337D02*
X67431672Y-145554956D01*
X67431672Y-145554956D02*
X67288815Y-145554956D01*
X67288815Y-145554956D02*
X67193577Y-145507337D01*
X67622148Y-145174004D02*
X67526910Y-145221623D01*
X67526910Y-145221623D02*
X67336434Y-145221623D01*
X67336434Y-145221623D02*
X67241196Y-145174004D01*
X67241196Y-145174004D02*
X67193577Y-145126384D01*
X67193577Y-145126384D02*
X67145958Y-145031146D01*
X67145958Y-145031146D02*
X67145958Y-144745432D01*
X67145958Y-144745432D02*
X67193577Y-144650194D01*
X67193577Y-144650194D02*
X67241196Y-144602575D01*
X67241196Y-144602575D02*
X67336434Y-144554956D01*
X67336434Y-144554956D02*
X67526910Y-144554956D01*
X67526910Y-144554956D02*
X67622148Y-144602575D01*
X68479291Y-145174004D02*
X68384053Y-145221623D01*
X68384053Y-145221623D02*
X68193577Y-145221623D01*
X68193577Y-145221623D02*
X68098339Y-145174004D01*
X68098339Y-145174004D02*
X68050720Y-145078765D01*
X68050720Y-145078765D02*
X68050720Y-144697813D01*
X68050720Y-144697813D02*
X68098339Y-144602575D01*
X68098339Y-144602575D02*
X68193577Y-144554956D01*
X68193577Y-144554956D02*
X68384053Y-144554956D01*
X68384053Y-144554956D02*
X68479291Y-144602575D01*
X68479291Y-144602575D02*
X68526910Y-144697813D01*
X68526910Y-144697813D02*
X68526910Y-144793051D01*
X68526910Y-144793051D02*
X68050720Y-144888289D01*
X63717386Y-145721623D02*
X63717386Y-146531146D01*
X63717386Y-146531146D02*
X63765005Y-146626384D01*
X63765005Y-146626384D02*
X63812624Y-146674004D01*
X63812624Y-146674004D02*
X63907862Y-146721623D01*
X63907862Y-146721623D02*
X64098338Y-146721623D01*
X64098338Y-146721623D02*
X64193576Y-146674004D01*
X64193576Y-146674004D02*
X64241195Y-146626384D01*
X64241195Y-146626384D02*
X64288814Y-146531146D01*
X64288814Y-146531146D02*
X64288814Y-145721623D01*
X64717386Y-145816861D02*
X64765005Y-145769242D01*
X64765005Y-145769242D02*
X64860243Y-145721623D01*
X64860243Y-145721623D02*
X65098338Y-145721623D01*
X65098338Y-145721623D02*
X65193576Y-145769242D01*
X65193576Y-145769242D02*
X65241195Y-145816861D01*
X65241195Y-145816861D02*
X65288814Y-145912099D01*
X65288814Y-145912099D02*
X65288814Y-146007337D01*
X65288814Y-146007337D02*
X65241195Y-146150194D01*
X65241195Y-146150194D02*
X64669767Y-146721623D01*
X64669767Y-146721623D02*
X65288814Y-146721623D01*
X348380623Y-144221623D02*
X348952051Y-144221623D01*
X348666337Y-145221623D02*
X348666337Y-144221623D01*
X349666337Y-145174004D02*
X349571099Y-145221623D01*
X349571099Y-145221623D02*
X349380623Y-145221623D01*
X349380623Y-145221623D02*
X349285385Y-145174004D01*
X349285385Y-145174004D02*
X349237766Y-145078765D01*
X349237766Y-145078765D02*
X349237766Y-144697813D01*
X349237766Y-144697813D02*
X349285385Y-144602575D01*
X349285385Y-144602575D02*
X349380623Y-144554956D01*
X349380623Y-144554956D02*
X349571099Y-144554956D01*
X349571099Y-144554956D02*
X349666337Y-144602575D01*
X349666337Y-144602575D02*
X349713956Y-144697813D01*
X349713956Y-144697813D02*
X349713956Y-144793051D01*
X349713956Y-144793051D02*
X349237766Y-144888289D01*
X350142528Y-145221623D02*
X350142528Y-144554956D01*
X350142528Y-144650194D02*
X350190147Y-144602575D01*
X350190147Y-144602575D02*
X350285385Y-144554956D01*
X350285385Y-144554956D02*
X350428242Y-144554956D01*
X350428242Y-144554956D02*
X350523480Y-144602575D01*
X350523480Y-144602575D02*
X350571099Y-144697813D01*
X350571099Y-144697813D02*
X350571099Y-145221623D01*
X350571099Y-144697813D02*
X350618718Y-144602575D01*
X350618718Y-144602575D02*
X350713956Y-144554956D01*
X350713956Y-144554956D02*
X350856813Y-144554956D01*
X350856813Y-144554956D02*
X350952052Y-144602575D01*
X350952052Y-144602575D02*
X350999671Y-144697813D01*
X350999671Y-144697813D02*
X350999671Y-145221623D01*
X351475861Y-144554956D02*
X351475861Y-145554956D01*
X351475861Y-144602575D02*
X351571099Y-144554956D01*
X351571099Y-144554956D02*
X351761575Y-144554956D01*
X351761575Y-144554956D02*
X351856813Y-144602575D01*
X351856813Y-144602575D02*
X351904432Y-144650194D01*
X351904432Y-144650194D02*
X351952051Y-144745432D01*
X351952051Y-144745432D02*
X351952051Y-145031146D01*
X351952051Y-145031146D02*
X351904432Y-145126384D01*
X351904432Y-145126384D02*
X351856813Y-145174004D01*
X351856813Y-145174004D02*
X351761575Y-145221623D01*
X351761575Y-145221623D02*
X351571099Y-145221623D01*
X351571099Y-145221623D02*
X351475861Y-145174004D01*
X352761575Y-145174004D02*
X352666337Y-145221623D01*
X352666337Y-145221623D02*
X352475861Y-145221623D01*
X352475861Y-145221623D02*
X352380623Y-145174004D01*
X352380623Y-145174004D02*
X352333004Y-145078765D01*
X352333004Y-145078765D02*
X352333004Y-144697813D01*
X352333004Y-144697813D02*
X352380623Y-144602575D01*
X352380623Y-144602575D02*
X352475861Y-144554956D01*
X352475861Y-144554956D02*
X352666337Y-144554956D01*
X352666337Y-144554956D02*
X352761575Y-144602575D01*
X352761575Y-144602575D02*
X352809194Y-144697813D01*
X352809194Y-144697813D02*
X352809194Y-144793051D01*
X352809194Y-144793051D02*
X352333004Y-144888289D01*
X353237766Y-145221623D02*
X353237766Y-144554956D01*
X353237766Y-144745432D02*
X353285385Y-144650194D01*
X353285385Y-144650194D02*
X353333004Y-144602575D01*
X353333004Y-144602575D02*
X353428242Y-144554956D01*
X353428242Y-144554956D02*
X353523480Y-144554956D01*
X354285385Y-145221623D02*
X354285385Y-144697813D01*
X354285385Y-144697813D02*
X354237766Y-144602575D01*
X354237766Y-144602575D02*
X354142528Y-144554956D01*
X354142528Y-144554956D02*
X353952052Y-144554956D01*
X353952052Y-144554956D02*
X353856814Y-144602575D01*
X354285385Y-145174004D02*
X354190147Y-145221623D01*
X354190147Y-145221623D02*
X353952052Y-145221623D01*
X353952052Y-145221623D02*
X353856814Y-145174004D01*
X353856814Y-145174004D02*
X353809195Y-145078765D01*
X353809195Y-145078765D02*
X353809195Y-144983527D01*
X353809195Y-144983527D02*
X353856814Y-144888289D01*
X353856814Y-144888289D02*
X353952052Y-144840670D01*
X353952052Y-144840670D02*
X354190147Y-144840670D01*
X354190147Y-144840670D02*
X354285385Y-144793051D01*
X354618719Y-144554956D02*
X354999671Y-144554956D01*
X354761576Y-144221623D02*
X354761576Y-145078765D01*
X354761576Y-145078765D02*
X354809195Y-145174004D01*
X354809195Y-145174004D02*
X354904433Y-145221623D01*
X354904433Y-145221623D02*
X354999671Y-145221623D01*
X355761576Y-144554956D02*
X355761576Y-145221623D01*
X355333005Y-144554956D02*
X355333005Y-145078765D01*
X355333005Y-145078765D02*
X355380624Y-145174004D01*
X355380624Y-145174004D02*
X355475862Y-145221623D01*
X355475862Y-145221623D02*
X355618719Y-145221623D01*
X355618719Y-145221623D02*
X355713957Y-145174004D01*
X355713957Y-145174004D02*
X355761576Y-145126384D01*
X356237767Y-145221623D02*
X356237767Y-144554956D01*
X356237767Y-144745432D02*
X356285386Y-144650194D01*
X356285386Y-144650194D02*
X356333005Y-144602575D01*
X356333005Y-144602575D02*
X356428243Y-144554956D01*
X356428243Y-144554956D02*
X356523481Y-144554956D01*
X357237767Y-145174004D02*
X357142529Y-145221623D01*
X357142529Y-145221623D02*
X356952053Y-145221623D01*
X356952053Y-145221623D02*
X356856815Y-145174004D01*
X356856815Y-145174004D02*
X356809196Y-145078765D01*
X356809196Y-145078765D02*
X356809196Y-144697813D01*
X356809196Y-144697813D02*
X356856815Y-144602575D01*
X356856815Y-144602575D02*
X356952053Y-144554956D01*
X356952053Y-144554956D02*
X357142529Y-144554956D01*
X357142529Y-144554956D02*
X357237767Y-144602575D01*
X357237767Y-144602575D02*
X357285386Y-144697813D01*
X357285386Y-144697813D02*
X357285386Y-144793051D01*
X357285386Y-144793051D02*
X356809196Y-144888289D01*
X358999672Y-144269242D02*
X358904434Y-144221623D01*
X358904434Y-144221623D02*
X358761577Y-144221623D01*
X358761577Y-144221623D02*
X358618720Y-144269242D01*
X358618720Y-144269242D02*
X358523482Y-144364480D01*
X358523482Y-144364480D02*
X358475863Y-144459718D01*
X358475863Y-144459718D02*
X358428244Y-144650194D01*
X358428244Y-144650194D02*
X358428244Y-144793051D01*
X358428244Y-144793051D02*
X358475863Y-144983527D01*
X358475863Y-144983527D02*
X358523482Y-145078765D01*
X358523482Y-145078765D02*
X358618720Y-145174004D01*
X358618720Y-145174004D02*
X358761577Y-145221623D01*
X358761577Y-145221623D02*
X358856815Y-145221623D01*
X358856815Y-145221623D02*
X358999672Y-145174004D01*
X358999672Y-145174004D02*
X359047291Y-145126384D01*
X359047291Y-145126384D02*
X359047291Y-144793051D01*
X359047291Y-144793051D02*
X358856815Y-144793051D01*
X359904434Y-145221623D02*
X359904434Y-144697813D01*
X359904434Y-144697813D02*
X359856815Y-144602575D01*
X359856815Y-144602575D02*
X359761577Y-144554956D01*
X359761577Y-144554956D02*
X359571101Y-144554956D01*
X359571101Y-144554956D02*
X359475863Y-144602575D01*
X359904434Y-145174004D02*
X359809196Y-145221623D01*
X359809196Y-145221623D02*
X359571101Y-145221623D01*
X359571101Y-145221623D02*
X359475863Y-145174004D01*
X359475863Y-145174004D02*
X359428244Y-145078765D01*
X359428244Y-145078765D02*
X359428244Y-144983527D01*
X359428244Y-144983527D02*
X359475863Y-144888289D01*
X359475863Y-144888289D02*
X359571101Y-144840670D01*
X359571101Y-144840670D02*
X359809196Y-144840670D01*
X359809196Y-144840670D02*
X359904434Y-144793051D01*
X360809196Y-144554956D02*
X360809196Y-145221623D01*
X360380625Y-144554956D02*
X360380625Y-145078765D01*
X360380625Y-145078765D02*
X360428244Y-145174004D01*
X360428244Y-145174004D02*
X360523482Y-145221623D01*
X360523482Y-145221623D02*
X360666339Y-145221623D01*
X360666339Y-145221623D02*
X360761577Y-145174004D01*
X360761577Y-145174004D02*
X360809196Y-145126384D01*
X361713958Y-144554956D02*
X361713958Y-145364480D01*
X361713958Y-145364480D02*
X361666339Y-145459718D01*
X361666339Y-145459718D02*
X361618720Y-145507337D01*
X361618720Y-145507337D02*
X361523482Y-145554956D01*
X361523482Y-145554956D02*
X361380625Y-145554956D01*
X361380625Y-145554956D02*
X361285387Y-145507337D01*
X361713958Y-145174004D02*
X361618720Y-145221623D01*
X361618720Y-145221623D02*
X361428244Y-145221623D01*
X361428244Y-145221623D02*
X361333006Y-145174004D01*
X361333006Y-145174004D02*
X361285387Y-145126384D01*
X361285387Y-145126384D02*
X361237768Y-145031146D01*
X361237768Y-145031146D02*
X361237768Y-144745432D01*
X361237768Y-144745432D02*
X361285387Y-144650194D01*
X361285387Y-144650194D02*
X361333006Y-144602575D01*
X361333006Y-144602575D02*
X361428244Y-144554956D01*
X361428244Y-144554956D02*
X361618720Y-144554956D01*
X361618720Y-144554956D02*
X361713958Y-144602575D01*
X362571101Y-145174004D02*
X362475863Y-145221623D01*
X362475863Y-145221623D02*
X362285387Y-145221623D01*
X362285387Y-145221623D02*
X362190149Y-145174004D01*
X362190149Y-145174004D02*
X362142530Y-145078765D01*
X362142530Y-145078765D02*
X362142530Y-144697813D01*
X362142530Y-144697813D02*
X362190149Y-144602575D01*
X362190149Y-144602575D02*
X362285387Y-144554956D01*
X362285387Y-144554956D02*
X362475863Y-144554956D01*
X362475863Y-144554956D02*
X362571101Y-144602575D01*
X362571101Y-144602575D02*
X362618720Y-144697813D01*
X362618720Y-144697813D02*
X362618720Y-144793051D01*
X362618720Y-144793051D02*
X362142530Y-144888289D01*
X354785386Y-145721623D02*
X354785386Y-146531146D01*
X354785386Y-146531146D02*
X354833005Y-146626384D01*
X354833005Y-146626384D02*
X354880624Y-146674004D01*
X354880624Y-146674004D02*
X354975862Y-146721623D01*
X354975862Y-146721623D02*
X355166338Y-146721623D01*
X355166338Y-146721623D02*
X355261576Y-146674004D01*
X355261576Y-146674004D02*
X355309195Y-146626384D01*
X355309195Y-146626384D02*
X355356814Y-146531146D01*
X355356814Y-146531146D02*
X355356814Y-145721623D01*
X356356814Y-146721623D02*
X355785386Y-146721623D01*
X356071100Y-146721623D02*
X356071100Y-145721623D01*
X356071100Y-145721623D02*
X355975862Y-145864480D01*
X355975862Y-145864480D02*
X355880624Y-145959718D01*
X355880624Y-145959718D02*
X355785386Y-146007337D01*
X103289999Y-163694819D02*
X102813809Y-163694819D01*
X102813809Y-163694819D02*
X102813809Y-162694819D01*
X103575714Y-163409104D02*
X104051904Y-163409104D01*
X103480476Y-163694819D02*
X103813809Y-162694819D01*
X103813809Y-162694819D02*
X104147142Y-163694819D01*
X105004285Y-163694819D02*
X104432857Y-163694819D01*
X104718571Y-163694819D02*
X104718571Y-162694819D01*
X104718571Y-162694819D02*
X104623333Y-162837676D01*
X104623333Y-162837676D02*
X104528095Y-162932914D01*
X104528095Y-162932914D02*
X104432857Y-162980533D01*
X105337619Y-162694819D02*
X105956666Y-162694819D01*
X105956666Y-162694819D02*
X105623333Y-163075771D01*
X105623333Y-163075771D02*
X105766190Y-163075771D01*
X105766190Y-163075771D02*
X105861428Y-163123390D01*
X105861428Y-163123390D02*
X105909047Y-163171009D01*
X105909047Y-163171009D02*
X105956666Y-163266247D01*
X105956666Y-163266247D02*
X105956666Y-163504342D01*
X105956666Y-163504342D02*
X105909047Y-163599580D01*
X105909047Y-163599580D02*
X105861428Y-163647200D01*
X105861428Y-163647200D02*
X105766190Y-163694819D01*
X105766190Y-163694819D02*
X105480476Y-163694819D01*
X105480476Y-163694819D02*
X105385238Y-163647200D01*
X105385238Y-163647200D02*
X105337619Y-163599580D01*
X106813809Y-163694819D02*
X106813809Y-163171009D01*
X106813809Y-163171009D02*
X106766190Y-163075771D01*
X106766190Y-163075771D02*
X106670952Y-163028152D01*
X106670952Y-163028152D02*
X106480476Y-163028152D01*
X106480476Y-163028152D02*
X106385238Y-163075771D01*
X106813809Y-163647200D02*
X106718571Y-163694819D01*
X106718571Y-163694819D02*
X106480476Y-163694819D01*
X106480476Y-163694819D02*
X106385238Y-163647200D01*
X106385238Y-163647200D02*
X106337619Y-163551961D01*
X106337619Y-163551961D02*
X106337619Y-163456723D01*
X106337619Y-163456723D02*
X106385238Y-163361485D01*
X106385238Y-163361485D02*
X106480476Y-163313866D01*
X106480476Y-163313866D02*
X106718571Y-163313866D01*
X106718571Y-163313866D02*
X106813809Y-163266247D01*
X107813809Y-163694819D02*
X107242381Y-163694819D01*
X107528095Y-163694819D02*
X107528095Y-162694819D01*
X107528095Y-162694819D02*
X107432857Y-162837676D01*
X107432857Y-162837676D02*
X107337619Y-162932914D01*
X107337619Y-162932914D02*
X107242381Y-162980533D01*
X198928571Y-83454819D02*
X198452381Y-83454819D01*
X198452381Y-83454819D02*
X198452381Y-82454819D01*
X199214286Y-83169104D02*
X199690476Y-83169104D01*
X199119048Y-83454819D02*
X199452381Y-82454819D01*
X199452381Y-82454819D02*
X199785714Y-83454819D01*
X200642857Y-83454819D02*
X200071429Y-83454819D01*
X200357143Y-83454819D02*
X200357143Y-82454819D01*
X200357143Y-82454819D02*
X200261905Y-82597676D01*
X200261905Y-82597676D02*
X200166667Y-82692914D01*
X200166667Y-82692914D02*
X200071429Y-82740533D01*
X201500000Y-82454819D02*
X201309524Y-82454819D01*
X201309524Y-82454819D02*
X201214286Y-82502438D01*
X201214286Y-82502438D02*
X201166667Y-82550057D01*
X201166667Y-82550057D02*
X201071429Y-82692914D01*
X201071429Y-82692914D02*
X201023810Y-82883390D01*
X201023810Y-82883390D02*
X201023810Y-83264342D01*
X201023810Y-83264342D02*
X201071429Y-83359580D01*
X201071429Y-83359580D02*
X201119048Y-83407200D01*
X201119048Y-83407200D02*
X201214286Y-83454819D01*
X201214286Y-83454819D02*
X201404762Y-83454819D01*
X201404762Y-83454819D02*
X201500000Y-83407200D01*
X201500000Y-83407200D02*
X201547619Y-83359580D01*
X201547619Y-83359580D02*
X201595238Y-83264342D01*
X201595238Y-83264342D02*
X201595238Y-83026247D01*
X201595238Y-83026247D02*
X201547619Y-82931009D01*
X201547619Y-82931009D02*
X201500000Y-82883390D01*
X201500000Y-82883390D02*
X201404762Y-82835771D01*
X201404762Y-82835771D02*
X201214286Y-82835771D01*
X201214286Y-82835771D02*
X201119048Y-82883390D01*
X201119048Y-82883390D02*
X201071429Y-82931009D01*
X201071429Y-82931009D02*
X201023810Y-83026247D01*
X268698761Y-197160819D02*
X268222571Y-197160819D01*
X268222571Y-197160819D02*
X268222571Y-196160819D01*
X268984476Y-196875104D02*
X269460666Y-196875104D01*
X268889238Y-197160819D02*
X269222571Y-196160819D01*
X269222571Y-196160819D02*
X269555904Y-197160819D01*
X270032095Y-196589390D02*
X269936857Y-196541771D01*
X269936857Y-196541771D02*
X269889238Y-196494152D01*
X269889238Y-196494152D02*
X269841619Y-196398914D01*
X269841619Y-196398914D02*
X269841619Y-196351295D01*
X269841619Y-196351295D02*
X269889238Y-196256057D01*
X269889238Y-196256057D02*
X269936857Y-196208438D01*
X269936857Y-196208438D02*
X270032095Y-196160819D01*
X270032095Y-196160819D02*
X270222571Y-196160819D01*
X270222571Y-196160819D02*
X270317809Y-196208438D01*
X270317809Y-196208438D02*
X270365428Y-196256057D01*
X270365428Y-196256057D02*
X270413047Y-196351295D01*
X270413047Y-196351295D02*
X270413047Y-196398914D01*
X270413047Y-196398914D02*
X270365428Y-196494152D01*
X270365428Y-196494152D02*
X270317809Y-196541771D01*
X270317809Y-196541771D02*
X270222571Y-196589390D01*
X270222571Y-196589390D02*
X270032095Y-196589390D01*
X270032095Y-196589390D02*
X269936857Y-196637009D01*
X269936857Y-196637009D02*
X269889238Y-196684628D01*
X269889238Y-196684628D02*
X269841619Y-196779866D01*
X269841619Y-196779866D02*
X269841619Y-196970342D01*
X269841619Y-196970342D02*
X269889238Y-197065580D01*
X269889238Y-197065580D02*
X269936857Y-197113200D01*
X269936857Y-197113200D02*
X270032095Y-197160819D01*
X270032095Y-197160819D02*
X270222571Y-197160819D01*
X270222571Y-197160819D02*
X270317809Y-197113200D01*
X270317809Y-197113200D02*
X270365428Y-197065580D01*
X270365428Y-197065580D02*
X270413047Y-196970342D01*
X270413047Y-196970342D02*
X270413047Y-196779866D01*
X270413047Y-196779866D02*
X270365428Y-196684628D01*
X270365428Y-196684628D02*
X270317809Y-196637009D01*
X270317809Y-196637009D02*
X270222571Y-196589390D01*
X248518761Y-197160819D02*
X248042571Y-197160819D01*
X248042571Y-197160819D02*
X248042571Y-196160819D01*
X248804476Y-196875104D02*
X249280666Y-196875104D01*
X248709238Y-197160819D02*
X249042571Y-196160819D01*
X249042571Y-196160819D02*
X249375904Y-197160819D01*
X249614000Y-196160819D02*
X250280666Y-196160819D01*
X250280666Y-196160819D02*
X249852095Y-197160819D01*
X288904761Y-197160819D02*
X288428571Y-197160819D01*
X288428571Y-197160819D02*
X288428571Y-196160819D01*
X289190476Y-196875104D02*
X289666666Y-196875104D01*
X289095238Y-197160819D02*
X289428571Y-196160819D01*
X289428571Y-196160819D02*
X289761904Y-197160819D01*
X290142857Y-197160819D02*
X290333333Y-197160819D01*
X290333333Y-197160819D02*
X290428571Y-197113200D01*
X290428571Y-197113200D02*
X290476190Y-197065580D01*
X290476190Y-197065580D02*
X290571428Y-196922723D01*
X290571428Y-196922723D02*
X290619047Y-196732247D01*
X290619047Y-196732247D02*
X290619047Y-196351295D01*
X290619047Y-196351295D02*
X290571428Y-196256057D01*
X290571428Y-196256057D02*
X290523809Y-196208438D01*
X290523809Y-196208438D02*
X290428571Y-196160819D01*
X290428571Y-196160819D02*
X290238095Y-196160819D01*
X290238095Y-196160819D02*
X290142857Y-196208438D01*
X290142857Y-196208438D02*
X290095238Y-196256057D01*
X290095238Y-196256057D02*
X290047619Y-196351295D01*
X290047619Y-196351295D02*
X290047619Y-196589390D01*
X290047619Y-196589390D02*
X290095238Y-196684628D01*
X290095238Y-196684628D02*
X290142857Y-196732247D01*
X290142857Y-196732247D02*
X290238095Y-196779866D01*
X290238095Y-196779866D02*
X290428571Y-196779866D01*
X290428571Y-196779866D02*
X290523809Y-196732247D01*
X290523809Y-196732247D02*
X290571428Y-196684628D01*
X290571428Y-196684628D02*
X290619047Y-196589390D01*
X146404761Y-197160819D02*
X145928571Y-197160819D01*
X145928571Y-197160819D02*
X145928571Y-196160819D01*
X146690476Y-196875104D02*
X147166666Y-196875104D01*
X146595238Y-197160819D02*
X146928571Y-196160819D01*
X146928571Y-196160819D02*
X147261904Y-197160819D01*
X148071428Y-196160819D02*
X147595238Y-196160819D01*
X147595238Y-196160819D02*
X147547619Y-196637009D01*
X147547619Y-196637009D02*
X147595238Y-196589390D01*
X147595238Y-196589390D02*
X147690476Y-196541771D01*
X147690476Y-196541771D02*
X147928571Y-196541771D01*
X147928571Y-196541771D02*
X148023809Y-196589390D01*
X148023809Y-196589390D02*
X148071428Y-196637009D01*
X148071428Y-196637009D02*
X148119047Y-196732247D01*
X148119047Y-196732247D02*
X148119047Y-196970342D01*
X148119047Y-196970342D02*
X148071428Y-197065580D01*
X148071428Y-197065580D02*
X148023809Y-197113200D01*
X148023809Y-197113200D02*
X147928571Y-197160819D01*
X147928571Y-197160819D02*
X147690476Y-197160819D01*
X147690476Y-197160819D02*
X147595238Y-197113200D01*
X147595238Y-197113200D02*
X147547619Y-197065580D01*
X217454819Y-92257428D02*
X217454819Y-92733618D01*
X217454819Y-92733618D02*
X216454819Y-92733618D01*
X217169104Y-91971713D02*
X217169104Y-91495523D01*
X217454819Y-92066951D02*
X216454819Y-91733618D01*
X216454819Y-91733618D02*
X217454819Y-91400285D01*
X217454819Y-90543142D02*
X217454819Y-91114570D01*
X217454819Y-90828856D02*
X216454819Y-90828856D01*
X216454819Y-90828856D02*
X216597676Y-90924094D01*
X216597676Y-90924094D02*
X216692914Y-91019332D01*
X216692914Y-91019332D02*
X216740533Y-91114570D01*
X216454819Y-90209808D02*
X216454819Y-89543142D01*
X216454819Y-89543142D02*
X217454819Y-89971713D01*
X136380819Y-188301238D02*
X136380819Y-188777428D01*
X136380819Y-188777428D02*
X135380819Y-188777428D01*
X136095104Y-188015523D02*
X136095104Y-187539333D01*
X136380819Y-188110761D02*
X135380819Y-187777428D01*
X135380819Y-187777428D02*
X136380819Y-187444095D01*
X135714152Y-186682190D02*
X136380819Y-186682190D01*
X135333200Y-186920285D02*
X136047485Y-187158380D01*
X136047485Y-187158380D02*
X136047485Y-186539333D01*
X337510571Y-179270819D02*
X337034381Y-179270819D01*
X337034381Y-179270819D02*
X337034381Y-178270819D01*
X337796286Y-178985104D02*
X338272476Y-178985104D01*
X337701048Y-179270819D02*
X338034381Y-178270819D01*
X338034381Y-178270819D02*
X338367714Y-179270819D01*
X339224857Y-179270819D02*
X338653429Y-179270819D01*
X338939143Y-179270819D02*
X338939143Y-178270819D01*
X338939143Y-178270819D02*
X338843905Y-178413676D01*
X338843905Y-178413676D02*
X338748667Y-178508914D01*
X338748667Y-178508914D02*
X338653429Y-178556533D01*
X340177238Y-179270819D02*
X339605810Y-179270819D01*
X339891524Y-179270819D02*
X339891524Y-178270819D01*
X339891524Y-178270819D02*
X339796286Y-178413676D01*
X339796286Y-178413676D02*
X339701048Y-178508914D01*
X339701048Y-178508914D02*
X339605810Y-178556533D01*
X215652399Y-171155293D02*
X215414304Y-171567686D01*
X215414304Y-171567686D02*
X214548279Y-171067686D01*
X215547821Y-170765000D02*
X215785916Y-170352607D01*
X215747637Y-170990336D02*
X215048279Y-170201661D01*
X215048279Y-170201661D02*
X216080971Y-170412985D01*
X216509542Y-169670678D02*
X216223828Y-170165550D01*
X216366685Y-169918114D02*
X215500660Y-169418114D01*
X215500660Y-169418114D02*
X215576759Y-169572021D01*
X215576759Y-169572021D02*
X215611618Y-169702119D01*
X215611618Y-169702119D02*
X215605238Y-169808407D01*
X216095898Y-168387131D02*
X215857803Y-168799524D01*
X215857803Y-168799524D02*
X216246386Y-169078859D01*
X216246386Y-169078859D02*
X216228956Y-169013810D01*
X216228956Y-169013810D02*
X216235336Y-168907522D01*
X216235336Y-168907522D02*
X216354384Y-168701325D01*
X216354384Y-168701325D02*
X216443242Y-168642656D01*
X216443242Y-168642656D02*
X216508291Y-168625226D01*
X216508291Y-168625226D02*
X216614579Y-168631606D01*
X216614579Y-168631606D02*
X216820776Y-168750654D01*
X216820776Y-168750654D02*
X216879445Y-168839512D01*
X216879445Y-168839512D02*
X216896874Y-168904561D01*
X216896874Y-168904561D02*
X216890495Y-169010849D01*
X216890495Y-169010849D02*
X216771447Y-169217045D01*
X216771447Y-169217045D02*
X216682589Y-169275715D01*
X216682589Y-169275715D02*
X216617540Y-169293144D01*
X213958814Y-96225502D02*
X213911195Y-96273122D01*
X213911195Y-96273122D02*
X213768338Y-96320741D01*
X213768338Y-96320741D02*
X213673100Y-96320741D01*
X213673100Y-96320741D02*
X213530243Y-96273122D01*
X213530243Y-96273122D02*
X213435005Y-96177883D01*
X213435005Y-96177883D02*
X213387386Y-96082645D01*
X213387386Y-96082645D02*
X213339767Y-95892169D01*
X213339767Y-95892169D02*
X213339767Y-95749312D01*
X213339767Y-95749312D02*
X213387386Y-95558836D01*
X213387386Y-95558836D02*
X213435005Y-95463598D01*
X213435005Y-95463598D02*
X213530243Y-95368360D01*
X213530243Y-95368360D02*
X213673100Y-95320741D01*
X213673100Y-95320741D02*
X213768338Y-95320741D01*
X213768338Y-95320741D02*
X213911195Y-95368360D01*
X213911195Y-95368360D02*
X213958814Y-95415979D01*
X214530243Y-96320741D02*
X214435005Y-96273122D01*
X214435005Y-96273122D02*
X214387386Y-96225502D01*
X214387386Y-96225502D02*
X214339767Y-96130264D01*
X214339767Y-96130264D02*
X214339767Y-95844550D01*
X214339767Y-95844550D02*
X214387386Y-95749312D01*
X214387386Y-95749312D02*
X214435005Y-95701693D01*
X214435005Y-95701693D02*
X214530243Y-95654074D01*
X214530243Y-95654074D02*
X214673100Y-95654074D01*
X214673100Y-95654074D02*
X214768338Y-95701693D01*
X214768338Y-95701693D02*
X214815957Y-95749312D01*
X214815957Y-95749312D02*
X214863576Y-95844550D01*
X214863576Y-95844550D02*
X214863576Y-96130264D01*
X214863576Y-96130264D02*
X214815957Y-96225502D01*
X214815957Y-96225502D02*
X214768338Y-96273122D01*
X214768338Y-96273122D02*
X214673100Y-96320741D01*
X214673100Y-96320741D02*
X214530243Y-96320741D01*
X215292148Y-95654074D02*
X215292148Y-96320741D01*
X215292148Y-95749312D02*
X215339767Y-95701693D01*
X215339767Y-95701693D02*
X215435005Y-95654074D01*
X215435005Y-95654074D02*
X215577862Y-95654074D01*
X215577862Y-95654074D02*
X215673100Y-95701693D01*
X215673100Y-95701693D02*
X215720719Y-95796931D01*
X215720719Y-95796931D02*
X215720719Y-96320741D01*
X216196910Y-95654074D02*
X216196910Y-96320741D01*
X216196910Y-95749312D02*
X216244529Y-95701693D01*
X216244529Y-95701693D02*
X216339767Y-95654074D01*
X216339767Y-95654074D02*
X216482624Y-95654074D01*
X216482624Y-95654074D02*
X216577862Y-95701693D01*
X216577862Y-95701693D02*
X216625481Y-95796931D01*
X216625481Y-95796931D02*
X216625481Y-96320741D01*
X216863577Y-96415979D02*
X217625481Y-96415979D01*
X218054053Y-95320741D02*
X218149291Y-95320741D01*
X218149291Y-95320741D02*
X218244529Y-95368360D01*
X218244529Y-95368360D02*
X218292148Y-95415979D01*
X218292148Y-95415979D02*
X218339767Y-95511217D01*
X218339767Y-95511217D02*
X218387386Y-95701693D01*
X218387386Y-95701693D02*
X218387386Y-95939788D01*
X218387386Y-95939788D02*
X218339767Y-96130264D01*
X218339767Y-96130264D02*
X218292148Y-96225502D01*
X218292148Y-96225502D02*
X218244529Y-96273122D01*
X218244529Y-96273122D02*
X218149291Y-96320741D01*
X218149291Y-96320741D02*
X218054053Y-96320741D01*
X218054053Y-96320741D02*
X217958815Y-96273122D01*
X217958815Y-96273122D02*
X217911196Y-96225502D01*
X217911196Y-96225502D02*
X217863577Y-96130264D01*
X217863577Y-96130264D02*
X217815958Y-95939788D01*
X217815958Y-95939788D02*
X217815958Y-95701693D01*
X217815958Y-95701693D02*
X217863577Y-95511217D01*
X217863577Y-95511217D02*
X217911196Y-95415979D01*
X217911196Y-95415979D02*
X217958815Y-95368360D01*
X217958815Y-95368360D02*
X218054053Y-95320741D01*
X219339767Y-96320741D02*
X218768339Y-96320741D01*
X219054053Y-96320741D02*
X219054053Y-95320741D01*
X219054053Y-95320741D02*
X218958815Y-95463598D01*
X218958815Y-95463598D02*
X218863577Y-95558836D01*
X218863577Y-95558836D02*
X218768339Y-95606455D01*
X219673101Y-96320741D02*
X220196910Y-95654074D01*
X219673101Y-95654074D02*
X220196910Y-96320741D01*
X221101672Y-96320741D02*
X220530244Y-96320741D01*
X220815958Y-96320741D02*
X220815958Y-95320741D01*
X220815958Y-95320741D02*
X220720720Y-95463598D01*
X220720720Y-95463598D02*
X220625482Y-95558836D01*
X220625482Y-95558836D02*
X220530244Y-95606455D01*
X221958815Y-95320741D02*
X221768339Y-95320741D01*
X221768339Y-95320741D02*
X221673101Y-95368360D01*
X221673101Y-95368360D02*
X221625482Y-95415979D01*
X221625482Y-95415979D02*
X221530244Y-95558836D01*
X221530244Y-95558836D02*
X221482625Y-95749312D01*
X221482625Y-95749312D02*
X221482625Y-96130264D01*
X221482625Y-96130264D02*
X221530244Y-96225502D01*
X221530244Y-96225502D02*
X221577863Y-96273122D01*
X221577863Y-96273122D02*
X221673101Y-96320741D01*
X221673101Y-96320741D02*
X221863577Y-96320741D01*
X221863577Y-96320741D02*
X221958815Y-96273122D01*
X221958815Y-96273122D02*
X222006434Y-96225502D01*
X222006434Y-96225502D02*
X222054053Y-96130264D01*
X222054053Y-96130264D02*
X222054053Y-95892169D01*
X222054053Y-95892169D02*
X222006434Y-95796931D01*
X222006434Y-95796931D02*
X221958815Y-95749312D01*
X221958815Y-95749312D02*
X221863577Y-95701693D01*
X221863577Y-95701693D02*
X221673101Y-95701693D01*
X221673101Y-95701693D02*
X221577863Y-95749312D01*
X221577863Y-95749312D02*
X221530244Y-95796931D01*
X221530244Y-95796931D02*
X221482625Y-95892169D01*
X222244530Y-96415979D02*
X223006434Y-96415979D01*
X223244530Y-96320741D02*
X223244530Y-95320741D01*
X223244530Y-95320741D02*
X223625482Y-95320741D01*
X223625482Y-95320741D02*
X223720720Y-95368360D01*
X223720720Y-95368360D02*
X223768339Y-95415979D01*
X223768339Y-95415979D02*
X223815958Y-95511217D01*
X223815958Y-95511217D02*
X223815958Y-95654074D01*
X223815958Y-95654074D02*
X223768339Y-95749312D01*
X223768339Y-95749312D02*
X223720720Y-95796931D01*
X223720720Y-95796931D02*
X223625482Y-95844550D01*
X223625482Y-95844550D02*
X223244530Y-95844550D01*
X224244530Y-96320741D02*
X224244530Y-95654074D01*
X224244530Y-95320741D02*
X224196911Y-95368360D01*
X224196911Y-95368360D02*
X224244530Y-95415979D01*
X224244530Y-95415979D02*
X224292149Y-95368360D01*
X224292149Y-95368360D02*
X224244530Y-95320741D01*
X224244530Y-95320741D02*
X224244530Y-95415979D01*
X224720720Y-95654074D02*
X224720720Y-96320741D01*
X224720720Y-95749312D02*
X224768339Y-95701693D01*
X224768339Y-95701693D02*
X224863577Y-95654074D01*
X224863577Y-95654074D02*
X225006434Y-95654074D01*
X225006434Y-95654074D02*
X225101672Y-95701693D01*
X225101672Y-95701693D02*
X225149291Y-95796931D01*
X225149291Y-95796931D02*
X225149291Y-96320741D01*
X218935005Y-96820741D02*
X218935005Y-97535026D01*
X218935005Y-97535026D02*
X218887386Y-97677883D01*
X218887386Y-97677883D02*
X218792148Y-97773122D01*
X218792148Y-97773122D02*
X218649291Y-97820741D01*
X218649291Y-97820741D02*
X218554053Y-97820741D01*
X219839767Y-97154074D02*
X219839767Y-97820741D01*
X219601672Y-96773122D02*
X219363577Y-97487407D01*
X219363577Y-97487407D02*
X219982624Y-97487407D01*
X52454819Y-151071428D02*
X52454819Y-151547618D01*
X52454819Y-151547618D02*
X51454819Y-151547618D01*
X52169104Y-150785713D02*
X52169104Y-150309523D01*
X52454819Y-150880951D02*
X51454819Y-150547618D01*
X51454819Y-150547618D02*
X52454819Y-150214285D01*
X52454819Y-149357142D02*
X52454819Y-149928570D01*
X52454819Y-149642856D02*
X51454819Y-149642856D01*
X51454819Y-149642856D02*
X51597676Y-149738094D01*
X51597676Y-149738094D02*
X51692914Y-149833332D01*
X51692914Y-149833332D02*
X51740533Y-149928570D01*
X51788152Y-148499999D02*
X52454819Y-148499999D01*
X51407200Y-148738094D02*
X52121485Y-148976189D01*
X52121485Y-148976189D02*
X52121485Y-148357142D01*
X214928571Y-83454819D02*
X214452381Y-83454819D01*
X214452381Y-83454819D02*
X214452381Y-82454819D01*
X215214286Y-83169104D02*
X215690476Y-83169104D01*
X215119048Y-83454819D02*
X215452381Y-82454819D01*
X215452381Y-82454819D02*
X215785714Y-83454819D01*
X216642857Y-83454819D02*
X216071429Y-83454819D01*
X216357143Y-83454819D02*
X216357143Y-82454819D01*
X216357143Y-82454819D02*
X216261905Y-82597676D01*
X216261905Y-82597676D02*
X216166667Y-82692914D01*
X216166667Y-82692914D02*
X216071429Y-82740533D01*
X217214286Y-82883390D02*
X217119048Y-82835771D01*
X217119048Y-82835771D02*
X217071429Y-82788152D01*
X217071429Y-82788152D02*
X217023810Y-82692914D01*
X217023810Y-82692914D02*
X217023810Y-82645295D01*
X217023810Y-82645295D02*
X217071429Y-82550057D01*
X217071429Y-82550057D02*
X217119048Y-82502438D01*
X217119048Y-82502438D02*
X217214286Y-82454819D01*
X217214286Y-82454819D02*
X217404762Y-82454819D01*
X217404762Y-82454819D02*
X217500000Y-82502438D01*
X217500000Y-82502438D02*
X217547619Y-82550057D01*
X217547619Y-82550057D02*
X217595238Y-82645295D01*
X217595238Y-82645295D02*
X217595238Y-82692914D01*
X217595238Y-82692914D02*
X217547619Y-82788152D01*
X217547619Y-82788152D02*
X217500000Y-82835771D01*
X217500000Y-82835771D02*
X217404762Y-82883390D01*
X217404762Y-82883390D02*
X217214286Y-82883390D01*
X217214286Y-82883390D02*
X217119048Y-82931009D01*
X217119048Y-82931009D02*
X217071429Y-82978628D01*
X217071429Y-82978628D02*
X217023810Y-83073866D01*
X217023810Y-83073866D02*
X217023810Y-83264342D01*
X217023810Y-83264342D02*
X217071429Y-83359580D01*
X217071429Y-83359580D02*
X217119048Y-83407200D01*
X217119048Y-83407200D02*
X217214286Y-83454819D01*
X217214286Y-83454819D02*
X217404762Y-83454819D01*
X217404762Y-83454819D02*
X217500000Y-83407200D01*
X217500000Y-83407200D02*
X217547619Y-83359580D01*
X217547619Y-83359580D02*
X217595238Y-83264342D01*
X217595238Y-83264342D02*
X217595238Y-83073866D01*
X217595238Y-83073866D02*
X217547619Y-82978628D01*
X217547619Y-82978628D02*
X217500000Y-82931009D01*
X217500000Y-82931009D02*
X217404762Y-82883390D01*
X225281714Y-187737200D02*
X225424571Y-187784819D01*
X225424571Y-187784819D02*
X225662666Y-187784819D01*
X225662666Y-187784819D02*
X225757904Y-187737200D01*
X225757904Y-187737200D02*
X225805523Y-187689580D01*
X225805523Y-187689580D02*
X225853142Y-187594342D01*
X225853142Y-187594342D02*
X225853142Y-187499104D01*
X225853142Y-187499104D02*
X225805523Y-187403866D01*
X225805523Y-187403866D02*
X225757904Y-187356247D01*
X225757904Y-187356247D02*
X225662666Y-187308628D01*
X225662666Y-187308628D02*
X225472190Y-187261009D01*
X225472190Y-187261009D02*
X225376952Y-187213390D01*
X225376952Y-187213390D02*
X225329333Y-187165771D01*
X225329333Y-187165771D02*
X225281714Y-187070533D01*
X225281714Y-187070533D02*
X225281714Y-186975295D01*
X225281714Y-186975295D02*
X225329333Y-186880057D01*
X225329333Y-186880057D02*
X225376952Y-186832438D01*
X225376952Y-186832438D02*
X225472190Y-186784819D01*
X225472190Y-186784819D02*
X225710285Y-186784819D01*
X225710285Y-186784819D02*
X225853142Y-186832438D01*
X226281714Y-187784819D02*
X226281714Y-186784819D01*
X227853142Y-187261009D02*
X227995999Y-187308628D01*
X227995999Y-187308628D02*
X228043618Y-187356247D01*
X228043618Y-187356247D02*
X228091237Y-187451485D01*
X228091237Y-187451485D02*
X228091237Y-187594342D01*
X228091237Y-187594342D02*
X228043618Y-187689580D01*
X228043618Y-187689580D02*
X227995999Y-187737200D01*
X227995999Y-187737200D02*
X227900761Y-187784819D01*
X227900761Y-187784819D02*
X227519809Y-187784819D01*
X227519809Y-187784819D02*
X227519809Y-186784819D01*
X227519809Y-186784819D02*
X227853142Y-186784819D01*
X227853142Y-186784819D02*
X227948380Y-186832438D01*
X227948380Y-186832438D02*
X227995999Y-186880057D01*
X227995999Y-186880057D02*
X228043618Y-186975295D01*
X228043618Y-186975295D02*
X228043618Y-187070533D01*
X228043618Y-187070533D02*
X227995999Y-187165771D01*
X227995999Y-187165771D02*
X227948380Y-187213390D01*
X227948380Y-187213390D02*
X227853142Y-187261009D01*
X227853142Y-187261009D02*
X227519809Y-187261009D01*
X228710285Y-187308628D02*
X228710285Y-187784819D01*
X228376952Y-186784819D02*
X228710285Y-187308628D01*
X228710285Y-187308628D02*
X229043618Y-186784819D01*
X229376952Y-187784819D02*
X229376952Y-186784819D01*
X229376952Y-186784819D02*
X229757904Y-186784819D01*
X229757904Y-186784819D02*
X229853142Y-186832438D01*
X229853142Y-186832438D02*
X229900761Y-186880057D01*
X229900761Y-186880057D02*
X229948380Y-186975295D01*
X229948380Y-186975295D02*
X229948380Y-187118152D01*
X229948380Y-187118152D02*
X229900761Y-187213390D01*
X229900761Y-187213390D02*
X229853142Y-187261009D01*
X229853142Y-187261009D02*
X229757904Y-187308628D01*
X229757904Y-187308628D02*
X229376952Y-187308628D01*
X230329333Y-187499104D02*
X230805523Y-187499104D01*
X230234095Y-187784819D02*
X230567428Y-186784819D01*
X230567428Y-186784819D02*
X230900761Y-187784819D01*
X231186476Y-187737200D02*
X231329333Y-187784819D01*
X231329333Y-187784819D02*
X231567428Y-187784819D01*
X231567428Y-187784819D02*
X231662666Y-187737200D01*
X231662666Y-187737200D02*
X231710285Y-187689580D01*
X231710285Y-187689580D02*
X231757904Y-187594342D01*
X231757904Y-187594342D02*
X231757904Y-187499104D01*
X231757904Y-187499104D02*
X231710285Y-187403866D01*
X231710285Y-187403866D02*
X231662666Y-187356247D01*
X231662666Y-187356247D02*
X231567428Y-187308628D01*
X231567428Y-187308628D02*
X231376952Y-187261009D01*
X231376952Y-187261009D02*
X231281714Y-187213390D01*
X231281714Y-187213390D02*
X231234095Y-187165771D01*
X231234095Y-187165771D02*
X231186476Y-187070533D01*
X231186476Y-187070533D02*
X231186476Y-186975295D01*
X231186476Y-186975295D02*
X231234095Y-186880057D01*
X231234095Y-186880057D02*
X231281714Y-186832438D01*
X231281714Y-186832438D02*
X231376952Y-186784819D01*
X231376952Y-186784819D02*
X231615047Y-186784819D01*
X231615047Y-186784819D02*
X231757904Y-186832438D01*
X232138857Y-187737200D02*
X232281714Y-187784819D01*
X232281714Y-187784819D02*
X232519809Y-187784819D01*
X232519809Y-187784819D02*
X232615047Y-187737200D01*
X232615047Y-187737200D02*
X232662666Y-187689580D01*
X232662666Y-187689580D02*
X232710285Y-187594342D01*
X232710285Y-187594342D02*
X232710285Y-187499104D01*
X232710285Y-187499104D02*
X232662666Y-187403866D01*
X232662666Y-187403866D02*
X232615047Y-187356247D01*
X232615047Y-187356247D02*
X232519809Y-187308628D01*
X232519809Y-187308628D02*
X232329333Y-187261009D01*
X232329333Y-187261009D02*
X232234095Y-187213390D01*
X232234095Y-187213390D02*
X232186476Y-187165771D01*
X232186476Y-187165771D02*
X232138857Y-187070533D01*
X232138857Y-187070533D02*
X232138857Y-186975295D01*
X232138857Y-186975295D02*
X232186476Y-186880057D01*
X232186476Y-186880057D02*
X232234095Y-186832438D01*
X232234095Y-186832438D02*
X232329333Y-186784819D01*
X232329333Y-186784819D02*
X232567428Y-186784819D01*
X232567428Y-186784819D02*
X232710285Y-186832438D01*
X384104819Y-152071428D02*
X384104819Y-152547618D01*
X384104819Y-152547618D02*
X383104819Y-152547618D01*
X383819104Y-151785713D02*
X383819104Y-151309523D01*
X384104819Y-151880951D02*
X383104819Y-151547618D01*
X383104819Y-151547618D02*
X384104819Y-151214285D01*
X383200057Y-150928570D02*
X383152438Y-150880951D01*
X383152438Y-150880951D02*
X383104819Y-150785713D01*
X383104819Y-150785713D02*
X383104819Y-150547618D01*
X383104819Y-150547618D02*
X383152438Y-150452380D01*
X383152438Y-150452380D02*
X383200057Y-150404761D01*
X383200057Y-150404761D02*
X383295295Y-150357142D01*
X383295295Y-150357142D02*
X383390533Y-150357142D01*
X383390533Y-150357142D02*
X383533390Y-150404761D01*
X383533390Y-150404761D02*
X384104819Y-150976189D01*
X384104819Y-150976189D02*
X384104819Y-150357142D01*
X383104819Y-149738094D02*
X383104819Y-149642856D01*
X383104819Y-149642856D02*
X383152438Y-149547618D01*
X383152438Y-149547618D02*
X383200057Y-149499999D01*
X383200057Y-149499999D02*
X383295295Y-149452380D01*
X383295295Y-149452380D02*
X383485771Y-149404761D01*
X383485771Y-149404761D02*
X383723866Y-149404761D01*
X383723866Y-149404761D02*
X383914342Y-149452380D01*
X383914342Y-149452380D02*
X384009580Y-149499999D01*
X384009580Y-149499999D02*
X384057200Y-149547618D01*
X384057200Y-149547618D02*
X384104819Y-149642856D01*
X384104819Y-149642856D02*
X384104819Y-149738094D01*
X384104819Y-149738094D02*
X384057200Y-149833332D01*
X384057200Y-149833332D02*
X384009580Y-149880951D01*
X384009580Y-149880951D02*
X383914342Y-149928570D01*
X383914342Y-149928570D02*
X383723866Y-149976189D01*
X383723866Y-149976189D02*
X383485771Y-149976189D01*
X383485771Y-149976189D02*
X383295295Y-149928570D01*
X383295295Y-149928570D02*
X383200057Y-149880951D01*
X383200057Y-149880951D02*
X383152438Y-149833332D01*
X383152438Y-149833332D02*
X383104819Y-149738094D01*
D11*
%TO.C,LA13b1*%
X329786000Y-173400000D02*
G75*
G02*
X309786000Y-173400000I-10000000J0D01*
G01*
X309786000Y-173400000D02*
G75*
G02*
X329786000Y-173400000I10000000J0D01*
G01*
%TO.C,LA12*%
X356046000Y-187706000D02*
G75*
G02*
X343646000Y-187706000I-6200000J0D01*
G01*
X343646000Y-187706000D02*
G75*
G02*
X356046000Y-187706000I6200000J0D01*
G01*
%TO.C,LA13a1*%
X106400000Y-173400000D02*
G75*
G02*
X86400000Y-173400000I-10000000J0D01*
G01*
X86400000Y-173400000D02*
G75*
G02*
X106400000Y-173400000I10000000J0D01*
G01*
%TO.C,LA16*%
X206200000Y-74000000D02*
G75*
G02*
X193800000Y-74000000I-6200000J0D01*
G01*
X193800000Y-74000000D02*
G75*
G02*
X206200000Y-74000000I6200000J0D01*
G01*
%TO.C,LA8*%
X275494000Y-187706000D02*
G75*
G02*
X263094000Y-187706000I-6200000J0D01*
G01*
X263094000Y-187706000D02*
G75*
G02*
X275494000Y-187706000I6200000J0D01*
G01*
%TO.C,LA7*%
X255314000Y-187706000D02*
G75*
G02*
X242914000Y-187706000I-6200000J0D01*
G01*
X242914000Y-187706000D02*
G75*
G02*
X255314000Y-187706000I6200000J0D01*
G01*
%TO.C,LA9*%
X295700000Y-187706000D02*
G75*
G02*
X283300000Y-187706000I-6200000J0D01*
G01*
X283300000Y-187706000D02*
G75*
G02*
X295700000Y-187706000I6200000J0D01*
G01*
%TO.C,LA5*%
X153200000Y-187706000D02*
G75*
G02*
X140800000Y-187706000I-6200000J0D01*
G01*
X140800000Y-187706000D02*
G75*
G02*
X153200000Y-187706000I6200000J0D01*
G01*
%TO.C,LA17*%
X214200000Y-91186000D02*
G75*
G02*
X201800000Y-91186000I-6200000J0D01*
G01*
X201800000Y-91186000D02*
G75*
G02*
X214200000Y-91186000I6200000J0D01*
G01*
%TO.C,LA4*%
X133126000Y-187706000D02*
G75*
G02*
X120726000Y-187706000I-6200000J0D01*
G01*
X120726000Y-187706000D02*
G75*
G02*
X133126000Y-187706000I6200000J0D01*
G01*
%TO.C,LA11*%
X339692000Y-188976000D02*
G75*
G02*
X319692000Y-188976000I-10000000J0D01*
G01*
X319692000Y-188976000D02*
G75*
G02*
X339692000Y-188976000I10000000J0D01*
G01*
%TO.C,LA15*%
X214200000Y-165500000D02*
G75*
G02*
X201800000Y-165500000I-6200000J0D01*
G01*
X201800000Y-165500000D02*
G75*
G02*
X214200000Y-165500000I6200000J0D01*
G01*
%TO.C,LA14*%
X49200000Y-150000000D02*
G75*
G02*
X36800000Y-150000000I-6200000J0D01*
G01*
X36800000Y-150000000D02*
G75*
G02*
X49200000Y-150000000I6200000J0D01*
G01*
%TO.C,LA18*%
X222200000Y-74000000D02*
G75*
G02*
X209800000Y-74000000I-6200000J0D01*
G01*
X209800000Y-74000000D02*
G75*
G02*
X222200000Y-74000000I6200000J0D01*
G01*
%TO.C,LA20*%
X380850000Y-151000000D02*
G75*
G02*
X368450000Y-151000000I-6200000J0D01*
G01*
X368450000Y-151000000D02*
G75*
G02*
X380850000Y-151000000I6200000J0D01*
G01*
%TD*%
M02*
