%TF.GenerationSoftware,KiCad,Pcbnew,9.0.7-1.fc42*%
%TF.CreationDate,2026-01-29T19:15:55-05:00*%
%TF.ProjectId,BMW_E30_Early_Cluster_Nexus,424d575f-4533-4305-9f45-61726c795f43,rev?*%
%TF.SameCoordinates,Original*%
%TF.FileFunction,AssemblyDrawing,Bot*%
%FSLAX46Y46*%
G04 Gerber Fmt 4.6, Leading zero omitted, Abs format (unit mm)*
G04 Created by KiCad (PCBNEW 9.0.7-1.fc42) date 2026-01-29 19:15:55*
%MOMM*%
%LPD*%
G01*
G04 APERTURE LIST*
%ADD10C,0.150000*%
%ADD11C,0.025400*%
%ADD12C,0.100000*%
G04 APERTURE END LIST*
D10*
X92319580Y-150179045D02*
X92367200Y-150131426D01*
X92367200Y-150131426D02*
X92414819Y-149988569D01*
X92414819Y-149988569D02*
X92414819Y-149893331D01*
X92414819Y-149893331D02*
X92367200Y-149750474D01*
X92367200Y-149750474D02*
X92271961Y-149655236D01*
X92271961Y-149655236D02*
X92176723Y-149607617D01*
X92176723Y-149607617D02*
X91986247Y-149559998D01*
X91986247Y-149559998D02*
X91843390Y-149559998D01*
X91843390Y-149559998D02*
X91652914Y-149607617D01*
X91652914Y-149607617D02*
X91557676Y-149655236D01*
X91557676Y-149655236D02*
X91462438Y-149750474D01*
X91462438Y-149750474D02*
X91414819Y-149893331D01*
X91414819Y-149893331D02*
X91414819Y-149988569D01*
X91414819Y-149988569D02*
X91462438Y-150131426D01*
X91462438Y-150131426D02*
X91510057Y-150179045D01*
X91510057Y-150559998D02*
X91462438Y-150607617D01*
X91462438Y-150607617D02*
X91414819Y-150702855D01*
X91414819Y-150702855D02*
X91414819Y-150940950D01*
X91414819Y-150940950D02*
X91462438Y-151036188D01*
X91462438Y-151036188D02*
X91510057Y-151083807D01*
X91510057Y-151083807D02*
X91605295Y-151131426D01*
X91605295Y-151131426D02*
X91700533Y-151131426D01*
X91700533Y-151131426D02*
X91843390Y-151083807D01*
X91843390Y-151083807D02*
X92414819Y-150512379D01*
X92414819Y-150512379D02*
X92414819Y-151131426D01*
X92033866Y-152321903D02*
X92033866Y-153083808D01*
X91414819Y-154226665D02*
X92414819Y-154464760D01*
X92414819Y-154464760D02*
X91700533Y-154655236D01*
X91700533Y-154655236D02*
X92414819Y-154845712D01*
X92414819Y-154845712D02*
X91414819Y-155083808D01*
X92414819Y-155464760D02*
X91414819Y-155464760D01*
X92414819Y-155893331D02*
X91891009Y-155893331D01*
X91891009Y-155893331D02*
X91795771Y-155845712D01*
X91795771Y-155845712D02*
X91748152Y-155750474D01*
X91748152Y-155750474D02*
X91748152Y-155607617D01*
X91748152Y-155607617D02*
X91795771Y-155512379D01*
X91795771Y-155512379D02*
X91843390Y-155464760D01*
X92414819Y-156369522D02*
X91748152Y-156369522D01*
X91414819Y-156369522D02*
X91462438Y-156321903D01*
X91462438Y-156321903D02*
X91510057Y-156369522D01*
X91510057Y-156369522D02*
X91462438Y-156417141D01*
X91462438Y-156417141D02*
X91414819Y-156369522D01*
X91414819Y-156369522D02*
X91510057Y-156369522D01*
X91748152Y-156702855D02*
X91748152Y-157083807D01*
X91414819Y-156845712D02*
X92271961Y-156845712D01*
X92271961Y-156845712D02*
X92367200Y-156893331D01*
X92367200Y-156893331D02*
X92414819Y-156988569D01*
X92414819Y-156988569D02*
X92414819Y-157083807D01*
X92367200Y-157798093D02*
X92414819Y-157702855D01*
X92414819Y-157702855D02*
X92414819Y-157512379D01*
X92414819Y-157512379D02*
X92367200Y-157417141D01*
X92367200Y-157417141D02*
X92271961Y-157369522D01*
X92271961Y-157369522D02*
X91891009Y-157369522D01*
X91891009Y-157369522D02*
X91795771Y-157417141D01*
X91795771Y-157417141D02*
X91748152Y-157512379D01*
X91748152Y-157512379D02*
X91748152Y-157702855D01*
X91748152Y-157702855D02*
X91795771Y-157798093D01*
X91795771Y-157798093D02*
X91891009Y-157845712D01*
X91891009Y-157845712D02*
X91986247Y-157845712D01*
X91986247Y-157845712D02*
X92081485Y-157369522D01*
X92319580Y-159607617D02*
X92367200Y-159559998D01*
X92367200Y-159559998D02*
X92414819Y-159417141D01*
X92414819Y-159417141D02*
X92414819Y-159321903D01*
X92414819Y-159321903D02*
X92367200Y-159179046D01*
X92367200Y-159179046D02*
X92271961Y-159083808D01*
X92271961Y-159083808D02*
X92176723Y-159036189D01*
X92176723Y-159036189D02*
X91986247Y-158988570D01*
X91986247Y-158988570D02*
X91843390Y-158988570D01*
X91843390Y-158988570D02*
X91652914Y-159036189D01*
X91652914Y-159036189D02*
X91557676Y-159083808D01*
X91557676Y-159083808D02*
X91462438Y-159179046D01*
X91462438Y-159179046D02*
X91414819Y-159321903D01*
X91414819Y-159321903D02*
X91414819Y-159417141D01*
X91414819Y-159417141D02*
X91462438Y-159559998D01*
X91462438Y-159559998D02*
X91510057Y-159607617D01*
X92414819Y-160179046D02*
X92367200Y-160083808D01*
X92367200Y-160083808D02*
X92319580Y-160036189D01*
X92319580Y-160036189D02*
X92224342Y-159988570D01*
X92224342Y-159988570D02*
X91938628Y-159988570D01*
X91938628Y-159988570D02*
X91843390Y-160036189D01*
X91843390Y-160036189D02*
X91795771Y-160083808D01*
X91795771Y-160083808D02*
X91748152Y-160179046D01*
X91748152Y-160179046D02*
X91748152Y-160321903D01*
X91748152Y-160321903D02*
X91795771Y-160417141D01*
X91795771Y-160417141D02*
X91843390Y-160464760D01*
X91843390Y-160464760D02*
X91938628Y-160512379D01*
X91938628Y-160512379D02*
X92224342Y-160512379D01*
X92224342Y-160512379D02*
X92319580Y-160464760D01*
X92319580Y-160464760D02*
X92367200Y-160417141D01*
X92367200Y-160417141D02*
X92414819Y-160321903D01*
X92414819Y-160321903D02*
X92414819Y-160179046D01*
X91748152Y-160940951D02*
X92414819Y-160940951D01*
X91843390Y-160940951D02*
X91795771Y-160988570D01*
X91795771Y-160988570D02*
X91748152Y-161083808D01*
X91748152Y-161083808D02*
X91748152Y-161226665D01*
X91748152Y-161226665D02*
X91795771Y-161321903D01*
X91795771Y-161321903D02*
X91891009Y-161369522D01*
X91891009Y-161369522D02*
X92414819Y-161369522D01*
X91748152Y-161845713D02*
X92414819Y-161845713D01*
X91843390Y-161845713D02*
X91795771Y-161893332D01*
X91795771Y-161893332D02*
X91748152Y-161988570D01*
X91748152Y-161988570D02*
X91748152Y-162131427D01*
X91748152Y-162131427D02*
X91795771Y-162226665D01*
X91795771Y-162226665D02*
X91891009Y-162274284D01*
X91891009Y-162274284D02*
X92414819Y-162274284D01*
X92367200Y-163131427D02*
X92414819Y-163036189D01*
X92414819Y-163036189D02*
X92414819Y-162845713D01*
X92414819Y-162845713D02*
X92367200Y-162750475D01*
X92367200Y-162750475D02*
X92271961Y-162702856D01*
X92271961Y-162702856D02*
X91891009Y-162702856D01*
X91891009Y-162702856D02*
X91795771Y-162750475D01*
X91795771Y-162750475D02*
X91748152Y-162845713D01*
X91748152Y-162845713D02*
X91748152Y-163036189D01*
X91748152Y-163036189D02*
X91795771Y-163131427D01*
X91795771Y-163131427D02*
X91891009Y-163179046D01*
X91891009Y-163179046D02*
X91986247Y-163179046D01*
X91986247Y-163179046D02*
X92081485Y-162702856D01*
X92367200Y-164036189D02*
X92414819Y-163940951D01*
X92414819Y-163940951D02*
X92414819Y-163750475D01*
X92414819Y-163750475D02*
X92367200Y-163655237D01*
X92367200Y-163655237D02*
X92319580Y-163607618D01*
X92319580Y-163607618D02*
X92224342Y-163559999D01*
X92224342Y-163559999D02*
X91938628Y-163559999D01*
X91938628Y-163559999D02*
X91843390Y-163607618D01*
X91843390Y-163607618D02*
X91795771Y-163655237D01*
X91795771Y-163655237D02*
X91748152Y-163750475D01*
X91748152Y-163750475D02*
X91748152Y-163940951D01*
X91748152Y-163940951D02*
X91795771Y-164036189D01*
X91748152Y-164321904D02*
X91748152Y-164702856D01*
X91414819Y-164464761D02*
X92271961Y-164464761D01*
X92271961Y-164464761D02*
X92367200Y-164512380D01*
X92367200Y-164512380D02*
X92414819Y-164607618D01*
X92414819Y-164607618D02*
X92414819Y-164702856D01*
X92414819Y-165179047D02*
X92367200Y-165083809D01*
X92367200Y-165083809D02*
X92319580Y-165036190D01*
X92319580Y-165036190D02*
X92224342Y-164988571D01*
X92224342Y-164988571D02*
X91938628Y-164988571D01*
X91938628Y-164988571D02*
X91843390Y-165036190D01*
X91843390Y-165036190D02*
X91795771Y-165083809D01*
X91795771Y-165083809D02*
X91748152Y-165179047D01*
X91748152Y-165179047D02*
X91748152Y-165321904D01*
X91748152Y-165321904D02*
X91795771Y-165417142D01*
X91795771Y-165417142D02*
X91843390Y-165464761D01*
X91843390Y-165464761D02*
X91938628Y-165512380D01*
X91938628Y-165512380D02*
X92224342Y-165512380D01*
X92224342Y-165512380D02*
X92319580Y-165464761D01*
X92319580Y-165464761D02*
X92367200Y-165417142D01*
X92367200Y-165417142D02*
X92414819Y-165321904D01*
X92414819Y-165321904D02*
X92414819Y-165179047D01*
X92414819Y-165940952D02*
X91748152Y-165940952D01*
X91938628Y-165940952D02*
X91843390Y-165988571D01*
X91843390Y-165988571D02*
X91795771Y-166036190D01*
X91795771Y-166036190D02*
X91748152Y-166131428D01*
X91748152Y-166131428D02*
X91748152Y-166226666D01*
X92795771Y-167607619D02*
X92748152Y-167560000D01*
X92748152Y-167560000D02*
X92605295Y-167464762D01*
X92605295Y-167464762D02*
X92510057Y-167417143D01*
X92510057Y-167417143D02*
X92367200Y-167369524D01*
X92367200Y-167369524D02*
X92129104Y-167321905D01*
X92129104Y-167321905D02*
X91938628Y-167321905D01*
X91938628Y-167321905D02*
X91700533Y-167369524D01*
X91700533Y-167369524D02*
X91557676Y-167417143D01*
X91557676Y-167417143D02*
X91462438Y-167464762D01*
X91462438Y-167464762D02*
X91319580Y-167560000D01*
X91319580Y-167560000D02*
X91271961Y-167607619D01*
X91414819Y-167845715D02*
X91414819Y-168417143D01*
X92414819Y-168131429D02*
X91414819Y-168131429D01*
X91891009Y-168750477D02*
X91891009Y-169083810D01*
X92414819Y-169226667D02*
X92414819Y-168750477D01*
X92414819Y-168750477D02*
X91414819Y-168750477D01*
X91414819Y-168750477D02*
X91414819Y-169226667D01*
X92510057Y-169417144D02*
X92510057Y-170179048D01*
X91843390Y-170560001D02*
X91795771Y-170464763D01*
X91795771Y-170464763D02*
X91748152Y-170417144D01*
X91748152Y-170417144D02*
X91652914Y-170369525D01*
X91652914Y-170369525D02*
X91605295Y-170369525D01*
X91605295Y-170369525D02*
X91510057Y-170417144D01*
X91510057Y-170417144D02*
X91462438Y-170464763D01*
X91462438Y-170464763D02*
X91414819Y-170560001D01*
X91414819Y-170560001D02*
X91414819Y-170750477D01*
X91414819Y-170750477D02*
X91462438Y-170845715D01*
X91462438Y-170845715D02*
X91510057Y-170893334D01*
X91510057Y-170893334D02*
X91605295Y-170940953D01*
X91605295Y-170940953D02*
X91652914Y-170940953D01*
X91652914Y-170940953D02*
X91748152Y-170893334D01*
X91748152Y-170893334D02*
X91795771Y-170845715D01*
X91795771Y-170845715D02*
X91843390Y-170750477D01*
X91843390Y-170750477D02*
X91843390Y-170560001D01*
X91843390Y-170560001D02*
X91891009Y-170464763D01*
X91891009Y-170464763D02*
X91938628Y-170417144D01*
X91938628Y-170417144D02*
X92033866Y-170369525D01*
X92033866Y-170369525D02*
X92224342Y-170369525D01*
X92224342Y-170369525D02*
X92319580Y-170417144D01*
X92319580Y-170417144D02*
X92367200Y-170464763D01*
X92367200Y-170464763D02*
X92414819Y-170560001D01*
X92414819Y-170560001D02*
X92414819Y-170750477D01*
X92414819Y-170750477D02*
X92367200Y-170845715D01*
X92367200Y-170845715D02*
X92319580Y-170893334D01*
X92319580Y-170893334D02*
X92224342Y-170940953D01*
X92224342Y-170940953D02*
X92033866Y-170940953D01*
X92033866Y-170940953D02*
X91938628Y-170893334D01*
X91938628Y-170893334D02*
X91891009Y-170845715D01*
X91891009Y-170845715D02*
X91843390Y-170750477D01*
X91510057Y-171321906D02*
X91462438Y-171369525D01*
X91462438Y-171369525D02*
X91414819Y-171464763D01*
X91414819Y-171464763D02*
X91414819Y-171702858D01*
X91414819Y-171702858D02*
X91462438Y-171798096D01*
X91462438Y-171798096D02*
X91510057Y-171845715D01*
X91510057Y-171845715D02*
X91605295Y-171893334D01*
X91605295Y-171893334D02*
X91700533Y-171893334D01*
X91700533Y-171893334D02*
X91843390Y-171845715D01*
X91843390Y-171845715D02*
X92414819Y-171274287D01*
X92414819Y-171274287D02*
X92414819Y-171893334D01*
X91414819Y-172226668D02*
X91414819Y-172893334D01*
X91414819Y-172893334D02*
X92414819Y-172464763D01*
X91843390Y-173417144D02*
X91795771Y-173321906D01*
X91795771Y-173321906D02*
X91748152Y-173274287D01*
X91748152Y-173274287D02*
X91652914Y-173226668D01*
X91652914Y-173226668D02*
X91605295Y-173226668D01*
X91605295Y-173226668D02*
X91510057Y-173274287D01*
X91510057Y-173274287D02*
X91462438Y-173321906D01*
X91462438Y-173321906D02*
X91414819Y-173417144D01*
X91414819Y-173417144D02*
X91414819Y-173607620D01*
X91414819Y-173607620D02*
X91462438Y-173702858D01*
X91462438Y-173702858D02*
X91510057Y-173750477D01*
X91510057Y-173750477D02*
X91605295Y-173798096D01*
X91605295Y-173798096D02*
X91652914Y-173798096D01*
X91652914Y-173798096D02*
X91748152Y-173750477D01*
X91748152Y-173750477D02*
X91795771Y-173702858D01*
X91795771Y-173702858D02*
X91843390Y-173607620D01*
X91843390Y-173607620D02*
X91843390Y-173417144D01*
X91843390Y-173417144D02*
X91891009Y-173321906D01*
X91891009Y-173321906D02*
X91938628Y-173274287D01*
X91938628Y-173274287D02*
X92033866Y-173226668D01*
X92033866Y-173226668D02*
X92224342Y-173226668D01*
X92224342Y-173226668D02*
X92319580Y-173274287D01*
X92319580Y-173274287D02*
X92367200Y-173321906D01*
X92367200Y-173321906D02*
X92414819Y-173417144D01*
X92414819Y-173417144D02*
X92414819Y-173607620D01*
X92414819Y-173607620D02*
X92367200Y-173702858D01*
X92367200Y-173702858D02*
X92319580Y-173750477D01*
X92319580Y-173750477D02*
X92224342Y-173798096D01*
X92224342Y-173798096D02*
X92033866Y-173798096D01*
X92033866Y-173798096D02*
X91938628Y-173750477D01*
X91938628Y-173750477D02*
X91891009Y-173702858D01*
X91891009Y-173702858D02*
X91843390Y-173607620D01*
X91843390Y-174369525D02*
X91795771Y-174274287D01*
X91795771Y-174274287D02*
X91748152Y-174226668D01*
X91748152Y-174226668D02*
X91652914Y-174179049D01*
X91652914Y-174179049D02*
X91605295Y-174179049D01*
X91605295Y-174179049D02*
X91510057Y-174226668D01*
X91510057Y-174226668D02*
X91462438Y-174274287D01*
X91462438Y-174274287D02*
X91414819Y-174369525D01*
X91414819Y-174369525D02*
X91414819Y-174560001D01*
X91414819Y-174560001D02*
X91462438Y-174655239D01*
X91462438Y-174655239D02*
X91510057Y-174702858D01*
X91510057Y-174702858D02*
X91605295Y-174750477D01*
X91605295Y-174750477D02*
X91652914Y-174750477D01*
X91652914Y-174750477D02*
X91748152Y-174702858D01*
X91748152Y-174702858D02*
X91795771Y-174655239D01*
X91795771Y-174655239D02*
X91843390Y-174560001D01*
X91843390Y-174560001D02*
X91843390Y-174369525D01*
X91843390Y-174369525D02*
X91891009Y-174274287D01*
X91891009Y-174274287D02*
X91938628Y-174226668D01*
X91938628Y-174226668D02*
X92033866Y-174179049D01*
X92033866Y-174179049D02*
X92224342Y-174179049D01*
X92224342Y-174179049D02*
X92319580Y-174226668D01*
X92319580Y-174226668D02*
X92367200Y-174274287D01*
X92367200Y-174274287D02*
X92414819Y-174369525D01*
X92414819Y-174369525D02*
X92414819Y-174560001D01*
X92414819Y-174560001D02*
X92367200Y-174655239D01*
X92367200Y-174655239D02*
X92319580Y-174702858D01*
X92319580Y-174702858D02*
X92224342Y-174750477D01*
X92224342Y-174750477D02*
X92033866Y-174750477D01*
X92033866Y-174750477D02*
X91938628Y-174702858D01*
X91938628Y-174702858D02*
X91891009Y-174655239D01*
X91891009Y-174655239D02*
X91843390Y-174560001D01*
X92414819Y-175702858D02*
X92414819Y-175131430D01*
X92414819Y-175417144D02*
X91414819Y-175417144D01*
X91414819Y-175417144D02*
X91557676Y-175321906D01*
X91557676Y-175321906D02*
X91652914Y-175226668D01*
X91652914Y-175226668D02*
X91700533Y-175131430D01*
X92033866Y-176131430D02*
X92033866Y-176893335D01*
X91510057Y-177321906D02*
X91462438Y-177369525D01*
X91462438Y-177369525D02*
X91414819Y-177464763D01*
X91414819Y-177464763D02*
X91414819Y-177702858D01*
X91414819Y-177702858D02*
X91462438Y-177798096D01*
X91462438Y-177798096D02*
X91510057Y-177845715D01*
X91510057Y-177845715D02*
X91605295Y-177893334D01*
X91605295Y-177893334D02*
X91700533Y-177893334D01*
X91700533Y-177893334D02*
X91843390Y-177845715D01*
X91843390Y-177845715D02*
X92414819Y-177274287D01*
X92414819Y-177274287D02*
X92414819Y-177893334D01*
X92795771Y-178226668D02*
X92748152Y-178274287D01*
X92748152Y-178274287D02*
X92605295Y-178369525D01*
X92605295Y-178369525D02*
X92510057Y-178417144D01*
X92510057Y-178417144D02*
X92367200Y-178464763D01*
X92367200Y-178464763D02*
X92129104Y-178512382D01*
X92129104Y-178512382D02*
X91938628Y-178512382D01*
X91938628Y-178512382D02*
X91700533Y-178464763D01*
X91700533Y-178464763D02*
X91557676Y-178417144D01*
X91557676Y-178417144D02*
X91462438Y-178369525D01*
X91462438Y-178369525D02*
X91319580Y-178274287D01*
X91319580Y-178274287D02*
X91271961Y-178226668D01*
X93414819Y-163726666D02*
X94129104Y-163726666D01*
X94129104Y-163726666D02*
X94271961Y-163679047D01*
X94271961Y-163679047D02*
X94367200Y-163583809D01*
X94367200Y-163583809D02*
X94414819Y-163440952D01*
X94414819Y-163440952D02*
X94414819Y-163345714D01*
X93510057Y-164155238D02*
X93462438Y-164202857D01*
X93462438Y-164202857D02*
X93414819Y-164298095D01*
X93414819Y-164298095D02*
X93414819Y-164536190D01*
X93414819Y-164536190D02*
X93462438Y-164631428D01*
X93462438Y-164631428D02*
X93510057Y-164679047D01*
X93510057Y-164679047D02*
X93605295Y-164726666D01*
X93605295Y-164726666D02*
X93700533Y-164726666D01*
X93700533Y-164726666D02*
X93843390Y-164679047D01*
X93843390Y-164679047D02*
X94414819Y-164107619D01*
X94414819Y-164107619D02*
X94414819Y-164726666D01*
X229881907Y-219659580D02*
X229929526Y-219707200D01*
X229929526Y-219707200D02*
X230072383Y-219754819D01*
X230072383Y-219754819D02*
X230167621Y-219754819D01*
X230167621Y-219754819D02*
X230310478Y-219707200D01*
X230310478Y-219707200D02*
X230405716Y-219611961D01*
X230405716Y-219611961D02*
X230453335Y-219516723D01*
X230453335Y-219516723D02*
X230500954Y-219326247D01*
X230500954Y-219326247D02*
X230500954Y-219183390D01*
X230500954Y-219183390D02*
X230453335Y-218992914D01*
X230453335Y-218992914D02*
X230405716Y-218897676D01*
X230405716Y-218897676D02*
X230310478Y-218802438D01*
X230310478Y-218802438D02*
X230167621Y-218754819D01*
X230167621Y-218754819D02*
X230072383Y-218754819D01*
X230072383Y-218754819D02*
X229929526Y-218802438D01*
X229929526Y-218802438D02*
X229881907Y-218850057D01*
X229548573Y-218754819D02*
X228929526Y-218754819D01*
X228929526Y-218754819D02*
X229262859Y-219135771D01*
X229262859Y-219135771D02*
X229120002Y-219135771D01*
X229120002Y-219135771D02*
X229024764Y-219183390D01*
X229024764Y-219183390D02*
X228977145Y-219231009D01*
X228977145Y-219231009D02*
X228929526Y-219326247D01*
X228929526Y-219326247D02*
X228929526Y-219564342D01*
X228929526Y-219564342D02*
X228977145Y-219659580D01*
X228977145Y-219659580D02*
X229024764Y-219707200D01*
X229024764Y-219707200D02*
X229120002Y-219754819D01*
X229120002Y-219754819D02*
X229405716Y-219754819D01*
X229405716Y-219754819D02*
X229500954Y-219707200D01*
X229500954Y-219707200D02*
X229548573Y-219659580D01*
X227739049Y-219373866D02*
X226977145Y-219373866D01*
X225548573Y-219278628D02*
X225548573Y-219754819D01*
X225881906Y-218754819D02*
X225548573Y-219278628D01*
X225548573Y-219278628D02*
X225215240Y-218754819D01*
X224500954Y-219707200D02*
X224596192Y-219754819D01*
X224596192Y-219754819D02*
X224786668Y-219754819D01*
X224786668Y-219754819D02*
X224881906Y-219707200D01*
X224881906Y-219707200D02*
X224929525Y-219611961D01*
X224929525Y-219611961D02*
X224929525Y-219231009D01*
X224929525Y-219231009D02*
X224881906Y-219135771D01*
X224881906Y-219135771D02*
X224786668Y-219088152D01*
X224786668Y-219088152D02*
X224596192Y-219088152D01*
X224596192Y-219088152D02*
X224500954Y-219135771D01*
X224500954Y-219135771D02*
X224453335Y-219231009D01*
X224453335Y-219231009D02*
X224453335Y-219326247D01*
X224453335Y-219326247D02*
X224929525Y-219421485D01*
X223881906Y-219754819D02*
X223977144Y-219707200D01*
X223977144Y-219707200D02*
X224024763Y-219611961D01*
X224024763Y-219611961D02*
X224024763Y-218754819D01*
X223358096Y-219754819D02*
X223453334Y-219707200D01*
X223453334Y-219707200D02*
X223500953Y-219611961D01*
X223500953Y-219611961D02*
X223500953Y-218754819D01*
X222834286Y-219754819D02*
X222929524Y-219707200D01*
X222929524Y-219707200D02*
X222977143Y-219659580D01*
X222977143Y-219659580D02*
X223024762Y-219564342D01*
X223024762Y-219564342D02*
X223024762Y-219278628D01*
X223024762Y-219278628D02*
X222977143Y-219183390D01*
X222977143Y-219183390D02*
X222929524Y-219135771D01*
X222929524Y-219135771D02*
X222834286Y-219088152D01*
X222834286Y-219088152D02*
X222691429Y-219088152D01*
X222691429Y-219088152D02*
X222596191Y-219135771D01*
X222596191Y-219135771D02*
X222548572Y-219183390D01*
X222548572Y-219183390D02*
X222500953Y-219278628D01*
X222500953Y-219278628D02*
X222500953Y-219564342D01*
X222500953Y-219564342D02*
X222548572Y-219659580D01*
X222548572Y-219659580D02*
X222596191Y-219707200D01*
X222596191Y-219707200D02*
X222691429Y-219754819D01*
X222691429Y-219754819D02*
X222834286Y-219754819D01*
X222167619Y-219088152D02*
X221977143Y-219754819D01*
X221977143Y-219754819D02*
X221786667Y-219278628D01*
X221786667Y-219278628D02*
X221596191Y-219754819D01*
X221596191Y-219754819D02*
X221405715Y-219088152D01*
X219691429Y-219659580D02*
X219739048Y-219707200D01*
X219739048Y-219707200D02*
X219881905Y-219754819D01*
X219881905Y-219754819D02*
X219977143Y-219754819D01*
X219977143Y-219754819D02*
X220120000Y-219707200D01*
X220120000Y-219707200D02*
X220215238Y-219611961D01*
X220215238Y-219611961D02*
X220262857Y-219516723D01*
X220262857Y-219516723D02*
X220310476Y-219326247D01*
X220310476Y-219326247D02*
X220310476Y-219183390D01*
X220310476Y-219183390D02*
X220262857Y-218992914D01*
X220262857Y-218992914D02*
X220215238Y-218897676D01*
X220215238Y-218897676D02*
X220120000Y-218802438D01*
X220120000Y-218802438D02*
X219977143Y-218754819D01*
X219977143Y-218754819D02*
X219881905Y-218754819D01*
X219881905Y-218754819D02*
X219739048Y-218802438D01*
X219739048Y-218802438D02*
X219691429Y-218850057D01*
X219120000Y-219754819D02*
X219215238Y-219707200D01*
X219215238Y-219707200D02*
X219262857Y-219659580D01*
X219262857Y-219659580D02*
X219310476Y-219564342D01*
X219310476Y-219564342D02*
X219310476Y-219278628D01*
X219310476Y-219278628D02*
X219262857Y-219183390D01*
X219262857Y-219183390D02*
X219215238Y-219135771D01*
X219215238Y-219135771D02*
X219120000Y-219088152D01*
X219120000Y-219088152D02*
X218977143Y-219088152D01*
X218977143Y-219088152D02*
X218881905Y-219135771D01*
X218881905Y-219135771D02*
X218834286Y-219183390D01*
X218834286Y-219183390D02*
X218786667Y-219278628D01*
X218786667Y-219278628D02*
X218786667Y-219564342D01*
X218786667Y-219564342D02*
X218834286Y-219659580D01*
X218834286Y-219659580D02*
X218881905Y-219707200D01*
X218881905Y-219707200D02*
X218977143Y-219754819D01*
X218977143Y-219754819D02*
X219120000Y-219754819D01*
X218358095Y-219088152D02*
X218358095Y-219754819D01*
X218358095Y-219183390D02*
X218310476Y-219135771D01*
X218310476Y-219135771D02*
X218215238Y-219088152D01*
X218215238Y-219088152D02*
X218072381Y-219088152D01*
X218072381Y-219088152D02*
X217977143Y-219135771D01*
X217977143Y-219135771D02*
X217929524Y-219231009D01*
X217929524Y-219231009D02*
X217929524Y-219754819D01*
X217453333Y-219088152D02*
X217453333Y-219754819D01*
X217453333Y-219183390D02*
X217405714Y-219135771D01*
X217405714Y-219135771D02*
X217310476Y-219088152D01*
X217310476Y-219088152D02*
X217167619Y-219088152D01*
X217167619Y-219088152D02*
X217072381Y-219135771D01*
X217072381Y-219135771D02*
X217024762Y-219231009D01*
X217024762Y-219231009D02*
X217024762Y-219754819D01*
X216167619Y-219707200D02*
X216262857Y-219754819D01*
X216262857Y-219754819D02*
X216453333Y-219754819D01*
X216453333Y-219754819D02*
X216548571Y-219707200D01*
X216548571Y-219707200D02*
X216596190Y-219611961D01*
X216596190Y-219611961D02*
X216596190Y-219231009D01*
X216596190Y-219231009D02*
X216548571Y-219135771D01*
X216548571Y-219135771D02*
X216453333Y-219088152D01*
X216453333Y-219088152D02*
X216262857Y-219088152D01*
X216262857Y-219088152D02*
X216167619Y-219135771D01*
X216167619Y-219135771D02*
X216120000Y-219231009D01*
X216120000Y-219231009D02*
X216120000Y-219326247D01*
X216120000Y-219326247D02*
X216596190Y-219421485D01*
X215262857Y-219707200D02*
X215358095Y-219754819D01*
X215358095Y-219754819D02*
X215548571Y-219754819D01*
X215548571Y-219754819D02*
X215643809Y-219707200D01*
X215643809Y-219707200D02*
X215691428Y-219659580D01*
X215691428Y-219659580D02*
X215739047Y-219564342D01*
X215739047Y-219564342D02*
X215739047Y-219278628D01*
X215739047Y-219278628D02*
X215691428Y-219183390D01*
X215691428Y-219183390D02*
X215643809Y-219135771D01*
X215643809Y-219135771D02*
X215548571Y-219088152D01*
X215548571Y-219088152D02*
X215358095Y-219088152D01*
X215358095Y-219088152D02*
X215262857Y-219135771D01*
X214977142Y-219088152D02*
X214596190Y-219088152D01*
X214834285Y-218754819D02*
X214834285Y-219611961D01*
X214834285Y-219611961D02*
X214786666Y-219707200D01*
X214786666Y-219707200D02*
X214691428Y-219754819D01*
X214691428Y-219754819D02*
X214596190Y-219754819D01*
X214119999Y-219754819D02*
X214215237Y-219707200D01*
X214215237Y-219707200D02*
X214262856Y-219659580D01*
X214262856Y-219659580D02*
X214310475Y-219564342D01*
X214310475Y-219564342D02*
X214310475Y-219278628D01*
X214310475Y-219278628D02*
X214262856Y-219183390D01*
X214262856Y-219183390D02*
X214215237Y-219135771D01*
X214215237Y-219135771D02*
X214119999Y-219088152D01*
X214119999Y-219088152D02*
X213977142Y-219088152D01*
X213977142Y-219088152D02*
X213881904Y-219135771D01*
X213881904Y-219135771D02*
X213834285Y-219183390D01*
X213834285Y-219183390D02*
X213786666Y-219278628D01*
X213786666Y-219278628D02*
X213786666Y-219564342D01*
X213786666Y-219564342D02*
X213834285Y-219659580D01*
X213834285Y-219659580D02*
X213881904Y-219707200D01*
X213881904Y-219707200D02*
X213977142Y-219754819D01*
X213977142Y-219754819D02*
X214119999Y-219754819D01*
X213358094Y-219754819D02*
X213358094Y-219088152D01*
X213358094Y-219278628D02*
X213310475Y-219183390D01*
X213310475Y-219183390D02*
X213262856Y-219135771D01*
X213262856Y-219135771D02*
X213167618Y-219088152D01*
X213167618Y-219088152D02*
X213072380Y-219088152D01*
X211691427Y-220135771D02*
X211739046Y-220088152D01*
X211739046Y-220088152D02*
X211834284Y-219945295D01*
X211834284Y-219945295D02*
X211881903Y-219850057D01*
X211881903Y-219850057D02*
X211929522Y-219707200D01*
X211929522Y-219707200D02*
X211977141Y-219469104D01*
X211977141Y-219469104D02*
X211977141Y-219278628D01*
X211977141Y-219278628D02*
X211929522Y-219040533D01*
X211929522Y-219040533D02*
X211881903Y-218897676D01*
X211881903Y-218897676D02*
X211834284Y-218802438D01*
X211834284Y-218802438D02*
X211739046Y-218659580D01*
X211739046Y-218659580D02*
X211691427Y-218611961D01*
X211453331Y-218754819D02*
X210881903Y-218754819D01*
X211167617Y-219754819D02*
X211167617Y-218754819D01*
X210548569Y-219231009D02*
X210215236Y-219231009D01*
X210072379Y-219754819D02*
X210548569Y-219754819D01*
X210548569Y-219754819D02*
X210548569Y-218754819D01*
X210548569Y-218754819D02*
X210072379Y-218754819D01*
X209881903Y-219850057D02*
X209119998Y-219850057D01*
X208739045Y-219183390D02*
X208834283Y-219135771D01*
X208834283Y-219135771D02*
X208881902Y-219088152D01*
X208881902Y-219088152D02*
X208929521Y-218992914D01*
X208929521Y-218992914D02*
X208929521Y-218945295D01*
X208929521Y-218945295D02*
X208881902Y-218850057D01*
X208881902Y-218850057D02*
X208834283Y-218802438D01*
X208834283Y-218802438D02*
X208739045Y-218754819D01*
X208739045Y-218754819D02*
X208548569Y-218754819D01*
X208548569Y-218754819D02*
X208453331Y-218802438D01*
X208453331Y-218802438D02*
X208405712Y-218850057D01*
X208405712Y-218850057D02*
X208358093Y-218945295D01*
X208358093Y-218945295D02*
X208358093Y-218992914D01*
X208358093Y-218992914D02*
X208405712Y-219088152D01*
X208405712Y-219088152D02*
X208453331Y-219135771D01*
X208453331Y-219135771D02*
X208548569Y-219183390D01*
X208548569Y-219183390D02*
X208739045Y-219183390D01*
X208739045Y-219183390D02*
X208834283Y-219231009D01*
X208834283Y-219231009D02*
X208881902Y-219278628D01*
X208881902Y-219278628D02*
X208929521Y-219373866D01*
X208929521Y-219373866D02*
X208929521Y-219564342D01*
X208929521Y-219564342D02*
X208881902Y-219659580D01*
X208881902Y-219659580D02*
X208834283Y-219707200D01*
X208834283Y-219707200D02*
X208739045Y-219754819D01*
X208739045Y-219754819D02*
X208548569Y-219754819D01*
X208548569Y-219754819D02*
X208453331Y-219707200D01*
X208453331Y-219707200D02*
X208405712Y-219659580D01*
X208405712Y-219659580D02*
X208358093Y-219564342D01*
X208358093Y-219564342D02*
X208358093Y-219373866D01*
X208358093Y-219373866D02*
X208405712Y-219278628D01*
X208405712Y-219278628D02*
X208453331Y-219231009D01*
X208453331Y-219231009D02*
X208548569Y-219183390D01*
X207977140Y-218850057D02*
X207929521Y-218802438D01*
X207929521Y-218802438D02*
X207834283Y-218754819D01*
X207834283Y-218754819D02*
X207596188Y-218754819D01*
X207596188Y-218754819D02*
X207500950Y-218802438D01*
X207500950Y-218802438D02*
X207453331Y-218850057D01*
X207453331Y-218850057D02*
X207405712Y-218945295D01*
X207405712Y-218945295D02*
X207405712Y-219040533D01*
X207405712Y-219040533D02*
X207453331Y-219183390D01*
X207453331Y-219183390D02*
X208024759Y-219754819D01*
X208024759Y-219754819D02*
X207405712Y-219754819D01*
X207072378Y-218754819D02*
X206405712Y-218754819D01*
X206405712Y-218754819D02*
X206834283Y-219754819D01*
X205881902Y-219183390D02*
X205977140Y-219135771D01*
X205977140Y-219135771D02*
X206024759Y-219088152D01*
X206024759Y-219088152D02*
X206072378Y-218992914D01*
X206072378Y-218992914D02*
X206072378Y-218945295D01*
X206072378Y-218945295D02*
X206024759Y-218850057D01*
X206024759Y-218850057D02*
X205977140Y-218802438D01*
X205977140Y-218802438D02*
X205881902Y-218754819D01*
X205881902Y-218754819D02*
X205691426Y-218754819D01*
X205691426Y-218754819D02*
X205596188Y-218802438D01*
X205596188Y-218802438D02*
X205548569Y-218850057D01*
X205548569Y-218850057D02*
X205500950Y-218945295D01*
X205500950Y-218945295D02*
X205500950Y-218992914D01*
X205500950Y-218992914D02*
X205548569Y-219088152D01*
X205548569Y-219088152D02*
X205596188Y-219135771D01*
X205596188Y-219135771D02*
X205691426Y-219183390D01*
X205691426Y-219183390D02*
X205881902Y-219183390D01*
X205881902Y-219183390D02*
X205977140Y-219231009D01*
X205977140Y-219231009D02*
X206024759Y-219278628D01*
X206024759Y-219278628D02*
X206072378Y-219373866D01*
X206072378Y-219373866D02*
X206072378Y-219564342D01*
X206072378Y-219564342D02*
X206024759Y-219659580D01*
X206024759Y-219659580D02*
X205977140Y-219707200D01*
X205977140Y-219707200D02*
X205881902Y-219754819D01*
X205881902Y-219754819D02*
X205691426Y-219754819D01*
X205691426Y-219754819D02*
X205596188Y-219707200D01*
X205596188Y-219707200D02*
X205548569Y-219659580D01*
X205548569Y-219659580D02*
X205500950Y-219564342D01*
X205500950Y-219564342D02*
X205500950Y-219373866D01*
X205500950Y-219373866D02*
X205548569Y-219278628D01*
X205548569Y-219278628D02*
X205596188Y-219231009D01*
X205596188Y-219231009D02*
X205691426Y-219183390D01*
X204929521Y-219183390D02*
X205024759Y-219135771D01*
X205024759Y-219135771D02*
X205072378Y-219088152D01*
X205072378Y-219088152D02*
X205119997Y-218992914D01*
X205119997Y-218992914D02*
X205119997Y-218945295D01*
X205119997Y-218945295D02*
X205072378Y-218850057D01*
X205072378Y-218850057D02*
X205024759Y-218802438D01*
X205024759Y-218802438D02*
X204929521Y-218754819D01*
X204929521Y-218754819D02*
X204739045Y-218754819D01*
X204739045Y-218754819D02*
X204643807Y-218802438D01*
X204643807Y-218802438D02*
X204596188Y-218850057D01*
X204596188Y-218850057D02*
X204548569Y-218945295D01*
X204548569Y-218945295D02*
X204548569Y-218992914D01*
X204548569Y-218992914D02*
X204596188Y-219088152D01*
X204596188Y-219088152D02*
X204643807Y-219135771D01*
X204643807Y-219135771D02*
X204739045Y-219183390D01*
X204739045Y-219183390D02*
X204929521Y-219183390D01*
X204929521Y-219183390D02*
X205024759Y-219231009D01*
X205024759Y-219231009D02*
X205072378Y-219278628D01*
X205072378Y-219278628D02*
X205119997Y-219373866D01*
X205119997Y-219373866D02*
X205119997Y-219564342D01*
X205119997Y-219564342D02*
X205072378Y-219659580D01*
X205072378Y-219659580D02*
X205024759Y-219707200D01*
X205024759Y-219707200D02*
X204929521Y-219754819D01*
X204929521Y-219754819D02*
X204739045Y-219754819D01*
X204739045Y-219754819D02*
X204643807Y-219707200D01*
X204643807Y-219707200D02*
X204596188Y-219659580D01*
X204596188Y-219659580D02*
X204548569Y-219564342D01*
X204548569Y-219564342D02*
X204548569Y-219373866D01*
X204548569Y-219373866D02*
X204596188Y-219278628D01*
X204596188Y-219278628D02*
X204643807Y-219231009D01*
X204643807Y-219231009D02*
X204739045Y-219183390D01*
X203596188Y-219754819D02*
X204167616Y-219754819D01*
X203881902Y-219754819D02*
X203881902Y-218754819D01*
X203881902Y-218754819D02*
X203977140Y-218897676D01*
X203977140Y-218897676D02*
X204072378Y-218992914D01*
X204072378Y-218992914D02*
X204167616Y-219040533D01*
X203167616Y-219373866D02*
X202405712Y-219373866D01*
X201405712Y-219754819D02*
X201977140Y-219754819D01*
X201691426Y-219754819D02*
X201691426Y-218754819D01*
X201691426Y-218754819D02*
X201786664Y-218897676D01*
X201786664Y-218897676D02*
X201881902Y-218992914D01*
X201881902Y-218992914D02*
X201977140Y-219040533D01*
X201072378Y-220135771D02*
X201024759Y-220088152D01*
X201024759Y-220088152D02*
X200929521Y-219945295D01*
X200929521Y-219945295D02*
X200881902Y-219850057D01*
X200881902Y-219850057D02*
X200834283Y-219707200D01*
X200834283Y-219707200D02*
X200786664Y-219469104D01*
X200786664Y-219469104D02*
X200786664Y-219278628D01*
X200786664Y-219278628D02*
X200834283Y-219040533D01*
X200834283Y-219040533D02*
X200881902Y-218897676D01*
X200881902Y-218897676D02*
X200929521Y-218802438D01*
X200929521Y-218802438D02*
X201024759Y-218659580D01*
X201024759Y-218659580D02*
X201072378Y-218611961D01*
X215953333Y-216754819D02*
X215953333Y-217469104D01*
X215953333Y-217469104D02*
X216000952Y-217611961D01*
X216000952Y-217611961D02*
X216096190Y-217707200D01*
X216096190Y-217707200D02*
X216239047Y-217754819D01*
X216239047Y-217754819D02*
X216334285Y-217754819D01*
X215572380Y-216754819D02*
X214953333Y-216754819D01*
X214953333Y-216754819D02*
X215286666Y-217135771D01*
X215286666Y-217135771D02*
X215143809Y-217135771D01*
X215143809Y-217135771D02*
X215048571Y-217183390D01*
X215048571Y-217183390D02*
X215000952Y-217231009D01*
X215000952Y-217231009D02*
X214953333Y-217326247D01*
X214953333Y-217326247D02*
X214953333Y-217564342D01*
X214953333Y-217564342D02*
X215000952Y-217659580D01*
X215000952Y-217659580D02*
X215048571Y-217707200D01*
X215048571Y-217707200D02*
X215143809Y-217754819D01*
X215143809Y-217754819D02*
X215429523Y-217754819D01*
X215429523Y-217754819D02*
X215524761Y-217707200D01*
X215524761Y-217707200D02*
X215572380Y-217659580D01*
X347319580Y-150512378D02*
X347367200Y-150464759D01*
X347367200Y-150464759D02*
X347414819Y-150321902D01*
X347414819Y-150321902D02*
X347414819Y-150226664D01*
X347414819Y-150226664D02*
X347367200Y-150083807D01*
X347367200Y-150083807D02*
X347271961Y-149988569D01*
X347271961Y-149988569D02*
X347176723Y-149940950D01*
X347176723Y-149940950D02*
X346986247Y-149893331D01*
X346986247Y-149893331D02*
X346843390Y-149893331D01*
X346843390Y-149893331D02*
X346652914Y-149940950D01*
X346652914Y-149940950D02*
X346557676Y-149988569D01*
X346557676Y-149988569D02*
X346462438Y-150083807D01*
X346462438Y-150083807D02*
X346414819Y-150226664D01*
X346414819Y-150226664D02*
X346414819Y-150321902D01*
X346414819Y-150321902D02*
X346462438Y-150464759D01*
X346462438Y-150464759D02*
X346510057Y-150512378D01*
X347414819Y-151464759D02*
X347414819Y-150893331D01*
X347414819Y-151179045D02*
X346414819Y-151179045D01*
X346414819Y-151179045D02*
X346557676Y-151083807D01*
X346557676Y-151083807D02*
X346652914Y-150988569D01*
X346652914Y-150988569D02*
X346700533Y-150893331D01*
X347033866Y-152655236D02*
X347033866Y-153417141D01*
X346891009Y-154988569D02*
X346938628Y-155131426D01*
X346938628Y-155131426D02*
X346986247Y-155179045D01*
X346986247Y-155179045D02*
X347081485Y-155226664D01*
X347081485Y-155226664D02*
X347224342Y-155226664D01*
X347224342Y-155226664D02*
X347319580Y-155179045D01*
X347319580Y-155179045D02*
X347367200Y-155131426D01*
X347367200Y-155131426D02*
X347414819Y-155036188D01*
X347414819Y-155036188D02*
X347414819Y-154655236D01*
X347414819Y-154655236D02*
X346414819Y-154655236D01*
X346414819Y-154655236D02*
X346414819Y-154988569D01*
X346414819Y-154988569D02*
X346462438Y-155083807D01*
X346462438Y-155083807D02*
X346510057Y-155131426D01*
X346510057Y-155131426D02*
X346605295Y-155179045D01*
X346605295Y-155179045D02*
X346700533Y-155179045D01*
X346700533Y-155179045D02*
X346795771Y-155131426D01*
X346795771Y-155131426D02*
X346843390Y-155083807D01*
X346843390Y-155083807D02*
X346891009Y-154988569D01*
X346891009Y-154988569D02*
X346891009Y-154655236D01*
X347414819Y-155798093D02*
X347367200Y-155702855D01*
X347367200Y-155702855D02*
X347271961Y-155655236D01*
X347271961Y-155655236D02*
X346414819Y-155655236D01*
X346748152Y-156607617D02*
X347414819Y-156607617D01*
X346748152Y-156179046D02*
X347271961Y-156179046D01*
X347271961Y-156179046D02*
X347367200Y-156226665D01*
X347367200Y-156226665D02*
X347414819Y-156321903D01*
X347414819Y-156321903D02*
X347414819Y-156464760D01*
X347414819Y-156464760D02*
X347367200Y-156559998D01*
X347367200Y-156559998D02*
X347319580Y-156607617D01*
X347367200Y-157464760D02*
X347414819Y-157369522D01*
X347414819Y-157369522D02*
X347414819Y-157179046D01*
X347414819Y-157179046D02*
X347367200Y-157083808D01*
X347367200Y-157083808D02*
X347271961Y-157036189D01*
X347271961Y-157036189D02*
X346891009Y-157036189D01*
X346891009Y-157036189D02*
X346795771Y-157083808D01*
X346795771Y-157083808D02*
X346748152Y-157179046D01*
X346748152Y-157179046D02*
X346748152Y-157369522D01*
X346748152Y-157369522D02*
X346795771Y-157464760D01*
X346795771Y-157464760D02*
X346891009Y-157512379D01*
X346891009Y-157512379D02*
X346986247Y-157512379D01*
X346986247Y-157512379D02*
X347081485Y-157036189D01*
X347319580Y-159274284D02*
X347367200Y-159226665D01*
X347367200Y-159226665D02*
X347414819Y-159083808D01*
X347414819Y-159083808D02*
X347414819Y-158988570D01*
X347414819Y-158988570D02*
X347367200Y-158845713D01*
X347367200Y-158845713D02*
X347271961Y-158750475D01*
X347271961Y-158750475D02*
X347176723Y-158702856D01*
X347176723Y-158702856D02*
X346986247Y-158655237D01*
X346986247Y-158655237D02*
X346843390Y-158655237D01*
X346843390Y-158655237D02*
X346652914Y-158702856D01*
X346652914Y-158702856D02*
X346557676Y-158750475D01*
X346557676Y-158750475D02*
X346462438Y-158845713D01*
X346462438Y-158845713D02*
X346414819Y-158988570D01*
X346414819Y-158988570D02*
X346414819Y-159083808D01*
X346414819Y-159083808D02*
X346462438Y-159226665D01*
X346462438Y-159226665D02*
X346510057Y-159274284D01*
X347414819Y-159845713D02*
X347367200Y-159750475D01*
X347367200Y-159750475D02*
X347319580Y-159702856D01*
X347319580Y-159702856D02*
X347224342Y-159655237D01*
X347224342Y-159655237D02*
X346938628Y-159655237D01*
X346938628Y-159655237D02*
X346843390Y-159702856D01*
X346843390Y-159702856D02*
X346795771Y-159750475D01*
X346795771Y-159750475D02*
X346748152Y-159845713D01*
X346748152Y-159845713D02*
X346748152Y-159988570D01*
X346748152Y-159988570D02*
X346795771Y-160083808D01*
X346795771Y-160083808D02*
X346843390Y-160131427D01*
X346843390Y-160131427D02*
X346938628Y-160179046D01*
X346938628Y-160179046D02*
X347224342Y-160179046D01*
X347224342Y-160179046D02*
X347319580Y-160131427D01*
X347319580Y-160131427D02*
X347367200Y-160083808D01*
X347367200Y-160083808D02*
X347414819Y-159988570D01*
X347414819Y-159988570D02*
X347414819Y-159845713D01*
X346748152Y-160607618D02*
X347414819Y-160607618D01*
X346843390Y-160607618D02*
X346795771Y-160655237D01*
X346795771Y-160655237D02*
X346748152Y-160750475D01*
X346748152Y-160750475D02*
X346748152Y-160893332D01*
X346748152Y-160893332D02*
X346795771Y-160988570D01*
X346795771Y-160988570D02*
X346891009Y-161036189D01*
X346891009Y-161036189D02*
X347414819Y-161036189D01*
X346748152Y-161512380D02*
X347414819Y-161512380D01*
X346843390Y-161512380D02*
X346795771Y-161559999D01*
X346795771Y-161559999D02*
X346748152Y-161655237D01*
X346748152Y-161655237D02*
X346748152Y-161798094D01*
X346748152Y-161798094D02*
X346795771Y-161893332D01*
X346795771Y-161893332D02*
X346891009Y-161940951D01*
X346891009Y-161940951D02*
X347414819Y-161940951D01*
X347367200Y-162798094D02*
X347414819Y-162702856D01*
X347414819Y-162702856D02*
X347414819Y-162512380D01*
X347414819Y-162512380D02*
X347367200Y-162417142D01*
X347367200Y-162417142D02*
X347271961Y-162369523D01*
X347271961Y-162369523D02*
X346891009Y-162369523D01*
X346891009Y-162369523D02*
X346795771Y-162417142D01*
X346795771Y-162417142D02*
X346748152Y-162512380D01*
X346748152Y-162512380D02*
X346748152Y-162702856D01*
X346748152Y-162702856D02*
X346795771Y-162798094D01*
X346795771Y-162798094D02*
X346891009Y-162845713D01*
X346891009Y-162845713D02*
X346986247Y-162845713D01*
X346986247Y-162845713D02*
X347081485Y-162369523D01*
X347367200Y-163702856D02*
X347414819Y-163607618D01*
X347414819Y-163607618D02*
X347414819Y-163417142D01*
X347414819Y-163417142D02*
X347367200Y-163321904D01*
X347367200Y-163321904D02*
X347319580Y-163274285D01*
X347319580Y-163274285D02*
X347224342Y-163226666D01*
X347224342Y-163226666D02*
X346938628Y-163226666D01*
X346938628Y-163226666D02*
X346843390Y-163274285D01*
X346843390Y-163274285D02*
X346795771Y-163321904D01*
X346795771Y-163321904D02*
X346748152Y-163417142D01*
X346748152Y-163417142D02*
X346748152Y-163607618D01*
X346748152Y-163607618D02*
X346795771Y-163702856D01*
X346748152Y-163988571D02*
X346748152Y-164369523D01*
X346414819Y-164131428D02*
X347271961Y-164131428D01*
X347271961Y-164131428D02*
X347367200Y-164179047D01*
X347367200Y-164179047D02*
X347414819Y-164274285D01*
X347414819Y-164274285D02*
X347414819Y-164369523D01*
X347414819Y-164845714D02*
X347367200Y-164750476D01*
X347367200Y-164750476D02*
X347319580Y-164702857D01*
X347319580Y-164702857D02*
X347224342Y-164655238D01*
X347224342Y-164655238D02*
X346938628Y-164655238D01*
X346938628Y-164655238D02*
X346843390Y-164702857D01*
X346843390Y-164702857D02*
X346795771Y-164750476D01*
X346795771Y-164750476D02*
X346748152Y-164845714D01*
X346748152Y-164845714D02*
X346748152Y-164988571D01*
X346748152Y-164988571D02*
X346795771Y-165083809D01*
X346795771Y-165083809D02*
X346843390Y-165131428D01*
X346843390Y-165131428D02*
X346938628Y-165179047D01*
X346938628Y-165179047D02*
X347224342Y-165179047D01*
X347224342Y-165179047D02*
X347319580Y-165131428D01*
X347319580Y-165131428D02*
X347367200Y-165083809D01*
X347367200Y-165083809D02*
X347414819Y-164988571D01*
X347414819Y-164988571D02*
X347414819Y-164845714D01*
X347414819Y-165607619D02*
X346748152Y-165607619D01*
X346938628Y-165607619D02*
X346843390Y-165655238D01*
X346843390Y-165655238D02*
X346795771Y-165702857D01*
X346795771Y-165702857D02*
X346748152Y-165798095D01*
X346748152Y-165798095D02*
X346748152Y-165893333D01*
X347795771Y-167274286D02*
X347748152Y-167226667D01*
X347748152Y-167226667D02*
X347605295Y-167131429D01*
X347605295Y-167131429D02*
X347510057Y-167083810D01*
X347510057Y-167083810D02*
X347367200Y-167036191D01*
X347367200Y-167036191D02*
X347129104Y-166988572D01*
X347129104Y-166988572D02*
X346938628Y-166988572D01*
X346938628Y-166988572D02*
X346700533Y-167036191D01*
X346700533Y-167036191D02*
X346557676Y-167083810D01*
X346557676Y-167083810D02*
X346462438Y-167131429D01*
X346462438Y-167131429D02*
X346319580Y-167226667D01*
X346319580Y-167226667D02*
X346271961Y-167274286D01*
X346414819Y-167512382D02*
X346414819Y-168083810D01*
X347414819Y-167798096D02*
X346414819Y-167798096D01*
X346891009Y-168417144D02*
X346891009Y-168750477D01*
X347414819Y-168893334D02*
X347414819Y-168417144D01*
X347414819Y-168417144D02*
X346414819Y-168417144D01*
X346414819Y-168417144D02*
X346414819Y-168893334D01*
X347510057Y-169083811D02*
X347510057Y-169845715D01*
X346843390Y-170226668D02*
X346795771Y-170131430D01*
X346795771Y-170131430D02*
X346748152Y-170083811D01*
X346748152Y-170083811D02*
X346652914Y-170036192D01*
X346652914Y-170036192D02*
X346605295Y-170036192D01*
X346605295Y-170036192D02*
X346510057Y-170083811D01*
X346510057Y-170083811D02*
X346462438Y-170131430D01*
X346462438Y-170131430D02*
X346414819Y-170226668D01*
X346414819Y-170226668D02*
X346414819Y-170417144D01*
X346414819Y-170417144D02*
X346462438Y-170512382D01*
X346462438Y-170512382D02*
X346510057Y-170560001D01*
X346510057Y-170560001D02*
X346605295Y-170607620D01*
X346605295Y-170607620D02*
X346652914Y-170607620D01*
X346652914Y-170607620D02*
X346748152Y-170560001D01*
X346748152Y-170560001D02*
X346795771Y-170512382D01*
X346795771Y-170512382D02*
X346843390Y-170417144D01*
X346843390Y-170417144D02*
X346843390Y-170226668D01*
X346843390Y-170226668D02*
X346891009Y-170131430D01*
X346891009Y-170131430D02*
X346938628Y-170083811D01*
X346938628Y-170083811D02*
X347033866Y-170036192D01*
X347033866Y-170036192D02*
X347224342Y-170036192D01*
X347224342Y-170036192D02*
X347319580Y-170083811D01*
X347319580Y-170083811D02*
X347367200Y-170131430D01*
X347367200Y-170131430D02*
X347414819Y-170226668D01*
X347414819Y-170226668D02*
X347414819Y-170417144D01*
X347414819Y-170417144D02*
X347367200Y-170512382D01*
X347367200Y-170512382D02*
X347319580Y-170560001D01*
X347319580Y-170560001D02*
X347224342Y-170607620D01*
X347224342Y-170607620D02*
X347033866Y-170607620D01*
X347033866Y-170607620D02*
X346938628Y-170560001D01*
X346938628Y-170560001D02*
X346891009Y-170512382D01*
X346891009Y-170512382D02*
X346843390Y-170417144D01*
X346510057Y-170988573D02*
X346462438Y-171036192D01*
X346462438Y-171036192D02*
X346414819Y-171131430D01*
X346414819Y-171131430D02*
X346414819Y-171369525D01*
X346414819Y-171369525D02*
X346462438Y-171464763D01*
X346462438Y-171464763D02*
X346510057Y-171512382D01*
X346510057Y-171512382D02*
X346605295Y-171560001D01*
X346605295Y-171560001D02*
X346700533Y-171560001D01*
X346700533Y-171560001D02*
X346843390Y-171512382D01*
X346843390Y-171512382D02*
X347414819Y-170940954D01*
X347414819Y-170940954D02*
X347414819Y-171560001D01*
X346414819Y-171893335D02*
X346414819Y-172560001D01*
X346414819Y-172560001D02*
X347414819Y-172131430D01*
X346843390Y-173083811D02*
X346795771Y-172988573D01*
X346795771Y-172988573D02*
X346748152Y-172940954D01*
X346748152Y-172940954D02*
X346652914Y-172893335D01*
X346652914Y-172893335D02*
X346605295Y-172893335D01*
X346605295Y-172893335D02*
X346510057Y-172940954D01*
X346510057Y-172940954D02*
X346462438Y-172988573D01*
X346462438Y-172988573D02*
X346414819Y-173083811D01*
X346414819Y-173083811D02*
X346414819Y-173274287D01*
X346414819Y-173274287D02*
X346462438Y-173369525D01*
X346462438Y-173369525D02*
X346510057Y-173417144D01*
X346510057Y-173417144D02*
X346605295Y-173464763D01*
X346605295Y-173464763D02*
X346652914Y-173464763D01*
X346652914Y-173464763D02*
X346748152Y-173417144D01*
X346748152Y-173417144D02*
X346795771Y-173369525D01*
X346795771Y-173369525D02*
X346843390Y-173274287D01*
X346843390Y-173274287D02*
X346843390Y-173083811D01*
X346843390Y-173083811D02*
X346891009Y-172988573D01*
X346891009Y-172988573D02*
X346938628Y-172940954D01*
X346938628Y-172940954D02*
X347033866Y-172893335D01*
X347033866Y-172893335D02*
X347224342Y-172893335D01*
X347224342Y-172893335D02*
X347319580Y-172940954D01*
X347319580Y-172940954D02*
X347367200Y-172988573D01*
X347367200Y-172988573D02*
X347414819Y-173083811D01*
X347414819Y-173083811D02*
X347414819Y-173274287D01*
X347414819Y-173274287D02*
X347367200Y-173369525D01*
X347367200Y-173369525D02*
X347319580Y-173417144D01*
X347319580Y-173417144D02*
X347224342Y-173464763D01*
X347224342Y-173464763D02*
X347033866Y-173464763D01*
X347033866Y-173464763D02*
X346938628Y-173417144D01*
X346938628Y-173417144D02*
X346891009Y-173369525D01*
X346891009Y-173369525D02*
X346843390Y-173274287D01*
X346843390Y-174036192D02*
X346795771Y-173940954D01*
X346795771Y-173940954D02*
X346748152Y-173893335D01*
X346748152Y-173893335D02*
X346652914Y-173845716D01*
X346652914Y-173845716D02*
X346605295Y-173845716D01*
X346605295Y-173845716D02*
X346510057Y-173893335D01*
X346510057Y-173893335D02*
X346462438Y-173940954D01*
X346462438Y-173940954D02*
X346414819Y-174036192D01*
X346414819Y-174036192D02*
X346414819Y-174226668D01*
X346414819Y-174226668D02*
X346462438Y-174321906D01*
X346462438Y-174321906D02*
X346510057Y-174369525D01*
X346510057Y-174369525D02*
X346605295Y-174417144D01*
X346605295Y-174417144D02*
X346652914Y-174417144D01*
X346652914Y-174417144D02*
X346748152Y-174369525D01*
X346748152Y-174369525D02*
X346795771Y-174321906D01*
X346795771Y-174321906D02*
X346843390Y-174226668D01*
X346843390Y-174226668D02*
X346843390Y-174036192D01*
X346843390Y-174036192D02*
X346891009Y-173940954D01*
X346891009Y-173940954D02*
X346938628Y-173893335D01*
X346938628Y-173893335D02*
X347033866Y-173845716D01*
X347033866Y-173845716D02*
X347224342Y-173845716D01*
X347224342Y-173845716D02*
X347319580Y-173893335D01*
X347319580Y-173893335D02*
X347367200Y-173940954D01*
X347367200Y-173940954D02*
X347414819Y-174036192D01*
X347414819Y-174036192D02*
X347414819Y-174226668D01*
X347414819Y-174226668D02*
X347367200Y-174321906D01*
X347367200Y-174321906D02*
X347319580Y-174369525D01*
X347319580Y-174369525D02*
X347224342Y-174417144D01*
X347224342Y-174417144D02*
X347033866Y-174417144D01*
X347033866Y-174417144D02*
X346938628Y-174369525D01*
X346938628Y-174369525D02*
X346891009Y-174321906D01*
X346891009Y-174321906D02*
X346843390Y-174226668D01*
X347414819Y-175369525D02*
X347414819Y-174798097D01*
X347414819Y-175083811D02*
X346414819Y-175083811D01*
X346414819Y-175083811D02*
X346557676Y-174988573D01*
X346557676Y-174988573D02*
X346652914Y-174893335D01*
X346652914Y-174893335D02*
X346700533Y-174798097D01*
X347033866Y-175798097D02*
X347033866Y-176560002D01*
X346414819Y-176940954D02*
X346414819Y-177560001D01*
X346414819Y-177560001D02*
X346795771Y-177226668D01*
X346795771Y-177226668D02*
X346795771Y-177369525D01*
X346795771Y-177369525D02*
X346843390Y-177464763D01*
X346843390Y-177464763D02*
X346891009Y-177512382D01*
X346891009Y-177512382D02*
X346986247Y-177560001D01*
X346986247Y-177560001D02*
X347224342Y-177560001D01*
X347224342Y-177560001D02*
X347319580Y-177512382D01*
X347319580Y-177512382D02*
X347367200Y-177464763D01*
X347367200Y-177464763D02*
X347414819Y-177369525D01*
X347414819Y-177369525D02*
X347414819Y-177083811D01*
X347414819Y-177083811D02*
X347367200Y-176988573D01*
X347367200Y-176988573D02*
X347319580Y-176940954D01*
X347795771Y-177893335D02*
X347748152Y-177940954D01*
X347748152Y-177940954D02*
X347605295Y-178036192D01*
X347605295Y-178036192D02*
X347510057Y-178083811D01*
X347510057Y-178083811D02*
X347367200Y-178131430D01*
X347367200Y-178131430D02*
X347129104Y-178179049D01*
X347129104Y-178179049D02*
X346938628Y-178179049D01*
X346938628Y-178179049D02*
X346700533Y-178131430D01*
X346700533Y-178131430D02*
X346557676Y-178083811D01*
X346557676Y-178083811D02*
X346462438Y-178036192D01*
X346462438Y-178036192D02*
X346319580Y-177940954D01*
X346319580Y-177940954D02*
X346271961Y-177893335D01*
X348414819Y-163726666D02*
X349129104Y-163726666D01*
X349129104Y-163726666D02*
X349271961Y-163679047D01*
X349271961Y-163679047D02*
X349367200Y-163583809D01*
X349367200Y-163583809D02*
X349414819Y-163440952D01*
X349414819Y-163440952D02*
X349414819Y-163345714D01*
X349414819Y-164726666D02*
X349414819Y-164155238D01*
X349414819Y-164440952D02*
X348414819Y-164440952D01*
X348414819Y-164440952D02*
X348557676Y-164345714D01*
X348557676Y-164345714D02*
X348652914Y-164250476D01*
X348652914Y-164250476D02*
X348700533Y-164155238D01*
X367074819Y-185514285D02*
X367074819Y-185323809D01*
X367074819Y-185323809D02*
X367122438Y-185228571D01*
X367122438Y-185228571D02*
X367170057Y-185180952D01*
X367170057Y-185180952D02*
X367312914Y-185085714D01*
X367312914Y-185085714D02*
X367503390Y-185038095D01*
X367503390Y-185038095D02*
X367884342Y-185038095D01*
X367884342Y-185038095D02*
X367979580Y-185085714D01*
X367979580Y-185085714D02*
X368027200Y-185133333D01*
X368027200Y-185133333D02*
X368074819Y-185228571D01*
X368074819Y-185228571D02*
X368074819Y-185419047D01*
X368074819Y-185419047D02*
X368027200Y-185514285D01*
X368027200Y-185514285D02*
X367979580Y-185561904D01*
X367979580Y-185561904D02*
X367884342Y-185609523D01*
X367884342Y-185609523D02*
X367646247Y-185609523D01*
X367646247Y-185609523D02*
X367551009Y-185561904D01*
X367551009Y-185561904D02*
X367503390Y-185514285D01*
X367503390Y-185514285D02*
X367455771Y-185419047D01*
X367455771Y-185419047D02*
X367455771Y-185228571D01*
X367455771Y-185228571D02*
X367503390Y-185133333D01*
X367503390Y-185133333D02*
X367551009Y-185085714D01*
X367551009Y-185085714D02*
X367646247Y-185038095D01*
X367503390Y-186180952D02*
X367455771Y-186085714D01*
X367455771Y-186085714D02*
X367408152Y-186038095D01*
X367408152Y-186038095D02*
X367312914Y-185990476D01*
X367312914Y-185990476D02*
X367265295Y-185990476D01*
X367265295Y-185990476D02*
X367170057Y-186038095D01*
X367170057Y-186038095D02*
X367122438Y-186085714D01*
X367122438Y-186085714D02*
X367074819Y-186180952D01*
X367074819Y-186180952D02*
X367074819Y-186371428D01*
X367074819Y-186371428D02*
X367122438Y-186466666D01*
X367122438Y-186466666D02*
X367170057Y-186514285D01*
X367170057Y-186514285D02*
X367265295Y-186561904D01*
X367265295Y-186561904D02*
X367312914Y-186561904D01*
X367312914Y-186561904D02*
X367408152Y-186514285D01*
X367408152Y-186514285D02*
X367455771Y-186466666D01*
X367455771Y-186466666D02*
X367503390Y-186371428D01*
X367503390Y-186371428D02*
X367503390Y-186180952D01*
X367503390Y-186180952D02*
X367551009Y-186085714D01*
X367551009Y-186085714D02*
X367598628Y-186038095D01*
X367598628Y-186038095D02*
X367693866Y-185990476D01*
X367693866Y-185990476D02*
X367884342Y-185990476D01*
X367884342Y-185990476D02*
X367979580Y-186038095D01*
X367979580Y-186038095D02*
X368027200Y-186085714D01*
X368027200Y-186085714D02*
X368074819Y-186180952D01*
X368074819Y-186180952D02*
X368074819Y-186371428D01*
X368074819Y-186371428D02*
X368027200Y-186466666D01*
X368027200Y-186466666D02*
X367979580Y-186514285D01*
X367979580Y-186514285D02*
X367884342Y-186561904D01*
X367884342Y-186561904D02*
X367693866Y-186561904D01*
X367693866Y-186561904D02*
X367598628Y-186514285D01*
X367598628Y-186514285D02*
X367551009Y-186466666D01*
X367551009Y-186466666D02*
X367503390Y-186371428D01*
X368074819Y-187561904D02*
X367598628Y-187228571D01*
X368074819Y-186990476D02*
X367074819Y-186990476D01*
X367074819Y-186990476D02*
X367074819Y-187371428D01*
X367074819Y-187371428D02*
X367122438Y-187466666D01*
X367122438Y-187466666D02*
X367170057Y-187514285D01*
X367170057Y-187514285D02*
X367265295Y-187561904D01*
X367265295Y-187561904D02*
X367408152Y-187561904D01*
X367408152Y-187561904D02*
X367503390Y-187514285D01*
X367503390Y-187514285D02*
X367551009Y-187466666D01*
X367551009Y-187466666D02*
X367598628Y-187371428D01*
X367598628Y-187371428D02*
X367598628Y-186990476D01*
X364454819Y-186133333D02*
X363978628Y-185800000D01*
X364454819Y-185561905D02*
X363454819Y-185561905D01*
X363454819Y-185561905D02*
X363454819Y-185942857D01*
X363454819Y-185942857D02*
X363502438Y-186038095D01*
X363502438Y-186038095D02*
X363550057Y-186085714D01*
X363550057Y-186085714D02*
X363645295Y-186133333D01*
X363645295Y-186133333D02*
X363788152Y-186133333D01*
X363788152Y-186133333D02*
X363883390Y-186085714D01*
X363883390Y-186085714D02*
X363931009Y-186038095D01*
X363931009Y-186038095D02*
X363978628Y-185942857D01*
X363978628Y-185942857D02*
X363978628Y-185561905D01*
X363550057Y-186514286D02*
X363502438Y-186561905D01*
X363502438Y-186561905D02*
X363454819Y-186657143D01*
X363454819Y-186657143D02*
X363454819Y-186895238D01*
X363454819Y-186895238D02*
X363502438Y-186990476D01*
X363502438Y-186990476D02*
X363550057Y-187038095D01*
X363550057Y-187038095D02*
X363645295Y-187085714D01*
X363645295Y-187085714D02*
X363740533Y-187085714D01*
X363740533Y-187085714D02*
X363883390Y-187038095D01*
X363883390Y-187038095D02*
X364454819Y-186466667D01*
X364454819Y-186466667D02*
X364454819Y-187085714D01*
X341136819Y-193567333D02*
X341136819Y-192995905D01*
X341136819Y-193281619D02*
X340136819Y-193281619D01*
X340136819Y-193281619D02*
X340279676Y-193186381D01*
X340279676Y-193186381D02*
X340374914Y-193091143D01*
X340374914Y-193091143D02*
X340422533Y-192995905D01*
X340136819Y-194186381D02*
X340136819Y-194281619D01*
X340136819Y-194281619D02*
X340184438Y-194376857D01*
X340184438Y-194376857D02*
X340232057Y-194424476D01*
X340232057Y-194424476D02*
X340327295Y-194472095D01*
X340327295Y-194472095D02*
X340517771Y-194519714D01*
X340517771Y-194519714D02*
X340755866Y-194519714D01*
X340755866Y-194519714D02*
X340946342Y-194472095D01*
X340946342Y-194472095D02*
X341041580Y-194424476D01*
X341041580Y-194424476D02*
X341089200Y-194376857D01*
X341089200Y-194376857D02*
X341136819Y-194281619D01*
X341136819Y-194281619D02*
X341136819Y-194186381D01*
X341136819Y-194186381D02*
X341089200Y-194091143D01*
X341089200Y-194091143D02*
X341041580Y-194043524D01*
X341041580Y-194043524D02*
X340946342Y-193995905D01*
X340946342Y-193995905D02*
X340755866Y-193948286D01*
X340755866Y-193948286D02*
X340517771Y-193948286D01*
X340517771Y-193948286D02*
X340327295Y-193995905D01*
X340327295Y-193995905D02*
X340232057Y-194043524D01*
X340232057Y-194043524D02*
X340184438Y-194091143D01*
X340184438Y-194091143D02*
X340136819Y-194186381D01*
X340136819Y-195138762D02*
X340136819Y-195234000D01*
X340136819Y-195234000D02*
X340184438Y-195329238D01*
X340184438Y-195329238D02*
X340232057Y-195376857D01*
X340232057Y-195376857D02*
X340327295Y-195424476D01*
X340327295Y-195424476D02*
X340517771Y-195472095D01*
X340517771Y-195472095D02*
X340755866Y-195472095D01*
X340755866Y-195472095D02*
X340946342Y-195424476D01*
X340946342Y-195424476D02*
X341041580Y-195376857D01*
X341041580Y-195376857D02*
X341089200Y-195329238D01*
X341089200Y-195329238D02*
X341136819Y-195234000D01*
X341136819Y-195234000D02*
X341136819Y-195138762D01*
X341136819Y-195138762D02*
X341089200Y-195043524D01*
X341089200Y-195043524D02*
X341041580Y-194995905D01*
X341041580Y-194995905D02*
X340946342Y-194948286D01*
X340946342Y-194948286D02*
X340755866Y-194900667D01*
X340755866Y-194900667D02*
X340517771Y-194900667D01*
X340517771Y-194900667D02*
X340327295Y-194948286D01*
X340327295Y-194948286D02*
X340232057Y-194995905D01*
X340232057Y-194995905D02*
X340184438Y-195043524D01*
X340184438Y-195043524D02*
X340136819Y-195138762D01*
X341136819Y-196472095D02*
X340660628Y-196138762D01*
X341136819Y-195900667D02*
X340136819Y-195900667D01*
X340136819Y-195900667D02*
X340136819Y-196281619D01*
X340136819Y-196281619D02*
X340184438Y-196376857D01*
X340184438Y-196376857D02*
X340232057Y-196424476D01*
X340232057Y-196424476D02*
X340327295Y-196472095D01*
X340327295Y-196472095D02*
X340470152Y-196472095D01*
X340470152Y-196472095D02*
X340565390Y-196424476D01*
X340565390Y-196424476D02*
X340613009Y-196376857D01*
X340613009Y-196376857D02*
X340660628Y-196281619D01*
X340660628Y-196281619D02*
X340660628Y-195900667D01*
X337766819Y-194567333D02*
X337290628Y-194234000D01*
X337766819Y-193995905D02*
X336766819Y-193995905D01*
X336766819Y-193995905D02*
X336766819Y-194376857D01*
X336766819Y-194376857D02*
X336814438Y-194472095D01*
X336814438Y-194472095D02*
X336862057Y-194519714D01*
X336862057Y-194519714D02*
X336957295Y-194567333D01*
X336957295Y-194567333D02*
X337100152Y-194567333D01*
X337100152Y-194567333D02*
X337195390Y-194519714D01*
X337195390Y-194519714D02*
X337243009Y-194472095D01*
X337243009Y-194472095D02*
X337290628Y-194376857D01*
X337290628Y-194376857D02*
X337290628Y-193995905D01*
X337100152Y-195424476D02*
X337766819Y-195424476D01*
X336719200Y-195186381D02*
X337433485Y-194948286D01*
X337433485Y-194948286D02*
X337433485Y-195567333D01*
X56074819Y-185312285D02*
X56074819Y-185121809D01*
X56074819Y-185121809D02*
X56122438Y-185026571D01*
X56122438Y-185026571D02*
X56170057Y-184978952D01*
X56170057Y-184978952D02*
X56312914Y-184883714D01*
X56312914Y-184883714D02*
X56503390Y-184836095D01*
X56503390Y-184836095D02*
X56884342Y-184836095D01*
X56884342Y-184836095D02*
X56979580Y-184883714D01*
X56979580Y-184883714D02*
X57027200Y-184931333D01*
X57027200Y-184931333D02*
X57074819Y-185026571D01*
X57074819Y-185026571D02*
X57074819Y-185217047D01*
X57074819Y-185217047D02*
X57027200Y-185312285D01*
X57027200Y-185312285D02*
X56979580Y-185359904D01*
X56979580Y-185359904D02*
X56884342Y-185407523D01*
X56884342Y-185407523D02*
X56646247Y-185407523D01*
X56646247Y-185407523D02*
X56551009Y-185359904D01*
X56551009Y-185359904D02*
X56503390Y-185312285D01*
X56503390Y-185312285D02*
X56455771Y-185217047D01*
X56455771Y-185217047D02*
X56455771Y-185026571D01*
X56455771Y-185026571D02*
X56503390Y-184931333D01*
X56503390Y-184931333D02*
X56551009Y-184883714D01*
X56551009Y-184883714D02*
X56646247Y-184836095D01*
X56503390Y-185978952D02*
X56455771Y-185883714D01*
X56455771Y-185883714D02*
X56408152Y-185836095D01*
X56408152Y-185836095D02*
X56312914Y-185788476D01*
X56312914Y-185788476D02*
X56265295Y-185788476D01*
X56265295Y-185788476D02*
X56170057Y-185836095D01*
X56170057Y-185836095D02*
X56122438Y-185883714D01*
X56122438Y-185883714D02*
X56074819Y-185978952D01*
X56074819Y-185978952D02*
X56074819Y-186169428D01*
X56074819Y-186169428D02*
X56122438Y-186264666D01*
X56122438Y-186264666D02*
X56170057Y-186312285D01*
X56170057Y-186312285D02*
X56265295Y-186359904D01*
X56265295Y-186359904D02*
X56312914Y-186359904D01*
X56312914Y-186359904D02*
X56408152Y-186312285D01*
X56408152Y-186312285D02*
X56455771Y-186264666D01*
X56455771Y-186264666D02*
X56503390Y-186169428D01*
X56503390Y-186169428D02*
X56503390Y-185978952D01*
X56503390Y-185978952D02*
X56551009Y-185883714D01*
X56551009Y-185883714D02*
X56598628Y-185836095D01*
X56598628Y-185836095D02*
X56693866Y-185788476D01*
X56693866Y-185788476D02*
X56884342Y-185788476D01*
X56884342Y-185788476D02*
X56979580Y-185836095D01*
X56979580Y-185836095D02*
X57027200Y-185883714D01*
X57027200Y-185883714D02*
X57074819Y-185978952D01*
X57074819Y-185978952D02*
X57074819Y-186169428D01*
X57074819Y-186169428D02*
X57027200Y-186264666D01*
X57027200Y-186264666D02*
X56979580Y-186312285D01*
X56979580Y-186312285D02*
X56884342Y-186359904D01*
X56884342Y-186359904D02*
X56693866Y-186359904D01*
X56693866Y-186359904D02*
X56598628Y-186312285D01*
X56598628Y-186312285D02*
X56551009Y-186264666D01*
X56551009Y-186264666D02*
X56503390Y-186169428D01*
X57074819Y-187359904D02*
X56598628Y-187026571D01*
X57074819Y-186788476D02*
X56074819Y-186788476D01*
X56074819Y-186788476D02*
X56074819Y-187169428D01*
X56074819Y-187169428D02*
X56122438Y-187264666D01*
X56122438Y-187264666D02*
X56170057Y-187312285D01*
X56170057Y-187312285D02*
X56265295Y-187359904D01*
X56265295Y-187359904D02*
X56408152Y-187359904D01*
X56408152Y-187359904D02*
X56503390Y-187312285D01*
X56503390Y-187312285D02*
X56551009Y-187264666D01*
X56551009Y-187264666D02*
X56598628Y-187169428D01*
X56598628Y-187169428D02*
X56598628Y-186788476D01*
X53454819Y-185931333D02*
X52978628Y-185598000D01*
X53454819Y-185359905D02*
X52454819Y-185359905D01*
X52454819Y-185359905D02*
X52454819Y-185740857D01*
X52454819Y-185740857D02*
X52502438Y-185836095D01*
X52502438Y-185836095D02*
X52550057Y-185883714D01*
X52550057Y-185883714D02*
X52645295Y-185931333D01*
X52645295Y-185931333D02*
X52788152Y-185931333D01*
X52788152Y-185931333D02*
X52883390Y-185883714D01*
X52883390Y-185883714D02*
X52931009Y-185836095D01*
X52931009Y-185836095D02*
X52978628Y-185740857D01*
X52978628Y-185740857D02*
X52978628Y-185359905D01*
X52454819Y-186264667D02*
X52454819Y-186883714D01*
X52454819Y-186883714D02*
X52835771Y-186550381D01*
X52835771Y-186550381D02*
X52835771Y-186693238D01*
X52835771Y-186693238D02*
X52883390Y-186788476D01*
X52883390Y-186788476D02*
X52931009Y-186836095D01*
X52931009Y-186836095D02*
X53026247Y-186883714D01*
X53026247Y-186883714D02*
X53264342Y-186883714D01*
X53264342Y-186883714D02*
X53359580Y-186836095D01*
X53359580Y-186836095D02*
X53407200Y-186788476D01*
X53407200Y-186788476D02*
X53454819Y-186693238D01*
X53454819Y-186693238D02*
X53454819Y-186407524D01*
X53454819Y-186407524D02*
X53407200Y-186312286D01*
X53407200Y-186312286D02*
X53359580Y-186264667D01*
X318378819Y-168230761D02*
X318378819Y-167659333D01*
X318378819Y-167945047D02*
X317378819Y-167945047D01*
X317378819Y-167945047D02*
X317521676Y-167849809D01*
X317521676Y-167849809D02*
X317616914Y-167754571D01*
X317616914Y-167754571D02*
X317664533Y-167659333D01*
X317378819Y-169087904D02*
X317378819Y-168897428D01*
X317378819Y-168897428D02*
X317426438Y-168802190D01*
X317426438Y-168802190D02*
X317474057Y-168754571D01*
X317474057Y-168754571D02*
X317616914Y-168659333D01*
X317616914Y-168659333D02*
X317807390Y-168611714D01*
X317807390Y-168611714D02*
X318188342Y-168611714D01*
X318188342Y-168611714D02*
X318283580Y-168659333D01*
X318283580Y-168659333D02*
X318331200Y-168706952D01*
X318331200Y-168706952D02*
X318378819Y-168802190D01*
X318378819Y-168802190D02*
X318378819Y-168992666D01*
X318378819Y-168992666D02*
X318331200Y-169087904D01*
X318331200Y-169087904D02*
X318283580Y-169135523D01*
X318283580Y-169135523D02*
X318188342Y-169183142D01*
X318188342Y-169183142D02*
X317950247Y-169183142D01*
X317950247Y-169183142D02*
X317855009Y-169135523D01*
X317855009Y-169135523D02*
X317807390Y-169087904D01*
X317807390Y-169087904D02*
X317759771Y-168992666D01*
X317759771Y-168992666D02*
X317759771Y-168802190D01*
X317759771Y-168802190D02*
X317807390Y-168706952D01*
X317807390Y-168706952D02*
X317855009Y-168659333D01*
X317855009Y-168659333D02*
X317950247Y-168611714D01*
X318378819Y-169611714D02*
X317378819Y-169611714D01*
X317997866Y-169706952D02*
X318378819Y-169992666D01*
X317712152Y-169992666D02*
X318093104Y-169611714D01*
X320748819Y-168659333D02*
X320272628Y-168326000D01*
X320748819Y-168087905D02*
X319748819Y-168087905D01*
X319748819Y-168087905D02*
X319748819Y-168468857D01*
X319748819Y-168468857D02*
X319796438Y-168564095D01*
X319796438Y-168564095D02*
X319844057Y-168611714D01*
X319844057Y-168611714D02*
X319939295Y-168659333D01*
X319939295Y-168659333D02*
X320082152Y-168659333D01*
X320082152Y-168659333D02*
X320177390Y-168611714D01*
X320177390Y-168611714D02*
X320225009Y-168564095D01*
X320225009Y-168564095D02*
X320272628Y-168468857D01*
X320272628Y-168468857D02*
X320272628Y-168087905D01*
X320748819Y-169611714D02*
X320748819Y-169040286D01*
X320748819Y-169326000D02*
X319748819Y-169326000D01*
X319748819Y-169326000D02*
X319891676Y-169230762D01*
X319891676Y-169230762D02*
X319986914Y-169135524D01*
X319986914Y-169135524D02*
X320034533Y-169040286D01*
D11*
%TO.C,J2*%
X71737400Y-142757400D02*
X71737400Y-184362600D01*
X71737400Y-184362600D02*
X89746000Y-184362600D01*
X89746000Y-142757400D02*
X71737400Y-142757400D01*
X89746000Y-184362600D02*
X89746000Y-142757400D01*
%TO.C,J3*%
X194317400Y-197554000D02*
X194317400Y-215562600D01*
X194317400Y-215562600D02*
X235922600Y-215562600D01*
X235922600Y-197554000D02*
X194317400Y-197554000D01*
X235922600Y-215562600D02*
X235922600Y-197554000D01*
%TO.C,J1*%
X326737400Y-142757400D02*
X326737400Y-184362600D01*
X326737400Y-184362600D02*
X344746000Y-184362600D01*
X344746000Y-142757400D02*
X326737400Y-142757400D01*
X344746000Y-184362600D02*
X344746000Y-142757400D01*
D12*
%TO.C,R2*%
X364000000Y-176140000D02*
X364000000Y-178550000D01*
X364000000Y-196460000D02*
X364000000Y-194050000D01*
X361500000Y-178550000D02*
X366500000Y-178550000D01*
X366500000Y-194050000D01*
X361500000Y-194050000D01*
X361500000Y-178550000D01*
%TO.C,R4*%
X337312000Y-187114000D02*
X337312000Y-188784000D01*
X337312000Y-202354000D02*
X337312000Y-200684000D01*
X335062000Y-188784000D02*
X339562000Y-188784000D01*
X339562000Y-200684000D01*
X335062000Y-200684000D01*
X335062000Y-188784000D01*
%TO.C,R3*%
X53000000Y-175938000D02*
X53000000Y-178348000D01*
X53000000Y-196258000D02*
X53000000Y-193848000D01*
X50500000Y-178348000D02*
X55500000Y-178348000D01*
X55500000Y-193848000D01*
X50500000Y-193848000D01*
X50500000Y-178348000D01*
%TO.C,R1*%
X320294000Y-163746000D02*
X320294000Y-165676000D01*
X320294000Y-173906000D02*
X320294000Y-171976000D01*
X321544000Y-171976000D02*
X319044000Y-171976000D01*
X319044000Y-165676000D01*
X321544000Y-165676000D01*
X321544000Y-171976000D01*
%TD*%
M02*
