M48
; DRILL file {KiCad 9.0.4-1.fc42app3} date 2025-10-21T18:27:50-0400
; FORMAT={-:-/ absolute / metric / decimal}
; #@! TF.CreationDate,2025-10-21T18:27:50-04:00
; #@! TF.GenerationSoftware,Kicad,Pcbnew,9.0.4-1.fc42app3
; #@! TF.FileFunction,Plated,1,2,PTH
FMAT,2
METRIC
; #@! TA.AperFunction,Plated,PTH,ComponentDrill
T1C0.800
; #@! TA.AperFunction,Plated,PTH,ComponentDrill
T2C1.016
; #@! TA.AperFunction,Plated,PTH,ViaDrill
T3C1.200
; #@! TA.AperFunction,Plated,PTH,ComponentDrill
T4C1.200
; #@! TA.AperFunction,Plated,PTH,ComponentDrill
T5C1.800
; #@! TA.AperFunction,Plated,PTH,ComponentDrill
T6C2.000
; #@! TA.AperFunction,Plated,PTH,ComponentDrill
T7C2.200
; #@! TA.AperFunction,Plated,PTH,ComponentDrill
T8C4.200
%
G90
G05
T1
X320.294Y-139.446
X320.294Y-149.606
T2
X79.46Y-123.52
X79.46Y-126.06
X79.46Y-128.6
X79.46Y-131.14
X79.46Y-133.68
X79.46Y-136.22
X79.46Y-138.76
X79.46Y-141.3
X79.46Y-143.84
X79.46Y-146.38
X79.46Y-148.92
X79.46Y-151.46
X79.46Y-154.0
X82.0Y-123.52
X82.0Y-126.06
X82.0Y-128.6
X82.0Y-131.14
X82.0Y-133.68
X82.0Y-136.22
X82.0Y-138.76
X82.0Y-141.3
X82.0Y-143.84
X82.0Y-146.38
X82.0Y-148.92
X82.0Y-151.46
X82.0Y-154.0
X200.38Y-181.0
X200.38Y-183.54
X202.92Y-181.0
X202.92Y-183.54
X205.46Y-181.0
X205.46Y-183.54
X208.0Y-181.0
X208.0Y-183.54
X210.54Y-181.0
X210.54Y-183.54
X213.08Y-181.0
X213.08Y-183.54
X215.62Y-181.0
X215.62Y-183.54
X218.16Y-181.0
X218.16Y-183.54
X220.7Y-181.0
X220.7Y-183.54
X223.24Y-181.0
X223.24Y-183.54
X225.78Y-181.0
X225.78Y-183.54
X228.32Y-181.0
X228.32Y-183.54
X230.86Y-181.0
X230.86Y-183.54
X334.96Y-123.52
X334.96Y-126.06
X334.96Y-128.6
X334.96Y-131.14
X334.96Y-133.68
X334.96Y-136.22
X334.96Y-138.76
X334.96Y-141.3
X334.96Y-143.84
X334.96Y-146.38
X334.96Y-148.92
X334.96Y-151.46
X334.96Y-154.0
X337.5Y-123.52
X337.5Y-126.06
X337.5Y-128.6
X337.5Y-131.14
X337.5Y-133.68
X337.5Y-136.22
X337.5Y-138.76
X337.5Y-141.3
X337.5Y-143.84
X337.5Y-146.38
X337.5Y-148.92
X337.5Y-151.46
X337.5Y-154.0
T3
X226.06Y-150.114
X226.06Y-165.1
X323.342Y-131.826
X323.342Y-146.812
X347.0Y-124.1
X347.0Y-140.0
T4
X52.07Y-151.638
X52.07Y-171.958
X337.312Y-162.814
X337.312Y-178.054
X364.0Y-151.84
X364.0Y-172.16
T5
X213.25Y-106.37
X213.25Y-109.87
X213.25Y-113.37
X213.25Y-116.87
X213.25Y-120.37
X222.25Y-102.87
X222.25Y-106.37
X222.25Y-109.87
X222.25Y-113.37
X222.25Y-116.87
X222.25Y-120.37
X222.25Y-123.87
X222.25Y-127.37
X222.25Y-130.87
X222.25Y-134.37
X222.25Y-137.87
T7
X59.0Y-151.958
X59.0Y-171.958
X66.0Y-151.958
X66.0Y-171.958
X350.068Y-151.958
X350.068Y-171.958
X357.068Y-151.958
X357.068Y-171.958
T8
X62.5Y-161.958
X353.568Y-161.958
T6
G00X177.0Y-195.754
M15
G01X177.0Y-198.454
M16
G05
G00X180.5Y-195.754
M15
G01X180.5Y-198.454
M16
G05
G00X184.0Y-195.754
M15
G01X184.0Y-198.454
M16
G05
G00X187.5Y-195.754
M15
G01X187.5Y-198.454
M16
G05
G00X191.0Y-195.754
M15
G01X191.0Y-198.454
M16
G05
G00X194.5Y-195.754
M15
G01X194.5Y-198.454
M16
G05
G00X198.0Y-195.754
M15
G01X198.0Y-198.454
M16
G05
G00X201.5Y-195.754
M15
G01X201.5Y-198.454
M16
G05
G00X219.0Y-195.754
M15
G01X219.0Y-198.454
M16
G05
G00X222.5Y-195.754
M15
G01X222.5Y-198.454
M16
G05
G00X226.0Y-195.754
M15
G01X226.0Y-198.454
M16
G05
G00X229.5Y-195.754
M15
G01X229.5Y-198.454
M16
G05
G00X233.0Y-195.754
M15
G01X233.0Y-198.454
M16
G05
G00X236.5Y-195.754
M15
G01X236.5Y-198.454
M16
G05
G00X240.0Y-195.754
M15
G01X240.0Y-198.454
M16
G05
M30
