M48
; DRILL file {KiCad 9.0.7-1.fc42} date 2026-01-29T19:15:50-0500
; FORMAT={-:-/ absolute / metric / decimal}
; #@! TF.CreationDate,2026-01-29T19:15:50-05:00
; #@! TF.GenerationSoftware,Kicad,Pcbnew,9.0.7-1.fc42
; #@! TF.FileFunction,Plated,1,2,PTH
FMAT,2
METRIC
; #@! TA.AperFunction,Plated,PTH,ComponentDrill
T1C0.800
; #@! TA.AperFunction,Plated,PTH,ComponentDrill
T2C1.016
; #@! TA.AperFunction,Plated,PTH,ViaDrill
T3C1.200
; #@! TA.AperFunction,Plated,PTH,ComponentDrill
T4C1.200
; #@! TA.AperFunction,Plated,PTH,ComponentDrill
T5C1.800
; #@! TA.AperFunction,Plated,PTH,ComponentDrill
T6C2.250
; #@! TA.AperFunction,Plated,PTH,ComponentDrill
T7C4.200
%
G90
G05
T1
X320.294Y-163.746
X320.294Y-173.906
T2
X79.46Y-148.82
X79.46Y-151.36
X79.46Y-153.9
X79.46Y-156.44
X79.46Y-158.98
X79.46Y-161.52
X79.46Y-164.06
X79.46Y-166.6
X79.46Y-169.14
X79.46Y-171.68
X79.46Y-174.22
X79.46Y-176.76
X79.46Y-179.3
X82.0Y-148.82
X82.0Y-151.36
X82.0Y-153.9
X82.0Y-156.44
X82.0Y-158.98
X82.0Y-161.52
X82.0Y-164.06
X82.0Y-166.6
X82.0Y-169.14
X82.0Y-171.68
X82.0Y-174.22
X82.0Y-176.76
X82.0Y-179.3
X200.38Y-205.3
X200.38Y-207.84
X202.92Y-205.3
X202.92Y-207.84
X205.46Y-205.3
X205.46Y-207.84
X208.0Y-205.3
X208.0Y-207.84
X210.54Y-205.3
X210.54Y-207.84
X213.08Y-205.3
X213.08Y-207.84
X215.62Y-205.3
X215.62Y-207.84
X218.16Y-205.3
X218.16Y-207.84
X220.7Y-205.3
X220.7Y-207.84
X223.24Y-205.3
X223.24Y-207.84
X225.78Y-205.3
X225.78Y-207.84
X228.32Y-205.3
X228.32Y-207.84
X230.86Y-205.3
X230.86Y-207.84
X334.46Y-148.82
X334.46Y-151.36
X334.46Y-153.9
X334.46Y-156.44
X334.46Y-158.98
X334.46Y-161.52
X334.46Y-164.06
X334.46Y-166.6
X334.46Y-169.14
X334.46Y-171.68
X334.46Y-174.22
X334.46Y-176.76
X334.46Y-179.3
X337.0Y-148.82
X337.0Y-151.36
X337.0Y-153.9
X337.0Y-156.44
X337.0Y-158.98
X337.0Y-161.52
X337.0Y-164.06
X337.0Y-166.6
X337.0Y-169.14
X337.0Y-171.68
X337.0Y-174.22
X337.0Y-176.76
X337.0Y-179.3
T3
X226.06Y-174.414
X226.06Y-189.4
X323.342Y-156.126
X323.342Y-171.112
X347.0Y-148.4
X347.0Y-164.3
T4
X53.0Y-175.938
X53.0Y-196.258
X337.312Y-187.114
X337.312Y-202.354
X364.0Y-176.14
X364.0Y-196.46
T5
X213.25Y-130.67
X213.25Y-134.17
X213.25Y-137.67
X213.25Y-141.17
X213.25Y-144.67
X222.25Y-127.17
X222.25Y-130.67
X222.25Y-134.17
X222.25Y-137.67
X222.25Y-141.17
X222.25Y-144.67
X222.25Y-148.17
X222.25Y-151.67
X222.25Y-155.17
X222.25Y-158.67
X222.25Y-162.17
T6
X59.28Y-176.258
X59.28Y-196.258
X66.28Y-176.258
X66.28Y-196.258
X350.068Y-176.258
X350.068Y-196.258
X357.068Y-176.258
X357.068Y-196.258
T7
X62.78Y-186.258
X353.568Y-186.258
M30
