%TF.GenerationSoftware,KiCad,Pcbnew,9.0.7-1.fc42*%
%TF.CreationDate,2026-01-29T19:15:55-05:00*%
%TF.ProjectId,BMW_E30_Early_Cluster_Nexus,424d575f-4533-4305-9f45-61726c795f43,rev?*%
%TF.SameCoordinates,Original*%
%TF.FileFunction,Profile,NP*%
%FSLAX46Y46*%
G04 Gerber Fmt 4.6, Leading zero omitted, Abs format (unit mm)*
G04 Created by KiCad (PCBNEW 9.0.7-1.fc42) date 2026-01-29 19:15:55*
%MOMM*%
%LPD*%
G01*
G04 APERTURE LIST*
%TA.AperFunction,Profile*%
%ADD10C,0.100000*%
%TD*%
%TA.AperFunction,Profile*%
%ADD11C,0.050000*%
%TD*%
%TA.AperFunction,Profile*%
%ADD12C,0.070000*%
%TD*%
%TA.AperFunction,Profile*%
%ADD13C,0.120000*%
%TD*%
G04 APERTURE END LIST*
D10*
X362400000Y-228684271D02*
X362400000Y-233000000D01*
X113186375Y-96489028D02*
X92582938Y-108753901D01*
D11*
X269240000Y-99992000D02*
G75*
G02*
X300989987Y-113200014I-1698700J-48848400D01*
G01*
D10*
X47742136Y-214542136D02*
G75*
G02*
X53600001Y-228684271I-14142276J-14142194D01*
G01*
D11*
X133350000Y-198544000D02*
X129200000Y-194500000D01*
D10*
X385429866Y-168803316D02*
X386400000Y-207000000D01*
X113186375Y-96489028D02*
G75*
G02*
X150000000Y-86999990I36490425J-65412572D01*
G01*
D12*
X383250000Y-196300000D02*
G75*
G02*
X379150000Y-196300000I-2050000J0D01*
G01*
X379150000Y-196300000D02*
G75*
G02*
X383250000Y-196300000I2050000J0D01*
G01*
X118382000Y-219100000D02*
G75*
G02*
X114282000Y-219100000I-2050000J0D01*
G01*
X114282000Y-219100000D02*
G75*
G02*
X118382000Y-219100000I2050000J0D01*
G01*
D10*
X362400000Y-228684271D02*
G75*
G02*
X368257878Y-214542150I20000000J-29D01*
G01*
D11*
X177292000Y-182288000D02*
X177292000Y-198544000D01*
X112918000Y-212000000D02*
G75*
G02*
X100318000Y-212000000I-6300000J0D01*
G01*
X100318000Y-212000000D02*
G75*
G02*
X112918000Y-212000000I6300000J0D01*
G01*
X177292000Y-182288000D02*
X187198000Y-182288000D01*
X193200000Y-172100000D02*
X187198000Y-182288000D01*
D10*
X386400000Y-207000000D02*
X375800000Y-207000000D01*
X53600000Y-233000000D02*
X53600000Y-228684271D01*
D12*
X327406000Y-116502000D02*
G75*
G02*
X323306000Y-116502000I-2050000J0D01*
G01*
X323306000Y-116502000D02*
G75*
G02*
X327406000Y-116502000I2050000J0D01*
G01*
D11*
X231648000Y-183961000D02*
X240851223Y-193210000D01*
D10*
X362400000Y-233000000D02*
X358400000Y-237000000D01*
D11*
X316484000Y-128694000D02*
X300990000Y-113200000D01*
D10*
X30570134Y-168803316D02*
G75*
G02*
X44489177Y-141746288I34988696J-890634D01*
G01*
D11*
X269239986Y-99992000D02*
X241046000Y-99992000D01*
X193200000Y-153700000D02*
X193200000Y-172100000D01*
X129200000Y-182500000D02*
X129200000Y-194500000D01*
X201800000Y-125900000D02*
G75*
G02*
X203800000Y-127900000I0J-2000000D01*
G01*
X150000000Y-87000001D02*
X266000000Y-87000000D01*
X72532000Y-212000000D02*
G75*
G02*
X59932000Y-212000000I-6300000J0D01*
G01*
X59932000Y-212000000D02*
G75*
G02*
X72532000Y-212000000I6300000J0D01*
G01*
D10*
X375800000Y-207000000D02*
X368257864Y-214542136D01*
X64213692Y-127484150D02*
X44489178Y-141746290D01*
D11*
X316300000Y-212100000D02*
G75*
G02*
X303700000Y-212100000I-6300000J0D01*
G01*
X303700000Y-212100000D02*
G75*
G02*
X316300000Y-212100000I6300000J0D01*
G01*
D10*
X29600000Y-207000000D02*
X40200000Y-207000000D01*
D11*
X173800000Y-212000000D02*
G75*
G02*
X161200000Y-212000000I-6300000J0D01*
G01*
X161200000Y-212000000D02*
G75*
G02*
X173800000Y-212000000I6300000J0D01*
G01*
D10*
X30570134Y-168803316D02*
X29600000Y-207000000D01*
X57600000Y-237000000D02*
X358400000Y-237000000D01*
X266000000Y-87000000D02*
G75*
G02*
X302813619Y-96489038I323300J-74901200D01*
G01*
D12*
X187208000Y-92100000D02*
G75*
G02*
X183108000Y-92100000I-2050000J0D01*
G01*
X183108000Y-92100000D02*
G75*
G02*
X187208000Y-92100000I2050000J0D01*
G01*
X233550000Y-92100000D02*
G75*
G02*
X229450000Y-92100000I-2050000J0D01*
G01*
X229450000Y-92100000D02*
G75*
G02*
X233550000Y-92100000I2050000J0D01*
G01*
D11*
X92852000Y-212000000D02*
G75*
G02*
X80252000Y-212000000I-6300000J0D01*
G01*
X80252000Y-212000000D02*
G75*
G02*
X92852000Y-212000000I6300000J0D01*
G01*
D12*
X37550000Y-195800000D02*
G75*
G02*
X33450000Y-195800000I-2050000J0D01*
G01*
X33450000Y-195800000D02*
G75*
G02*
X37550000Y-195800000I2050000J0D01*
G01*
D10*
X323417062Y-108753901D02*
G75*
G02*
X351786308Y-127484149I-206007262J-342872599D01*
G01*
D11*
X193400000Y-113300000D02*
X193400000Y-125900000D01*
X203800000Y-151700000D02*
G75*
G02*
X201800000Y-153700000I-1999900J-100D01*
G01*
X193400000Y-125900000D02*
X201800000Y-125900000D01*
X298704000Y-193210000D02*
X316484000Y-175430000D01*
X231648000Y-183961000D02*
X231648000Y-109390000D01*
D10*
X351786308Y-127484150D02*
X371510822Y-141746290D01*
X371510822Y-141746290D02*
G75*
G02*
X385429875Y-168803316I-21069722J-27947710D01*
G01*
X64213692Y-127484150D02*
G75*
G02*
X92582938Y-108753902I234376508J-324142350D01*
G01*
D11*
X203800000Y-127900000D02*
X203800000Y-151700000D01*
D12*
X93236000Y-116484000D02*
G75*
G02*
X89136000Y-116484000I-2050000J0D01*
G01*
X89136000Y-116484000D02*
G75*
G02*
X93236000Y-116484000I2050000J0D01*
G01*
D11*
X240851223Y-193210000D02*
X298704000Y-193210000D01*
X201800000Y-153700000D02*
X193200000Y-153700000D01*
X123229124Y-200500000D02*
G75*
G02*
X116770876Y-200500000I-3229124J0D01*
G01*
X116770876Y-200500000D02*
G75*
G02*
X123229124Y-200500000I3229124J0D01*
G01*
X316484000Y-175430000D02*
X316484000Y-128694000D01*
X191400000Y-111300000D02*
X114733280Y-111300000D01*
X177292000Y-198544000D02*
X133350000Y-198544000D01*
X191400000Y-111300000D02*
G75*
G02*
X193400000Y-113300000I0J-2000000D01*
G01*
D10*
X53600000Y-233000000D02*
X57600000Y-237000000D01*
D11*
X241046000Y-99992000D02*
X231648000Y-109390000D01*
D12*
X210050000Y-175800000D02*
G75*
G02*
X205950000Y-175800000I-2050000J0D01*
G01*
X205950000Y-175800000D02*
G75*
G02*
X210050000Y-175800000I2050000J0D01*
G01*
D10*
X40200000Y-207000000D02*
X47742136Y-214542136D01*
X302813625Y-96489028D02*
X323417062Y-108753901D01*
D11*
X111400000Y-182500000D02*
G75*
G02*
X114733280Y-111300000I37599997J33917754D01*
G01*
D12*
X301516000Y-218864000D02*
G75*
G02*
X297416000Y-218864000I-2050000J0D01*
G01*
X297416000Y-218864000D02*
G75*
G02*
X301516000Y-218864000I2050000J0D01*
G01*
D11*
X129200000Y-182500000D02*
X111400000Y-182500000D01*
%TO.C,J5*%
X176150000Y-219704000D02*
X177850000Y-219704000D01*
X177850000Y-223104000D01*
X176150000Y-223104000D01*
X176150000Y-219704000D01*
X179650000Y-219704000D02*
X181350000Y-219704000D01*
X181350000Y-223104000D01*
X179650000Y-223104000D01*
X179650000Y-219704000D01*
X183150000Y-219704000D02*
X184850000Y-219704000D01*
X184850000Y-223104000D01*
X183150000Y-223104000D01*
X183150000Y-219704000D01*
X186650000Y-219704000D02*
X188350000Y-219704000D01*
X188350000Y-223104000D01*
X186650000Y-223104000D01*
X186650000Y-219704000D01*
X190150000Y-219704000D02*
X191850000Y-219704000D01*
X191850000Y-223104000D01*
X190150000Y-223104000D01*
X190150000Y-219704000D01*
X193650000Y-219704000D02*
X195350000Y-219704000D01*
X195350000Y-223104000D01*
X193650000Y-223104000D01*
X193650000Y-219704000D01*
X197150000Y-219704000D02*
X198850000Y-219704000D01*
X198850000Y-223104000D01*
X197150000Y-223104000D01*
X197150000Y-219704000D01*
X200650000Y-219704000D02*
X202350000Y-219704000D01*
X202350000Y-223104000D01*
X200650000Y-223104000D01*
X200650000Y-219704000D01*
X218150000Y-219704000D02*
X219850000Y-219704000D01*
X219850000Y-223104000D01*
X218150000Y-223104000D01*
X218150000Y-219704000D01*
X221650000Y-219704000D02*
X223350000Y-219704000D01*
X223350000Y-223104000D01*
X221650000Y-223104000D01*
X221650000Y-219704000D01*
X225150000Y-219704000D02*
X226850000Y-219704000D01*
X226850000Y-223104000D01*
X225150000Y-223104000D01*
X225150000Y-219704000D01*
X228650000Y-219704000D02*
X230350000Y-219704000D01*
X230350000Y-223104000D01*
X228650000Y-223104000D01*
X228650000Y-219704000D01*
X232150000Y-219704000D02*
X233850000Y-219704000D01*
X233850000Y-223104000D01*
X232150000Y-223104000D01*
X232150000Y-219704000D01*
X235650000Y-219704000D02*
X237350000Y-219704000D01*
X237350000Y-223104000D01*
X235650000Y-223104000D01*
X235650000Y-219704000D01*
X239150000Y-219704000D02*
X240850000Y-219704000D01*
X240850000Y-223104000D01*
X239150000Y-223104000D01*
X239150000Y-219704000D01*
D13*
X173236068Y-225404000D02*
G75*
G02*
X168763932Y-225404000I-2236068J0D01*
G01*
X168763932Y-225404000D02*
G75*
G02*
X173236068Y-225404000I2236068J0D01*
G01*
X248236068Y-225404000D02*
G75*
G02*
X243763932Y-225404000I-2236068J0D01*
G01*
X243763932Y-225404000D02*
G75*
G02*
X248236068Y-225404000I2236068J0D01*
G01*
D11*
%TO.C,LA13b1*%
X311557156Y-195500000D02*
X313670514Y-195497540D01*
X311557156Y-199900000D02*
X313670514Y-199902460D01*
X325901486Y-199902460D02*
X328014844Y-199900000D01*
X328014844Y-195500000D02*
X325901486Y-195497540D01*
X311557156Y-199900000D02*
G75*
G02*
X311557156Y-195500000I8228849J2200000D01*
G01*
X313670514Y-195497540D02*
G75*
G02*
X325901486Y-195497540I6115486J-2202460D01*
G01*
X325901486Y-199902460D02*
G75*
G02*
X313670514Y-199902460I-6115486J2202460D01*
G01*
X328014844Y-195500000D02*
G75*
G02*
X328014844Y-199900000I-8228849J-2200000D01*
G01*
X321286000Y-187500000D02*
X318286000Y-187500000D01*
X318286000Y-184500000D01*
X321286000Y-184500000D01*
X321286000Y-187500000D01*
%TO.C,LA12*%
X348346000Y-207979785D02*
X348346000Y-206199456D01*
X348346000Y-216032215D02*
X348346000Y-217812544D01*
X351346000Y-207979785D02*
X351346000Y-206199456D01*
X351346000Y-216032215D02*
X351346000Y-217812544D01*
X348346000Y-206199456D02*
G75*
G02*
X351346000Y-206199456I1500000J-5806547D01*
G01*
X348346000Y-216032215D02*
G75*
G02*
X348346000Y-207979785I1499999J4026215D01*
G01*
X351346000Y-207979785D02*
G75*
G02*
X351346000Y-216032215I-1499999J-4026215D01*
G01*
X351346000Y-217812544D02*
G75*
G02*
X348346000Y-217812544I-1500000J5806544D01*
G01*
D13*
%TO.C,U2*%
X49480000Y-186258000D02*
G75*
G02*
X46080000Y-186258000I-1700000J0D01*
G01*
X46080000Y-186258000D02*
G75*
G02*
X49480000Y-186258000I1700000J0D01*
G01*
X64180000Y-176258000D02*
G75*
G02*
X61380000Y-176258000I-1400000J0D01*
G01*
X61380000Y-176258000D02*
G75*
G02*
X64180000Y-176258000I1400000J0D01*
G01*
X64180000Y-196258000D02*
G75*
G02*
X61380000Y-196258000I-1400000J0D01*
G01*
X61380000Y-196258000D02*
G75*
G02*
X64180000Y-196258000I1400000J0D01*
G01*
%TO.C,U1*%
X354968000Y-176258000D02*
G75*
G02*
X352168000Y-176258000I-1400000J0D01*
G01*
X352168000Y-176258000D02*
G75*
G02*
X354968000Y-176258000I1400000J0D01*
G01*
X354968000Y-196258000D02*
G75*
G02*
X352168000Y-196258000I-1400000J0D01*
G01*
X352168000Y-196258000D02*
G75*
G02*
X354968000Y-196258000I1400000J0D01*
G01*
X370268000Y-186258000D02*
G75*
G02*
X366868000Y-186258000I-1700000J0D01*
G01*
X366868000Y-186258000D02*
G75*
G02*
X370268000Y-186258000I1700000J0D01*
G01*
D11*
%TO.C,LA13a1*%
X88171156Y-195500000D02*
X90284514Y-195497540D01*
X88171156Y-199900000D02*
X90284514Y-199902460D01*
X102515486Y-199902460D02*
X104628844Y-199900000D01*
X104628844Y-195500000D02*
X102515486Y-195497540D01*
X88171156Y-199900000D02*
G75*
G02*
X88171156Y-195500000I8228849J2200000D01*
G01*
X90284514Y-195497540D02*
G75*
G02*
X102515486Y-195497540I6115486J-2202460D01*
G01*
X102515486Y-199902460D02*
G75*
G02*
X90284514Y-199902460I-6115486J2202460D01*
G01*
X104628844Y-195500000D02*
G75*
G02*
X104628844Y-199900000I-8228849J-2200000D01*
G01*
X97900000Y-187500000D02*
X94900000Y-187500000D01*
X94900000Y-184500000D01*
X97900000Y-184500000D01*
X97900000Y-187500000D01*
%TO.C,LA16*%
X195973785Y-96800000D02*
X194193456Y-96800000D01*
X195973785Y-99800000D02*
X194193456Y-99800000D01*
X204026215Y-96800000D02*
X205806544Y-96800000D01*
X204026215Y-99800000D02*
X205806544Y-99800000D01*
X194193456Y-99800000D02*
G75*
G02*
X194193456Y-96800000I5806544J1500000D01*
G01*
X195973785Y-96800000D02*
G75*
G02*
X204026215Y-96800000I4026215J-1499999D01*
G01*
X204026215Y-99800000D02*
G75*
G02*
X195973785Y-99800000I-4026215J1499999D01*
G01*
X205806544Y-96800000D02*
G75*
G02*
X205806544Y-99800000I-5806547J-1500000D01*
G01*
%TO.C,LA8*%
X265267785Y-210506000D02*
X263487456Y-210506000D01*
X265267785Y-213506000D02*
X263487456Y-213506000D01*
X273320215Y-210506000D02*
X275100544Y-210506000D01*
X273320215Y-213506000D02*
X275100544Y-213506000D01*
X263487456Y-213506000D02*
G75*
G02*
X263487456Y-210506000I5806544J1500000D01*
G01*
X265267785Y-210506000D02*
G75*
G02*
X273320215Y-210506000I4026215J-1499999D01*
G01*
X273320215Y-213506000D02*
G75*
G02*
X265267785Y-213506000I-4026215J1499999D01*
G01*
X275100544Y-210506000D02*
G75*
G02*
X275100544Y-213506000I-5806547J-1500000D01*
G01*
%TO.C,LA7*%
X245087785Y-210506000D02*
X243307456Y-210506000D01*
X245087785Y-213506000D02*
X243307456Y-213506000D01*
X253140215Y-210506000D02*
X254920544Y-210506000D01*
X253140215Y-213506000D02*
X254920544Y-213506000D01*
X243307456Y-213506000D02*
G75*
G02*
X243307456Y-210506000I5806544J1500000D01*
G01*
X245087785Y-210506000D02*
G75*
G02*
X253140215Y-210506000I4026215J-1499999D01*
G01*
X253140215Y-213506000D02*
G75*
G02*
X245087785Y-213506000I-4026215J1499999D01*
G01*
X254920544Y-210506000D02*
G75*
G02*
X254920544Y-213506000I-5806547J-1500000D01*
G01*
%TO.C,LA9*%
X285473785Y-210506000D02*
X283693456Y-210506000D01*
X285473785Y-213506000D02*
X283693456Y-213506000D01*
X293526215Y-210506000D02*
X295306544Y-210506000D01*
X293526215Y-213506000D02*
X295306544Y-213506000D01*
X283693456Y-213506000D02*
G75*
G02*
X283693456Y-210506000I5806544J1500000D01*
G01*
X285473785Y-210506000D02*
G75*
G02*
X293526215Y-210506000I4026215J-1499999D01*
G01*
X293526215Y-213506000D02*
G75*
G02*
X285473785Y-213506000I-4026215J1499999D01*
G01*
X295306544Y-210506000D02*
G75*
G02*
X295306544Y-213506000I-5806547J-1500000D01*
G01*
%TO.C,LA5*%
X142973785Y-210506000D02*
X141193456Y-210506000D01*
X142973785Y-213506000D02*
X141193456Y-213506000D01*
X151026215Y-210506000D02*
X152806544Y-210506000D01*
X151026215Y-213506000D02*
X152806544Y-213506000D01*
X141193456Y-213506000D02*
G75*
G02*
X141193456Y-210506000I5806544J1500000D01*
G01*
X142973785Y-210506000D02*
G75*
G02*
X151026215Y-210506000I4026215J-1499999D01*
G01*
X151026215Y-213506000D02*
G75*
G02*
X142973785Y-213506000I-4026215J1499999D01*
G01*
X152806544Y-210506000D02*
G75*
G02*
X152806544Y-213506000I-5806547J-1500000D01*
G01*
%TO.C,LA17*%
X206500000Y-111459785D02*
X206500000Y-109679456D01*
X206500000Y-119512215D02*
X206500000Y-121292544D01*
X209500000Y-111459785D02*
X209500000Y-109679456D01*
X209500000Y-119512215D02*
X209500000Y-121292544D01*
X206500000Y-109679456D02*
G75*
G02*
X209500000Y-109679456I1500000J-5806547D01*
G01*
X206500000Y-119512215D02*
G75*
G02*
X206500000Y-111459785I1499999J4026215D01*
G01*
X209500000Y-111459785D02*
G75*
G02*
X209500000Y-119512215I-1499999J-4026215D01*
G01*
X209500000Y-121292544D02*
G75*
G02*
X206500000Y-121292544I-1500000J5806544D01*
G01*
%TO.C,LA4*%
X125426000Y-207979785D02*
X125426000Y-206199456D01*
X125426000Y-216032215D02*
X125426000Y-217812544D01*
X128426000Y-207979785D02*
X128426000Y-206199456D01*
X128426000Y-216032215D02*
X128426000Y-217812544D01*
X125426000Y-206199456D02*
G75*
G02*
X128426000Y-206199456I1500000J-5806547D01*
G01*
X125426000Y-216032215D02*
G75*
G02*
X125426000Y-207979785I1499999J4026215D01*
G01*
X128426000Y-207979785D02*
G75*
G02*
X128426000Y-216032215I-1499999J-4026215D01*
G01*
X128426000Y-217812544D02*
G75*
G02*
X125426000Y-217812544I-1500000J5806544D01*
G01*
%TO.C,LA11*%
X321463156Y-211076000D02*
X323576514Y-211073540D01*
X321463156Y-215476000D02*
X323576514Y-215478460D01*
X335807486Y-215478460D02*
X337920844Y-215476000D01*
X337920844Y-211076000D02*
X335807486Y-211073540D01*
X321463156Y-215476000D02*
G75*
G02*
X321463156Y-211076000I8228849J2200000D01*
G01*
X323576514Y-211073540D02*
G75*
G02*
X335807486Y-211073540I6115486J-2202460D01*
G01*
X335807486Y-215478460D02*
G75*
G02*
X323576514Y-215478460I-6115486J2202460D01*
G01*
X337920844Y-211076000D02*
G75*
G02*
X337920844Y-215476000I-8228849J-2200000D01*
G01*
%TO.C,LA15*%
X204687854Y-192536804D02*
X203797690Y-194078615D01*
X207285931Y-194036804D02*
X206395766Y-195578615D01*
X208714069Y-185563196D02*
X209604234Y-184021385D01*
X211312146Y-187063196D02*
X212202310Y-185521385D01*
X204687854Y-192536804D02*
G75*
G02*
X208714069Y-185563196I3312145J2736804D01*
G01*
X206395766Y-195578615D02*
G75*
G02*
X203797690Y-194078615I1604234J5778615D01*
G01*
X209604234Y-184021385D02*
G75*
G02*
X212202310Y-185521385I-1604236J-5778618D01*
G01*
X211312146Y-187063196D02*
G75*
G02*
X207285931Y-194036804I-3312145J-2736804D01*
G01*
%TO.C,LA14*%
X41500000Y-170273785D02*
X41500000Y-168493456D01*
X41500000Y-178326215D02*
X41500000Y-180106544D01*
X44500000Y-170273785D02*
X44500000Y-168493456D01*
X44500000Y-178326215D02*
X44500000Y-180106544D01*
X41500000Y-168493456D02*
G75*
G02*
X44500000Y-168493456I1500000J-5806547D01*
G01*
X41500000Y-178326215D02*
G75*
G02*
X41500000Y-170273785I1499999J4026215D01*
G01*
X44500000Y-170273785D02*
G75*
G02*
X44500000Y-178326215I-1499999J-4026215D01*
G01*
X44500000Y-180106544D02*
G75*
G02*
X41500000Y-180106544I-1500000J5806544D01*
G01*
%TO.C,LA18*%
X211973785Y-96800000D02*
X210193456Y-96800000D01*
X211973785Y-99800000D02*
X210193456Y-99800000D01*
X220026215Y-96800000D02*
X221806544Y-96800000D01*
X220026215Y-99800000D02*
X221806544Y-99800000D01*
X210193456Y-99800000D02*
G75*
G02*
X210193456Y-96800000I5806544J1500000D01*
G01*
X211973785Y-96800000D02*
G75*
G02*
X220026215Y-96800000I4026215J-1499999D01*
G01*
X220026215Y-99800000D02*
G75*
G02*
X211973785Y-99800000I-4026215J1499999D01*
G01*
X221806544Y-96800000D02*
G75*
G02*
X221806544Y-99800000I-5806547J-1500000D01*
G01*
%TO.C,LA20*%
X373150000Y-171273785D02*
X373150000Y-169493456D01*
X373150000Y-179326215D02*
X373150000Y-181106544D01*
X376150000Y-171273785D02*
X376150000Y-169493456D01*
X376150000Y-179326215D02*
X376150000Y-181106544D01*
X373150000Y-169493456D02*
G75*
G02*
X376150000Y-169493456I1500000J-5806547D01*
G01*
X373150000Y-179326215D02*
G75*
G02*
X373150000Y-171273785I1499999J4026215D01*
G01*
X376150000Y-171273785D02*
G75*
G02*
X376150000Y-179326215I-1499999J-4026215D01*
G01*
X376150000Y-181106544D02*
G75*
G02*
X373150000Y-181106544I-1500000J5806544D01*
G01*
%TD*%
M02*
