%TF.GenerationSoftware,KiCad,Pcbnew,9.0.4-1.fc42app3*%
%TF.CreationDate,2025-10-25T21:48:40-04:00*%
%TF.ProjectId,BMW_E30_Early_Cluster_Nexus,424d575f-4533-4305-9f45-61726c795f43,rev?*%
%TF.SameCoordinates,Original*%
%TF.FileFunction,Legend,Bot*%
%TF.FilePolarity,Positive*%
%FSLAX46Y46*%
G04 Gerber Fmt 4.6, Leading zero omitted, Abs format (unit mm)*
G04 Created by KiCad (PCBNEW 9.0.4-1.fc42app3) date 2025-10-25 21:48:40*
%MOMM*%
%LPD*%
G01*
G04 APERTURE LIST*
%ADD10C,0.150000*%
%ADD11C,0.152400*%
%ADD12C,0.120000*%
G04 APERTURE END LIST*
D10*
X192759411Y-190914819D02*
X193330839Y-190914819D01*
X193045125Y-190914819D02*
X193045125Y-189914819D01*
X193045125Y-189914819D02*
X193140363Y-190057676D01*
X193140363Y-190057676D02*
X193235601Y-190152914D01*
X193235601Y-190152914D02*
X193330839Y-190200533D01*
X192426077Y-189914819D02*
X191807030Y-189914819D01*
X191807030Y-189914819D02*
X192140363Y-190295771D01*
X192140363Y-190295771D02*
X191997506Y-190295771D01*
X191997506Y-190295771D02*
X191902268Y-190343390D01*
X191902268Y-190343390D02*
X191854649Y-190391009D01*
X191854649Y-190391009D02*
X191807030Y-190486247D01*
X191807030Y-190486247D02*
X191807030Y-190724342D01*
X191807030Y-190724342D02*
X191854649Y-190819580D01*
X191854649Y-190819580D02*
X191902268Y-190867200D01*
X191902268Y-190867200D02*
X191997506Y-190914819D01*
X191997506Y-190914819D02*
X192283220Y-190914819D01*
X192283220Y-190914819D02*
X192378458Y-190867200D01*
X192378458Y-190867200D02*
X192426077Y-190819580D01*
X68914819Y-138426666D02*
X69629104Y-138426666D01*
X69629104Y-138426666D02*
X69771961Y-138379047D01*
X69771961Y-138379047D02*
X69867200Y-138283809D01*
X69867200Y-138283809D02*
X69914819Y-138140952D01*
X69914819Y-138140952D02*
X69914819Y-138045714D01*
X69010057Y-138855238D02*
X68962438Y-138902857D01*
X68962438Y-138902857D02*
X68914819Y-138998095D01*
X68914819Y-138998095D02*
X68914819Y-139236190D01*
X68914819Y-139236190D02*
X68962438Y-139331428D01*
X68962438Y-139331428D02*
X69010057Y-139379047D01*
X69010057Y-139379047D02*
X69105295Y-139426666D01*
X69105295Y-139426666D02*
X69200533Y-139426666D01*
X69200533Y-139426666D02*
X69343390Y-139379047D01*
X69343390Y-139379047D02*
X69914819Y-138807619D01*
X69914819Y-138807619D02*
X69914819Y-139426666D01*
X72994819Y-115518458D02*
X72994819Y-114947030D01*
X72994819Y-115232744D02*
X71994819Y-115232744D01*
X71994819Y-115232744D02*
X72137676Y-115137506D01*
X72137676Y-115137506D02*
X72232914Y-115042268D01*
X72232914Y-115042268D02*
X72280533Y-114947030D01*
X71994819Y-115851792D02*
X71994819Y-116470839D01*
X71994819Y-116470839D02*
X72375771Y-116137506D01*
X72375771Y-116137506D02*
X72375771Y-116280363D01*
X72375771Y-116280363D02*
X72423390Y-116375601D01*
X72423390Y-116375601D02*
X72471009Y-116423220D01*
X72471009Y-116423220D02*
X72566247Y-116470839D01*
X72566247Y-116470839D02*
X72804342Y-116470839D01*
X72804342Y-116470839D02*
X72899580Y-116423220D01*
X72899580Y-116423220D02*
X72947200Y-116375601D01*
X72947200Y-116375601D02*
X72994819Y-116280363D01*
X72994819Y-116280363D02*
X72994819Y-115994649D01*
X72994819Y-115994649D02*
X72947200Y-115899411D01*
X72947200Y-115899411D02*
X72899580Y-115851792D01*
X88590057Y-114947030D02*
X88542438Y-114994649D01*
X88542438Y-114994649D02*
X88494819Y-115089887D01*
X88494819Y-115089887D02*
X88494819Y-115327982D01*
X88494819Y-115327982D02*
X88542438Y-115423220D01*
X88542438Y-115423220D02*
X88590057Y-115470839D01*
X88590057Y-115470839D02*
X88685295Y-115518458D01*
X88685295Y-115518458D02*
X88780533Y-115518458D01*
X88780533Y-115518458D02*
X88923390Y-115470839D01*
X88923390Y-115470839D02*
X89494819Y-114899411D01*
X89494819Y-114899411D02*
X89494819Y-115518458D01*
X88494819Y-116375601D02*
X88494819Y-116185125D01*
X88494819Y-116185125D02*
X88542438Y-116089887D01*
X88542438Y-116089887D02*
X88590057Y-116042268D01*
X88590057Y-116042268D02*
X88732914Y-115947030D01*
X88732914Y-115947030D02*
X88923390Y-115899411D01*
X88923390Y-115899411D02*
X89304342Y-115899411D01*
X89304342Y-115899411D02*
X89399580Y-115947030D01*
X89399580Y-115947030D02*
X89447200Y-115994649D01*
X89447200Y-115994649D02*
X89494819Y-116089887D01*
X89494819Y-116089887D02*
X89494819Y-116280363D01*
X89494819Y-116280363D02*
X89447200Y-116375601D01*
X89447200Y-116375601D02*
X89399580Y-116423220D01*
X89399580Y-116423220D02*
X89304342Y-116470839D01*
X89304342Y-116470839D02*
X89066247Y-116470839D01*
X89066247Y-116470839D02*
X88971009Y-116423220D01*
X88971009Y-116423220D02*
X88923390Y-116375601D01*
X88923390Y-116375601D02*
X88875771Y-116280363D01*
X88875771Y-116280363D02*
X88875771Y-116089887D01*
X88875771Y-116089887D02*
X88923390Y-115994649D01*
X88923390Y-115994649D02*
X88971009Y-115947030D01*
X88971009Y-115947030D02*
X89066247Y-115899411D01*
X72994819Y-160620588D02*
X72994819Y-160049160D01*
X72994819Y-160334874D02*
X71994819Y-160334874D01*
X71994819Y-160334874D02*
X72137676Y-160239636D01*
X72137676Y-160239636D02*
X72232914Y-160144398D01*
X72232914Y-160144398D02*
X72280533Y-160049160D01*
X89494819Y-160620588D02*
X89494819Y-160049160D01*
X89494819Y-160334874D02*
X88494819Y-160334874D01*
X88494819Y-160334874D02*
X88637676Y-160239636D01*
X88637676Y-160239636D02*
X88732914Y-160144398D01*
X88732914Y-160144398D02*
X88780533Y-160049160D01*
X88828152Y-161477731D02*
X89494819Y-161477731D01*
X88447200Y-161239636D02*
X89161485Y-161001541D01*
X89161485Y-161001541D02*
X89161485Y-161620588D01*
X215953333Y-170454819D02*
X215953333Y-171169104D01*
X215953333Y-171169104D02*
X216000952Y-171311961D01*
X216000952Y-171311961D02*
X216096190Y-171407200D01*
X216096190Y-171407200D02*
X216239047Y-171454819D01*
X216239047Y-171454819D02*
X216334285Y-171454819D01*
X215572380Y-170454819D02*
X214953333Y-170454819D01*
X214953333Y-170454819D02*
X215286666Y-170835771D01*
X215286666Y-170835771D02*
X215143809Y-170835771D01*
X215143809Y-170835771D02*
X215048571Y-170883390D01*
X215048571Y-170883390D02*
X215000952Y-170931009D01*
X215000952Y-170931009D02*
X214953333Y-171026247D01*
X214953333Y-171026247D02*
X214953333Y-171264342D01*
X214953333Y-171264342D02*
X215000952Y-171359580D01*
X215000952Y-171359580D02*
X215048571Y-171407200D01*
X215048571Y-171407200D02*
X215143809Y-171454819D01*
X215143809Y-171454819D02*
X215429523Y-171454819D01*
X215429523Y-171454819D02*
X215524761Y-171407200D01*
X215524761Y-171407200D02*
X215572380Y-171359580D01*
X193330839Y-173510057D02*
X193283220Y-173462438D01*
X193283220Y-173462438D02*
X193187982Y-173414819D01*
X193187982Y-173414819D02*
X192949887Y-173414819D01*
X192949887Y-173414819D02*
X192854649Y-173462438D01*
X192854649Y-173462438D02*
X192807030Y-173510057D01*
X192807030Y-173510057D02*
X192759411Y-173605295D01*
X192759411Y-173605295D02*
X192759411Y-173700533D01*
X192759411Y-173700533D02*
X192807030Y-173843390D01*
X192807030Y-173843390D02*
X193378458Y-174414819D01*
X193378458Y-174414819D02*
X192759411Y-174414819D01*
X191902268Y-173414819D02*
X192092744Y-173414819D01*
X192092744Y-173414819D02*
X192187982Y-173462438D01*
X192187982Y-173462438D02*
X192235601Y-173510057D01*
X192235601Y-173510057D02*
X192330839Y-173652914D01*
X192330839Y-173652914D02*
X192378458Y-173843390D01*
X192378458Y-173843390D02*
X192378458Y-174224342D01*
X192378458Y-174224342D02*
X192330839Y-174319580D01*
X192330839Y-174319580D02*
X192283220Y-174367200D01*
X192283220Y-174367200D02*
X192187982Y-174414819D01*
X192187982Y-174414819D02*
X191997506Y-174414819D01*
X191997506Y-174414819D02*
X191902268Y-174367200D01*
X191902268Y-174367200D02*
X191854649Y-174319580D01*
X191854649Y-174319580D02*
X191807030Y-174224342D01*
X191807030Y-174224342D02*
X191807030Y-173986247D01*
X191807030Y-173986247D02*
X191854649Y-173891009D01*
X191854649Y-173891009D02*
X191902268Y-173843390D01*
X191902268Y-173843390D02*
X191997506Y-173795771D01*
X191997506Y-173795771D02*
X192187982Y-173795771D01*
X192187982Y-173795771D02*
X192283220Y-173843390D01*
X192283220Y-173843390D02*
X192330839Y-173891009D01*
X192330839Y-173891009D02*
X192378458Y-173986247D01*
X237861541Y-174414819D02*
X238432969Y-174414819D01*
X238147255Y-174414819D02*
X238147255Y-173414819D01*
X238147255Y-173414819D02*
X238242493Y-173557676D01*
X238242493Y-173557676D02*
X238337731Y-173652914D01*
X238337731Y-173652914D02*
X238432969Y-173700533D01*
X237004398Y-173748152D02*
X237004398Y-174414819D01*
X237242493Y-173367200D02*
X237480588Y-174081485D01*
X237480588Y-174081485D02*
X236861541Y-174081485D01*
X236909160Y-190914819D02*
X237480588Y-190914819D01*
X237194874Y-190914819D02*
X237194874Y-189914819D01*
X237194874Y-189914819D02*
X237290112Y-190057676D01*
X237290112Y-190057676D02*
X237385350Y-190152914D01*
X237385350Y-190152914D02*
X237480588Y-190200533D01*
X324414819Y-138426666D02*
X325129104Y-138426666D01*
X325129104Y-138426666D02*
X325271961Y-138379047D01*
X325271961Y-138379047D02*
X325367200Y-138283809D01*
X325367200Y-138283809D02*
X325414819Y-138140952D01*
X325414819Y-138140952D02*
X325414819Y-138045714D01*
X325414819Y-139426666D02*
X325414819Y-138855238D01*
X325414819Y-139140952D02*
X324414819Y-139140952D01*
X324414819Y-139140952D02*
X324557676Y-139045714D01*
X324557676Y-139045714D02*
X324652914Y-138950476D01*
X324652914Y-138950476D02*
X324700533Y-138855238D01*
X344050057Y-114947030D02*
X344002438Y-114994649D01*
X344002438Y-114994649D02*
X343954819Y-115089887D01*
X343954819Y-115089887D02*
X343954819Y-115327982D01*
X343954819Y-115327982D02*
X344002438Y-115423220D01*
X344002438Y-115423220D02*
X344050057Y-115470839D01*
X344050057Y-115470839D02*
X344145295Y-115518458D01*
X344145295Y-115518458D02*
X344240533Y-115518458D01*
X344240533Y-115518458D02*
X344383390Y-115470839D01*
X344383390Y-115470839D02*
X344954819Y-114899411D01*
X344954819Y-114899411D02*
X344954819Y-115518458D01*
X343954819Y-116375601D02*
X343954819Y-116185125D01*
X343954819Y-116185125D02*
X344002438Y-116089887D01*
X344002438Y-116089887D02*
X344050057Y-116042268D01*
X344050057Y-116042268D02*
X344192914Y-115947030D01*
X344192914Y-115947030D02*
X344383390Y-115899411D01*
X344383390Y-115899411D02*
X344764342Y-115899411D01*
X344764342Y-115899411D02*
X344859580Y-115947030D01*
X344859580Y-115947030D02*
X344907200Y-115994649D01*
X344907200Y-115994649D02*
X344954819Y-116089887D01*
X344954819Y-116089887D02*
X344954819Y-116280363D01*
X344954819Y-116280363D02*
X344907200Y-116375601D01*
X344907200Y-116375601D02*
X344859580Y-116423220D01*
X344859580Y-116423220D02*
X344764342Y-116470839D01*
X344764342Y-116470839D02*
X344526247Y-116470839D01*
X344526247Y-116470839D02*
X344431009Y-116423220D01*
X344431009Y-116423220D02*
X344383390Y-116375601D01*
X344383390Y-116375601D02*
X344335771Y-116280363D01*
X344335771Y-116280363D02*
X344335771Y-116089887D01*
X344335771Y-116089887D02*
X344383390Y-115994649D01*
X344383390Y-115994649D02*
X344431009Y-115947030D01*
X344431009Y-115947030D02*
X344526247Y-115899411D01*
X328454819Y-160620588D02*
X328454819Y-160049160D01*
X328454819Y-160334874D02*
X327454819Y-160334874D01*
X327454819Y-160334874D02*
X327597676Y-160239636D01*
X327597676Y-160239636D02*
X327692914Y-160144398D01*
X327692914Y-160144398D02*
X327740533Y-160049160D01*
X344954819Y-160620588D02*
X344954819Y-160049160D01*
X344954819Y-160334874D02*
X343954819Y-160334874D01*
X343954819Y-160334874D02*
X344097676Y-160239636D01*
X344097676Y-160239636D02*
X344192914Y-160144398D01*
X344192914Y-160144398D02*
X344240533Y-160049160D01*
X344288152Y-161477731D02*
X344954819Y-161477731D01*
X343907200Y-161239636D02*
X344621485Y-161001541D01*
X344621485Y-161001541D02*
X344621485Y-161620588D01*
X328454819Y-115518458D02*
X328454819Y-114947030D01*
X328454819Y-115232744D02*
X327454819Y-115232744D01*
X327454819Y-115232744D02*
X327597676Y-115137506D01*
X327597676Y-115137506D02*
X327692914Y-115042268D01*
X327692914Y-115042268D02*
X327740533Y-114947030D01*
X327454819Y-115851792D02*
X327454819Y-116470839D01*
X327454819Y-116470839D02*
X327835771Y-116137506D01*
X327835771Y-116137506D02*
X327835771Y-116280363D01*
X327835771Y-116280363D02*
X327883390Y-116375601D01*
X327883390Y-116375601D02*
X327931009Y-116423220D01*
X327931009Y-116423220D02*
X328026247Y-116470839D01*
X328026247Y-116470839D02*
X328264342Y-116470839D01*
X328264342Y-116470839D02*
X328359580Y-116423220D01*
X328359580Y-116423220D02*
X328407200Y-116375601D01*
X328407200Y-116375601D02*
X328454819Y-116280363D01*
X328454819Y-116280363D02*
X328454819Y-115994649D01*
X328454819Y-115994649D02*
X328407200Y-115899411D01*
X328407200Y-115899411D02*
X328359580Y-115851792D01*
X364454819Y-161833333D02*
X363978628Y-161500000D01*
X364454819Y-161261905D02*
X363454819Y-161261905D01*
X363454819Y-161261905D02*
X363454819Y-161642857D01*
X363454819Y-161642857D02*
X363502438Y-161738095D01*
X363502438Y-161738095D02*
X363550057Y-161785714D01*
X363550057Y-161785714D02*
X363645295Y-161833333D01*
X363645295Y-161833333D02*
X363788152Y-161833333D01*
X363788152Y-161833333D02*
X363883390Y-161785714D01*
X363883390Y-161785714D02*
X363931009Y-161738095D01*
X363931009Y-161738095D02*
X363978628Y-161642857D01*
X363978628Y-161642857D02*
X363978628Y-161261905D01*
X363550057Y-162214286D02*
X363502438Y-162261905D01*
X363502438Y-162261905D02*
X363454819Y-162357143D01*
X363454819Y-162357143D02*
X363454819Y-162595238D01*
X363454819Y-162595238D02*
X363502438Y-162690476D01*
X363502438Y-162690476D02*
X363550057Y-162738095D01*
X363550057Y-162738095D02*
X363645295Y-162785714D01*
X363645295Y-162785714D02*
X363740533Y-162785714D01*
X363740533Y-162785714D02*
X363883390Y-162738095D01*
X363883390Y-162738095D02*
X364454819Y-162166667D01*
X364454819Y-162166667D02*
X364454819Y-162785714D01*
X337766819Y-170267333D02*
X337290628Y-169934000D01*
X337766819Y-169695905D02*
X336766819Y-169695905D01*
X336766819Y-169695905D02*
X336766819Y-170076857D01*
X336766819Y-170076857D02*
X336814438Y-170172095D01*
X336814438Y-170172095D02*
X336862057Y-170219714D01*
X336862057Y-170219714D02*
X336957295Y-170267333D01*
X336957295Y-170267333D02*
X337100152Y-170267333D01*
X337100152Y-170267333D02*
X337195390Y-170219714D01*
X337195390Y-170219714D02*
X337243009Y-170172095D01*
X337243009Y-170172095D02*
X337290628Y-170076857D01*
X337290628Y-170076857D02*
X337290628Y-169695905D01*
X337100152Y-171124476D02*
X337766819Y-171124476D01*
X336719200Y-170886381D02*
X337433485Y-170648286D01*
X337433485Y-170648286D02*
X337433485Y-171267333D01*
X52454819Y-161833333D02*
X51978628Y-161500000D01*
X52454819Y-161261905D02*
X51454819Y-161261905D01*
X51454819Y-161261905D02*
X51454819Y-161642857D01*
X51454819Y-161642857D02*
X51502438Y-161738095D01*
X51502438Y-161738095D02*
X51550057Y-161785714D01*
X51550057Y-161785714D02*
X51645295Y-161833333D01*
X51645295Y-161833333D02*
X51788152Y-161833333D01*
X51788152Y-161833333D02*
X51883390Y-161785714D01*
X51883390Y-161785714D02*
X51931009Y-161738095D01*
X51931009Y-161738095D02*
X51978628Y-161642857D01*
X51978628Y-161642857D02*
X51978628Y-161261905D01*
X51454819Y-162166667D02*
X51454819Y-162785714D01*
X51454819Y-162785714D02*
X51835771Y-162452381D01*
X51835771Y-162452381D02*
X51835771Y-162595238D01*
X51835771Y-162595238D02*
X51883390Y-162690476D01*
X51883390Y-162690476D02*
X51931009Y-162738095D01*
X51931009Y-162738095D02*
X52026247Y-162785714D01*
X52026247Y-162785714D02*
X52264342Y-162785714D01*
X52264342Y-162785714D02*
X52359580Y-162738095D01*
X52359580Y-162738095D02*
X52407200Y-162690476D01*
X52407200Y-162690476D02*
X52454819Y-162595238D01*
X52454819Y-162595238D02*
X52454819Y-162309524D01*
X52454819Y-162309524D02*
X52407200Y-162214286D01*
X52407200Y-162214286D02*
X52359580Y-162166667D01*
X320954819Y-144333333D02*
X320478628Y-144000000D01*
X320954819Y-143761905D02*
X319954819Y-143761905D01*
X319954819Y-143761905D02*
X319954819Y-144142857D01*
X319954819Y-144142857D02*
X320002438Y-144238095D01*
X320002438Y-144238095D02*
X320050057Y-144285714D01*
X320050057Y-144285714D02*
X320145295Y-144333333D01*
X320145295Y-144333333D02*
X320288152Y-144333333D01*
X320288152Y-144333333D02*
X320383390Y-144285714D01*
X320383390Y-144285714D02*
X320431009Y-144238095D01*
X320431009Y-144238095D02*
X320478628Y-144142857D01*
X320478628Y-144142857D02*
X320478628Y-143761905D01*
X320954819Y-145285714D02*
X320954819Y-144714286D01*
X320954819Y-145000000D02*
X319954819Y-145000000D01*
X319954819Y-145000000D02*
X320097676Y-144904762D01*
X320097676Y-144904762D02*
X320192914Y-144809524D01*
X320192914Y-144809524D02*
X320240533Y-144714286D01*
D11*
%TO.C,J2*%
X71610400Y-117330400D02*
X71610400Y-159189600D01*
X71610400Y-159189600D02*
X89873000Y-159189600D01*
X89873000Y-117330400D02*
X71610400Y-117330400D01*
X89873000Y-159189600D02*
X89873000Y-117330400D01*
%TO.C,J3*%
X194190400Y-173127000D02*
X194190400Y-191389600D01*
X194190400Y-191389600D02*
X236049600Y-191389600D01*
X236049600Y-173127000D02*
X194190400Y-173127000D01*
X236049600Y-191389600D02*
X236049600Y-173127000D01*
%TO.C,J1*%
X327110400Y-117330400D02*
X327110400Y-159189600D01*
X327110400Y-159189600D02*
X345373000Y-159189600D01*
X345373000Y-117330400D02*
X327110400Y-117330400D01*
X345373000Y-159189600D02*
X345373000Y-117330400D01*
D12*
%TO.C,R2*%
X364000000Y-153280000D02*
X364000000Y-154130000D01*
X364000000Y-170720000D02*
X364000000Y-169870000D01*
X361380000Y-154130000D02*
X366620000Y-154130000D01*
X366620000Y-169870000D01*
X361380000Y-169870000D01*
X361380000Y-154130000D01*
%TO.C,R4*%
X337312000Y-164254000D02*
X337312000Y-164364000D01*
X337312000Y-176614000D02*
X337312000Y-176504000D01*
X334942000Y-164364000D02*
X339682000Y-164364000D01*
X339682000Y-176504000D01*
X334942000Y-176504000D01*
X334942000Y-164364000D01*
%TO.C,R3*%
X52070000Y-153078000D02*
X52070000Y-153928000D01*
X52070000Y-170518000D02*
X52070000Y-169668000D01*
X49450000Y-153928000D02*
X54690000Y-153928000D01*
X54690000Y-169668000D01*
X49450000Y-169668000D01*
X49450000Y-153928000D01*
%TO.C,R1*%
X320294000Y-140486000D02*
X320294000Y-141256000D01*
X320294000Y-148566000D02*
X320294000Y-147796000D01*
X321664000Y-147796000D02*
X318924000Y-147796000D01*
X318924000Y-141256000D01*
X321664000Y-141256000D01*
X321664000Y-147796000D01*
%TD*%
M02*
