%TF.GenerationSoftware,KiCad,Pcbnew,9.0.4-1.fc42app3*%
%TF.CreationDate,2025-10-25T21:48:41-04:00*%
%TF.ProjectId,BMW_E30_Early_Cluster_Nexus,424d575f-4533-4305-9f45-61726c795f43,rev?*%
%TF.SameCoordinates,Original*%
%TF.FileFunction,Profile,NP*%
%FSLAX46Y46*%
G04 Gerber Fmt 4.6, Leading zero omitted, Abs format (unit mm)*
G04 Created by KiCad (PCBNEW 9.0.4-1.fc42app3) date 2025-10-25 21:48:41*
%MOMM*%
%LPD*%
G01*
G04 APERTURE LIST*
%TA.AperFunction,Profile*%
%ADD10C,0.100000*%
%TD*%
%TA.AperFunction,Profile*%
%ADD11C,0.050000*%
%TD*%
%TA.AperFunction,Profile*%
%ADD12C,0.070000*%
%TD*%
%TA.AperFunction,Profile*%
%ADD13C,0.120000*%
%TD*%
G04 APERTURE END LIST*
D10*
X362400000Y-204684271D02*
X362400000Y-209000000D01*
X113186375Y-72489028D02*
X92582938Y-84753901D01*
D11*
X269240000Y-75692000D02*
G75*
G02*
X300990005Y-88899994I-1698700J-48848500D01*
G01*
X48800000Y-162400000D02*
G75*
G02*
X45600000Y-162400000I-1600000J0D01*
G01*
X45600000Y-162400000D02*
G75*
G02*
X48800000Y-162400000I1600000J0D01*
G01*
D10*
X47742136Y-190542136D02*
G75*
G02*
X53600001Y-204684271I-14142276J-14142194D01*
G01*
D11*
X133350000Y-174244000D02*
X129200000Y-170200000D01*
D10*
X385429866Y-144803316D02*
X386400000Y-183000000D01*
X113186375Y-72489028D02*
G75*
G02*
X150000000Y-63000013I36490325J-65412372D01*
G01*
D12*
X383250000Y-172000000D02*
G75*
G02*
X379150000Y-172000000I-2050000J0D01*
G01*
X379150000Y-172000000D02*
G75*
G02*
X383250000Y-172000000I2050000J0D01*
G01*
X118382000Y-194800000D02*
G75*
G02*
X114282000Y-194800000I-2050000J0D01*
G01*
X114282000Y-194800000D02*
G75*
G02*
X118382000Y-194800000I2050000J0D01*
G01*
D10*
X362400000Y-204684271D02*
G75*
G02*
X368257858Y-190542130I20000100J-29D01*
G01*
D11*
X177292000Y-157988000D02*
X177292000Y-174244000D01*
X112918000Y-187700000D02*
G75*
G02*
X100318000Y-187700000I-6300000J0D01*
G01*
X100318000Y-187700000D02*
G75*
G02*
X112918000Y-187700000I6300000J0D01*
G01*
X177292000Y-157988000D02*
X187198000Y-157988000D01*
X193200000Y-147800000D02*
X187198000Y-157988000D01*
D10*
X386400000Y-183000000D02*
X375800000Y-183000000D01*
X53600000Y-209000000D02*
X53600000Y-204684271D01*
D12*
X327406000Y-92202000D02*
G75*
G02*
X323306000Y-92202000I-2050000J0D01*
G01*
X323306000Y-92202000D02*
G75*
G02*
X327406000Y-92202000I2050000J0D01*
G01*
D11*
X231648000Y-159661000D02*
X240851223Y-168910000D01*
D10*
X362400000Y-209000000D02*
X358400000Y-213000000D01*
D11*
X316484000Y-104394000D02*
X300990000Y-88900000D01*
D10*
X30570134Y-144803316D02*
G75*
G02*
X44489179Y-117746292I34988686J-890634D01*
G01*
D11*
X269239986Y-75692000D02*
X241046000Y-75692000D01*
X193200000Y-129400000D02*
X193200000Y-147800000D01*
X129200000Y-158200000D02*
X129200000Y-170200000D01*
X201800000Y-101600000D02*
G75*
G02*
X203800000Y-103600000I0J-2000000D01*
G01*
X150000000Y-63000001D02*
X266000000Y-63000000D01*
X72532000Y-187700000D02*
G75*
G02*
X59932000Y-187700000I-6300000J0D01*
G01*
X59932000Y-187700000D02*
G75*
G02*
X72532000Y-187700000I6300000J0D01*
G01*
D10*
X375800000Y-183000000D02*
X368257864Y-190542136D01*
X64213692Y-103484150D02*
X44489178Y-117746290D01*
D11*
X316300000Y-187800000D02*
G75*
G02*
X303700000Y-187800000I-6300000J0D01*
G01*
X303700000Y-187800000D02*
G75*
G02*
X316300000Y-187800000I6300000J0D01*
G01*
D10*
X29600000Y-183000000D02*
X40200000Y-183000000D01*
D11*
X173800000Y-187700000D02*
G75*
G02*
X161200000Y-187700000I-6300000J0D01*
G01*
X161200000Y-187700000D02*
G75*
G02*
X173800000Y-187700000I6300000J0D01*
G01*
D10*
X30570134Y-144803316D02*
X29600000Y-183000000D01*
X57600000Y-213000000D02*
X358400000Y-213000000D01*
X266000000Y-63000000D02*
G75*
G02*
X302813632Y-72489016I323300J-74901400D01*
G01*
D12*
X187208000Y-67800000D02*
G75*
G02*
X183108000Y-67800000I-2050000J0D01*
G01*
X183108000Y-67800000D02*
G75*
G02*
X187208000Y-67800000I2050000J0D01*
G01*
X233550000Y-67800000D02*
G75*
G02*
X229450000Y-67800000I-2050000J0D01*
G01*
X229450000Y-67800000D02*
G75*
G02*
X233550000Y-67800000I2050000J0D01*
G01*
D11*
X92852000Y-187700000D02*
G75*
G02*
X80252000Y-187700000I-6300000J0D01*
G01*
X80252000Y-187700000D02*
G75*
G02*
X92852000Y-187700000I6300000J0D01*
G01*
D12*
X37550000Y-171500000D02*
G75*
G02*
X33450000Y-171500000I-2050000J0D01*
G01*
X33450000Y-171500000D02*
G75*
G02*
X37550000Y-171500000I2050000J0D01*
G01*
D10*
X323417062Y-84753901D02*
G75*
G02*
X351786308Y-103484149I-206007262J-342872599D01*
G01*
D11*
X193400000Y-89000000D02*
X193400000Y-101600000D01*
X203800000Y-127400000D02*
G75*
G02*
X201800000Y-129400000I-1999900J-100D01*
G01*
X193400000Y-101600000D02*
X201800000Y-101600000D01*
X298704000Y-168910000D02*
X316484000Y-151130000D01*
X231648000Y-159661000D02*
X231648000Y-85090000D01*
D10*
X351786308Y-103484150D02*
X371510822Y-117746290D01*
X371510822Y-117746290D02*
G75*
G02*
X385429875Y-144803316I-21069722J-27947710D01*
G01*
X64213692Y-103484150D02*
G75*
G02*
X92582935Y-84753897I234377908J-324144350D01*
G01*
D11*
X203800000Y-103600000D02*
X203800000Y-127400000D01*
X370400000Y-162400000D02*
G75*
G02*
X367200000Y-162400000I-1600000J0D01*
G01*
X367200000Y-162400000D02*
G75*
G02*
X370400000Y-162400000I1600000J0D01*
G01*
D12*
X93236000Y-92184000D02*
G75*
G02*
X89136000Y-92184000I-2050000J0D01*
G01*
X89136000Y-92184000D02*
G75*
G02*
X93236000Y-92184000I2050000J0D01*
G01*
D11*
X240851223Y-168910000D02*
X298704000Y-168910000D01*
X201800000Y-129400000D02*
X193200000Y-129400000D01*
X123229124Y-176200000D02*
G75*
G02*
X116770876Y-176200000I-3229124J0D01*
G01*
X116770876Y-176200000D02*
G75*
G02*
X123229124Y-176200000I3229124J0D01*
G01*
X316484000Y-151130000D02*
X316484000Y-104394000D01*
X191400000Y-87000000D02*
X114733280Y-87000000D01*
X177292000Y-174244000D02*
X133350000Y-174244000D01*
X191400000Y-87000000D02*
G75*
G02*
X193400000Y-89000000I0J-2000000D01*
G01*
D10*
X53600000Y-209000000D02*
X57600000Y-213000000D01*
D11*
X241046000Y-75692000D02*
X231648000Y-85090000D01*
D12*
X210050000Y-151500000D02*
G75*
G02*
X205950000Y-151500000I-2050000J0D01*
G01*
X205950000Y-151500000D02*
G75*
G02*
X210050000Y-151500000I2050000J0D01*
G01*
D10*
X40200000Y-183000000D02*
X47742136Y-190542136D01*
X302813625Y-72489028D02*
X323417062Y-84753901D01*
D11*
X111400000Y-158200000D02*
G75*
G02*
X114733280Y-87000000I37599997J33917754D01*
G01*
D12*
X301516000Y-194564000D02*
G75*
G02*
X297416000Y-194564000I-2050000J0D01*
G01*
X297416000Y-194564000D02*
G75*
G02*
X301516000Y-194564000I2050000J0D01*
G01*
D11*
X129200000Y-158200000D02*
X111400000Y-158200000D01*
D13*
%TO.C,J5*%
X173236068Y-201104000D02*
G75*
G02*
X168763932Y-201104000I-2236068J0D01*
G01*
X168763932Y-201104000D02*
G75*
G02*
X173236068Y-201104000I2236068J0D01*
G01*
X248236068Y-201104000D02*
G75*
G02*
X243763932Y-201104000I-2236068J0D01*
G01*
X243763932Y-201104000D02*
G75*
G02*
X248236068Y-201104000I2236068J0D01*
G01*
D11*
%TO.C,LA13b1*%
X311557156Y-171200000D02*
X313670514Y-171197540D01*
X311557156Y-175600000D02*
X313670514Y-175602460D01*
X325901486Y-175602460D02*
X328014844Y-175600000D01*
X328014844Y-171200000D02*
X325901486Y-171197540D01*
X311557156Y-175600000D02*
G75*
G02*
X311557156Y-171200000I8228849J2200000D01*
G01*
X313670514Y-171197540D02*
G75*
G02*
X325901486Y-171197540I6115486J-2202460D01*
G01*
X325901486Y-175602460D02*
G75*
G02*
X313670514Y-175602460I-6115486J2202460D01*
G01*
X328014844Y-171200000D02*
G75*
G02*
X328014844Y-175600000I-8228849J-2200000D01*
G01*
X321286000Y-163200000D02*
X318286000Y-163200000D01*
X318286000Y-160200000D01*
X321286000Y-160200000D01*
X321286000Y-163200000D01*
%TO.C,LA12*%
X348346000Y-183679785D02*
X348346000Y-181899456D01*
X348346000Y-191732215D02*
X348346000Y-193512544D01*
X351346000Y-183679785D02*
X351346000Y-181899456D01*
X351346000Y-191732215D02*
X351346000Y-193512544D01*
X348346000Y-181899456D02*
G75*
G02*
X351346000Y-181899456I1500000J-5806547D01*
G01*
X348346000Y-191732215D02*
G75*
G02*
X348346000Y-183679785I1499999J4026215D01*
G01*
X351346000Y-183679785D02*
G75*
G02*
X351346000Y-191732215I-1499999J-4026215D01*
G01*
X351346000Y-193512544D02*
G75*
G02*
X348346000Y-193512544I-1500000J5806544D01*
G01*
D13*
%TO.C,U2*%
X63850000Y-151958000D02*
G75*
G02*
X61150000Y-151958000I-1350000J0D01*
G01*
X61150000Y-151958000D02*
G75*
G02*
X63850000Y-151958000I1350000J0D01*
G01*
X63850000Y-171958000D02*
G75*
G02*
X61150000Y-171958000I-1350000J0D01*
G01*
X61150000Y-171958000D02*
G75*
G02*
X63850000Y-171958000I1350000J0D01*
G01*
%TO.C,U1*%
X354918000Y-151958000D02*
G75*
G02*
X352218000Y-151958000I-1350000J0D01*
G01*
X352218000Y-151958000D02*
G75*
G02*
X354918000Y-151958000I1350000J0D01*
G01*
X354918000Y-171958000D02*
G75*
G02*
X352218000Y-171958000I-1350000J0D01*
G01*
X352218000Y-171958000D02*
G75*
G02*
X354918000Y-171958000I1350000J0D01*
G01*
D11*
%TO.C,LA13a1*%
X88171156Y-171200000D02*
X90284514Y-171197540D01*
X88171156Y-175600000D02*
X90284514Y-175602460D01*
X102515486Y-175602460D02*
X104628844Y-175600000D01*
X104628844Y-171200000D02*
X102515486Y-171197540D01*
X88171156Y-175600000D02*
G75*
G02*
X88171156Y-171200000I8228849J2200000D01*
G01*
X90284514Y-171197540D02*
G75*
G02*
X102515486Y-171197540I6115486J-2202460D01*
G01*
X102515486Y-175602460D02*
G75*
G02*
X90284514Y-175602460I-6115486J2202460D01*
G01*
X104628844Y-171200000D02*
G75*
G02*
X104628844Y-175600000I-8228849J-2200000D01*
G01*
X97900000Y-163200000D02*
X94900000Y-163200000D01*
X94900000Y-160200000D01*
X97900000Y-160200000D01*
X97900000Y-163200000D01*
%TO.C,LA16*%
X195973785Y-72500000D02*
X194193456Y-72500000D01*
X195973785Y-75500000D02*
X194193456Y-75500000D01*
X204026215Y-72500000D02*
X205806544Y-72500000D01*
X204026215Y-75500000D02*
X205806544Y-75500000D01*
X194193456Y-75500000D02*
G75*
G02*
X194193456Y-72500000I5806544J1500000D01*
G01*
X195973785Y-72500000D02*
G75*
G02*
X204026215Y-72500000I4026215J-1499999D01*
G01*
X204026215Y-75500000D02*
G75*
G02*
X195973785Y-75500000I-4026215J1499999D01*
G01*
X205806544Y-72500000D02*
G75*
G02*
X205806544Y-75500000I-5806547J-1500000D01*
G01*
%TO.C,LA8*%
X265267785Y-186206000D02*
X263487456Y-186206000D01*
X265267785Y-189206000D02*
X263487456Y-189206000D01*
X273320215Y-186206000D02*
X275100544Y-186206000D01*
X273320215Y-189206000D02*
X275100544Y-189206000D01*
X263487456Y-189206000D02*
G75*
G02*
X263487456Y-186206000I5806544J1500000D01*
G01*
X265267785Y-186206000D02*
G75*
G02*
X273320215Y-186206000I4026215J-1499999D01*
G01*
X273320215Y-189206000D02*
G75*
G02*
X265267785Y-189206000I-4026215J1499999D01*
G01*
X275100544Y-186206000D02*
G75*
G02*
X275100544Y-189206000I-5806547J-1500000D01*
G01*
%TO.C,LA7*%
X245087785Y-186206000D02*
X243307456Y-186206000D01*
X245087785Y-189206000D02*
X243307456Y-189206000D01*
X253140215Y-186206000D02*
X254920544Y-186206000D01*
X253140215Y-189206000D02*
X254920544Y-189206000D01*
X243307456Y-189206000D02*
G75*
G02*
X243307456Y-186206000I5806544J1500000D01*
G01*
X245087785Y-186206000D02*
G75*
G02*
X253140215Y-186206000I4026215J-1499999D01*
G01*
X253140215Y-189206000D02*
G75*
G02*
X245087785Y-189206000I-4026215J1499999D01*
G01*
X254920544Y-186206000D02*
G75*
G02*
X254920544Y-189206000I-5806547J-1500000D01*
G01*
%TO.C,LA9*%
X285473785Y-186206000D02*
X283693456Y-186206000D01*
X285473785Y-189206000D02*
X283693456Y-189206000D01*
X293526215Y-186206000D02*
X295306544Y-186206000D01*
X293526215Y-189206000D02*
X295306544Y-189206000D01*
X283693456Y-189206000D02*
G75*
G02*
X283693456Y-186206000I5806544J1500000D01*
G01*
X285473785Y-186206000D02*
G75*
G02*
X293526215Y-186206000I4026215J-1499999D01*
G01*
X293526215Y-189206000D02*
G75*
G02*
X285473785Y-189206000I-4026215J1499999D01*
G01*
X295306544Y-186206000D02*
G75*
G02*
X295306544Y-189206000I-5806547J-1500000D01*
G01*
%TO.C,LA5*%
X142973785Y-186206000D02*
X141193456Y-186206000D01*
X142973785Y-189206000D02*
X141193456Y-189206000D01*
X151026215Y-186206000D02*
X152806544Y-186206000D01*
X151026215Y-189206000D02*
X152806544Y-189206000D01*
X141193456Y-189206000D02*
G75*
G02*
X141193456Y-186206000I5806544J1500000D01*
G01*
X142973785Y-186206000D02*
G75*
G02*
X151026215Y-186206000I4026215J-1499999D01*
G01*
X151026215Y-189206000D02*
G75*
G02*
X142973785Y-189206000I-4026215J1499999D01*
G01*
X152806544Y-186206000D02*
G75*
G02*
X152806544Y-189206000I-5806547J-1500000D01*
G01*
%TO.C,LA17*%
X206500000Y-87159785D02*
X206500000Y-85379456D01*
X206500000Y-95212215D02*
X206500000Y-96992544D01*
X209500000Y-87159785D02*
X209500000Y-85379456D01*
X209500000Y-95212215D02*
X209500000Y-96992544D01*
X206500000Y-85379456D02*
G75*
G02*
X209500000Y-85379456I1500000J-5806547D01*
G01*
X206500000Y-95212215D02*
G75*
G02*
X206500000Y-87159785I1499999J4026215D01*
G01*
X209500000Y-87159785D02*
G75*
G02*
X209500000Y-95212215I-1499999J-4026215D01*
G01*
X209500000Y-96992544D02*
G75*
G02*
X206500000Y-96992544I-1500000J5806544D01*
G01*
%TO.C,LA4*%
X125426000Y-183679785D02*
X125426000Y-181899456D01*
X125426000Y-191732215D02*
X125426000Y-193512544D01*
X128426000Y-183679785D02*
X128426000Y-181899456D01*
X128426000Y-191732215D02*
X128426000Y-193512544D01*
X125426000Y-181899456D02*
G75*
G02*
X128426000Y-181899456I1500000J-5806547D01*
G01*
X125426000Y-191732215D02*
G75*
G02*
X125426000Y-183679785I1499999J4026215D01*
G01*
X128426000Y-183679785D02*
G75*
G02*
X128426000Y-191732215I-1499999J-4026215D01*
G01*
X128426000Y-193512544D02*
G75*
G02*
X125426000Y-193512544I-1500000J5806544D01*
G01*
%TO.C,LA11*%
X321463156Y-186776000D02*
X323576514Y-186773540D01*
X321463156Y-191176000D02*
X323576514Y-191178460D01*
X335807486Y-191178460D02*
X337920844Y-191176000D01*
X337920844Y-186776000D02*
X335807486Y-186773540D01*
X321463156Y-191176000D02*
G75*
G02*
X321463156Y-186776000I8228849J2200000D01*
G01*
X323576514Y-186773540D02*
G75*
G02*
X335807486Y-186773540I6115486J-2202460D01*
G01*
X335807486Y-191178460D02*
G75*
G02*
X323576514Y-191178460I-6115486J2202460D01*
G01*
X337920844Y-186776000D02*
G75*
G02*
X337920844Y-191176000I-8228849J-2200000D01*
G01*
%TO.C,LA15*%
X204687854Y-168236804D02*
X203797690Y-169778615D01*
X207285931Y-169736804D02*
X206395766Y-171278615D01*
X208714069Y-161263196D02*
X209604234Y-159721385D01*
X211312146Y-162763196D02*
X212202310Y-161221385D01*
X204687854Y-168236804D02*
G75*
G02*
X208714069Y-161263196I3312145J2736804D01*
G01*
X206395766Y-171278615D02*
G75*
G02*
X203797690Y-169778615I1604234J5778615D01*
G01*
X209604234Y-159721385D02*
G75*
G02*
X212202310Y-161221385I-1604236J-5778618D01*
G01*
X211312146Y-162763196D02*
G75*
G02*
X207285931Y-169736804I-3312145J-2736804D01*
G01*
%TO.C,LA14*%
X41500000Y-145973785D02*
X41500000Y-144193456D01*
X41500000Y-154026215D02*
X41500000Y-155806544D01*
X44500000Y-145973785D02*
X44500000Y-144193456D01*
X44500000Y-154026215D02*
X44500000Y-155806544D01*
X41500000Y-144193456D02*
G75*
G02*
X44500000Y-144193456I1500000J-5806547D01*
G01*
X41500000Y-154026215D02*
G75*
G02*
X41500000Y-145973785I1499999J4026215D01*
G01*
X44500000Y-145973785D02*
G75*
G02*
X44500000Y-154026215I-1499999J-4026215D01*
G01*
X44500000Y-155806544D02*
G75*
G02*
X41500000Y-155806544I-1500000J5806544D01*
G01*
%TO.C,LA18*%
X211973785Y-72500000D02*
X210193456Y-72500000D01*
X211973785Y-75500000D02*
X210193456Y-75500000D01*
X220026215Y-72500000D02*
X221806544Y-72500000D01*
X220026215Y-75500000D02*
X221806544Y-75500000D01*
X210193456Y-75500000D02*
G75*
G02*
X210193456Y-72500000I5806544J1500000D01*
G01*
X211973785Y-72500000D02*
G75*
G02*
X220026215Y-72500000I4026215J-1499999D01*
G01*
X220026215Y-75500000D02*
G75*
G02*
X211973785Y-75500000I-4026215J1499999D01*
G01*
X221806544Y-72500000D02*
G75*
G02*
X221806544Y-75500000I-5806547J-1500000D01*
G01*
%TO.C,LA20*%
X373150000Y-146973785D02*
X373150000Y-145193456D01*
X373150000Y-155026215D02*
X373150000Y-156806544D01*
X376150000Y-146973785D02*
X376150000Y-145193456D01*
X376150000Y-155026215D02*
X376150000Y-156806544D01*
X373150000Y-145193456D02*
G75*
G02*
X376150000Y-145193456I1500000J-5806547D01*
G01*
X373150000Y-155026215D02*
G75*
G02*
X373150000Y-146973785I1499999J4026215D01*
G01*
X376150000Y-146973785D02*
G75*
G02*
X376150000Y-155026215I-1499999J-4026215D01*
G01*
X376150000Y-156806544D02*
G75*
G02*
X373150000Y-156806544I-1500000J5806544D01*
G01*
%TD*%
M02*
