%TF.GenerationSoftware,KiCad,Pcbnew,9.0.7-1.fc42*%
%TF.CreationDate,2026-01-29T19:15:54-05:00*%
%TF.ProjectId,BMW_E30_Early_Cluster_Nexus,424d575f-4533-4305-9f45-61726c795f43,rev?*%
%TF.SameCoordinates,Original*%
%TF.FileFunction,Copper,L2,Bot*%
%TF.FilePolarity,Positive*%
%FSLAX46Y46*%
G04 Gerber Fmt 4.6, Leading zero omitted, Abs format (unit mm)*
G04 Created by KiCad (PCBNEW 9.0.7-1.fc42) date 2026-01-29 19:15:54*
%MOMM*%
%LPD*%
G01*
G04 APERTURE LIST*
G04 Aperture macros list*
%AMOutline4P*
0 Free polygon, 4 corners , with rotation*
0 The origin of the aperture is its center*
0 number of corners: always 4*
0 $1 to $8 corner X, Y*
0 $9 Rotation angle, in degrees counterclockwise*
0 create outline with 4 corners*
4,1,4,$1,$2,$3,$4,$5,$6,$7,$8,$1,$2,$9*%
G04 Aperture macros list end*
%TA.AperFunction,ComponentPad*%
%ADD10Outline4P,-1.700000X-2.000000X1.700000X-3.000000X1.700000X3.000000X-1.700000X2.000000X0.000000*%
%TD*%
%TA.AperFunction,ComponentPad*%
%ADD11Outline4P,-1.700000X-2.000000X1.700000X-3.000000X1.700000X3.000000X-1.700000X2.000000X180.000000*%
%TD*%
%TA.AperFunction,ComponentPad*%
%ADD12C,8.000000*%
%TD*%
%TA.AperFunction,ComponentPad*%
%ADD13O,4.900000X3.000000*%
%TD*%
%TA.AperFunction,ComponentPad*%
%ADD14C,1.524000*%
%TD*%
%TA.AperFunction,WasherPad*%
%ADD15C,2.210000*%
%TD*%
%TA.AperFunction,ComponentPad*%
%ADD16C,2.400000*%
%TD*%
%TA.AperFunction,ComponentPad*%
%ADD17C,1.600000*%
%TD*%
%TA.AperFunction,ViaPad*%
%ADD18C,2.400000*%
%TD*%
%TA.AperFunction,Conductor*%
%ADD19C,1.000000*%
%TD*%
G04 APERTURE END LIST*
D10*
%TO.P,U2,1,Vcc*%
%TO.N,Net-(U2-Vcc)*%
X59280000Y-196258000D03*
D11*
X66280000Y-196258000D03*
D12*
%TO.P,U2,2,GND*%
%TO.N,GNDPWR*%
X62780000Y-186258000D03*
D10*
%TO.P,U2,3,Vout*%
%TO.N,Fuel_level*%
X59280000Y-176258000D03*
D11*
X66280000Y-176258000D03*
%TD*%
D10*
%TO.P,U1,1,Vcc*%
%TO.N,Net-(U1-Vcc)*%
X350068000Y-196258000D03*
D11*
X357068000Y-196258000D03*
D12*
%TO.P,U1,2,GND*%
%TO.N,GNDPWR*%
X353568000Y-186258000D03*
D10*
%TO.P,U1,3,Vout*%
%TO.N,Temp_gauge*%
X350068000Y-176258000D03*
D11*
X357068000Y-176258000D03*
%TD*%
D13*
%TO.P,J4,1,Pin_1*%
%TO.N,+12 T15*%
X222250000Y-127170000D03*
%TO.P,J4,2,Pin_2*%
%TO.N,Fuel_rate_input*%
X222250000Y-130670000D03*
%TO.P,J4,3,Pin_3*%
%TO.N,GNDPWR*%
X222250000Y-134170000D03*
%TO.P,J4,4,Pin_4*%
%TO.N,Wheel_spd_output*%
X222250000Y-137670000D03*
%TO.P,J4,5,Pin_5*%
%TO.N,+12 T15_ACC*%
X222250000Y-141170000D03*
%TO.P,J4,6,Pin_6*%
%TO.N,cylinder_count*%
X222250000Y-144670000D03*
%TO.P,J4,7,Pin_7*%
%TO.N,Speed_pulse*%
X222250000Y-148170000D03*
%TO.P,J4,8,Pin_8*%
%TO.N,Distance_pulse*%
X222250000Y-151670000D03*
%TO.P,J4,9,Pin_9*%
%TO.N,+5V*%
X222250000Y-155170000D03*
%TO.P,J4,10,Pin_10*%
%TO.N,+12 T30*%
X222250000Y-158670000D03*
%TO.P,J4,11,Pin_11*%
%TO.N,Engine_spd_input*%
X222250000Y-162170000D03*
%TO.P,J4,12,Pin_12*%
%TO.N,Charge_ind-*%
X213250000Y-130670000D03*
%TO.P,J4,13,Pin_13*%
%TO.N,GNDPWR*%
X213250000Y-134170000D03*
%TO.P,J4,14,Pin_14*%
%TO.N,Wheel_spd_input*%
X213250000Y-137670000D03*
%TO.P,J4,15,Pin_15*%
%TO.N,Wheel_spd_output*%
X213250000Y-141170000D03*
%TO.P,J4,16,Pin_16*%
%TO.N,+12 T15_ACC*%
X213250000Y-144670000D03*
%TD*%
D14*
%TO.P,J2,1,1*%
%TO.N,Park_brake_ind-*%
X79460000Y-179300000D03*
%TO.P,J2,2,2*%
%TO.N,unconnected-(J2-Pad2)*%
X79460000Y-176760000D03*
%TO.P,J2,3,3*%
%TO.N,GNDPWR*%
X79460000Y-174220000D03*
%TO.P,J2,4,4*%
%TO.N,Fuel_level*%
X79460000Y-171680000D03*
%TO.P,J2,5,5*%
%TO.N,Low_Fuel_ind-*%
X79460000Y-169140000D03*
%TO.P,J2,6,6*%
%TO.N,+12 T15*%
X79460000Y-166600000D03*
%TO.P,J2,7,7*%
%TO.N,LH_ind*%
X79460000Y-164060000D03*
%TO.P,J2,8,8*%
%TO.N,GNDPWR*%
X79460000Y-161520000D03*
%TO.P,J2,9,9*%
%TO.N,unconnected-(J2-Pad9)*%
X79460000Y-158980000D03*
%TO.P,J2,10,10*%
%TO.N,unconnected-(J2-Pad10)*%
X79460000Y-156440000D03*
%TO.P,J2,11,11*%
%TO.N,unconnected-(J2-Pad11)*%
X79460000Y-153900000D03*
%TO.P,J2,12,12*%
%TO.N,Wheel_spd_input*%
X79460000Y-151360000D03*
%TO.P,J2,13,13*%
%TO.N,+12 T15_ACC*%
X79460000Y-148820000D03*
%TO.P,J2,14,14*%
%TO.N,Rear_fog_ind+*%
X82000000Y-179300000D03*
%TO.P,J2,15,15*%
%TO.N,unconnected-(J2-Pad15)*%
X82000000Y-176760000D03*
%TO.P,J2,16,16*%
%TO.N,GNDPWR*%
X82000000Y-174220000D03*
%TO.P,J2,17,17*%
%TO.N,unconnected-(J2-Pad17)*%
X82000000Y-171680000D03*
%TO.P,J2,18,18*%
%TO.N,unconnected-(J2-Pad18)*%
X82000000Y-169140000D03*
%TO.P,J2,19,19*%
%TO.N,unconnected-(J2-Pad19)*%
X82000000Y-166600000D03*
%TO.P,J2,20,20*%
%TO.N,unconnected-(J2-Pad20)*%
X82000000Y-164060000D03*
%TO.P,J2,21,21*%
%TO.N,GNDPWR*%
X82000000Y-161520000D03*
%TO.P,J2,22,22*%
%TO.N,Fog_ind+*%
X82000000Y-158980000D03*
%TO.P,J2,23,23*%
%TO.N,Illum-*%
X82000000Y-156440000D03*
%TO.P,J2,24,24*%
%TO.N,Illum+*%
X82000000Y-153900000D03*
%TO.P,J2,25,25*%
%TO.N,+5V*%
X82000000Y-151360000D03*
%TO.P,J2,26,26*%
%TO.N,Brake_wear_sig-*%
X82000000Y-148820000D03*
%TD*%
D15*
%TO.P,J3,*%
%TO.N,*%
X233860000Y-209840000D03*
D14*
%TO.P,J3,1,1*%
%TO.N,GNDPWR*%
X230860000Y-207840000D03*
%TO.P,J3,2,2*%
%TO.N,+12 T15*%
X228320000Y-207840000D03*
%TO.P,J3,3,3*%
%TO.N,unconnected-(J3-Pad3)*%
X225780000Y-207840000D03*
%TO.P,J3,4,4*%
%TO.N,Low_Fuel_ind-*%
X223240000Y-207840000D03*
%TO.P,J3,5,5*%
%TO.N,Fuel_level*%
X220700000Y-207840000D03*
%TO.P,J3,6,6*%
%TO.N,Park_brake_ind-*%
X218160000Y-207840000D03*
%TO.P,J3,7,7*%
%TO.N,Illum-*%
X215620000Y-207840000D03*
%TO.P,J3,8,8*%
%TO.N,Illum+*%
X213080000Y-207840000D03*
%TO.P,J3,9,9*%
%TO.N,START*%
X210540000Y-207840000D03*
%TO.P,J3,10,10*%
%TO.N,+12 T30*%
X208000000Y-207840000D03*
%TO.P,J3,11,11*%
%TO.N,Engine_spd_input*%
X205460000Y-207840000D03*
%TO.P,J3,12,12*%
%TO.N,unconnected-(J3-Pad12)*%
X202920000Y-207840000D03*
%TO.P,J3,13,13*%
%TO.N,+12 T15_ACC*%
X200380000Y-207840000D03*
%TO.P,J3,14,14*%
%TO.N,+12 T15*%
X230860000Y-205300000D03*
%TO.P,J3,15,15*%
X228320000Y-205300000D03*
%TO.P,J3,16,16*%
%TO.N,unconnected-(J3-Pad16)*%
X225780000Y-205300000D03*
%TO.P,J3,17,17*%
%TO.N,unconnected-(J3-Pad17)*%
X223240000Y-205300000D03*
%TO.P,J3,18,18*%
%TO.N,unconnected-(J3-Pad18)*%
X220700000Y-205300000D03*
%TO.P,J3,19,19*%
%TO.N,Park_brake_ind-*%
X218160000Y-205300000D03*
%TO.P,J3,20,20*%
%TO.N,Illum-*%
X215620000Y-205300000D03*
%TO.P,J3,21,21*%
%TO.N,Illum+*%
X213080000Y-205300000D03*
%TO.P,J3,22,22*%
%TO.N,START*%
X210540000Y-205300000D03*
%TO.P,J3,23,23*%
%TO.N,+12 T30*%
X208000000Y-205300000D03*
%TO.P,J3,24,24*%
%TO.N,Engine_spd_input*%
X205460000Y-205300000D03*
%TO.P,J3,25,25*%
%TO.N,Fuel_rate_input*%
X202920000Y-205300000D03*
%TO.P,J3,26,26*%
%TO.N,Wheel_spd_output*%
X200380000Y-205300000D03*
%TD*%
D15*
%TO.P,J1,*%
%TO.N,*%
X332460000Y-168160000D03*
X338000000Y-181560000D03*
D14*
%TO.P,J1,1,1*%
%TO.N,START*%
X334460000Y-179300000D03*
%TO.P,J1,2,2*%
%TO.N,+12 T30*%
X334460000Y-176760000D03*
%TO.P,J1,3,3*%
%TO.N,Charge_ind-*%
X334460000Y-174220000D03*
%TO.P,J1,4,4*%
%TO.N,Check_Control_ind*%
X334460000Y-171680000D03*
%TO.P,J1,5,5*%
%TO.N,unconnected-(J1-Pad5)*%
X334460000Y-169140000D03*
%TO.P,J1,6,6*%
%TO.N,+12 T15*%
X334460000Y-166600000D03*
%TO.P,J1,7,7*%
%TO.N,RAW_RPM_input*%
X334460000Y-164060000D03*
%TO.P,J1,8,8*%
%TO.N,unconnected-(J1-Pad8)*%
X334460000Y-161520000D03*
%TO.P,J1,9,9*%
%TO.N,unconnected-(J1-Pad9)*%
X334460000Y-158980000D03*
%TO.P,J1,10,10*%
%TO.N,+12 T15*%
X334460000Y-156440000D03*
%TO.P,J1,11,11*%
%TO.N,Fuel_rate_input*%
X334460000Y-153900000D03*
%TO.P,J1,12,12*%
%TO.N,High_beam_ind*%
X334460000Y-151360000D03*
%TO.P,J1,13,13*%
%TO.N,RH_ind*%
X334460000Y-148820000D03*
%TO.P,J1,14,14*%
%TO.N,Charge_Ind+*%
X337000000Y-179300000D03*
%TO.P,J1,15,15*%
%TO.N,unconnected-(J1-Pad15)*%
X337000000Y-176760000D03*
%TO.P,J1,16,16*%
%TO.N,Charge_ind-*%
X337000000Y-174220000D03*
%TO.P,J1,17,17*%
%TO.N,Brake_fluid_ind-*%
X337000000Y-171680000D03*
%TO.P,J1,18,18*%
%TO.N,Oil_pressure_ind-*%
X337000000Y-169140000D03*
%TO.P,J1,19,19*%
%TO.N,+12 T15*%
X337000000Y-166600000D03*
%TO.P,J1,20,20*%
%TO.N,GNDPWR*%
X337000000Y-164060000D03*
%TO.P,J1,21,21*%
%TO.N,Brake_wear_sig+*%
X337000000Y-161520000D03*
%TO.P,J1,22,22*%
%TO.N,SI_RST*%
X337000000Y-158980000D03*
%TO.P,J1,23,23*%
%TO.N,+12 T15*%
X337000000Y-156440000D03*
%TO.P,J1,24,24*%
%TO.N,unconnected-(J1-Pad24)*%
X337000000Y-153900000D03*
%TO.P,J1,25,25*%
%TO.N,Overheat_ind-*%
X337000000Y-151360000D03*
%TO.P,J1,26,26*%
%TO.N,Eng_temp_sensor*%
X337000000Y-148820000D03*
%TD*%
D16*
%TO.P,R2,1*%
%TO.N,+12 T15*%
X364000000Y-176140000D03*
%TO.P,R2,2*%
%TO.N,Net-(U1-Vcc)*%
X364000000Y-196460000D03*
%TD*%
%TO.P,R4,1*%
%TO.N,Charge_Ind+*%
X337312000Y-187114000D03*
%TO.P,R4,2*%
%TO.N,Charge_ind-*%
X337312000Y-202354000D03*
%TD*%
%TO.P,R3,1*%
%TO.N,+12 T15*%
X53000000Y-175938000D03*
%TO.P,R3,2*%
%TO.N,Net-(U2-Vcc)*%
X53000000Y-196258000D03*
%TD*%
D17*
%TO.P,R1,1*%
%TO.N,Engine_spd_input*%
X320294000Y-173906000D03*
%TO.P,R1,2*%
%TO.N,RAW_RPM_input*%
X320294000Y-163746000D03*
%TD*%
D18*
%TO.N,Charge_ind-*%
X323342000Y-171112000D03*
X323342000Y-156126000D03*
%TO.N,Fuel_rate_input*%
X226060000Y-174414000D03*
X226060000Y-189400000D03*
%TO.N,GNDPWR*%
X347000000Y-164300000D03*
X347000000Y-148400000D03*
%TD*%
D19*
%TO.N,Charge_ind-*%
X323342000Y-171112000D02*
X323342000Y-156126000D01*
%TO.N,Fuel_rate_input*%
X226060000Y-174414000D02*
X226060000Y-189400000D01*
%TO.N,GNDPWR*%
X347000000Y-164300000D02*
X347000000Y-148400000D01*
%TD*%
M02*
