%TF.GenerationSoftware,KiCad,Pcbnew,9.0.4-1.fc42app3*%
%TF.CreationDate,2025-10-25T21:48:41-04:00*%
%TF.ProjectId,BMW_E30_Early_Cluster_Nexus,424d575f-4533-4305-9f45-61726c795f43,rev?*%
%TF.SameCoordinates,Original*%
%TF.FileFunction,AssemblyDrawing,Bot*%
%FSLAX46Y46*%
G04 Gerber Fmt 4.6, Leading zero omitted, Abs format (unit mm)*
G04 Created by KiCad (PCBNEW 9.0.4-1.fc42app3) date 2025-10-25 21:48:41*
%MOMM*%
%LPD*%
G01*
G04 APERTURE LIST*
%ADD10C,0.150000*%
%ADD11C,0.025400*%
%ADD12C,0.100000*%
G04 APERTURE END LIST*
D10*
X92319580Y-131093332D02*
X92367200Y-131045713D01*
X92367200Y-131045713D02*
X92414819Y-130902856D01*
X92414819Y-130902856D02*
X92414819Y-130807618D01*
X92414819Y-130807618D02*
X92367200Y-130664761D01*
X92367200Y-130664761D02*
X92271961Y-130569523D01*
X92271961Y-130569523D02*
X92176723Y-130521904D01*
X92176723Y-130521904D02*
X91986247Y-130474285D01*
X91986247Y-130474285D02*
X91843390Y-130474285D01*
X91843390Y-130474285D02*
X91652914Y-130521904D01*
X91652914Y-130521904D02*
X91557676Y-130569523D01*
X91557676Y-130569523D02*
X91462438Y-130664761D01*
X91462438Y-130664761D02*
X91414819Y-130807618D01*
X91414819Y-130807618D02*
X91414819Y-130902856D01*
X91414819Y-130902856D02*
X91462438Y-131045713D01*
X91462438Y-131045713D02*
X91510057Y-131093332D01*
X91510057Y-131474285D02*
X91462438Y-131521904D01*
X91462438Y-131521904D02*
X91414819Y-131617142D01*
X91414819Y-131617142D02*
X91414819Y-131855237D01*
X91414819Y-131855237D02*
X91462438Y-131950475D01*
X91462438Y-131950475D02*
X91510057Y-131998094D01*
X91510057Y-131998094D02*
X91605295Y-132045713D01*
X91605295Y-132045713D02*
X91700533Y-132045713D01*
X91700533Y-132045713D02*
X91843390Y-131998094D01*
X91843390Y-131998094D02*
X92414819Y-131426666D01*
X92414819Y-131426666D02*
X92414819Y-132045713D01*
X92033866Y-133236190D02*
X92033866Y-133998095D01*
X91414819Y-135140952D02*
X92414819Y-135379047D01*
X92414819Y-135379047D02*
X91700533Y-135569523D01*
X91700533Y-135569523D02*
X92414819Y-135759999D01*
X92414819Y-135759999D02*
X91414819Y-135998095D01*
X92414819Y-136379047D02*
X91414819Y-136379047D01*
X92414819Y-136807618D02*
X91891009Y-136807618D01*
X91891009Y-136807618D02*
X91795771Y-136759999D01*
X91795771Y-136759999D02*
X91748152Y-136664761D01*
X91748152Y-136664761D02*
X91748152Y-136521904D01*
X91748152Y-136521904D02*
X91795771Y-136426666D01*
X91795771Y-136426666D02*
X91843390Y-136379047D01*
X92414819Y-137283809D02*
X91748152Y-137283809D01*
X91414819Y-137283809D02*
X91462438Y-137236190D01*
X91462438Y-137236190D02*
X91510057Y-137283809D01*
X91510057Y-137283809D02*
X91462438Y-137331428D01*
X91462438Y-137331428D02*
X91414819Y-137283809D01*
X91414819Y-137283809D02*
X91510057Y-137283809D01*
X91748152Y-137617142D02*
X91748152Y-137998094D01*
X91414819Y-137759999D02*
X92271961Y-137759999D01*
X92271961Y-137759999D02*
X92367200Y-137807618D01*
X92367200Y-137807618D02*
X92414819Y-137902856D01*
X92414819Y-137902856D02*
X92414819Y-137998094D01*
X92367200Y-138712380D02*
X92414819Y-138617142D01*
X92414819Y-138617142D02*
X92414819Y-138426666D01*
X92414819Y-138426666D02*
X92367200Y-138331428D01*
X92367200Y-138331428D02*
X92271961Y-138283809D01*
X92271961Y-138283809D02*
X91891009Y-138283809D01*
X91891009Y-138283809D02*
X91795771Y-138331428D01*
X91795771Y-138331428D02*
X91748152Y-138426666D01*
X91748152Y-138426666D02*
X91748152Y-138617142D01*
X91748152Y-138617142D02*
X91795771Y-138712380D01*
X91795771Y-138712380D02*
X91891009Y-138759999D01*
X91891009Y-138759999D02*
X91986247Y-138759999D01*
X91986247Y-138759999D02*
X92081485Y-138283809D01*
X92319580Y-140521904D02*
X92367200Y-140474285D01*
X92367200Y-140474285D02*
X92414819Y-140331428D01*
X92414819Y-140331428D02*
X92414819Y-140236190D01*
X92414819Y-140236190D02*
X92367200Y-140093333D01*
X92367200Y-140093333D02*
X92271961Y-139998095D01*
X92271961Y-139998095D02*
X92176723Y-139950476D01*
X92176723Y-139950476D02*
X91986247Y-139902857D01*
X91986247Y-139902857D02*
X91843390Y-139902857D01*
X91843390Y-139902857D02*
X91652914Y-139950476D01*
X91652914Y-139950476D02*
X91557676Y-139998095D01*
X91557676Y-139998095D02*
X91462438Y-140093333D01*
X91462438Y-140093333D02*
X91414819Y-140236190D01*
X91414819Y-140236190D02*
X91414819Y-140331428D01*
X91414819Y-140331428D02*
X91462438Y-140474285D01*
X91462438Y-140474285D02*
X91510057Y-140521904D01*
X92414819Y-141093333D02*
X92367200Y-140998095D01*
X92367200Y-140998095D02*
X92319580Y-140950476D01*
X92319580Y-140950476D02*
X92224342Y-140902857D01*
X92224342Y-140902857D02*
X91938628Y-140902857D01*
X91938628Y-140902857D02*
X91843390Y-140950476D01*
X91843390Y-140950476D02*
X91795771Y-140998095D01*
X91795771Y-140998095D02*
X91748152Y-141093333D01*
X91748152Y-141093333D02*
X91748152Y-141236190D01*
X91748152Y-141236190D02*
X91795771Y-141331428D01*
X91795771Y-141331428D02*
X91843390Y-141379047D01*
X91843390Y-141379047D02*
X91938628Y-141426666D01*
X91938628Y-141426666D02*
X92224342Y-141426666D01*
X92224342Y-141426666D02*
X92319580Y-141379047D01*
X92319580Y-141379047D02*
X92367200Y-141331428D01*
X92367200Y-141331428D02*
X92414819Y-141236190D01*
X92414819Y-141236190D02*
X92414819Y-141093333D01*
X91748152Y-141855238D02*
X92414819Y-141855238D01*
X91843390Y-141855238D02*
X91795771Y-141902857D01*
X91795771Y-141902857D02*
X91748152Y-141998095D01*
X91748152Y-141998095D02*
X91748152Y-142140952D01*
X91748152Y-142140952D02*
X91795771Y-142236190D01*
X91795771Y-142236190D02*
X91891009Y-142283809D01*
X91891009Y-142283809D02*
X92414819Y-142283809D01*
X91748152Y-142760000D02*
X92414819Y-142760000D01*
X91843390Y-142760000D02*
X91795771Y-142807619D01*
X91795771Y-142807619D02*
X91748152Y-142902857D01*
X91748152Y-142902857D02*
X91748152Y-143045714D01*
X91748152Y-143045714D02*
X91795771Y-143140952D01*
X91795771Y-143140952D02*
X91891009Y-143188571D01*
X91891009Y-143188571D02*
X92414819Y-143188571D01*
X92367200Y-144045714D02*
X92414819Y-143950476D01*
X92414819Y-143950476D02*
X92414819Y-143760000D01*
X92414819Y-143760000D02*
X92367200Y-143664762D01*
X92367200Y-143664762D02*
X92271961Y-143617143D01*
X92271961Y-143617143D02*
X91891009Y-143617143D01*
X91891009Y-143617143D02*
X91795771Y-143664762D01*
X91795771Y-143664762D02*
X91748152Y-143760000D01*
X91748152Y-143760000D02*
X91748152Y-143950476D01*
X91748152Y-143950476D02*
X91795771Y-144045714D01*
X91795771Y-144045714D02*
X91891009Y-144093333D01*
X91891009Y-144093333D02*
X91986247Y-144093333D01*
X91986247Y-144093333D02*
X92081485Y-143617143D01*
X92367200Y-144950476D02*
X92414819Y-144855238D01*
X92414819Y-144855238D02*
X92414819Y-144664762D01*
X92414819Y-144664762D02*
X92367200Y-144569524D01*
X92367200Y-144569524D02*
X92319580Y-144521905D01*
X92319580Y-144521905D02*
X92224342Y-144474286D01*
X92224342Y-144474286D02*
X91938628Y-144474286D01*
X91938628Y-144474286D02*
X91843390Y-144521905D01*
X91843390Y-144521905D02*
X91795771Y-144569524D01*
X91795771Y-144569524D02*
X91748152Y-144664762D01*
X91748152Y-144664762D02*
X91748152Y-144855238D01*
X91748152Y-144855238D02*
X91795771Y-144950476D01*
X91748152Y-145236191D02*
X91748152Y-145617143D01*
X91414819Y-145379048D02*
X92271961Y-145379048D01*
X92271961Y-145379048D02*
X92367200Y-145426667D01*
X92367200Y-145426667D02*
X92414819Y-145521905D01*
X92414819Y-145521905D02*
X92414819Y-145617143D01*
X92414819Y-146093334D02*
X92367200Y-145998096D01*
X92367200Y-145998096D02*
X92319580Y-145950477D01*
X92319580Y-145950477D02*
X92224342Y-145902858D01*
X92224342Y-145902858D02*
X91938628Y-145902858D01*
X91938628Y-145902858D02*
X91843390Y-145950477D01*
X91843390Y-145950477D02*
X91795771Y-145998096D01*
X91795771Y-145998096D02*
X91748152Y-146093334D01*
X91748152Y-146093334D02*
X91748152Y-146236191D01*
X91748152Y-146236191D02*
X91795771Y-146331429D01*
X91795771Y-146331429D02*
X91843390Y-146379048D01*
X91843390Y-146379048D02*
X91938628Y-146426667D01*
X91938628Y-146426667D02*
X92224342Y-146426667D01*
X92224342Y-146426667D02*
X92319580Y-146379048D01*
X92319580Y-146379048D02*
X92367200Y-146331429D01*
X92367200Y-146331429D02*
X92414819Y-146236191D01*
X92414819Y-146236191D02*
X92414819Y-146093334D01*
X92414819Y-146855239D02*
X91748152Y-146855239D01*
X91938628Y-146855239D02*
X91843390Y-146902858D01*
X91843390Y-146902858D02*
X91795771Y-146950477D01*
X91795771Y-146950477D02*
X91748152Y-147045715D01*
X91748152Y-147045715D02*
X91748152Y-147140953D01*
X93414819Y-138426666D02*
X94129104Y-138426666D01*
X94129104Y-138426666D02*
X94271961Y-138379047D01*
X94271961Y-138379047D02*
X94367200Y-138283809D01*
X94367200Y-138283809D02*
X94414819Y-138140952D01*
X94414819Y-138140952D02*
X94414819Y-138045714D01*
X93510057Y-138855238D02*
X93462438Y-138902857D01*
X93462438Y-138902857D02*
X93414819Y-138998095D01*
X93414819Y-138998095D02*
X93414819Y-139236190D01*
X93414819Y-139236190D02*
X93462438Y-139331428D01*
X93462438Y-139331428D02*
X93510057Y-139379047D01*
X93510057Y-139379047D02*
X93605295Y-139426666D01*
X93605295Y-139426666D02*
X93700533Y-139426666D01*
X93700533Y-139426666D02*
X93843390Y-139379047D01*
X93843390Y-139379047D02*
X94414819Y-138807619D01*
X94414819Y-138807619D02*
X94414819Y-139426666D01*
X223667620Y-195359580D02*
X223715239Y-195407200D01*
X223715239Y-195407200D02*
X223858096Y-195454819D01*
X223858096Y-195454819D02*
X223953334Y-195454819D01*
X223953334Y-195454819D02*
X224096191Y-195407200D01*
X224096191Y-195407200D02*
X224191429Y-195311961D01*
X224191429Y-195311961D02*
X224239048Y-195216723D01*
X224239048Y-195216723D02*
X224286667Y-195026247D01*
X224286667Y-195026247D02*
X224286667Y-194883390D01*
X224286667Y-194883390D02*
X224239048Y-194692914D01*
X224239048Y-194692914D02*
X224191429Y-194597676D01*
X224191429Y-194597676D02*
X224096191Y-194502438D01*
X224096191Y-194502438D02*
X223953334Y-194454819D01*
X223953334Y-194454819D02*
X223858096Y-194454819D01*
X223858096Y-194454819D02*
X223715239Y-194502438D01*
X223715239Y-194502438D02*
X223667620Y-194550057D01*
X223334286Y-194454819D02*
X222715239Y-194454819D01*
X222715239Y-194454819D02*
X223048572Y-194835771D01*
X223048572Y-194835771D02*
X222905715Y-194835771D01*
X222905715Y-194835771D02*
X222810477Y-194883390D01*
X222810477Y-194883390D02*
X222762858Y-194931009D01*
X222762858Y-194931009D02*
X222715239Y-195026247D01*
X222715239Y-195026247D02*
X222715239Y-195264342D01*
X222715239Y-195264342D02*
X222762858Y-195359580D01*
X222762858Y-195359580D02*
X222810477Y-195407200D01*
X222810477Y-195407200D02*
X222905715Y-195454819D01*
X222905715Y-195454819D02*
X223191429Y-195454819D01*
X223191429Y-195454819D02*
X223286667Y-195407200D01*
X223286667Y-195407200D02*
X223334286Y-195359580D01*
X221524762Y-195073866D02*
X220762858Y-195073866D01*
X219334286Y-194978628D02*
X219334286Y-195454819D01*
X219667619Y-194454819D02*
X219334286Y-194978628D01*
X219334286Y-194978628D02*
X219000953Y-194454819D01*
X218286667Y-195407200D02*
X218381905Y-195454819D01*
X218381905Y-195454819D02*
X218572381Y-195454819D01*
X218572381Y-195454819D02*
X218667619Y-195407200D01*
X218667619Y-195407200D02*
X218715238Y-195311961D01*
X218715238Y-195311961D02*
X218715238Y-194931009D01*
X218715238Y-194931009D02*
X218667619Y-194835771D01*
X218667619Y-194835771D02*
X218572381Y-194788152D01*
X218572381Y-194788152D02*
X218381905Y-194788152D01*
X218381905Y-194788152D02*
X218286667Y-194835771D01*
X218286667Y-194835771D02*
X218239048Y-194931009D01*
X218239048Y-194931009D02*
X218239048Y-195026247D01*
X218239048Y-195026247D02*
X218715238Y-195121485D01*
X217667619Y-195454819D02*
X217762857Y-195407200D01*
X217762857Y-195407200D02*
X217810476Y-195311961D01*
X217810476Y-195311961D02*
X217810476Y-194454819D01*
X217143809Y-195454819D02*
X217239047Y-195407200D01*
X217239047Y-195407200D02*
X217286666Y-195311961D01*
X217286666Y-195311961D02*
X217286666Y-194454819D01*
X216619999Y-195454819D02*
X216715237Y-195407200D01*
X216715237Y-195407200D02*
X216762856Y-195359580D01*
X216762856Y-195359580D02*
X216810475Y-195264342D01*
X216810475Y-195264342D02*
X216810475Y-194978628D01*
X216810475Y-194978628D02*
X216762856Y-194883390D01*
X216762856Y-194883390D02*
X216715237Y-194835771D01*
X216715237Y-194835771D02*
X216619999Y-194788152D01*
X216619999Y-194788152D02*
X216477142Y-194788152D01*
X216477142Y-194788152D02*
X216381904Y-194835771D01*
X216381904Y-194835771D02*
X216334285Y-194883390D01*
X216334285Y-194883390D02*
X216286666Y-194978628D01*
X216286666Y-194978628D02*
X216286666Y-195264342D01*
X216286666Y-195264342D02*
X216334285Y-195359580D01*
X216334285Y-195359580D02*
X216381904Y-195407200D01*
X216381904Y-195407200D02*
X216477142Y-195454819D01*
X216477142Y-195454819D02*
X216619999Y-195454819D01*
X215953332Y-194788152D02*
X215762856Y-195454819D01*
X215762856Y-195454819D02*
X215572380Y-194978628D01*
X215572380Y-194978628D02*
X215381904Y-195454819D01*
X215381904Y-195454819D02*
X215191428Y-194788152D01*
X213477142Y-195359580D02*
X213524761Y-195407200D01*
X213524761Y-195407200D02*
X213667618Y-195454819D01*
X213667618Y-195454819D02*
X213762856Y-195454819D01*
X213762856Y-195454819D02*
X213905713Y-195407200D01*
X213905713Y-195407200D02*
X214000951Y-195311961D01*
X214000951Y-195311961D02*
X214048570Y-195216723D01*
X214048570Y-195216723D02*
X214096189Y-195026247D01*
X214096189Y-195026247D02*
X214096189Y-194883390D01*
X214096189Y-194883390D02*
X214048570Y-194692914D01*
X214048570Y-194692914D02*
X214000951Y-194597676D01*
X214000951Y-194597676D02*
X213905713Y-194502438D01*
X213905713Y-194502438D02*
X213762856Y-194454819D01*
X213762856Y-194454819D02*
X213667618Y-194454819D01*
X213667618Y-194454819D02*
X213524761Y-194502438D01*
X213524761Y-194502438D02*
X213477142Y-194550057D01*
X212905713Y-195454819D02*
X213000951Y-195407200D01*
X213000951Y-195407200D02*
X213048570Y-195359580D01*
X213048570Y-195359580D02*
X213096189Y-195264342D01*
X213096189Y-195264342D02*
X213096189Y-194978628D01*
X213096189Y-194978628D02*
X213048570Y-194883390D01*
X213048570Y-194883390D02*
X213000951Y-194835771D01*
X213000951Y-194835771D02*
X212905713Y-194788152D01*
X212905713Y-194788152D02*
X212762856Y-194788152D01*
X212762856Y-194788152D02*
X212667618Y-194835771D01*
X212667618Y-194835771D02*
X212619999Y-194883390D01*
X212619999Y-194883390D02*
X212572380Y-194978628D01*
X212572380Y-194978628D02*
X212572380Y-195264342D01*
X212572380Y-195264342D02*
X212619999Y-195359580D01*
X212619999Y-195359580D02*
X212667618Y-195407200D01*
X212667618Y-195407200D02*
X212762856Y-195454819D01*
X212762856Y-195454819D02*
X212905713Y-195454819D01*
X212143808Y-194788152D02*
X212143808Y-195454819D01*
X212143808Y-194883390D02*
X212096189Y-194835771D01*
X212096189Y-194835771D02*
X212000951Y-194788152D01*
X212000951Y-194788152D02*
X211858094Y-194788152D01*
X211858094Y-194788152D02*
X211762856Y-194835771D01*
X211762856Y-194835771D02*
X211715237Y-194931009D01*
X211715237Y-194931009D02*
X211715237Y-195454819D01*
X211239046Y-194788152D02*
X211239046Y-195454819D01*
X211239046Y-194883390D02*
X211191427Y-194835771D01*
X211191427Y-194835771D02*
X211096189Y-194788152D01*
X211096189Y-194788152D02*
X210953332Y-194788152D01*
X210953332Y-194788152D02*
X210858094Y-194835771D01*
X210858094Y-194835771D02*
X210810475Y-194931009D01*
X210810475Y-194931009D02*
X210810475Y-195454819D01*
X209953332Y-195407200D02*
X210048570Y-195454819D01*
X210048570Y-195454819D02*
X210239046Y-195454819D01*
X210239046Y-195454819D02*
X210334284Y-195407200D01*
X210334284Y-195407200D02*
X210381903Y-195311961D01*
X210381903Y-195311961D02*
X210381903Y-194931009D01*
X210381903Y-194931009D02*
X210334284Y-194835771D01*
X210334284Y-194835771D02*
X210239046Y-194788152D01*
X210239046Y-194788152D02*
X210048570Y-194788152D01*
X210048570Y-194788152D02*
X209953332Y-194835771D01*
X209953332Y-194835771D02*
X209905713Y-194931009D01*
X209905713Y-194931009D02*
X209905713Y-195026247D01*
X209905713Y-195026247D02*
X210381903Y-195121485D01*
X209048570Y-195407200D02*
X209143808Y-195454819D01*
X209143808Y-195454819D02*
X209334284Y-195454819D01*
X209334284Y-195454819D02*
X209429522Y-195407200D01*
X209429522Y-195407200D02*
X209477141Y-195359580D01*
X209477141Y-195359580D02*
X209524760Y-195264342D01*
X209524760Y-195264342D02*
X209524760Y-194978628D01*
X209524760Y-194978628D02*
X209477141Y-194883390D01*
X209477141Y-194883390D02*
X209429522Y-194835771D01*
X209429522Y-194835771D02*
X209334284Y-194788152D01*
X209334284Y-194788152D02*
X209143808Y-194788152D01*
X209143808Y-194788152D02*
X209048570Y-194835771D01*
X208762855Y-194788152D02*
X208381903Y-194788152D01*
X208619998Y-194454819D02*
X208619998Y-195311961D01*
X208619998Y-195311961D02*
X208572379Y-195407200D01*
X208572379Y-195407200D02*
X208477141Y-195454819D01*
X208477141Y-195454819D02*
X208381903Y-195454819D01*
X207905712Y-195454819D02*
X208000950Y-195407200D01*
X208000950Y-195407200D02*
X208048569Y-195359580D01*
X208048569Y-195359580D02*
X208096188Y-195264342D01*
X208096188Y-195264342D02*
X208096188Y-194978628D01*
X208096188Y-194978628D02*
X208048569Y-194883390D01*
X208048569Y-194883390D02*
X208000950Y-194835771D01*
X208000950Y-194835771D02*
X207905712Y-194788152D01*
X207905712Y-194788152D02*
X207762855Y-194788152D01*
X207762855Y-194788152D02*
X207667617Y-194835771D01*
X207667617Y-194835771D02*
X207619998Y-194883390D01*
X207619998Y-194883390D02*
X207572379Y-194978628D01*
X207572379Y-194978628D02*
X207572379Y-195264342D01*
X207572379Y-195264342D02*
X207619998Y-195359580D01*
X207619998Y-195359580D02*
X207667617Y-195407200D01*
X207667617Y-195407200D02*
X207762855Y-195454819D01*
X207762855Y-195454819D02*
X207905712Y-195454819D01*
X207143807Y-195454819D02*
X207143807Y-194788152D01*
X207143807Y-194978628D02*
X207096188Y-194883390D01*
X207096188Y-194883390D02*
X207048569Y-194835771D01*
X207048569Y-194835771D02*
X206953331Y-194788152D01*
X206953331Y-194788152D02*
X206858093Y-194788152D01*
X215953333Y-192454819D02*
X215953333Y-193169104D01*
X215953333Y-193169104D02*
X216000952Y-193311961D01*
X216000952Y-193311961D02*
X216096190Y-193407200D01*
X216096190Y-193407200D02*
X216239047Y-193454819D01*
X216239047Y-193454819D02*
X216334285Y-193454819D01*
X215572380Y-192454819D02*
X214953333Y-192454819D01*
X214953333Y-192454819D02*
X215286666Y-192835771D01*
X215286666Y-192835771D02*
X215143809Y-192835771D01*
X215143809Y-192835771D02*
X215048571Y-192883390D01*
X215048571Y-192883390D02*
X215000952Y-192931009D01*
X215000952Y-192931009D02*
X214953333Y-193026247D01*
X214953333Y-193026247D02*
X214953333Y-193264342D01*
X214953333Y-193264342D02*
X215000952Y-193359580D01*
X215000952Y-193359580D02*
X215048571Y-193407200D01*
X215048571Y-193407200D02*
X215143809Y-193454819D01*
X215143809Y-193454819D02*
X215429523Y-193454819D01*
X215429523Y-193454819D02*
X215524761Y-193407200D01*
X215524761Y-193407200D02*
X215572380Y-193359580D01*
X347819580Y-131426665D02*
X347867200Y-131379046D01*
X347867200Y-131379046D02*
X347914819Y-131236189D01*
X347914819Y-131236189D02*
X347914819Y-131140951D01*
X347914819Y-131140951D02*
X347867200Y-130998094D01*
X347867200Y-130998094D02*
X347771961Y-130902856D01*
X347771961Y-130902856D02*
X347676723Y-130855237D01*
X347676723Y-130855237D02*
X347486247Y-130807618D01*
X347486247Y-130807618D02*
X347343390Y-130807618D01*
X347343390Y-130807618D02*
X347152914Y-130855237D01*
X347152914Y-130855237D02*
X347057676Y-130902856D01*
X347057676Y-130902856D02*
X346962438Y-130998094D01*
X346962438Y-130998094D02*
X346914819Y-131140951D01*
X346914819Y-131140951D02*
X346914819Y-131236189D01*
X346914819Y-131236189D02*
X346962438Y-131379046D01*
X346962438Y-131379046D02*
X347010057Y-131426665D01*
X347914819Y-132379046D02*
X347914819Y-131807618D01*
X347914819Y-132093332D02*
X346914819Y-132093332D01*
X346914819Y-132093332D02*
X347057676Y-131998094D01*
X347057676Y-131998094D02*
X347152914Y-131902856D01*
X347152914Y-131902856D02*
X347200533Y-131807618D01*
X347533866Y-133569523D02*
X347533866Y-134331428D01*
X347391009Y-135902856D02*
X347438628Y-136045713D01*
X347438628Y-136045713D02*
X347486247Y-136093332D01*
X347486247Y-136093332D02*
X347581485Y-136140951D01*
X347581485Y-136140951D02*
X347724342Y-136140951D01*
X347724342Y-136140951D02*
X347819580Y-136093332D01*
X347819580Y-136093332D02*
X347867200Y-136045713D01*
X347867200Y-136045713D02*
X347914819Y-135950475D01*
X347914819Y-135950475D02*
X347914819Y-135569523D01*
X347914819Y-135569523D02*
X346914819Y-135569523D01*
X346914819Y-135569523D02*
X346914819Y-135902856D01*
X346914819Y-135902856D02*
X346962438Y-135998094D01*
X346962438Y-135998094D02*
X347010057Y-136045713D01*
X347010057Y-136045713D02*
X347105295Y-136093332D01*
X347105295Y-136093332D02*
X347200533Y-136093332D01*
X347200533Y-136093332D02*
X347295771Y-136045713D01*
X347295771Y-136045713D02*
X347343390Y-135998094D01*
X347343390Y-135998094D02*
X347391009Y-135902856D01*
X347391009Y-135902856D02*
X347391009Y-135569523D01*
X347914819Y-136712380D02*
X347867200Y-136617142D01*
X347867200Y-136617142D02*
X347771961Y-136569523D01*
X347771961Y-136569523D02*
X346914819Y-136569523D01*
X347248152Y-137521904D02*
X347914819Y-137521904D01*
X347248152Y-137093333D02*
X347771961Y-137093333D01*
X347771961Y-137093333D02*
X347867200Y-137140952D01*
X347867200Y-137140952D02*
X347914819Y-137236190D01*
X347914819Y-137236190D02*
X347914819Y-137379047D01*
X347914819Y-137379047D02*
X347867200Y-137474285D01*
X347867200Y-137474285D02*
X347819580Y-137521904D01*
X347867200Y-138379047D02*
X347914819Y-138283809D01*
X347914819Y-138283809D02*
X347914819Y-138093333D01*
X347914819Y-138093333D02*
X347867200Y-137998095D01*
X347867200Y-137998095D02*
X347771961Y-137950476D01*
X347771961Y-137950476D02*
X347391009Y-137950476D01*
X347391009Y-137950476D02*
X347295771Y-137998095D01*
X347295771Y-137998095D02*
X347248152Y-138093333D01*
X347248152Y-138093333D02*
X347248152Y-138283809D01*
X347248152Y-138283809D02*
X347295771Y-138379047D01*
X347295771Y-138379047D02*
X347391009Y-138426666D01*
X347391009Y-138426666D02*
X347486247Y-138426666D01*
X347486247Y-138426666D02*
X347581485Y-137950476D01*
X347819580Y-140188571D02*
X347867200Y-140140952D01*
X347867200Y-140140952D02*
X347914819Y-139998095D01*
X347914819Y-139998095D02*
X347914819Y-139902857D01*
X347914819Y-139902857D02*
X347867200Y-139760000D01*
X347867200Y-139760000D02*
X347771961Y-139664762D01*
X347771961Y-139664762D02*
X347676723Y-139617143D01*
X347676723Y-139617143D02*
X347486247Y-139569524D01*
X347486247Y-139569524D02*
X347343390Y-139569524D01*
X347343390Y-139569524D02*
X347152914Y-139617143D01*
X347152914Y-139617143D02*
X347057676Y-139664762D01*
X347057676Y-139664762D02*
X346962438Y-139760000D01*
X346962438Y-139760000D02*
X346914819Y-139902857D01*
X346914819Y-139902857D02*
X346914819Y-139998095D01*
X346914819Y-139998095D02*
X346962438Y-140140952D01*
X346962438Y-140140952D02*
X347010057Y-140188571D01*
X347914819Y-140760000D02*
X347867200Y-140664762D01*
X347867200Y-140664762D02*
X347819580Y-140617143D01*
X347819580Y-140617143D02*
X347724342Y-140569524D01*
X347724342Y-140569524D02*
X347438628Y-140569524D01*
X347438628Y-140569524D02*
X347343390Y-140617143D01*
X347343390Y-140617143D02*
X347295771Y-140664762D01*
X347295771Y-140664762D02*
X347248152Y-140760000D01*
X347248152Y-140760000D02*
X347248152Y-140902857D01*
X347248152Y-140902857D02*
X347295771Y-140998095D01*
X347295771Y-140998095D02*
X347343390Y-141045714D01*
X347343390Y-141045714D02*
X347438628Y-141093333D01*
X347438628Y-141093333D02*
X347724342Y-141093333D01*
X347724342Y-141093333D02*
X347819580Y-141045714D01*
X347819580Y-141045714D02*
X347867200Y-140998095D01*
X347867200Y-140998095D02*
X347914819Y-140902857D01*
X347914819Y-140902857D02*
X347914819Y-140760000D01*
X347248152Y-141521905D02*
X347914819Y-141521905D01*
X347343390Y-141521905D02*
X347295771Y-141569524D01*
X347295771Y-141569524D02*
X347248152Y-141664762D01*
X347248152Y-141664762D02*
X347248152Y-141807619D01*
X347248152Y-141807619D02*
X347295771Y-141902857D01*
X347295771Y-141902857D02*
X347391009Y-141950476D01*
X347391009Y-141950476D02*
X347914819Y-141950476D01*
X347248152Y-142426667D02*
X347914819Y-142426667D01*
X347343390Y-142426667D02*
X347295771Y-142474286D01*
X347295771Y-142474286D02*
X347248152Y-142569524D01*
X347248152Y-142569524D02*
X347248152Y-142712381D01*
X347248152Y-142712381D02*
X347295771Y-142807619D01*
X347295771Y-142807619D02*
X347391009Y-142855238D01*
X347391009Y-142855238D02*
X347914819Y-142855238D01*
X347867200Y-143712381D02*
X347914819Y-143617143D01*
X347914819Y-143617143D02*
X347914819Y-143426667D01*
X347914819Y-143426667D02*
X347867200Y-143331429D01*
X347867200Y-143331429D02*
X347771961Y-143283810D01*
X347771961Y-143283810D02*
X347391009Y-143283810D01*
X347391009Y-143283810D02*
X347295771Y-143331429D01*
X347295771Y-143331429D02*
X347248152Y-143426667D01*
X347248152Y-143426667D02*
X347248152Y-143617143D01*
X347248152Y-143617143D02*
X347295771Y-143712381D01*
X347295771Y-143712381D02*
X347391009Y-143760000D01*
X347391009Y-143760000D02*
X347486247Y-143760000D01*
X347486247Y-143760000D02*
X347581485Y-143283810D01*
X347867200Y-144617143D02*
X347914819Y-144521905D01*
X347914819Y-144521905D02*
X347914819Y-144331429D01*
X347914819Y-144331429D02*
X347867200Y-144236191D01*
X347867200Y-144236191D02*
X347819580Y-144188572D01*
X347819580Y-144188572D02*
X347724342Y-144140953D01*
X347724342Y-144140953D02*
X347438628Y-144140953D01*
X347438628Y-144140953D02*
X347343390Y-144188572D01*
X347343390Y-144188572D02*
X347295771Y-144236191D01*
X347295771Y-144236191D02*
X347248152Y-144331429D01*
X347248152Y-144331429D02*
X347248152Y-144521905D01*
X347248152Y-144521905D02*
X347295771Y-144617143D01*
X347248152Y-144902858D02*
X347248152Y-145283810D01*
X346914819Y-145045715D02*
X347771961Y-145045715D01*
X347771961Y-145045715D02*
X347867200Y-145093334D01*
X347867200Y-145093334D02*
X347914819Y-145188572D01*
X347914819Y-145188572D02*
X347914819Y-145283810D01*
X347914819Y-145760001D02*
X347867200Y-145664763D01*
X347867200Y-145664763D02*
X347819580Y-145617144D01*
X347819580Y-145617144D02*
X347724342Y-145569525D01*
X347724342Y-145569525D02*
X347438628Y-145569525D01*
X347438628Y-145569525D02*
X347343390Y-145617144D01*
X347343390Y-145617144D02*
X347295771Y-145664763D01*
X347295771Y-145664763D02*
X347248152Y-145760001D01*
X347248152Y-145760001D02*
X347248152Y-145902858D01*
X347248152Y-145902858D02*
X347295771Y-145998096D01*
X347295771Y-145998096D02*
X347343390Y-146045715D01*
X347343390Y-146045715D02*
X347438628Y-146093334D01*
X347438628Y-146093334D02*
X347724342Y-146093334D01*
X347724342Y-146093334D02*
X347819580Y-146045715D01*
X347819580Y-146045715D02*
X347867200Y-145998096D01*
X347867200Y-145998096D02*
X347914819Y-145902858D01*
X347914819Y-145902858D02*
X347914819Y-145760001D01*
X347914819Y-146521906D02*
X347248152Y-146521906D01*
X347438628Y-146521906D02*
X347343390Y-146569525D01*
X347343390Y-146569525D02*
X347295771Y-146617144D01*
X347295771Y-146617144D02*
X347248152Y-146712382D01*
X347248152Y-146712382D02*
X347248152Y-146807620D01*
X348914819Y-138426666D02*
X349629104Y-138426666D01*
X349629104Y-138426666D02*
X349771961Y-138379047D01*
X349771961Y-138379047D02*
X349867200Y-138283809D01*
X349867200Y-138283809D02*
X349914819Y-138140952D01*
X349914819Y-138140952D02*
X349914819Y-138045714D01*
X349914819Y-139426666D02*
X349914819Y-138855238D01*
X349914819Y-139140952D02*
X348914819Y-139140952D01*
X348914819Y-139140952D02*
X349057676Y-139045714D01*
X349057676Y-139045714D02*
X349152914Y-138950476D01*
X349152914Y-138950476D02*
X349200533Y-138855238D01*
X367074819Y-161214285D02*
X367074819Y-161023809D01*
X367074819Y-161023809D02*
X367122438Y-160928571D01*
X367122438Y-160928571D02*
X367170057Y-160880952D01*
X367170057Y-160880952D02*
X367312914Y-160785714D01*
X367312914Y-160785714D02*
X367503390Y-160738095D01*
X367503390Y-160738095D02*
X367884342Y-160738095D01*
X367884342Y-160738095D02*
X367979580Y-160785714D01*
X367979580Y-160785714D02*
X368027200Y-160833333D01*
X368027200Y-160833333D02*
X368074819Y-160928571D01*
X368074819Y-160928571D02*
X368074819Y-161119047D01*
X368074819Y-161119047D02*
X368027200Y-161214285D01*
X368027200Y-161214285D02*
X367979580Y-161261904D01*
X367979580Y-161261904D02*
X367884342Y-161309523D01*
X367884342Y-161309523D02*
X367646247Y-161309523D01*
X367646247Y-161309523D02*
X367551009Y-161261904D01*
X367551009Y-161261904D02*
X367503390Y-161214285D01*
X367503390Y-161214285D02*
X367455771Y-161119047D01*
X367455771Y-161119047D02*
X367455771Y-160928571D01*
X367455771Y-160928571D02*
X367503390Y-160833333D01*
X367503390Y-160833333D02*
X367551009Y-160785714D01*
X367551009Y-160785714D02*
X367646247Y-160738095D01*
X367503390Y-161880952D02*
X367455771Y-161785714D01*
X367455771Y-161785714D02*
X367408152Y-161738095D01*
X367408152Y-161738095D02*
X367312914Y-161690476D01*
X367312914Y-161690476D02*
X367265295Y-161690476D01*
X367265295Y-161690476D02*
X367170057Y-161738095D01*
X367170057Y-161738095D02*
X367122438Y-161785714D01*
X367122438Y-161785714D02*
X367074819Y-161880952D01*
X367074819Y-161880952D02*
X367074819Y-162071428D01*
X367074819Y-162071428D02*
X367122438Y-162166666D01*
X367122438Y-162166666D02*
X367170057Y-162214285D01*
X367170057Y-162214285D02*
X367265295Y-162261904D01*
X367265295Y-162261904D02*
X367312914Y-162261904D01*
X367312914Y-162261904D02*
X367408152Y-162214285D01*
X367408152Y-162214285D02*
X367455771Y-162166666D01*
X367455771Y-162166666D02*
X367503390Y-162071428D01*
X367503390Y-162071428D02*
X367503390Y-161880952D01*
X367503390Y-161880952D02*
X367551009Y-161785714D01*
X367551009Y-161785714D02*
X367598628Y-161738095D01*
X367598628Y-161738095D02*
X367693866Y-161690476D01*
X367693866Y-161690476D02*
X367884342Y-161690476D01*
X367884342Y-161690476D02*
X367979580Y-161738095D01*
X367979580Y-161738095D02*
X368027200Y-161785714D01*
X368027200Y-161785714D02*
X368074819Y-161880952D01*
X368074819Y-161880952D02*
X368074819Y-162071428D01*
X368074819Y-162071428D02*
X368027200Y-162166666D01*
X368027200Y-162166666D02*
X367979580Y-162214285D01*
X367979580Y-162214285D02*
X367884342Y-162261904D01*
X367884342Y-162261904D02*
X367693866Y-162261904D01*
X367693866Y-162261904D02*
X367598628Y-162214285D01*
X367598628Y-162214285D02*
X367551009Y-162166666D01*
X367551009Y-162166666D02*
X367503390Y-162071428D01*
X368074819Y-163261904D02*
X367598628Y-162928571D01*
X368074819Y-162690476D02*
X367074819Y-162690476D01*
X367074819Y-162690476D02*
X367074819Y-163071428D01*
X367074819Y-163071428D02*
X367122438Y-163166666D01*
X367122438Y-163166666D02*
X367170057Y-163214285D01*
X367170057Y-163214285D02*
X367265295Y-163261904D01*
X367265295Y-163261904D02*
X367408152Y-163261904D01*
X367408152Y-163261904D02*
X367503390Y-163214285D01*
X367503390Y-163214285D02*
X367551009Y-163166666D01*
X367551009Y-163166666D02*
X367598628Y-163071428D01*
X367598628Y-163071428D02*
X367598628Y-162690476D01*
X364454819Y-161833333D02*
X363978628Y-161500000D01*
X364454819Y-161261905D02*
X363454819Y-161261905D01*
X363454819Y-161261905D02*
X363454819Y-161642857D01*
X363454819Y-161642857D02*
X363502438Y-161738095D01*
X363502438Y-161738095D02*
X363550057Y-161785714D01*
X363550057Y-161785714D02*
X363645295Y-161833333D01*
X363645295Y-161833333D02*
X363788152Y-161833333D01*
X363788152Y-161833333D02*
X363883390Y-161785714D01*
X363883390Y-161785714D02*
X363931009Y-161738095D01*
X363931009Y-161738095D02*
X363978628Y-161642857D01*
X363978628Y-161642857D02*
X363978628Y-161261905D01*
X363550057Y-162214286D02*
X363502438Y-162261905D01*
X363502438Y-162261905D02*
X363454819Y-162357143D01*
X363454819Y-162357143D02*
X363454819Y-162595238D01*
X363454819Y-162595238D02*
X363502438Y-162690476D01*
X363502438Y-162690476D02*
X363550057Y-162738095D01*
X363550057Y-162738095D02*
X363645295Y-162785714D01*
X363645295Y-162785714D02*
X363740533Y-162785714D01*
X363740533Y-162785714D02*
X363883390Y-162738095D01*
X363883390Y-162738095D02*
X364454819Y-162166667D01*
X364454819Y-162166667D02*
X364454819Y-162785714D01*
X341136819Y-169267333D02*
X341136819Y-168695905D01*
X341136819Y-168981619D02*
X340136819Y-168981619D01*
X340136819Y-168981619D02*
X340279676Y-168886381D01*
X340279676Y-168886381D02*
X340374914Y-168791143D01*
X340374914Y-168791143D02*
X340422533Y-168695905D01*
X340136819Y-169886381D02*
X340136819Y-169981619D01*
X340136819Y-169981619D02*
X340184438Y-170076857D01*
X340184438Y-170076857D02*
X340232057Y-170124476D01*
X340232057Y-170124476D02*
X340327295Y-170172095D01*
X340327295Y-170172095D02*
X340517771Y-170219714D01*
X340517771Y-170219714D02*
X340755866Y-170219714D01*
X340755866Y-170219714D02*
X340946342Y-170172095D01*
X340946342Y-170172095D02*
X341041580Y-170124476D01*
X341041580Y-170124476D02*
X341089200Y-170076857D01*
X341089200Y-170076857D02*
X341136819Y-169981619D01*
X341136819Y-169981619D02*
X341136819Y-169886381D01*
X341136819Y-169886381D02*
X341089200Y-169791143D01*
X341089200Y-169791143D02*
X341041580Y-169743524D01*
X341041580Y-169743524D02*
X340946342Y-169695905D01*
X340946342Y-169695905D02*
X340755866Y-169648286D01*
X340755866Y-169648286D02*
X340517771Y-169648286D01*
X340517771Y-169648286D02*
X340327295Y-169695905D01*
X340327295Y-169695905D02*
X340232057Y-169743524D01*
X340232057Y-169743524D02*
X340184438Y-169791143D01*
X340184438Y-169791143D02*
X340136819Y-169886381D01*
X340136819Y-170838762D02*
X340136819Y-170934000D01*
X340136819Y-170934000D02*
X340184438Y-171029238D01*
X340184438Y-171029238D02*
X340232057Y-171076857D01*
X340232057Y-171076857D02*
X340327295Y-171124476D01*
X340327295Y-171124476D02*
X340517771Y-171172095D01*
X340517771Y-171172095D02*
X340755866Y-171172095D01*
X340755866Y-171172095D02*
X340946342Y-171124476D01*
X340946342Y-171124476D02*
X341041580Y-171076857D01*
X341041580Y-171076857D02*
X341089200Y-171029238D01*
X341089200Y-171029238D02*
X341136819Y-170934000D01*
X341136819Y-170934000D02*
X341136819Y-170838762D01*
X341136819Y-170838762D02*
X341089200Y-170743524D01*
X341089200Y-170743524D02*
X341041580Y-170695905D01*
X341041580Y-170695905D02*
X340946342Y-170648286D01*
X340946342Y-170648286D02*
X340755866Y-170600667D01*
X340755866Y-170600667D02*
X340517771Y-170600667D01*
X340517771Y-170600667D02*
X340327295Y-170648286D01*
X340327295Y-170648286D02*
X340232057Y-170695905D01*
X340232057Y-170695905D02*
X340184438Y-170743524D01*
X340184438Y-170743524D02*
X340136819Y-170838762D01*
X341136819Y-172172095D02*
X340660628Y-171838762D01*
X341136819Y-171600667D02*
X340136819Y-171600667D01*
X340136819Y-171600667D02*
X340136819Y-171981619D01*
X340136819Y-171981619D02*
X340184438Y-172076857D01*
X340184438Y-172076857D02*
X340232057Y-172124476D01*
X340232057Y-172124476D02*
X340327295Y-172172095D01*
X340327295Y-172172095D02*
X340470152Y-172172095D01*
X340470152Y-172172095D02*
X340565390Y-172124476D01*
X340565390Y-172124476D02*
X340613009Y-172076857D01*
X340613009Y-172076857D02*
X340660628Y-171981619D01*
X340660628Y-171981619D02*
X340660628Y-171600667D01*
X337766819Y-170267333D02*
X337290628Y-169934000D01*
X337766819Y-169695905D02*
X336766819Y-169695905D01*
X336766819Y-169695905D02*
X336766819Y-170076857D01*
X336766819Y-170076857D02*
X336814438Y-170172095D01*
X336814438Y-170172095D02*
X336862057Y-170219714D01*
X336862057Y-170219714D02*
X336957295Y-170267333D01*
X336957295Y-170267333D02*
X337100152Y-170267333D01*
X337100152Y-170267333D02*
X337195390Y-170219714D01*
X337195390Y-170219714D02*
X337243009Y-170172095D01*
X337243009Y-170172095D02*
X337290628Y-170076857D01*
X337290628Y-170076857D02*
X337290628Y-169695905D01*
X337100152Y-171124476D02*
X337766819Y-171124476D01*
X336719200Y-170886381D02*
X337433485Y-170648286D01*
X337433485Y-170648286D02*
X337433485Y-171267333D01*
X55144819Y-161012285D02*
X55144819Y-160821809D01*
X55144819Y-160821809D02*
X55192438Y-160726571D01*
X55192438Y-160726571D02*
X55240057Y-160678952D01*
X55240057Y-160678952D02*
X55382914Y-160583714D01*
X55382914Y-160583714D02*
X55573390Y-160536095D01*
X55573390Y-160536095D02*
X55954342Y-160536095D01*
X55954342Y-160536095D02*
X56049580Y-160583714D01*
X56049580Y-160583714D02*
X56097200Y-160631333D01*
X56097200Y-160631333D02*
X56144819Y-160726571D01*
X56144819Y-160726571D02*
X56144819Y-160917047D01*
X56144819Y-160917047D02*
X56097200Y-161012285D01*
X56097200Y-161012285D02*
X56049580Y-161059904D01*
X56049580Y-161059904D02*
X55954342Y-161107523D01*
X55954342Y-161107523D02*
X55716247Y-161107523D01*
X55716247Y-161107523D02*
X55621009Y-161059904D01*
X55621009Y-161059904D02*
X55573390Y-161012285D01*
X55573390Y-161012285D02*
X55525771Y-160917047D01*
X55525771Y-160917047D02*
X55525771Y-160726571D01*
X55525771Y-160726571D02*
X55573390Y-160631333D01*
X55573390Y-160631333D02*
X55621009Y-160583714D01*
X55621009Y-160583714D02*
X55716247Y-160536095D01*
X55573390Y-161678952D02*
X55525771Y-161583714D01*
X55525771Y-161583714D02*
X55478152Y-161536095D01*
X55478152Y-161536095D02*
X55382914Y-161488476D01*
X55382914Y-161488476D02*
X55335295Y-161488476D01*
X55335295Y-161488476D02*
X55240057Y-161536095D01*
X55240057Y-161536095D02*
X55192438Y-161583714D01*
X55192438Y-161583714D02*
X55144819Y-161678952D01*
X55144819Y-161678952D02*
X55144819Y-161869428D01*
X55144819Y-161869428D02*
X55192438Y-161964666D01*
X55192438Y-161964666D02*
X55240057Y-162012285D01*
X55240057Y-162012285D02*
X55335295Y-162059904D01*
X55335295Y-162059904D02*
X55382914Y-162059904D01*
X55382914Y-162059904D02*
X55478152Y-162012285D01*
X55478152Y-162012285D02*
X55525771Y-161964666D01*
X55525771Y-161964666D02*
X55573390Y-161869428D01*
X55573390Y-161869428D02*
X55573390Y-161678952D01*
X55573390Y-161678952D02*
X55621009Y-161583714D01*
X55621009Y-161583714D02*
X55668628Y-161536095D01*
X55668628Y-161536095D02*
X55763866Y-161488476D01*
X55763866Y-161488476D02*
X55954342Y-161488476D01*
X55954342Y-161488476D02*
X56049580Y-161536095D01*
X56049580Y-161536095D02*
X56097200Y-161583714D01*
X56097200Y-161583714D02*
X56144819Y-161678952D01*
X56144819Y-161678952D02*
X56144819Y-161869428D01*
X56144819Y-161869428D02*
X56097200Y-161964666D01*
X56097200Y-161964666D02*
X56049580Y-162012285D01*
X56049580Y-162012285D02*
X55954342Y-162059904D01*
X55954342Y-162059904D02*
X55763866Y-162059904D01*
X55763866Y-162059904D02*
X55668628Y-162012285D01*
X55668628Y-162012285D02*
X55621009Y-161964666D01*
X55621009Y-161964666D02*
X55573390Y-161869428D01*
X56144819Y-163059904D02*
X55668628Y-162726571D01*
X56144819Y-162488476D02*
X55144819Y-162488476D01*
X55144819Y-162488476D02*
X55144819Y-162869428D01*
X55144819Y-162869428D02*
X55192438Y-162964666D01*
X55192438Y-162964666D02*
X55240057Y-163012285D01*
X55240057Y-163012285D02*
X55335295Y-163059904D01*
X55335295Y-163059904D02*
X55478152Y-163059904D01*
X55478152Y-163059904D02*
X55573390Y-163012285D01*
X55573390Y-163012285D02*
X55621009Y-162964666D01*
X55621009Y-162964666D02*
X55668628Y-162869428D01*
X55668628Y-162869428D02*
X55668628Y-162488476D01*
X52524819Y-161631333D02*
X52048628Y-161298000D01*
X52524819Y-161059905D02*
X51524819Y-161059905D01*
X51524819Y-161059905D02*
X51524819Y-161440857D01*
X51524819Y-161440857D02*
X51572438Y-161536095D01*
X51572438Y-161536095D02*
X51620057Y-161583714D01*
X51620057Y-161583714D02*
X51715295Y-161631333D01*
X51715295Y-161631333D02*
X51858152Y-161631333D01*
X51858152Y-161631333D02*
X51953390Y-161583714D01*
X51953390Y-161583714D02*
X52001009Y-161536095D01*
X52001009Y-161536095D02*
X52048628Y-161440857D01*
X52048628Y-161440857D02*
X52048628Y-161059905D01*
X51524819Y-161964667D02*
X51524819Y-162583714D01*
X51524819Y-162583714D02*
X51905771Y-162250381D01*
X51905771Y-162250381D02*
X51905771Y-162393238D01*
X51905771Y-162393238D02*
X51953390Y-162488476D01*
X51953390Y-162488476D02*
X52001009Y-162536095D01*
X52001009Y-162536095D02*
X52096247Y-162583714D01*
X52096247Y-162583714D02*
X52334342Y-162583714D01*
X52334342Y-162583714D02*
X52429580Y-162536095D01*
X52429580Y-162536095D02*
X52477200Y-162488476D01*
X52477200Y-162488476D02*
X52524819Y-162393238D01*
X52524819Y-162393238D02*
X52524819Y-162107524D01*
X52524819Y-162107524D02*
X52477200Y-162012286D01*
X52477200Y-162012286D02*
X52429580Y-161964667D01*
X318378819Y-143930761D02*
X318378819Y-143359333D01*
X318378819Y-143645047D02*
X317378819Y-143645047D01*
X317378819Y-143645047D02*
X317521676Y-143549809D01*
X317521676Y-143549809D02*
X317616914Y-143454571D01*
X317616914Y-143454571D02*
X317664533Y-143359333D01*
X317378819Y-144787904D02*
X317378819Y-144597428D01*
X317378819Y-144597428D02*
X317426438Y-144502190D01*
X317426438Y-144502190D02*
X317474057Y-144454571D01*
X317474057Y-144454571D02*
X317616914Y-144359333D01*
X317616914Y-144359333D02*
X317807390Y-144311714D01*
X317807390Y-144311714D02*
X318188342Y-144311714D01*
X318188342Y-144311714D02*
X318283580Y-144359333D01*
X318283580Y-144359333D02*
X318331200Y-144406952D01*
X318331200Y-144406952D02*
X318378819Y-144502190D01*
X318378819Y-144502190D02*
X318378819Y-144692666D01*
X318378819Y-144692666D02*
X318331200Y-144787904D01*
X318331200Y-144787904D02*
X318283580Y-144835523D01*
X318283580Y-144835523D02*
X318188342Y-144883142D01*
X318188342Y-144883142D02*
X317950247Y-144883142D01*
X317950247Y-144883142D02*
X317855009Y-144835523D01*
X317855009Y-144835523D02*
X317807390Y-144787904D01*
X317807390Y-144787904D02*
X317759771Y-144692666D01*
X317759771Y-144692666D02*
X317759771Y-144502190D01*
X317759771Y-144502190D02*
X317807390Y-144406952D01*
X317807390Y-144406952D02*
X317855009Y-144359333D01*
X317855009Y-144359333D02*
X317950247Y-144311714D01*
X318378819Y-145311714D02*
X317378819Y-145311714D01*
X317997866Y-145406952D02*
X318378819Y-145692666D01*
X317712152Y-145692666D02*
X318093104Y-145311714D01*
X320748819Y-144359333D02*
X320272628Y-144026000D01*
X320748819Y-143787905D02*
X319748819Y-143787905D01*
X319748819Y-143787905D02*
X319748819Y-144168857D01*
X319748819Y-144168857D02*
X319796438Y-144264095D01*
X319796438Y-144264095D02*
X319844057Y-144311714D01*
X319844057Y-144311714D02*
X319939295Y-144359333D01*
X319939295Y-144359333D02*
X320082152Y-144359333D01*
X320082152Y-144359333D02*
X320177390Y-144311714D01*
X320177390Y-144311714D02*
X320225009Y-144264095D01*
X320225009Y-144264095D02*
X320272628Y-144168857D01*
X320272628Y-144168857D02*
X320272628Y-143787905D01*
X320748819Y-145311714D02*
X320748819Y-144740286D01*
X320748819Y-145026000D02*
X319748819Y-145026000D01*
X319748819Y-145026000D02*
X319891676Y-144930762D01*
X319891676Y-144930762D02*
X319986914Y-144835524D01*
X319986914Y-144835524D02*
X320034533Y-144740286D01*
D11*
%TO.C,J2*%
X71737400Y-117457400D02*
X71737400Y-159062600D01*
X71737400Y-159062600D02*
X89746000Y-159062600D01*
X89746000Y-117457400D02*
X71737400Y-117457400D01*
X89746000Y-159062600D02*
X89746000Y-117457400D01*
%TO.C,J3*%
X194317400Y-173254000D02*
X194317400Y-191262600D01*
X194317400Y-191262600D02*
X235922600Y-191262600D01*
X235922600Y-173254000D02*
X194317400Y-173254000D01*
X235922600Y-191262600D02*
X235922600Y-173254000D01*
%TO.C,J1*%
X327237400Y-117457400D02*
X327237400Y-159062600D01*
X327237400Y-159062600D02*
X345246000Y-159062600D01*
X345246000Y-117457400D02*
X327237400Y-117457400D01*
X345246000Y-159062600D02*
X345246000Y-117457400D01*
D12*
%TO.C,R2*%
X364000000Y-151840000D02*
X364000000Y-154250000D01*
X364000000Y-172160000D02*
X364000000Y-169750000D01*
X361500000Y-154250000D02*
X366500000Y-154250000D01*
X366500000Y-169750000D01*
X361500000Y-169750000D01*
X361500000Y-154250000D01*
%TO.C,R4*%
X337312000Y-162814000D02*
X337312000Y-164484000D01*
X337312000Y-178054000D02*
X337312000Y-176384000D01*
X335062000Y-164484000D02*
X339562000Y-164484000D01*
X339562000Y-176384000D01*
X335062000Y-176384000D01*
X335062000Y-164484000D01*
%TO.C,R3*%
X52070000Y-151638000D02*
X52070000Y-154048000D01*
X52070000Y-171958000D02*
X52070000Y-169548000D01*
X49570000Y-154048000D02*
X54570000Y-154048000D01*
X54570000Y-169548000D01*
X49570000Y-169548000D01*
X49570000Y-154048000D01*
%TO.C,R1*%
X320294000Y-139446000D02*
X320294000Y-141376000D01*
X320294000Y-149606000D02*
X320294000Y-147676000D01*
X321544000Y-147676000D02*
X319044000Y-147676000D01*
X319044000Y-141376000D01*
X321544000Y-141376000D01*
X321544000Y-147676000D01*
%TD*%
M02*
