%TF.GenerationSoftware,KiCad,Pcbnew,9.0.4-1.fc42app3*%
%TF.CreationDate,2025-10-21T18:27:53-04:00*%
%TF.ProjectId,BMW_E30_Early_Cluster_Nexus,424d575f-4533-4305-9f45-61726c795f43,rev?*%
%TF.SameCoordinates,Original*%
%TF.FileFunction,Copper,L2,Bot*%
%TF.FilePolarity,Positive*%
%FSLAX46Y46*%
G04 Gerber Fmt 4.6, Leading zero omitted, Abs format (unit mm)*
G04 Created by KiCad (PCBNEW 9.0.4-1.fc42app3) date 2025-10-21 18:27:53*
%MOMM*%
%LPD*%
G01*
G04 APERTURE LIST*
G04 Aperture macros list*
%AMOutline4P*
0 Free polygon, 4 corners , with rotation*
0 The origin of the aperture is its center*
0 number of corners: always 4*
0 $1 to $8 corner X, Y*
0 $9 Rotation angle, in degrees counterclockwise*
0 create outline with 4 corners*
4,1,4,$1,$2,$3,$4,$5,$6,$7,$8,$1,$2,$9*%
G04 Aperture macros list end*
%TA.AperFunction,ComponentPad*%
%ADD10O,2.900000X9.000000*%
%TD*%
%TA.AperFunction,ComponentPad*%
%ADD11Outline4P,-1.700000X-2.000000X1.700000X-3.000000X1.700000X3.000000X-1.700000X2.000000X0.000000*%
%TD*%
%TA.AperFunction,ComponentPad*%
%ADD12Outline4P,-1.700000X-2.000000X1.700000X-3.000000X1.700000X3.000000X-1.700000X2.000000X180.000000*%
%TD*%
%TA.AperFunction,ComponentPad*%
%ADD13C,8.000000*%
%TD*%
%TA.AperFunction,ComponentPad*%
%ADD14O,4.900000X3.000000*%
%TD*%
%TA.AperFunction,ComponentPad*%
%ADD15C,1.524000*%
%TD*%
%TA.AperFunction,WasherPad*%
%ADD16C,2.210000*%
%TD*%
%TA.AperFunction,ComponentPad*%
%ADD17C,2.400000*%
%TD*%
%TA.AperFunction,ComponentPad*%
%ADD18C,1.600000*%
%TD*%
%TA.AperFunction,ViaPad*%
%ADD19C,2.400000*%
%TD*%
%TA.AperFunction,Conductor*%
%ADD20C,1.000000*%
%TD*%
G04 APERTURE END LIST*
D10*
%TO.P,J5,1,Pin_1*%
%TO.N,GNDPWR*%
X239500000Y-197104000D03*
%TO.P,J5,2,Pin_2*%
%TO.N,Brake_wear_ind+*%
X236000000Y-197104000D03*
%TO.P,J5,3,Pin_3*%
%TO.N,Temp_gauge*%
X232500000Y-197104000D03*
%TO.P,J5,4,Pin_4*%
%TO.N,Brake_wear_sig+*%
X229000000Y-197104000D03*
%TO.P,J5,5,Pin_5*%
%TO.N,SI_RST*%
X225500000Y-197104000D03*
%TO.P,J5,6,Pin_6*%
%TO.N,Eng_temp_sensor*%
X222000000Y-197104000D03*
%TO.P,J5,7,Pin_7*%
%TO.N,+12 T15*%
X218500000Y-197104000D03*
%TO.P,J5,12,Pin_12*%
%TO.N,START*%
X201000000Y-197104000D03*
%TO.P,J5,13,Pin_13*%
%TO.N,+12 T30*%
X197500000Y-197104000D03*
%TO.P,J5,14,Pin_14*%
%TO.N,+5V*%
X194000000Y-197104000D03*
%TO.P,J5,15,Pin_15*%
%TO.N,Distance_pulse*%
X190500000Y-197104000D03*
%TO.P,J5,16,Pin_16*%
%TO.N,Speed_pulse*%
X187000000Y-197104000D03*
%TO.P,J5,17,Pin_17*%
%TO.N,cylinder_count*%
X183500000Y-197104000D03*
%TO.P,J5,18,Pin_18*%
%TO.N,unconnected-(J5-Pin_18-Pad18)*%
X180000000Y-197104000D03*
%TO.P,J5,19,Pin_19*%
%TO.N,Brake_wear_sig-*%
X176500000Y-197104000D03*
%TD*%
D11*
%TO.P,U2,1,Vcc*%
%TO.N,Net-(U2-Vcc)*%
X59000000Y-171958000D03*
D12*
X66000000Y-171958000D03*
D13*
%TO.P,U2,2,GND*%
%TO.N,GNDPWR*%
X62500000Y-161958000D03*
D11*
%TO.P,U2,3,Vout*%
%TO.N,Fuel_level*%
X59000000Y-151958000D03*
D12*
X66000000Y-151958000D03*
%TD*%
D11*
%TO.P,U1,1,Vcc*%
%TO.N,Net-(U1-Vcc)*%
X350068000Y-171958000D03*
D12*
X357068000Y-171958000D03*
D13*
%TO.P,U1,2,GND*%
%TO.N,GNDPWR*%
X353568000Y-161958000D03*
D11*
%TO.P,U1,3,Vout*%
%TO.N,Temp_gauge*%
X350068000Y-151958000D03*
D12*
X357068000Y-151958000D03*
%TD*%
D14*
%TO.P,J4,1,Pin_1*%
%TO.N,+12 T15*%
X222250000Y-102870000D03*
%TO.P,J4,2,Pin_2*%
%TO.N,Fuel_rate_input*%
X222250000Y-106370000D03*
%TO.P,J4,3,Pin_3*%
%TO.N,GNDPWR*%
X222250000Y-109870000D03*
%TO.P,J4,4,Pin_4*%
%TO.N,Wheel_spd_output*%
X222250000Y-113370000D03*
%TO.P,J4,5,Pin_5*%
%TO.N,+12 T15_ACC*%
X222250000Y-116870000D03*
%TO.P,J4,6,Pin_6*%
%TO.N,cylinder_count*%
X222250000Y-120370000D03*
%TO.P,J4,7,Pin_7*%
%TO.N,Speed_pulse*%
X222250000Y-123870000D03*
%TO.P,J4,8,Pin_8*%
%TO.N,Distance_pulse*%
X222250000Y-127370000D03*
%TO.P,J4,9,Pin_9*%
%TO.N,+5V*%
X222250000Y-130870000D03*
%TO.P,J4,10,Pin_10*%
%TO.N,+12 T30*%
X222250000Y-134370000D03*
%TO.P,J4,11,Pin_11*%
%TO.N,Engine_spd_input*%
X222250000Y-137870000D03*
%TO.P,J4,12,Pin_12*%
%TO.N,Charge_ind-*%
X213250000Y-106370000D03*
%TO.P,J4,13,Pin_13*%
%TO.N,GNDPWR*%
X213250000Y-109870000D03*
%TO.P,J4,14,Pin_14*%
%TO.N,Wheel_spd_input*%
X213250000Y-113370000D03*
%TO.P,J4,15,Pin_15*%
%TO.N,Wheel_spd_output*%
X213250000Y-116870000D03*
%TO.P,J4,16,Pin_16*%
%TO.N,+12 T15_ACC*%
X213250000Y-120370000D03*
%TD*%
D15*
%TO.P,J2,1,1*%
%TO.N,Park_brake_ind-*%
X79460000Y-154000000D03*
%TO.P,J2,2,2*%
%TO.N,unconnected-(J2-Pad2)*%
X79460000Y-151460000D03*
%TO.P,J2,3,3*%
%TO.N,GNDPWR*%
X79460000Y-148920000D03*
%TO.P,J2,4,4*%
%TO.N,Fuel_level*%
X79460000Y-146380000D03*
%TO.P,J2,5,5*%
%TO.N,Low_Fuel_ind-*%
X79460000Y-143840000D03*
%TO.P,J2,6,6*%
%TO.N,+12 T15*%
X79460000Y-141300000D03*
%TO.P,J2,7,7*%
%TO.N,LH_ind*%
X79460000Y-138760000D03*
%TO.P,J2,8,8*%
%TO.N,GNDPWR*%
X79460000Y-136220000D03*
%TO.P,J2,9,9*%
%TO.N,unconnected-(J2-Pad9)*%
X79460000Y-133680000D03*
%TO.P,J2,10,10*%
%TO.N,unconnected-(J2-Pad10)*%
X79460000Y-131140000D03*
%TO.P,J2,11,11*%
%TO.N,unconnected-(J2-Pad11)*%
X79460000Y-128600000D03*
%TO.P,J2,12,12*%
%TO.N,Wheel_spd_input*%
X79460000Y-126060000D03*
%TO.P,J2,13,13*%
%TO.N,+12 T15_ACC*%
X79460000Y-123520000D03*
%TO.P,J2,14,14*%
%TO.N,Rear_fog_ind+*%
X82000000Y-154000000D03*
%TO.P,J2,15,15*%
%TO.N,unconnected-(J2-Pad15)*%
X82000000Y-151460000D03*
%TO.P,J2,16,16*%
%TO.N,GNDPWR*%
X82000000Y-148920000D03*
%TO.P,J2,17,17*%
%TO.N,unconnected-(J2-Pad17)*%
X82000000Y-146380000D03*
%TO.P,J2,18,18*%
%TO.N,unconnected-(J2-Pad18)*%
X82000000Y-143840000D03*
%TO.P,J2,19,19*%
%TO.N,unconnected-(J2-Pad19)*%
X82000000Y-141300000D03*
%TO.P,J2,20,20*%
%TO.N,unconnected-(J2-Pad20)*%
X82000000Y-138760000D03*
%TO.P,J2,21,21*%
%TO.N,GNDPWR*%
X82000000Y-136220000D03*
%TO.P,J2,22,22*%
%TO.N,Fog_ind+*%
X82000000Y-133680000D03*
%TO.P,J2,23,23*%
%TO.N,Illum-*%
X82000000Y-131140000D03*
%TO.P,J2,24,24*%
%TO.N,Illum+*%
X82000000Y-128600000D03*
%TO.P,J2,25,25*%
%TO.N,+5V*%
X82000000Y-126060000D03*
%TO.P,J2,26,26*%
%TO.N,Brake_wear_sig-*%
X82000000Y-123520000D03*
%TD*%
D16*
%TO.P,J3,*%
%TO.N,*%
X233860000Y-185540000D03*
D15*
%TO.P,J3,1,1*%
%TO.N,GNDPWR*%
X230860000Y-183540000D03*
%TO.P,J3,2,2*%
%TO.N,+12 T15*%
X228320000Y-183540000D03*
%TO.P,J3,3,3*%
%TO.N,unconnected-(J3-Pad3)*%
X225780000Y-183540000D03*
%TO.P,J3,4,4*%
%TO.N,Low_Fuel_ind-*%
X223240000Y-183540000D03*
%TO.P,J3,5,5*%
%TO.N,Fuel_level*%
X220700000Y-183540000D03*
%TO.P,J3,6,6*%
%TO.N,Park_brake_ind-*%
X218160000Y-183540000D03*
%TO.P,J3,7,7*%
%TO.N,Illum-*%
X215620000Y-183540000D03*
%TO.P,J3,8,8*%
%TO.N,Illum+*%
X213080000Y-183540000D03*
%TO.P,J3,9,9*%
%TO.N,START*%
X210540000Y-183540000D03*
%TO.P,J3,10,10*%
%TO.N,+12 T30*%
X208000000Y-183540000D03*
%TO.P,J3,11,11*%
%TO.N,Engine_spd_input*%
X205460000Y-183540000D03*
%TO.P,J3,12,12*%
%TO.N,unconnected-(J3-Pad12)*%
X202920000Y-183540000D03*
%TO.P,J3,13,13*%
%TO.N,+12 T15_ACC*%
X200380000Y-183540000D03*
%TO.P,J3,14,14*%
%TO.N,+12 T15*%
X230860000Y-181000000D03*
%TO.P,J3,15,15*%
X228320000Y-181000000D03*
%TO.P,J3,16,16*%
%TO.N,unconnected-(J3-Pad16)*%
X225780000Y-181000000D03*
%TO.P,J3,17,17*%
%TO.N,unconnected-(J3-Pad17)*%
X223240000Y-181000000D03*
%TO.P,J3,18,18*%
%TO.N,unconnected-(J3-Pad18)*%
X220700000Y-181000000D03*
%TO.P,J3,19,19*%
%TO.N,Park_brake_ind-*%
X218160000Y-181000000D03*
%TO.P,J3,20,20*%
%TO.N,Illum-*%
X215620000Y-181000000D03*
%TO.P,J3,21,21*%
%TO.N,Illum+*%
X213080000Y-181000000D03*
%TO.P,J3,22,22*%
%TO.N,START*%
X210540000Y-181000000D03*
%TO.P,J3,23,23*%
%TO.N,+12 T30*%
X208000000Y-181000000D03*
%TO.P,J3,24,24*%
%TO.N,Engine_spd_input*%
X205460000Y-181000000D03*
%TO.P,J3,25,25*%
%TO.N,Fuel_rate_input*%
X202920000Y-181000000D03*
%TO.P,J3,26,26*%
%TO.N,Wheel_spd_output*%
X200380000Y-181000000D03*
%TD*%
D16*
%TO.P,J1,*%
%TO.N,*%
X332960000Y-142860000D03*
X338500000Y-156260000D03*
D15*
%TO.P,J1,1,1*%
%TO.N,START*%
X334960000Y-154000000D03*
%TO.P,J1,2,2*%
%TO.N,+12 T30*%
X334960000Y-151460000D03*
%TO.P,J1,3,3*%
%TO.N,Charge_ind-*%
X334960000Y-148920000D03*
%TO.P,J1,4,4*%
%TO.N,Check_Control_ind*%
X334960000Y-146380000D03*
%TO.P,J1,5,5*%
%TO.N,unconnected-(J1-Pad5)*%
X334960000Y-143840000D03*
%TO.P,J1,6,6*%
%TO.N,+12 T15*%
X334960000Y-141300000D03*
%TO.P,J1,7,7*%
%TO.N,RAW_RPM_input*%
X334960000Y-138760000D03*
%TO.P,J1,8,8*%
%TO.N,unconnected-(J1-Pad8)*%
X334960000Y-136220000D03*
%TO.P,J1,9,9*%
%TO.N,unconnected-(J1-Pad9)*%
X334960000Y-133680000D03*
%TO.P,J1,10,10*%
%TO.N,+12 T15*%
X334960000Y-131140000D03*
%TO.P,J1,11,11*%
%TO.N,Fuel_rate_input*%
X334960000Y-128600000D03*
%TO.P,J1,12,12*%
%TO.N,High_beam_ind*%
X334960000Y-126060000D03*
%TO.P,J1,13,13*%
%TO.N,RH_ind*%
X334960000Y-123520000D03*
%TO.P,J1,14,14*%
%TO.N,Charge_Ind+*%
X337500000Y-154000000D03*
%TO.P,J1,15,15*%
%TO.N,unconnected-(J1-Pad15)*%
X337500000Y-151460000D03*
%TO.P,J1,16,16*%
%TO.N,Charge_ind-*%
X337500000Y-148920000D03*
%TO.P,J1,17,17*%
%TO.N,Brake_fluid_ind-*%
X337500000Y-146380000D03*
%TO.P,J1,18,18*%
%TO.N,Oil_pressure_ind-*%
X337500000Y-143840000D03*
%TO.P,J1,19,19*%
%TO.N,+12 T15*%
X337500000Y-141300000D03*
%TO.P,J1,20,20*%
%TO.N,GNDPWR*%
X337500000Y-138760000D03*
%TO.P,J1,21,21*%
%TO.N,Brake_wear_sig+*%
X337500000Y-136220000D03*
%TO.P,J1,22,22*%
%TO.N,SI_RST*%
X337500000Y-133680000D03*
%TO.P,J1,23,23*%
%TO.N,+12 T15*%
X337500000Y-131140000D03*
%TO.P,J1,24,24*%
%TO.N,unconnected-(J1-Pad24)*%
X337500000Y-128600000D03*
%TO.P,J1,25,25*%
%TO.N,Overheat_ind-*%
X337500000Y-126060000D03*
%TO.P,J1,26,26*%
%TO.N,Eng_temp_sensor*%
X337500000Y-123520000D03*
%TD*%
D17*
%TO.P,R2,1*%
%TO.N,+12 T15*%
X364000000Y-151840000D03*
%TO.P,R2,2*%
%TO.N,Net-(U1-Vcc)*%
X364000000Y-172160000D03*
%TD*%
%TO.P,R4,1*%
%TO.N,Charge_Ind+*%
X337312000Y-162814000D03*
%TO.P,R4,2*%
%TO.N,Charge_ind-*%
X337312000Y-178054000D03*
%TD*%
%TO.P,R3,1*%
%TO.N,+12 T15*%
X52070000Y-151638000D03*
%TO.P,R3,2*%
%TO.N,Net-(U2-Vcc)*%
X52070000Y-171958000D03*
%TD*%
D18*
%TO.P,R1,1*%
%TO.N,Engine_spd_input*%
X320294000Y-149606000D03*
%TO.P,R1,2*%
%TO.N,RAW_RPM_input*%
X320294000Y-139446000D03*
%TD*%
D19*
%TO.N,Charge_ind-*%
X323342000Y-146812000D03*
X323342000Y-131826000D03*
%TO.N,Fuel_rate_input*%
X226060000Y-150114000D03*
X226060000Y-165100000D03*
%TO.N,GNDPWR*%
X347000000Y-140000000D03*
X347000000Y-124100000D03*
%TD*%
D20*
%TO.N,Charge_ind-*%
X323342000Y-146812000D02*
X323342000Y-131826000D01*
%TO.N,Fuel_rate_input*%
X226060000Y-150114000D02*
X226060000Y-165100000D01*
%TO.N,GNDPWR*%
X347000000Y-140000000D02*
X347000000Y-124100000D01*
%TD*%
M02*
