%TF.GenerationSoftware,KiCad,Pcbnew,9.0.4-1.fc42app3*%
%TF.CreationDate,2025-10-21T18:27:53-04:00*%
%TF.ProjectId,BMW_E30_Early_Cluster_Nexus,424d575f-4533-4305-9f45-61726c795f43,rev?*%
%TF.SameCoordinates,Original*%
%TF.FileFunction,Copper,L1,Top*%
%TF.FilePolarity,Positive*%
%FSLAX46Y46*%
G04 Gerber Fmt 4.6, Leading zero omitted, Abs format (unit mm)*
G04 Created by KiCad (PCBNEW 9.0.4-1.fc42app3) date 2025-10-21 18:27:53*
%MOMM*%
%LPD*%
G01*
G04 APERTURE LIST*
G04 Aperture macros list*
%AMOutline4P*
0 Free polygon, 4 corners , with rotation*
0 The origin of the aperture is its center*
0 number of corners: always 4*
0 $1 to $8 corner X, Y*
0 $9 Rotation angle, in degrees counterclockwise*
0 create outline with 4 corners*
4,1,4,$1,$2,$3,$4,$5,$6,$7,$8,$1,$2,$9*%
%AMFreePoly0*
4,1,163,5.834751,6.472747,5.725808,6.427352,5.510697,6.330171,5.298986,6.225794,5.090913,6.114338,4.886716,5.995930,4.686628,5.870706,4.490875,5.738808,4.299680,5.600385,4.113260,5.455594,3.931827,5.304602,3.755588,5.147578,3.584744,4.984702,3.419487,4.816159,3.260006,4.642140,3.106483,4.462844,2.959092,4.278474,2.818000,4.089239,2.683368,3.895356,2.555350,3.697044,
2.434089,3.494528,2.319725,3.288040,2.212388,3.077813,2.112199,2.864087,2.019272,2.647105,1.933714,2.427114,1.855620,2.204363,1.785081,1.979106,1.722176,1.751599,1.666977,1.522100,1.619546,1.290871,1.579937,1.058175,1.548197,0.824275,1.524359,0.589438,1.508453,0.353931,1.500495,0.118022,1.500495,-0.118022,1.508453,-0.353931,1.524359,-0.589438,1.548197,-0.824275,
1.579937,-1.058175,1.619546,-1.290871,1.666977,-1.522100,1.722176,-1.751599,1.785081,-1.979106,1.855620,-2.204363,1.933714,-2.427114,2.019272,-2.647105,2.112199,-2.864087,2.212388,-3.077813,2.319725,-3.288040,2.434089,-3.494528,2.555350,-3.697044,2.683368,-3.895356,2.818000,-4.089239,2.959092,-4.278474,3.106483,-4.462844,3.260006,-4.642140,3.419487,-4.816159,3.584744,-4.984702,
3.755588,-5.147578,3.931827,-5.304602,4.113260,-5.455594,4.299680,-5.600385,4.490875,-5.738808,4.686628,-5.870706,4.886716,-5.995930,5.090913,-6.114338,5.298986,-6.225794,5.510697,-6.330171,5.725808,-6.427352,5.834751,-6.472747,5.794950,-9.106740,5.662416,-9.066849,5.399470,-8.980332,5.139157,-8.886190,4.881697,-8.784505,4.627309,-8.675362,4.376209,-8.558854,4.128609,-8.435080,
3.884720,-8.304146,3.644750,-8.166161,3.408901,-8.021244,3.177375,-7.869517,2.950367,-7.711110,2.728070,-7.546156,2.510674,-7.374796,2.298362,-7.197175,2.091315,-7.013444,1.889709,-6.823759,1.693714,-6.628281,1.503498,-6.427176,1.319221,-6.220615,1.141040,-6.008773,0.969107,-5.791829,0.803567,-5.569969,0.644560,-5.343380,0.492223,-5.112255,0.346684,-4.876790,0.208066,-4.637184,
0.076488,-4.393642,-0.047939,-4.146370,-0.165109,-3.895578,-0.274923,-3.641479,-0.377288,-3.384288,-0.472116,-3.124225,-0.559327,-2.861509,-0.638848,-2.596363,-0.710610,-2.329014,-0.774553,-2.059687,-0.830622,-1.788612,-0.878770,-1.516019,-0.918956,-1.242138,-0.951146,-0.967203,-0.975312,-0.691447,-0.991435,-0.415103,-0.999499,-0.138408,-0.999499,0.138405,-0.991435,0.415101,-0.975312,0.691444,
-0.951146,0.967201,-0.918956,1.242136,-0.878771,1.516016,-0.830622,1.788610,-0.774553,2.059685,-0.710610,2.329012,-0.638848,2.596361,-0.559328,2.861507,-0.472117,3.124223,-0.377288,3.384286,-0.274924,3.641477,-0.165110,3.895576,-0.047940,4.146368,0.076487,4.393640,0.208065,4.637182,0.346683,4.876788,0.492222,5.112253,0.644559,5.343378,0.803565,5.569967,0.969105,5.791828,
1.141039,6.008771,1.319219,6.220613,1.503496,6.427175,1.693712,6.628280,1.889707,6.823758,2.091313,7.013443,2.298360,7.197174,2.510672,7.374795,2.728069,7.546155,2.950365,7.711109,3.177373,7.869516,3.408900,8.021243,3.644748,8.166160,3.884719,8.304145,4.128607,8.435079,4.376207,8.558853,4.627307,8.675361,4.881695,8.784504,5.139155,8.886190,5.399468,8.980331,
5.662413,9.066849,5.794950,9.106740,5.834751,6.472747,5.834751,6.472747,$1*%
%AMFreePoly1*
4,1,140,-5.794948,9.106739,-5.667915,9.068565,-5.415796,8.986021,-5.166081,8.896465,-4.918966,8.799967,-4.674644,8.696602,-4.433306,8.586451,-4.195139,8.469600,-3.960330,8.346140,-3.729062,8.216167,-3.501516,8.079784,-3.277869,7.937096,-3.058297,7.788215,-2.950365,7.711109,0.878771,1.516016,0.900136,1.380668,0.936011,1.108981,0.964036,0.836372,0.984188,0.563068,0.996450,0.289297,
1.000811,0.015287,0.997269,-0.258736,0.985826,-0.532543,0.966492,-0.805905,0.939282,-1.078597,0.904220,-1.350390,0.861334,-1.621059,0.810660,-1.890379,0.752241,-2.158125,0.686124,-2.424076,0.612366,-2.688009,0.531026,-2.949705,0.442174,-3.208947,0.345882,-3.465518,0.242232,-3.719206,0.131308,-3.969799,0.013204,-4.217089,-0.111982,-4.460871,-0.244146,-4.700941,-0.383179,-4.937099,
-0.528965,-5.169150,-0.681381,-5.396900,-0.840303,-5.620160,-1.005596,-5.838744,-1.177125,-6.052470,-1.354746,-6.261161,-1.538311,-6.464643,-1.727668,-6.662746,-1.922659,-6.855307,-2.123122,-7.042164,-2.328890,-7.223162,-2.539793,-7.398151,-2.755654,-7.566984,-2.976294,-7.729523,-3.201530,-7.885631,-3.431174,-8.035179,-3.665036,-8.178042,-3.902920,-8.314101,-4.144629,-8.443244,-4.389961,-8.565363,
-4.638713,-8.680355,-4.890678,-8.788126,-5.145647,-8.888586,-5.403406,-8.981652,-5.663742,-9.067245,-5.794950,-9.106740,-5.834751,-6.472747,-5.725808,-6.427352,-5.510697,-6.330171,-5.298986,-6.225794,-5.090913,-6.114338,-4.886717,-5.995930,-4.686628,-5.870706,-4.490875,-5.738808,-4.299680,-5.600384,-4.113260,-5.455594,-3.931828,-5.304601,-3.755589,-5.147578,-3.584744,-4.984702,-3.419487,-4.816159,
-3.260007,-4.642140,-3.106484,-4.462844,-2.959092,-4.278474,-2.818001,-4.089239,-2.683369,-3.895356,-2.555350,-3.697043,-2.434090,-3.494528,-2.319726,-3.288040,-2.212388,-3.077813,-2.112199,-2.864087,-2.019273,-2.647105,-1.933714,-2.427114,-1.855621,-2.204363,-1.785081,-1.979106,-1.722176,-1.751599,-1.666977,-1.522100,-1.619546,-1.290871,-1.579938,-1.058175,-1.548197,-0.824275,-1.524360,-0.589438,
-1.508453,-0.353931,-1.500496,-0.118022,-1.500496,0.118022,-1.508453,0.353931,-1.524360,0.589438,-1.548197,0.824275,-1.579938,1.058175,-1.619546,1.290871,-1.666977,1.522100,-1.722176,1.751599,-1.785081,1.979106,-1.855621,2.204363,-1.933714,2.427114,-2.019273,2.647105,-2.112199,2.864087,-2.212388,3.077813,-2.319726,3.288040,-2.434090,3.494528,-2.555350,3.697043,-2.683369,3.895356,
-2.818001,4.089239,-2.959092,4.278474,-3.106484,4.462844,-3.260007,4.642140,-3.419487,4.816159,-3.584744,4.984702,-3.755589,5.147578,-3.931828,5.304601,-4.113260,5.455594,-4.299680,5.600384,-4.490875,5.738808,-4.686628,5.870706,-4.886717,5.995930,-5.090913,6.114338,-5.298986,6.225794,-5.510697,6.330171,-5.725808,6.427352,-5.834751,6.472747,-5.794950,9.106740,-5.794948,9.106739,
-5.794948,9.106739,$1*%
%AMFreePoly2*
4,1,129,0.219683,0.504377,0.439072,0.492330,0.657874,0.472269,0.875797,0.444223,1.092548,0.408227,1.307838,0.364330,1.521379,0.312590,1.732886,0.253078,1.942075,0.185873,2.148667,0.111063,2.352386,0.028751,2.552959,-0.060956,2.750118,-0.157936,2.943599,-0.262059,3.133144,-0.373187,3.318499,-0.491171,3.499417,-0.615854,3.675654,-0.747068,3.846976,-0.884637,4.013154,-1.028379,
4.173965,-1.178101,4.329195,-1.333602,4.478635,-1.494675,4.622086,-1.661104,4.759355,-1.832666,4.890261,-2.009133,5.014626,-2.190268,5.132286,-2.375829,5.243082,-2.565569,5.346867,-2.759232,5.443502,-2.956560,5.532857,-3.157290,5.614814,-3.361152,5.689261,-3.567875,5.723155,-3.672377,4.112152,-3.672377,4.073405,-3.586398,3.989649,-3.417405,3.898886,-3.252070,3.801275,-3.090683,
3.696988,-2.933528,3.586208,-2.780880,3.469129,-2.633007,3.345957,-2.490171,3.216908,-2.352620,3.082210,-2.220597,2.942098,-2.094334,2.796819,-1.974053,2.646628,-1.859964,2.491788,-1.752268,2.332572,-1.651155,2.169259,-1.556801,2.002136,-1.469373,1.831497,-1.389025,1.657641,-1.315896,1.480874,-1.250116,1.301506,-1.191800,1.119852,-1.141051,0.936231,-1.097958,0.750965,-1.062596,
0.564381,-1.035028,0.376806,-1.015302,0.188568,-1.003452,0.000000,-0.999500,-0.188568,-1.003452,-0.376806,-1.015302,-0.564381,-1.035028,-0.750965,-1.062596,-0.936231,-1.097958,-1.119852,-1.141051,-1.301506,-1.191800,-1.480874,-1.250116,-1.657641,-1.315896,-1.831497,-1.389025,-2.002136,-1.469373,-2.169259,-1.556801,-2.332572,-1.651155,-2.491788,-1.752268,-2.646628,-1.859964,-2.796819,-1.974053,
-2.942098,-2.094334,-3.082210,-2.220597,-3.216908,-2.352620,-3.345957,-2.490171,-3.469129,-2.633007,-3.586208,-2.780880,-3.696988,-2.933528,-3.801275,-3.090683,-3.898886,-3.252070,-3.989649,-3.417405,-4.073405,-3.586398,-4.112152,-3.672377,-5.723155,-3.672377,-5.689261,-3.567875,-5.614814,-3.361152,-5.532857,-3.157290,-5.443502,-2.956560,-5.346867,-2.759232,-5.243082,-2.565569,-5.132286,-2.375829,
-5.014626,-2.190268,-4.890261,-2.009133,-4.759355,-1.832666,-4.622086,-1.661104,-4.478635,-1.494675,-4.329195,-1.333602,-4.173965,-1.178101,-4.013154,-1.028379,-3.846976,-0.884637,-3.675654,-0.747068,-3.499417,-0.615854,-3.318499,-0.491171,-3.133144,-0.373187,-2.943599,-0.262059,-2.750118,-0.157936,-2.552959,-0.060956,-2.352386,0.028751,-2.148667,0.111063,-1.942075,0.185873,-1.732886,0.253078,
-1.521379,0.312590,-1.307838,0.364330,-1.092548,0.408227,-0.875797,0.444223,-0.657874,0.472269,-0.439072,0.492330,-0.219683,0.504377,0.000000,0.508394,0.219683,0.504377,0.219683,0.504377,$1*%
%AMFreePoly3*
4,1,129,-4.073405,3.586398,-3.989649,3.417405,-3.898886,3.252070,-3.801275,3.090683,-3.696988,2.933528,-3.586208,2.780880,-3.469129,2.633007,-3.345957,2.490171,-3.216908,2.352620,-3.082210,2.220597,-2.942098,2.094334,-2.796819,1.974053,-2.646628,1.859964,-2.491788,1.752268,-2.332572,1.651155,-2.169259,1.556801,-2.002136,1.469373,-1.831497,1.389025,-1.657641,1.315896,-1.480874,1.250116,
-1.301506,1.191800,-1.119852,1.141051,-0.936231,1.097958,-0.750965,1.062596,-0.564381,1.035028,-0.376806,1.015302,-0.188568,1.003452,0.000000,0.999500,0.188568,1.003452,0.376806,1.015302,0.564381,1.035028,0.750965,1.062596,0.936231,1.097958,1.119852,1.141051,1.301506,1.191800,1.480874,1.250116,1.657641,1.315896,1.831497,1.389025,2.002136,1.469373,2.169259,1.556801,
2.332572,1.651155,2.491788,1.752268,2.646628,1.859964,2.796819,1.974053,2.942098,2.094334,3.082210,2.220597,3.216908,2.352620,3.345957,2.490171,3.469129,2.633007,3.586208,2.780880,3.696988,2.933528,3.801275,3.090683,3.898886,3.252070,3.989649,3.417405,4.073405,3.586398,4.112152,3.672377,5.723155,3.672377,5.689261,3.567875,5.614814,3.361152,5.532857,3.157290,
5.443502,2.956560,5.346867,2.759232,5.243082,2.565569,5.132286,2.375829,5.014626,2.190268,4.890261,2.009133,4.759355,1.832666,4.622086,1.661104,4.478635,1.494675,4.329195,1.333602,4.173965,1.178101,4.013154,1.028379,3.846976,0.884637,3.675654,0.747068,3.499417,0.615854,3.318499,0.491171,3.133144,0.373187,2.943599,0.262059,2.750118,0.157936,2.552959,0.060956,
2.352386,-0.028751,2.148667,-0.111063,1.942075,-0.185873,1.732886,-0.253078,1.521379,-0.312590,1.307838,-0.364330,1.092548,-0.408227,0.875797,-0.444223,0.657874,-0.472269,0.439072,-0.492330,0.219683,-0.504377,0.000000,-0.508394,-0.219683,-0.504377,-0.439072,-0.492330,-0.657874,-0.472269,-0.875797,-0.444223,-1.092548,-0.408227,-1.307838,-0.364330,-1.521379,-0.312590,-1.732886,-0.253078,
-1.942075,-0.185873,-2.148667,-0.111063,-2.352386,-0.028751,-2.552959,0.060956,-2.750118,0.157936,-2.943599,0.262059,-3.133144,0.373187,-3.318499,0.491171,-3.499417,0.615854,-3.675654,0.747068,-3.846976,0.884637,-4.013154,1.028379,-4.173965,1.178101,-4.329195,1.333602,-4.478635,1.494675,-4.622086,1.661104,-4.759355,1.832666,-4.890261,2.009133,-5.014626,2.190268,-5.132286,2.375829,
-5.243082,2.565569,-5.346867,2.759232,-5.443502,2.956560,-5.532857,3.157290,-5.614814,3.361152,-5.689261,3.567875,-5.723155,3.672377,-4.112152,3.672377,-4.073405,3.586398,-4.073405,3.586398,$1*%
%AMFreePoly4*
4,1,164,-5.794948,9.106739,-5.662413,9.066849,-5.399468,8.980331,-5.139155,8.886190,-4.881695,8.784504,-4.627307,8.675361,-4.376207,8.558853,-4.128607,8.435079,-3.884719,8.304145,-3.644748,8.166160,-3.408900,8.021243,-3.177373,7.869516,-2.950365,7.711109,-2.728069,7.546155,-2.510672,7.374795,-2.298360,7.197174,-2.091313,7.013443,-1.889707,6.823758,-1.693712,6.628280,-1.503496,6.427175,
-1.319219,6.220613,-1.141039,6.008771,-0.969105,5.791828,-0.803565,5.569967,-0.644559,5.343378,-0.492222,5.112253,-0.346683,4.876788,-0.208065,4.637182,-0.076487,4.393640,0.047940,4.146368,0.165110,3.895576,0.274924,3.641477,0.377288,3.384286,0.472117,3.124223,0.559328,2.861507,0.638848,2.596361,0.710610,2.329012,0.774553,2.059685,0.830622,1.788610,0.878771,1.516016,
0.918956,1.242136,0.951146,0.967201,0.975312,0.691444,0.991435,0.415101,0.999499,0.138405,0.999499,-0.138408,0.991435,-0.415103,0.975312,-0.691447,0.951146,-0.967203,0.918956,-1.242138,0.878770,-1.516019,0.830622,-1.788612,0.774553,-2.059687,0.710610,-2.329014,0.638848,-2.596363,0.559327,-2.861509,0.472116,-3.124225,0.377288,-3.384288,0.274923,-3.641479,0.165109,-3.895578,
0.047939,-4.146370,-0.076488,-4.393642,-0.208066,-4.637184,-0.346684,-4.876790,-0.492223,-5.112255,-0.644560,-5.343380,-0.803567,-5.569969,-0.969107,-5.791829,-1.141040,-6.008773,-1.319221,-6.220615,-1.503498,-6.427176,-1.693714,-6.628281,-1.889709,-6.823759,-2.091315,-7.013444,-2.298362,-7.197175,-2.510674,-7.374796,-2.728070,-7.546156,-2.950367,-7.711110,-3.177375,-7.869517,-3.408901,-8.021244,
-3.644750,-8.166161,-3.884720,-8.304146,-4.128609,-8.435080,-4.376209,-8.558854,-4.627309,-8.675362,-4.881697,-8.784505,-5.139157,-8.886190,-5.399470,-8.980332,-5.662416,-9.066849,-5.794950,-9.106740,-5.834751,-6.472747,-5.725808,-6.427352,-5.510697,-6.330171,-5.298986,-6.225794,-5.090913,-6.114338,-4.886717,-5.995930,-4.686628,-5.870706,-4.490875,-5.738808,-4.299680,-5.600384,-4.113260,-5.455594,
-3.931828,-5.304601,-3.755589,-5.147578,-3.584744,-4.984702,-3.419487,-4.816159,-3.260007,-4.642140,-3.106484,-4.462844,-2.959092,-4.278474,-2.818001,-4.089239,-2.683369,-3.895356,-2.555350,-3.697043,-2.434090,-3.494528,-2.319726,-3.288040,-2.212388,-3.077813,-2.112199,-2.864087,-2.019273,-2.647105,-1.933714,-2.427114,-1.855621,-2.204363,-1.785081,-1.979106,-1.722176,-1.751599,-1.666977,-1.522100,
-1.619546,-1.290871,-1.579938,-1.058175,-1.548197,-0.824275,-1.524360,-0.589438,-1.508453,-0.353931,-1.500496,-0.118022,-1.500496,0.118022,-1.508453,0.353931,-1.524360,0.589438,-1.548197,0.824275,-1.579938,1.058175,-1.619546,1.290871,-1.666977,1.522100,-1.722176,1.751599,-1.785081,1.979106,-1.855621,2.204363,-1.933714,2.427114,-2.019273,2.647105,-2.112199,2.864087,-2.212388,3.077813,
-2.319726,3.288040,-2.434090,3.494528,-2.555350,3.697043,-2.683369,3.895356,-2.818001,4.089239,-2.959092,4.278474,-3.106484,4.462844,-3.260007,4.642140,-3.419487,4.816159,-3.584744,4.984702,-3.755589,5.147578,-3.931828,5.304601,-4.113260,5.455594,-4.299680,5.600384,-4.490875,5.738808,-4.686628,5.870706,-4.886717,5.995930,-5.090913,6.114338,-5.298986,6.225794,-5.510697,6.330171,
-5.725808,6.427352,-5.834751,6.472747,-5.794950,9.106740,-5.794948,9.106739,-5.794948,9.106739,$1*%
%AMFreePoly5*
4,1,142,5.834751,6.472747,5.725808,6.427352,5.510697,6.330171,5.298986,6.225794,5.090913,6.114338,4.886716,5.995930,4.686628,5.870706,4.490875,5.738808,4.299680,5.600385,4.113260,5.455594,3.931827,5.304602,3.755588,5.147578,3.584744,4.984702,3.419487,4.816159,3.260006,4.642140,3.106483,4.462844,2.959092,4.278474,2.818000,4.089239,2.683368,3.895356,2.555350,3.697044,
2.434089,3.494528,2.319725,3.288040,2.212388,3.077813,2.112199,2.864087,2.019272,2.647105,1.933714,2.427114,1.855620,2.204363,1.785081,1.979106,1.722176,1.751599,1.666977,1.522100,1.619546,1.290871,1.579937,1.058175,1.548197,0.824275,1.524359,0.589438,1.508453,0.353931,1.500495,0.118022,1.500495,-0.118022,1.508453,-0.353931,1.524359,-0.589438,1.548197,-0.824275,
1.579937,-1.058175,1.619546,-1.290871,1.666977,-1.522100,1.722176,-1.751599,1.785081,-1.979106,1.855620,-2.204363,1.933714,-2.427114,2.019272,-2.647105,2.112199,-2.864087,2.212388,-3.077813,2.319725,-3.288040,2.434089,-3.494528,2.555350,-3.697044,2.683368,-3.895356,2.818000,-4.089239,2.959092,-4.278474,3.106483,-4.462844,3.260006,-4.642140,3.419487,-4.816159,3.584744,-4.984702,
3.755588,-5.147578,3.931827,-5.304602,4.113260,-5.455594,4.299680,-5.600385,4.490875,-5.738808,4.686628,-5.870706,4.886716,-5.995930,5.090913,-6.114338,5.298986,-6.225794,5.510697,-6.330171,5.725808,-6.427352,5.834751,-6.472747,5.794950,-9.106740,5.667156,-9.068253,5.413534,-8.985033,5.162345,-8.894735,4.913785,-8.797432,4.668052,-8.693198,4.425337,-8.582116,4.185831,-8.464274,
3.949724,-8.339763,3.717199,-8.208683,3.488441,-8.071135,3.263629,-7.927229,3.042939,-7.777077,2.826546,-7.620796,2.614618,-7.458511,2.510674,-7.374796,-0.830622,-1.788612,-0.855943,-1.653916,-0.899762,-1.383332,-0.935756,-1.111597,-0.963896,-0.838936,-0.984158,-0.565577,-0.996525,-0.291747,-1.000988,-0.017674,-0.997541,0.256413,-0.986189,0.530287,-0.966941,0.803719,-0.939812,1.076482,
-0.904825,1.348349,-0.862010,1.619094,-0.811401,1.888490,-0.753042,2.156315,-0.686981,2.422344,-0.613272,2.686357,-0.531978,2.948133,-0.443165,3.207455,-0.346907,3.464107,-0.243286,3.717876,-0.132387,3.968549,-0.014302,4.215918,0.110871,4.459778,0.243026,4.699925,0.382055,4.936160,0.527840,5.168285,0.680262,5.396108,0.839193,5.619439,1.004501,5.838092,1.176048,6.051885,
1.353691,6.260640,1.537283,6.464183,1.726671,6.662344,1.921696,6.854960,2.122198,7.041869,2.328008,7.222916,2.538955,7.397950,2.754864,7.566825,2.975556,7.729402,3.200845,7.885543,3.430546,8.035121,3.664466,8.178009,3.902411,8.314090,4.144183,8.443249,4.389580,8.565379,4.638399,8.680379,4.890432,8.788153,5.145469,8.888611,5.403298,8.981670,5.663704,9.067252,
5.794950,9.106740,5.834751,6.472747,5.834751,6.472747,$1*%
%AMFreePoly6*
4,1,23,0.500000,-0.750000,0.000000,-0.750000,0.000000,-0.745722,-0.065263,-0.745722,-0.191342,-0.711940,-0.304381,-0.646677,-0.396677,-0.554381,-0.461940,-0.441342,-0.495722,-0.315263,-0.495722,-0.250000,-0.500000,-0.250000,-0.500000,0.250000,-0.495722,0.250000,-0.495722,0.315263,-0.461940,0.441342,-0.396677,0.554381,-0.304381,0.646677,-0.191342,0.711940,-0.065263,0.745722,0.000000,0.745722,
0.000000,0.750000,0.500000,0.750000,0.500000,-0.750000,0.500000,-0.750000,$1*%
%AMFreePoly7*
4,1,23,0.000000,0.745722,0.065263,0.745722,0.191342,0.711940,0.304381,0.646677,0.396677,0.554381,0.461940,0.441342,0.495722,0.315263,0.495722,0.250000,0.500000,0.250000,0.500000,-0.250000,0.495722,-0.250000,0.495722,-0.315263,0.461940,-0.441342,0.396677,-0.554381,0.304381,-0.646677,0.191342,-0.711940,0.065263,-0.745722,0.000000,-0.745722,0.000000,-0.750000,-0.500000,-0.750000,
-0.500000,0.750000,0.000000,0.750000,0.000000,0.745722,0.000000,0.745722,$1*%
G04 Aperture macros list end*
%TA.AperFunction,ComponentPad*%
%ADD10O,2.900000X9.000000*%
%TD*%
%TA.AperFunction,SMDPad,CuDef*%
%ADD11FreePoly0,270.000000*%
%TD*%
%TA.AperFunction,SMDPad,CuDef*%
%ADD12FreePoly1,270.000000*%
%TD*%
%TA.AperFunction,SMDPad,CuDef*%
%ADD13FreePoly2,90.000000*%
%TD*%
%TA.AperFunction,SMDPad,CuDef*%
%ADD14FreePoly3,90.000000*%
%TD*%
%TA.AperFunction,ComponentPad*%
%ADD15Outline4P,-1.700000X-2.000000X1.700000X-3.000000X1.700000X3.000000X-1.700000X2.000000X0.000000*%
%TD*%
%TA.AperFunction,ComponentPad*%
%ADD16Outline4P,-1.700000X-2.000000X1.700000X-3.000000X1.700000X3.000000X-1.700000X2.000000X180.000000*%
%TD*%
%TA.AperFunction,ComponentPad*%
%ADD17C,8.000000*%
%TD*%
%TA.AperFunction,SMDPad,CuDef*%
%ADD18FreePoly4,270.000000*%
%TD*%
%TA.AperFunction,SMDPad,CuDef*%
%ADD19FreePoly2,0.000000*%
%TD*%
%TA.AperFunction,SMDPad,CuDef*%
%ADD20FreePoly3,0.000000*%
%TD*%
%TA.AperFunction,SMDPad,CuDef*%
%ADD21FreePoly5,270.000000*%
%TD*%
%TA.AperFunction,SMDPad,CuDef*%
%ADD22FreePoly2,60.000000*%
%TD*%
%TA.AperFunction,SMDPad,CuDef*%
%ADD23FreePoly3,60.000000*%
%TD*%
%TA.AperFunction,ComponentPad*%
%ADD24O,4.900000X3.000000*%
%TD*%
%TA.AperFunction,SMDPad,CuDef*%
%ADD25FreePoly6,180.000000*%
%TD*%
%TA.AperFunction,SMDPad,CuDef*%
%ADD26FreePoly7,180.000000*%
%TD*%
%TA.AperFunction,ComponentPad*%
%ADD27C,1.524000*%
%TD*%
%TA.AperFunction,WasherPad*%
%ADD28C,2.210000*%
%TD*%
%TA.AperFunction,ComponentPad*%
%ADD29C,2.400000*%
%TD*%
%TA.AperFunction,ComponentPad*%
%ADD30C,1.600000*%
%TD*%
%TA.AperFunction,ViaPad*%
%ADD31C,2.400000*%
%TD*%
%TA.AperFunction,Conductor*%
%ADD32C,1.000000*%
%TD*%
%TA.AperFunction,Conductor*%
%ADD33C,1.500000*%
%TD*%
%TA.AperFunction,Conductor*%
%ADD34C,0.500000*%
%TD*%
%TA.AperFunction,Conductor*%
%ADD35C,2.000000*%
%TD*%
G04 APERTURE END LIST*
D10*
%TO.P,J5,1,Pin_1*%
%TO.N,GNDPWR*%
X239500000Y-197104000D03*
%TO.P,J5,2,Pin_2*%
%TO.N,Brake_wear_ind+*%
X236000000Y-197104000D03*
%TO.P,J5,3,Pin_3*%
%TO.N,Temp_gauge*%
X232500000Y-197104000D03*
%TO.P,J5,4,Pin_4*%
%TO.N,Brake_wear_sig+*%
X229000000Y-197104000D03*
%TO.P,J5,5,Pin_5*%
%TO.N,SI_RST*%
X225500000Y-197104000D03*
%TO.P,J5,6,Pin_6*%
%TO.N,Eng_temp_sensor*%
X222000000Y-197104000D03*
%TO.P,J5,7,Pin_7*%
%TO.N,+12 T15*%
X218500000Y-197104000D03*
%TO.P,J5,12,Pin_12*%
%TO.N,START*%
X201000000Y-197104000D03*
%TO.P,J5,13,Pin_13*%
%TO.N,+12 T30*%
X197500000Y-197104000D03*
%TO.P,J5,14,Pin_14*%
%TO.N,+5V*%
X194000000Y-197104000D03*
%TO.P,J5,15,Pin_15*%
%TO.N,Distance_pulse*%
X190500000Y-197104000D03*
%TO.P,J5,16,Pin_16*%
%TO.N,Speed_pulse*%
X187000000Y-197104000D03*
%TO.P,J5,17,Pin_17*%
%TO.N,cylinder_count*%
X183500000Y-197104000D03*
%TO.P,J5,18,Pin_18*%
%TO.N,unconnected-(J5-Pin_18-Pad18)*%
X180000000Y-197104000D03*
%TO.P,J5,19,Pin_19*%
%TO.N,Brake_wear_sig-*%
X176500000Y-197104000D03*
%TD*%
D11*
%TO.P,LA13b1,1,-*%
%TO.N,Illum+*%
X319786000Y-164900000D03*
D12*
%TO.P,LA13b1,2,+*%
%TO.N,Illum-*%
X319786000Y-181900000D03*
%TD*%
D13*
%TO.P,LA12,1,-*%
%TO.N,Oil_pressure_ind-*%
X344346000Y-187706000D03*
D14*
%TO.P,LA12,2,+*%
%TO.N,+12 T15*%
X355346000Y-187706000D03*
%TD*%
D15*
%TO.P,U2,1,Vcc*%
%TO.N,Net-(U2-Vcc)*%
X59000000Y-171958000D03*
D16*
X66000000Y-171958000D03*
D17*
%TO.P,U2,2,GND*%
%TO.N,GNDPWR*%
X62500000Y-161958000D03*
D15*
%TO.P,U2,3,Vout*%
%TO.N,Fuel_level*%
X59000000Y-151958000D03*
D16*
X66000000Y-151958000D03*
%TD*%
D15*
%TO.P,U1,1,Vcc*%
%TO.N,Net-(U1-Vcc)*%
X350068000Y-171958000D03*
D16*
X357068000Y-171958000D03*
D17*
%TO.P,U1,2,GND*%
%TO.N,GNDPWR*%
X353568000Y-161958000D03*
D15*
%TO.P,U1,3,Vout*%
%TO.N,Temp_gauge*%
X350068000Y-151958000D03*
D16*
X357068000Y-151958000D03*
%TD*%
D11*
%TO.P,LA13a1,1,-*%
%TO.N,Illum+*%
X96400000Y-164900000D03*
D18*
%TO.P,LA13a1,2,+*%
%TO.N,Illum-*%
X96400000Y-181900000D03*
%TD*%
D19*
%TO.P,LA16,1,-*%
%TO.N,LH_ind*%
X200000000Y-68500000D03*
D20*
%TO.P,LA16,2,+*%
%TO.N,GNDPWR*%
X200000000Y-79500000D03*
%TD*%
D19*
%TO.P,LA8,1,-*%
%TO.N,GNDPWR*%
X269294000Y-182206000D03*
D20*
%TO.P,LA8,2,+*%
%TO.N,Brake_wear_ind+*%
X269294000Y-193206000D03*
%TD*%
D19*
%TO.P,LA7,1,-*%
%TO.N,Park_brake_ind-*%
X249114000Y-182206000D03*
D20*
%TO.P,LA7,2,+*%
%TO.N,+12 T15*%
X249114000Y-193206000D03*
%TD*%
D19*
%TO.P,LA9,1,-*%
%TO.N,Brake_fluid_ind-*%
X289500000Y-182206000D03*
D20*
%TO.P,LA9,2,+*%
%TO.N,+12 T15*%
X289500000Y-193206000D03*
%TD*%
D19*
%TO.P,LA5,1,-*%
%TO.N,GNDPWR*%
X147000000Y-182206000D03*
D20*
%TO.P,LA5,2,+*%
%TO.N,Rear_fog_ind+*%
X147000000Y-193206000D03*
%TD*%
D13*
%TO.P,LA17,1,-*%
%TO.N,GNDPWR*%
X202500000Y-91186000D03*
D14*
%TO.P,LA17,2,+*%
%TO.N,High_beam_ind*%
X213500000Y-91186000D03*
%TD*%
D13*
%TO.P,LA4,1,-*%
%TO.N,Fog_ind+*%
X121426000Y-187706000D03*
D14*
%TO.P,LA4,2,+*%
%TO.N,GNDPWR*%
X132426000Y-187706000D03*
%TD*%
D21*
%TO.P,LA11,1,-*%
%TO.N,Charge_Ind+*%
X329692000Y-180476000D03*
D18*
%TO.P,LA11,2,+*%
%TO.N,Charge_ind-*%
X329692000Y-197476000D03*
%TD*%
D22*
%TO.P,LA15,1,-*%
%TO.N,+12 T15*%
X203236860Y-162750000D03*
D23*
%TO.P,LA15,2,+*%
%TO.N,Check_Control_ind*%
X212763140Y-168250000D03*
%TD*%
D24*
%TO.P,J4,1,Pin_1*%
%TO.N,+12 T15*%
X222250000Y-102870000D03*
%TO.P,J4,2,Pin_2*%
%TO.N,Fuel_rate_input*%
X222250000Y-106370000D03*
%TO.P,J4,3,Pin_3*%
%TO.N,GNDPWR*%
X222250000Y-109870000D03*
%TO.P,J4,4,Pin_4*%
%TO.N,Wheel_spd_output*%
X222250000Y-113370000D03*
%TO.P,J4,5,Pin_5*%
%TO.N,+12 T15_ACC*%
X222250000Y-116870000D03*
%TO.P,J4,6,Pin_6*%
%TO.N,cylinder_count*%
X222250000Y-120370000D03*
%TO.P,J4,7,Pin_7*%
%TO.N,Speed_pulse*%
X222250000Y-123870000D03*
%TO.P,J4,8,Pin_8*%
%TO.N,Distance_pulse*%
X222250000Y-127370000D03*
%TO.P,J4,9,Pin_9*%
%TO.N,+5V*%
X222250000Y-130870000D03*
%TO.P,J4,10,Pin_10*%
%TO.N,+12 T30*%
X222250000Y-134370000D03*
%TO.P,J4,11,Pin_11*%
%TO.N,Engine_spd_input*%
X222250000Y-137870000D03*
%TO.P,J4,12,Pin_12*%
%TO.N,Charge_ind-*%
X213250000Y-106370000D03*
%TO.P,J4,13,Pin_13*%
%TO.N,GNDPWR*%
X213250000Y-109870000D03*
%TO.P,J4,14,Pin_14*%
%TO.N,Wheel_spd_input*%
X213250000Y-113370000D03*
%TO.P,J4,15,Pin_15*%
%TO.N,Wheel_spd_output*%
X213250000Y-116870000D03*
%TO.P,J4,16,Pin_16*%
%TO.N,+12 T15_ACC*%
X213250000Y-120370000D03*
%TD*%
D13*
%TO.P,LA14,1,-*%
%TO.N,+12 T15*%
X37500000Y-150000000D03*
D14*
%TO.P,LA14,2,+*%
%TO.N,Low_Fuel_ind-*%
X48500000Y-150000000D03*
%TD*%
D19*
%TO.P,LA18,1,-*%
%TO.N,RH_ind*%
X216000000Y-68500000D03*
D20*
%TO.P,LA18,2,+*%
%TO.N,GNDPWR*%
X216000000Y-79500000D03*
%TD*%
D25*
%TO.P,JP1,1,A*%
%TO.N,Temp_gauge*%
X229646000Y-189230000D03*
D26*
%TO.P,JP1,2,B*%
%TO.N,Eng_temp_sensor*%
X228346000Y-189230000D03*
%TD*%
D13*
%TO.P,LA20,1,-*%
%TO.N,+12 T15*%
X369150000Y-151000000D03*
D14*
%TO.P,LA20,2,+*%
%TO.N,Overheat_ind-*%
X380150000Y-151000000D03*
%TD*%
D27*
%TO.P,J2,1,1*%
%TO.N,Park_brake_ind-*%
X79460000Y-154000000D03*
%TO.P,J2,2,2*%
%TO.N,unconnected-(J2-Pad2)*%
X79460000Y-151460000D03*
%TO.P,J2,3,3*%
%TO.N,GNDPWR*%
X79460000Y-148920000D03*
%TO.P,J2,4,4*%
%TO.N,Fuel_level*%
X79460000Y-146380000D03*
%TO.P,J2,5,5*%
%TO.N,Low_Fuel_ind-*%
X79460000Y-143840000D03*
%TO.P,J2,6,6*%
%TO.N,+12 T15*%
X79460000Y-141300000D03*
%TO.P,J2,7,7*%
%TO.N,LH_ind*%
X79460000Y-138760000D03*
%TO.P,J2,8,8*%
%TO.N,GNDPWR*%
X79460000Y-136220000D03*
%TO.P,J2,9,9*%
%TO.N,unconnected-(J2-Pad9)*%
X79460000Y-133680000D03*
%TO.P,J2,10,10*%
%TO.N,unconnected-(J2-Pad10)*%
X79460000Y-131140000D03*
%TO.P,J2,11,11*%
%TO.N,unconnected-(J2-Pad11)*%
X79460000Y-128600000D03*
%TO.P,J2,12,12*%
%TO.N,Wheel_spd_input*%
X79460000Y-126060000D03*
%TO.P,J2,13,13*%
%TO.N,+12 T15_ACC*%
X79460000Y-123520000D03*
%TO.P,J2,14,14*%
%TO.N,Rear_fog_ind+*%
X82000000Y-154000000D03*
%TO.P,J2,15,15*%
%TO.N,unconnected-(J2-Pad15)*%
X82000000Y-151460000D03*
%TO.P,J2,16,16*%
%TO.N,GNDPWR*%
X82000000Y-148920000D03*
%TO.P,J2,17,17*%
%TO.N,unconnected-(J2-Pad17)*%
X82000000Y-146380000D03*
%TO.P,J2,18,18*%
%TO.N,unconnected-(J2-Pad18)*%
X82000000Y-143840000D03*
%TO.P,J2,19,19*%
%TO.N,unconnected-(J2-Pad19)*%
X82000000Y-141300000D03*
%TO.P,J2,20,20*%
%TO.N,unconnected-(J2-Pad20)*%
X82000000Y-138760000D03*
%TO.P,J2,21,21*%
%TO.N,GNDPWR*%
X82000000Y-136220000D03*
%TO.P,J2,22,22*%
%TO.N,Fog_ind+*%
X82000000Y-133680000D03*
%TO.P,J2,23,23*%
%TO.N,Illum-*%
X82000000Y-131140000D03*
%TO.P,J2,24,24*%
%TO.N,Illum+*%
X82000000Y-128600000D03*
%TO.P,J2,25,25*%
%TO.N,+5V*%
X82000000Y-126060000D03*
%TO.P,J2,26,26*%
%TO.N,Brake_wear_sig-*%
X82000000Y-123520000D03*
%TD*%
D28*
%TO.P,J3,*%
%TO.N,*%
X233860000Y-185540000D03*
D27*
%TO.P,J3,1,1*%
%TO.N,GNDPWR*%
X230860000Y-183540000D03*
%TO.P,J3,2,2*%
%TO.N,+12 T15*%
X228320000Y-183540000D03*
%TO.P,J3,3,3*%
%TO.N,unconnected-(J3-Pad3)*%
X225780000Y-183540000D03*
%TO.P,J3,4,4*%
%TO.N,Low_Fuel_ind-*%
X223240000Y-183540000D03*
%TO.P,J3,5,5*%
%TO.N,Fuel_level*%
X220700000Y-183540000D03*
%TO.P,J3,6,6*%
%TO.N,Park_brake_ind-*%
X218160000Y-183540000D03*
%TO.P,J3,7,7*%
%TO.N,Illum-*%
X215620000Y-183540000D03*
%TO.P,J3,8,8*%
%TO.N,Illum+*%
X213080000Y-183540000D03*
%TO.P,J3,9,9*%
%TO.N,START*%
X210540000Y-183540000D03*
%TO.P,J3,10,10*%
%TO.N,+12 T30*%
X208000000Y-183540000D03*
%TO.P,J3,11,11*%
%TO.N,Engine_spd_input*%
X205460000Y-183540000D03*
%TO.P,J3,12,12*%
%TO.N,unconnected-(J3-Pad12)*%
X202920000Y-183540000D03*
%TO.P,J3,13,13*%
%TO.N,+12 T15_ACC*%
X200380000Y-183540000D03*
%TO.P,J3,14,14*%
%TO.N,+12 T15*%
X230860000Y-181000000D03*
%TO.P,J3,15,15*%
X228320000Y-181000000D03*
%TO.P,J3,16,16*%
%TO.N,unconnected-(J3-Pad16)*%
X225780000Y-181000000D03*
%TO.P,J3,17,17*%
%TO.N,unconnected-(J3-Pad17)*%
X223240000Y-181000000D03*
%TO.P,J3,18,18*%
%TO.N,unconnected-(J3-Pad18)*%
X220700000Y-181000000D03*
%TO.P,J3,19,19*%
%TO.N,Park_brake_ind-*%
X218160000Y-181000000D03*
%TO.P,J3,20,20*%
%TO.N,Illum-*%
X215620000Y-181000000D03*
%TO.P,J3,21,21*%
%TO.N,Illum+*%
X213080000Y-181000000D03*
%TO.P,J3,22,22*%
%TO.N,START*%
X210540000Y-181000000D03*
%TO.P,J3,23,23*%
%TO.N,+12 T30*%
X208000000Y-181000000D03*
%TO.P,J3,24,24*%
%TO.N,Engine_spd_input*%
X205460000Y-181000000D03*
%TO.P,J3,25,25*%
%TO.N,Fuel_rate_input*%
X202920000Y-181000000D03*
%TO.P,J3,26,26*%
%TO.N,Wheel_spd_output*%
X200380000Y-181000000D03*
%TD*%
D28*
%TO.P,J1,*%
%TO.N,*%
X332960000Y-142860000D03*
X338500000Y-156260000D03*
D27*
%TO.P,J1,1,1*%
%TO.N,START*%
X334960000Y-154000000D03*
%TO.P,J1,2,2*%
%TO.N,+12 T30*%
X334960000Y-151460000D03*
%TO.P,J1,3,3*%
%TO.N,Charge_ind-*%
X334960000Y-148920000D03*
%TO.P,J1,4,4*%
%TO.N,Check_Control_ind*%
X334960000Y-146380000D03*
%TO.P,J1,5,5*%
%TO.N,unconnected-(J1-Pad5)*%
X334960000Y-143840000D03*
%TO.P,J1,6,6*%
%TO.N,+12 T15*%
X334960000Y-141300000D03*
%TO.P,J1,7,7*%
%TO.N,RAW_RPM_input*%
X334960000Y-138760000D03*
%TO.P,J1,8,8*%
%TO.N,unconnected-(J1-Pad8)*%
X334960000Y-136220000D03*
%TO.P,J1,9,9*%
%TO.N,unconnected-(J1-Pad9)*%
X334960000Y-133680000D03*
%TO.P,J1,10,10*%
%TO.N,+12 T15*%
X334960000Y-131140000D03*
%TO.P,J1,11,11*%
%TO.N,Fuel_rate_input*%
X334960000Y-128600000D03*
%TO.P,J1,12,12*%
%TO.N,High_beam_ind*%
X334960000Y-126060000D03*
%TO.P,J1,13,13*%
%TO.N,RH_ind*%
X334960000Y-123520000D03*
%TO.P,J1,14,14*%
%TO.N,Charge_Ind+*%
X337500000Y-154000000D03*
%TO.P,J1,15,15*%
%TO.N,unconnected-(J1-Pad15)*%
X337500000Y-151460000D03*
%TO.P,J1,16,16*%
%TO.N,Charge_ind-*%
X337500000Y-148920000D03*
%TO.P,J1,17,17*%
%TO.N,Brake_fluid_ind-*%
X337500000Y-146380000D03*
%TO.P,J1,18,18*%
%TO.N,Oil_pressure_ind-*%
X337500000Y-143840000D03*
%TO.P,J1,19,19*%
%TO.N,+12 T15*%
X337500000Y-141300000D03*
%TO.P,J1,20,20*%
%TO.N,GNDPWR*%
X337500000Y-138760000D03*
%TO.P,J1,21,21*%
%TO.N,Brake_wear_sig+*%
X337500000Y-136220000D03*
%TO.P,J1,22,22*%
%TO.N,SI_RST*%
X337500000Y-133680000D03*
%TO.P,J1,23,23*%
%TO.N,+12 T15*%
X337500000Y-131140000D03*
%TO.P,J1,24,24*%
%TO.N,unconnected-(J1-Pad24)*%
X337500000Y-128600000D03*
%TO.P,J1,25,25*%
%TO.N,Overheat_ind-*%
X337500000Y-126060000D03*
%TO.P,J1,26,26*%
%TO.N,Eng_temp_sensor*%
X337500000Y-123520000D03*
%TD*%
D29*
%TO.P,R2,1*%
%TO.N,+12 T15*%
X364000000Y-151840000D03*
%TO.P,R2,2*%
%TO.N,Net-(U1-Vcc)*%
X364000000Y-172160000D03*
%TD*%
%TO.P,R4,1*%
%TO.N,Charge_Ind+*%
X337312000Y-162814000D03*
%TO.P,R4,2*%
%TO.N,Charge_ind-*%
X337312000Y-178054000D03*
%TD*%
%TO.P,R3,1*%
%TO.N,+12 T15*%
X52070000Y-151638000D03*
%TO.P,R3,2*%
%TO.N,Net-(U2-Vcc)*%
X52070000Y-171958000D03*
%TD*%
D30*
%TO.P,R1,1*%
%TO.N,Engine_spd_input*%
X320294000Y-149606000D03*
%TO.P,R1,2*%
%TO.N,RAW_RPM_input*%
X320294000Y-139446000D03*
%TD*%
D31*
%TO.N,Charge_ind-*%
X323342000Y-146812000D03*
X323342000Y-131826000D03*
%TO.N,Fuel_rate_input*%
X226060000Y-150114000D03*
X226060000Y-165100000D03*
%TO.N,GNDPWR*%
X347000000Y-140000000D03*
X347000000Y-124100000D03*
%TD*%
D32*
%TO.N,Charge_Ind+*%
X336500000Y-155000000D02*
X337500000Y-154000000D01*
X335788000Y-164338000D02*
X337312000Y-162814000D01*
X335788000Y-174380000D02*
X329692000Y-180476000D01*
X337312000Y-162814000D02*
X336500000Y-162002000D01*
X336500000Y-162002000D02*
X336500000Y-155000000D01*
X335788000Y-174380000D02*
X335788000Y-164338000D01*
%TO.N,SI_RST*%
X373126000Y-178562000D02*
X362204000Y-189484000D01*
X362204000Y-189484000D02*
X358902000Y-202438000D01*
X368808000Y-158242000D02*
X373126000Y-162560000D01*
X349250000Y-207518000D02*
X347726000Y-209042000D01*
X361696000Y-146050000D02*
X361696000Y-155448000D01*
X253238000Y-209550000D02*
X230886000Y-209550000D01*
X350326000Y-134680000D02*
X361696000Y-146050000D01*
X358902000Y-202438000D02*
X353822000Y-207518000D01*
X230886000Y-209550000D02*
X225279602Y-203943602D01*
X350326000Y-134680000D02*
X338500000Y-134680000D01*
X225279602Y-203943602D02*
X225279602Y-197824398D01*
X353822000Y-207518000D02*
X349250000Y-207518000D01*
X253746000Y-209042000D02*
X253238000Y-209550000D01*
X364490000Y-158242000D02*
X368808000Y-158242000D01*
X373126000Y-162560000D02*
X373126000Y-178562000D01*
X347726000Y-209042000D02*
X253746000Y-209042000D01*
X361696000Y-155448000D02*
X364490000Y-158242000D01*
X225279602Y-197824398D02*
X226000000Y-197104000D01*
X338500000Y-134680000D02*
X337500000Y-133680000D01*
%TO.N,Charge_ind-*%
X291084000Y-74930000D02*
X283972000Y-72390000D01*
X337312000Y-165862000D02*
X339413000Y-163761000D01*
X329692000Y-197476000D02*
X336178000Y-197476000D01*
X224282000Y-89154000D02*
X224282000Y-89408000D01*
X224282000Y-85090000D02*
X224282000Y-89154000D01*
X213106000Y-100584000D02*
X213106000Y-106426000D01*
X224536000Y-84836000D02*
X224282000Y-85090000D01*
X336178000Y-197476000D02*
X340106000Y-193548000D01*
X337500000Y-148920000D02*
X334960000Y-148920000D01*
X323342000Y-146812000D02*
X325450000Y-148920000D01*
X337312000Y-181356000D02*
X337312000Y-178054000D01*
X274066000Y-70104000D02*
X239268000Y-70104000D01*
X340106000Y-184150000D02*
X337312000Y-181356000D01*
X302768000Y-81534000D02*
X291084000Y-74930000D01*
X339413000Y-163761000D02*
X339413000Y-161475000D01*
X325450000Y-148920000D02*
X334960000Y-148920000D01*
X325374000Y-126492000D02*
X325374000Y-104648000D01*
X283972000Y-72390000D02*
X274066000Y-70104000D01*
X341884000Y-150876000D02*
X339928000Y-148920000D01*
X325374000Y-104648000D02*
X302768000Y-81534000D01*
X337312000Y-178054000D02*
X337312000Y-165862000D01*
X213360000Y-100330000D02*
X213106000Y-100584000D01*
X323342000Y-131826000D02*
X323342000Y-128524000D01*
X341884000Y-159004000D02*
X341884000Y-150876000D01*
X224282000Y-89408000D02*
X213360000Y-100330000D01*
X323342000Y-128524000D02*
X325374000Y-126492000D01*
X339928000Y-148920000D02*
X337500000Y-148920000D01*
X339413000Y-161475000D02*
X341884000Y-159004000D01*
X239268000Y-70104000D02*
X224536000Y-84836000D01*
X340106000Y-193548000D02*
X340106000Y-184150000D01*
%TO.N,Fuel_rate_input*%
X320802000Y-133096000D02*
X322072000Y-134366000D01*
X226060000Y-146558000D02*
X228854000Y-143764000D01*
X320802000Y-127000000D02*
X320802000Y-133096000D01*
X322072000Y-125730000D02*
X320802000Y-127000000D01*
X222250000Y-106370000D02*
X219146000Y-106370000D01*
X228854000Y-108204000D02*
X227020000Y-106370000D01*
X202920000Y-176302000D02*
X205486000Y-173736000D01*
X202920000Y-181000000D02*
X202920000Y-176302000D01*
X226060000Y-150114000D02*
X226060000Y-146558000D01*
X240284000Y-71882000D02*
X272542000Y-71882000D01*
X227330000Y-84836000D02*
X240284000Y-71882000D01*
X227020000Y-106370000D02*
X222250000Y-106370000D01*
X219146000Y-106370000D02*
X218186000Y-105410000D01*
X272542000Y-71882000D02*
X283210000Y-74168000D01*
X218948000Y-165100000D02*
X226060000Y-165100000D01*
X331648000Y-128600000D02*
X334960000Y-128600000D01*
X322072000Y-134366000D02*
X325882000Y-134366000D01*
X322072000Y-104140000D02*
X322072000Y-125730000D01*
X227330000Y-90678000D02*
X227330000Y-84836000D01*
X291084000Y-77216000D02*
X300990000Y-83058000D01*
X325882000Y-134366000D02*
X331648000Y-128600000D01*
X205486000Y-173736000D02*
X210312000Y-173736000D01*
X210312000Y-173736000D02*
X218948000Y-165100000D01*
X300990000Y-83058000D02*
X322072000Y-104140000D01*
X283210000Y-74168000D02*
X291084000Y-77216000D01*
X218186000Y-99822000D02*
X227330000Y-90678000D01*
X228854000Y-143764000D02*
X228854000Y-108204000D01*
X218186000Y-105410000D02*
X218186000Y-99822000D01*
%TO.N,START*%
X237744000Y-175006000D02*
X300736000Y-175006000D01*
X210540000Y-180366000D02*
X218948000Y-171958000D01*
X300736000Y-175006000D02*
X318008000Y-157734000D01*
X210540000Y-183540000D02*
X210540000Y-181000000D01*
X330632000Y-154000000D02*
X334960000Y-154000000D01*
X218948000Y-171958000D02*
X234696000Y-171958000D01*
X210540000Y-181000000D02*
X210540000Y-180366000D01*
X201500000Y-192580000D02*
X201500000Y-197104000D01*
X326898000Y-157734000D02*
X330632000Y-154000000D01*
X234696000Y-171958000D02*
X237744000Y-175006000D01*
X210540000Y-183540000D02*
X201500000Y-192580000D01*
X318008000Y-157734000D02*
X326898000Y-157734000D01*
%TO.N,Oil_pressure_ind-*%
X343000000Y-164746000D02*
X344424000Y-163322000D01*
X344424000Y-163322000D02*
X344424000Y-148336000D01*
X344424000Y-148336000D02*
X339928000Y-143840000D01*
X343000000Y-186360000D02*
X343000000Y-164746000D01*
X339928000Y-143840000D02*
X337500000Y-143840000D01*
X344346000Y-187706000D02*
X343000000Y-186360000D01*
D33*
%TO.N,GNDPWR*%
X334772000Y-107169609D02*
X313500000Y-85897609D01*
X244000000Y-197500000D02*
X247500000Y-197500000D01*
X72390000Y-151638000D02*
X72390000Y-156210000D01*
D32*
X132426000Y-187706000D02*
X135128000Y-187706000D01*
X355092000Y-195580000D02*
X358140000Y-184658000D01*
X337500000Y-138760000D02*
X345760000Y-138760000D01*
D33*
X117500000Y-75500000D02*
X189000000Y-75500000D01*
D32*
X81788000Y-200406000D02*
X76200000Y-194818000D01*
D33*
X281178000Y-201930000D02*
X277876000Y-198628000D01*
X221500000Y-82500000D02*
X214500000Y-82500000D01*
X346456000Y-168656000D02*
X353060000Y-162052000D01*
X214500000Y-81000000D02*
X215937981Y-79562019D01*
D32*
X76200000Y-170942000D02*
X85344000Y-161798000D01*
D33*
X195500000Y-82000000D02*
X202437981Y-88937981D01*
X222250000Y-109870000D02*
X213250000Y-109870000D01*
X342138000Y-202946000D02*
X304546000Y-202946000D01*
X357124000Y-176784000D02*
X347980000Y-176784000D01*
X211216000Y-109870000D02*
X209550000Y-108204000D01*
D32*
X85344000Y-148590000D02*
X85344000Y-139564000D01*
D33*
X214500000Y-82500000D02*
X214500000Y-81000000D01*
X353060000Y-162052000D02*
X353568000Y-162052000D01*
D32*
X82000000Y-148920000D02*
X85014000Y-148920000D01*
D33*
X76911000Y-136220000D02*
X71628000Y-130937000D01*
D32*
X137580000Y-182206000D02*
X135128000Y-184658000D01*
D33*
X304546000Y-202946000D02*
X303530000Y-201930000D01*
X202500000Y-94763629D02*
X202500000Y-91910120D01*
X305562000Y-77978000D02*
X293370000Y-71628000D01*
D32*
X135128000Y-196088000D02*
X130810000Y-200406000D01*
D33*
X248882000Y-198882000D02*
X258318000Y-198882000D01*
X209550000Y-108204000D02*
X209550000Y-101813629D01*
X347000000Y-124100000D02*
X346350000Y-124100000D01*
X68580000Y-160020000D02*
X63754000Y-160020000D01*
X189000000Y-75500000D02*
X196000000Y-82500000D01*
X277876000Y-184376000D02*
X275706000Y-182206000D01*
X71628000Y-130937000D02*
X71628000Y-121372000D01*
X303530000Y-201930000D02*
X281178000Y-201930000D01*
X346350000Y-124100000D02*
X334772000Y-112522000D01*
X275706000Y-182206000D02*
X270018118Y-182206000D01*
D32*
X347403000Y-155887000D02*
X347403000Y-140403000D01*
D33*
X236220000Y-189992000D02*
X240000000Y-193772000D01*
D32*
X76200000Y-194818000D02*
X76200000Y-170942000D01*
D33*
X196000000Y-82500000D02*
X198937981Y-79562019D01*
X358140000Y-177800000D02*
X357124000Y-176784000D01*
D32*
X82000000Y-148920000D02*
X79460000Y-148920000D01*
D33*
X346456000Y-175260000D02*
X346456000Y-168656000D01*
X277876000Y-198628000D02*
X277876000Y-184376000D01*
X240000000Y-197104000D02*
X240000000Y-201500000D01*
D32*
X85014000Y-148920000D02*
X85344000Y-148590000D01*
D33*
X71628000Y-121372000D02*
X117500000Y-75500000D01*
D32*
X345760000Y-138760000D02*
X347000000Y-140000000D01*
D33*
X313500000Y-85897609D02*
X305562000Y-77978000D01*
X247500000Y-197500000D02*
X248882000Y-198882000D01*
X215937981Y-79562019D02*
X215993702Y-79567238D01*
X62286000Y-161488000D02*
X62286000Y-161958000D01*
X198937981Y-79562019D02*
X199937981Y-79562019D01*
X213250000Y-109870000D02*
X211216000Y-109870000D01*
D32*
X82000000Y-136220000D02*
X79460000Y-136220000D01*
D33*
X240000000Y-193772000D02*
X240000000Y-197104000D01*
X346202000Y-198882000D02*
X342138000Y-202946000D01*
X209550000Y-101813629D02*
X202500000Y-94763629D01*
X237500000Y-66500000D02*
X221500000Y-82500000D01*
D32*
X85344000Y-139564000D02*
X82000000Y-136220000D01*
D33*
X293370000Y-71628000D02*
X277000000Y-66500000D01*
X79460000Y-148920000D02*
X75108000Y-148920000D01*
X260858000Y-184142000D02*
X262500000Y-182500000D01*
X196000000Y-82500000D02*
X197095789Y-82500000D01*
D32*
X85344000Y-161798000D02*
X85344000Y-148590000D01*
D33*
X258318000Y-198882000D02*
X260858000Y-196342000D01*
D32*
X347403000Y-140403000D02*
X347000000Y-140000000D01*
D33*
X355092000Y-195580000D02*
X351790000Y-198882000D01*
X351790000Y-198882000D02*
X346202000Y-198882000D01*
D32*
X353568000Y-162052000D02*
X347403000Y-155887000D01*
D33*
X202437981Y-88937981D02*
X202437981Y-91123981D01*
D32*
X137580000Y-182206000D02*
X147000000Y-182206000D01*
D33*
X230860000Y-183540000D02*
X230860000Y-186156000D01*
X230860000Y-186156000D02*
X234696000Y-189992000D01*
X214500000Y-82500000D02*
X197095789Y-82500000D01*
X260858000Y-196342000D02*
X260858000Y-184142000D01*
X358140000Y-184658000D02*
X358140000Y-177800000D01*
X199937981Y-79562019D02*
X199993702Y-79567238D01*
X277000000Y-66500000D02*
X237500000Y-66500000D01*
X334772000Y-112522000D02*
X334772000Y-107169609D01*
D32*
X130810000Y-200406000D02*
X81788000Y-200406000D01*
D33*
X75108000Y-148920000D02*
X72390000Y-151638000D01*
X240000000Y-201500000D02*
X244000000Y-197500000D01*
X262500000Y-182500000D02*
X267339190Y-182500000D01*
X347980000Y-176784000D02*
X346456000Y-175260000D01*
D32*
X135128000Y-184658000D02*
X135128000Y-196088000D01*
D33*
X79460000Y-136220000D02*
X76911000Y-136220000D01*
X234696000Y-189992000D02*
X236220000Y-189992000D01*
X72390000Y-156210000D02*
X68580000Y-160020000D01*
X196000000Y-82500000D02*
X195500000Y-82000000D01*
X63754000Y-160020000D02*
X62286000Y-161488000D01*
D32*
%TO.N,Eng_temp_sensor*%
X383794000Y-143764000D02*
X368808000Y-128778000D01*
X222500000Y-197104000D02*
X221779602Y-197824398D01*
X228600000Y-211328000D02*
X353568000Y-211328000D01*
X345186000Y-128778000D02*
X339928000Y-123520000D01*
X368808000Y-128778000D02*
X345186000Y-128778000D01*
X221779602Y-204507602D02*
X228600000Y-211328000D01*
X383794000Y-161036000D02*
X383794000Y-143764000D01*
X353568000Y-211328000D02*
X359918000Y-204978000D01*
X376428000Y-168402000D02*
X383794000Y-161036000D01*
X339928000Y-123520000D02*
X337500000Y-123520000D01*
X376428000Y-178308000D02*
X376428000Y-168402000D01*
X221779602Y-197824398D02*
X221779602Y-204507602D01*
X363728000Y-191008000D02*
X376428000Y-178308000D01*
X221779602Y-193764398D02*
X226314000Y-189230000D01*
X226314000Y-189230000D02*
X228346000Y-189230000D01*
X359918000Y-204978000D02*
X363728000Y-191008000D01*
%TO.N,Check_Control_ind*%
X298958000Y-170180000D02*
X240284000Y-170180000D01*
X240284000Y-170180000D02*
X234950000Y-164846000D01*
X228092000Y-162052000D02*
X218961140Y-162052000D01*
X218961140Y-162052000D02*
X212763140Y-168250000D01*
X324866000Y-144272000D02*
X326974000Y-146380000D01*
X234950000Y-164846000D02*
X230886000Y-164846000D01*
X326974000Y-146380000D02*
X334960000Y-146380000D01*
X324866000Y-144272000D02*
X321056000Y-144272000D01*
X318008000Y-147320000D02*
X318008000Y-151130000D01*
X318008000Y-151130000D02*
X298958000Y-170180000D01*
X230886000Y-164846000D02*
X228092000Y-162052000D01*
X321056000Y-144272000D02*
X318008000Y-147320000D01*
%TO.N,+12 T30*%
X238506000Y-173482000D02*
X300228000Y-173482000D01*
X200914000Y-151638000D02*
X191262000Y-167894000D01*
X209550000Y-177038000D02*
X212090000Y-177038000D01*
X212090000Y-177038000D02*
X218948000Y-170180000D01*
X222250000Y-134370000D02*
X219960000Y-134370000D01*
X197279602Y-196383602D02*
X198000000Y-197104000D01*
X200914000Y-145542000D02*
X200914000Y-151638000D01*
X235204000Y-170180000D02*
X238506000Y-173482000D01*
X324866000Y-154940000D02*
X328346000Y-151460000D01*
X300228000Y-173482000D02*
X318770000Y-154940000D01*
X218948000Y-170180000D02*
X235204000Y-170180000D01*
X208000000Y-183540000D02*
X208000000Y-181000000D01*
X211582000Y-142748000D02*
X203708000Y-142748000D01*
X328346000Y-151460000D02*
X334960000Y-151460000D01*
X197279602Y-189659602D02*
X201880398Y-189659602D01*
X201880398Y-189659602D02*
X208000000Y-183540000D01*
X197279602Y-189659602D02*
X197279602Y-196383602D01*
X191262000Y-183642000D02*
X197279602Y-189659602D01*
X208000000Y-181000000D02*
X208000000Y-178588000D01*
X203708000Y-142748000D02*
X200914000Y-145542000D01*
X191262000Y-167894000D02*
X191262000Y-183642000D01*
X208000000Y-178588000D02*
X209550000Y-177038000D01*
X219960000Y-134370000D02*
X211582000Y-142748000D01*
X318770000Y-154940000D02*
X324866000Y-154940000D01*
%TO.N,RH_ind*%
X220500000Y-64000000D02*
X265500000Y-64000000D01*
X297500000Y-71000000D02*
X328599000Y-89599000D01*
X341057000Y-122057000D02*
X336423000Y-122057000D01*
X336423000Y-122057000D02*
X334960000Y-123520000D01*
X216000000Y-68500000D02*
X220500000Y-64000000D01*
X328599000Y-89599000D02*
X349000000Y-103000000D01*
X349000000Y-103000000D02*
X359500000Y-113500000D01*
X359500000Y-121000000D02*
X356500000Y-124000000D01*
X356500000Y-124000000D02*
X351750000Y-124000000D01*
X359500000Y-113500000D02*
X359500000Y-121000000D01*
X277083640Y-64799000D02*
X297500000Y-71000000D01*
X349750000Y-126000000D02*
X345000000Y-126000000D01*
X351750000Y-124000000D02*
X349750000Y-126000000D01*
X265500000Y-64000000D02*
X277083640Y-64799000D01*
X345000000Y-126000000D02*
X341057000Y-122057000D01*
%TO.N,Brake_wear_sig+*%
X360172000Y-148082000D02*
X348310000Y-136220000D01*
X353314000Y-204724000D02*
X357632000Y-200406000D01*
X370586000Y-168656000D02*
X363728000Y-161798000D01*
X251460000Y-207772000D02*
X251968000Y-207264000D01*
X370586000Y-178308000D02*
X370586000Y-168656000D01*
X345948000Y-207264000D02*
X348488000Y-204724000D01*
X251968000Y-207264000D02*
X345948000Y-207264000D01*
X348488000Y-204724000D02*
X353314000Y-204724000D01*
X228779602Y-203379602D02*
X233172000Y-207772000D01*
X360934000Y-187960000D02*
X370586000Y-178308000D01*
X233172000Y-207772000D02*
X251460000Y-207772000D01*
X360172000Y-157226000D02*
X360172000Y-148082000D01*
X348310000Y-136220000D02*
X337500000Y-136220000D01*
X357632000Y-200406000D02*
X360934000Y-187960000D01*
X228779602Y-197824398D02*
X228779602Y-203379602D01*
X229500000Y-197104000D02*
X228779602Y-197824398D01*
X363728000Y-161798000D02*
X363728000Y-160782000D01*
X363728000Y-160782000D02*
X360172000Y-157226000D01*
%TO.N,RAW_RPM_input*%
X334274000Y-139446000D02*
X334960000Y-138760000D01*
X320294000Y-139446000D02*
X334274000Y-139446000D01*
%TO.N,High_beam_ind*%
X274828000Y-68326000D02*
X238506000Y-68326000D01*
X334960000Y-126060000D02*
X328974000Y-126060000D01*
X328974000Y-126060000D02*
X327914000Y-125000000D01*
X284734000Y-70612000D02*
X274828000Y-68326000D01*
X327914000Y-103886000D02*
X304038000Y-80010000D01*
X327914000Y-125000000D02*
X327914000Y-103886000D01*
X304038000Y-80010000D02*
X292100000Y-73152000D01*
X215632000Y-91200000D02*
X215618000Y-91186000D01*
X238506000Y-68326000D02*
X215632000Y-91200000D01*
X292100000Y-73152000D02*
X284734000Y-70612000D01*
X215618000Y-91186000D02*
X213500000Y-91186000D01*
%TO.N,Overheat_ind-*%
X355600000Y-131826000D02*
X354838000Y-131064000D01*
X354838000Y-131064000D02*
X344678000Y-131064000D01*
X367538000Y-131826000D02*
X355600000Y-131826000D01*
X381500000Y-145788000D02*
X367538000Y-131826000D01*
X339674000Y-126060000D02*
X337500000Y-126060000D01*
X380150000Y-151000000D02*
X381500000Y-149650000D01*
X381500000Y-149650000D02*
X381500000Y-145788000D01*
X344678000Y-131064000D02*
X339674000Y-126060000D01*
%TO.N,+12 T15*%
X256794000Y-195326000D02*
X248920000Y-195326000D01*
X318262000Y-139762000D02*
X318262000Y-136652000D01*
X347472000Y-179070000D02*
X344932000Y-176530000D01*
X352044000Y-179070000D02*
X347472000Y-179070000D01*
X53000000Y-141000000D02*
X35276000Y-141000000D01*
X285242000Y-198628000D02*
X281432000Y-194818000D01*
X277368000Y-179832000D02*
X260858000Y-179832000D01*
X334960000Y-131140000D02*
X332918000Y-131140000D01*
X341630000Y-132842000D02*
X339928000Y-131140000D01*
X222250000Y-102870000D02*
X227330000Y-102870000D01*
X281432000Y-194818000D02*
X280924000Y-194310000D01*
X364840000Y-151000000D02*
X369150000Y-151000000D01*
X280924000Y-194310000D02*
X280924000Y-183642000D01*
X257810000Y-182880000D02*
X257810000Y-193802000D01*
X228320000Y-181000000D02*
X230860000Y-181000000D01*
X257810000Y-193802000D02*
X257810000Y-194310000D01*
X32766000Y-150500000D02*
X32766000Y-158496000D01*
X156972000Y-211328000D02*
X210566000Y-211328000D01*
D34*
X355346000Y-191131872D02*
X355346000Y-187706000D01*
D32*
X280924000Y-183388000D02*
X277368000Y-179832000D01*
X241300000Y-189355361D02*
X232944639Y-181000000D01*
X228320000Y-185446000D02*
X223520000Y-190246000D01*
X327406000Y-136652000D02*
X318262000Y-136652000D01*
X364000000Y-151840000D02*
X364000000Y-139210000D01*
X219000000Y-192226000D02*
X219000000Y-197104000D01*
X304748000Y-198576000D02*
X307340000Y-201168000D01*
X223520000Y-190246000D02*
X220980000Y-190246000D01*
X341452000Y-141300000D02*
X337500000Y-141300000D01*
X39500000Y-165230000D02*
X39500000Y-177930000D01*
X344170000Y-196596000D02*
X350774000Y-196596000D01*
X222250000Y-102870000D02*
X222250000Y-100076000D01*
X230647000Y-151877000D02*
X225552000Y-156972000D01*
D34*
X354200000Y-192277872D02*
X355346000Y-191131872D01*
D32*
X230378000Y-84582000D02*
X240792000Y-74168000D01*
X249114000Y-195132000D02*
X249114000Y-193206000D01*
X257810000Y-194310000D02*
X256794000Y-195326000D01*
X332918000Y-131140000D02*
X327406000Y-136652000D01*
X218279602Y-197824398D02*
X219000000Y-197104000D01*
X241300000Y-192532000D02*
X241300000Y-189355361D01*
X230647000Y-106187000D02*
X230647000Y-151877000D01*
X318262000Y-125730000D02*
X318262000Y-136652000D01*
X280924000Y-183642000D02*
X280924000Y-183388000D01*
X244094000Y-195326000D02*
X241300000Y-192532000D01*
X271526000Y-74168000D02*
X282956000Y-76454000D01*
X232944639Y-181000000D02*
X230860000Y-181000000D01*
X53000000Y-141000000D02*
X79160000Y-141000000D01*
X260858000Y-179832000D02*
X257810000Y-182880000D01*
X56896000Y-205740000D02*
X61468000Y-210312000D01*
D34*
X354200000Y-193170000D02*
X354200000Y-192277872D01*
D32*
X307340000Y-201168000D02*
X339598000Y-201168000D01*
X32766000Y-143510000D02*
X32766000Y-150500000D01*
X230378000Y-91948000D02*
X230378000Y-84582000D01*
X354584000Y-134874000D02*
X352552000Y-132842000D01*
X359664000Y-134874000D02*
X354584000Y-134874000D01*
X220980000Y-190246000D02*
X219000000Y-192226000D01*
X228320000Y-183540000D02*
X228320000Y-185446000D01*
X346202000Y-146050000D02*
X341452000Y-141300000D01*
X339928000Y-131140000D02*
X337500000Y-131140000D01*
X339598000Y-201168000D02*
X344170000Y-196596000D01*
X209000000Y-156972000D02*
X209000000Y-156986860D01*
X240792000Y-74168000D02*
X271526000Y-74168000D01*
X36500000Y-150500000D02*
X37000000Y-150000000D01*
X227330000Y-102870000D02*
X230647000Y-106187000D01*
X35276000Y-141000000D02*
X32766000Y-143510000D01*
X334664100Y-141004100D02*
X319504100Y-141004100D01*
X289000000Y-198576000D02*
X304748000Y-198576000D01*
X209000000Y-156986860D02*
X203236860Y-162750000D01*
X289000000Y-198576000D02*
X289052000Y-198628000D01*
X210566000Y-211328000D02*
X218279602Y-203614398D01*
X350774000Y-196596000D02*
X354200000Y-193170000D01*
X39500000Y-177930000D02*
X51308000Y-189738000D01*
X364000000Y-139210000D02*
X359664000Y-134874000D01*
X289052000Y-198628000D02*
X285242000Y-198628000D01*
X344932000Y-176530000D02*
X344932000Y-166624000D01*
X52070000Y-141000000D02*
X53000000Y-141000000D01*
X248920000Y-195326000D02*
X249114000Y-195132000D01*
X61468000Y-210312000D02*
X155956000Y-210312000D01*
X52070000Y-151638000D02*
X52070000Y-141000000D01*
X222250000Y-100076000D02*
X230378000Y-91948000D01*
X155956000Y-210312000D02*
X156972000Y-211328000D01*
X334960000Y-131140000D02*
X337500000Y-131140000D01*
X300228000Y-85598000D02*
X319024000Y-104394000D01*
X32766000Y-158496000D02*
X39500000Y-165230000D01*
X334960000Y-141300000D02*
X337500000Y-141300000D01*
X355346000Y-182372000D02*
X352044000Y-179070000D01*
X79160000Y-141000000D02*
X79460000Y-141300000D01*
X319024000Y-104394000D02*
X319024000Y-124968000D01*
X225552000Y-156972000D02*
X209000000Y-156972000D01*
X282956000Y-76454000D02*
X289052000Y-78740000D01*
X364000000Y-151840000D02*
X364840000Y-151000000D01*
X289052000Y-78740000D02*
X300228000Y-85598000D01*
X51308000Y-189738000D02*
X56896000Y-205740000D01*
X218279602Y-203614398D02*
X218279602Y-197824398D01*
X319504100Y-141004100D02*
X318262000Y-139762000D01*
X228320000Y-183540000D02*
X228320000Y-181000000D01*
X352552000Y-132842000D02*
X341630000Y-132842000D01*
X37000000Y-150000000D02*
X37500000Y-150000000D01*
X344932000Y-166624000D02*
X346202000Y-165354000D01*
X334960000Y-141300000D02*
X334664100Y-141004100D01*
X248920000Y-195326000D02*
X244094000Y-195326000D01*
X355346000Y-187706000D02*
X355346000Y-182372000D01*
X32766000Y-150500000D02*
X36500000Y-150500000D01*
X346202000Y-165354000D02*
X346202000Y-146050000D01*
D35*
X289500000Y-193700000D02*
X289500000Y-198576000D01*
D32*
X319024000Y-124968000D02*
X318262000Y-125730000D01*
%TO.N,Rear_fog_ind+*%
X80010000Y-202692000D02*
X141732000Y-202692000D01*
X82500000Y-161594000D02*
X74422000Y-169672000D01*
X82000000Y-154000000D02*
X82500000Y-154500000D01*
X147000000Y-197424000D02*
X147000000Y-193206000D01*
X141732000Y-202692000D02*
X147000000Y-197424000D01*
X74422000Y-169672000D02*
X74422000Y-197104000D01*
X82500000Y-154500000D02*
X82500000Y-161594000D01*
X74422000Y-197104000D02*
X80010000Y-202692000D01*
%TO.N,Wheel_spd_input*%
X210144000Y-113370000D02*
X207264000Y-110490000D01*
X74422000Y-124714000D02*
X75768000Y-126060000D01*
X197866000Y-94488000D02*
X197866000Y-86614000D01*
X203200000Y-97790000D02*
X201168000Y-97790000D01*
X213250000Y-113370000D02*
X210144000Y-113370000D01*
X207264000Y-110490000D02*
X207264000Y-101854000D01*
X197866000Y-86614000D02*
X190246000Y-78994000D01*
X117348000Y-78994000D02*
X74422000Y-121920000D01*
X190246000Y-78994000D02*
X117348000Y-78994000D01*
X207264000Y-101854000D02*
X203200000Y-97790000D01*
X74422000Y-121920000D02*
X74422000Y-124714000D01*
X201168000Y-97790000D02*
X197866000Y-94488000D01*
X75768000Y-126060000D02*
X79460000Y-126060000D01*
%TO.N,Illum-*%
X112014000Y-179070000D02*
X104648000Y-179070000D01*
X113944000Y-181000000D02*
X112014000Y-179070000D01*
X90170000Y-135636000D02*
X90170000Y-163576000D01*
X154686000Y-183642000D02*
X151245000Y-180201000D01*
X206756000Y-200914000D02*
X201930000Y-205740000D01*
X82000000Y-131140000D02*
X85674000Y-131140000D01*
X123500000Y-181000000D02*
X113944000Y-181000000D01*
X157226000Y-202184000D02*
X154686000Y-199644000D01*
X206756000Y-192404000D02*
X206756000Y-200914000D01*
X235712000Y-178054000D02*
X310554000Y-178054000D01*
X215620000Y-181000000D02*
X220598000Y-176022000D01*
X90900000Y-181900000D02*
X96400000Y-181900000D01*
X165862000Y-205740000D02*
X162306000Y-202184000D01*
X104648000Y-179070000D02*
X101818000Y-181900000D01*
X90170000Y-163576000D02*
X84836000Y-168910000D01*
X310554000Y-178054000D02*
X314400000Y-181900000D01*
X233680000Y-176022000D02*
X235712000Y-178054000D01*
X124299000Y-180201000D02*
X123500000Y-181000000D01*
X84836000Y-175836000D02*
X90900000Y-181900000D01*
X84836000Y-168910000D02*
X84836000Y-175836000D01*
X154686000Y-199644000D02*
X154686000Y-183642000D01*
X314400000Y-181900000D02*
X319786000Y-181900000D01*
X220598000Y-176022000D02*
X233680000Y-176022000D01*
X85674000Y-131140000D02*
X90170000Y-135636000D01*
X201930000Y-205740000D02*
X165862000Y-205740000D01*
X151245000Y-180201000D02*
X124299000Y-180201000D01*
X215620000Y-183540000D02*
X206756000Y-192404000D01*
X215620000Y-183540000D02*
X215620000Y-181000000D01*
X101818000Y-181900000D02*
X96400000Y-181900000D01*
X162306000Y-202184000D02*
X157226000Y-202184000D01*
%TO.N,Fog_ind+*%
X84328000Y-198374000D02*
X78486000Y-192532000D01*
X78486000Y-172212000D02*
X87884000Y-162814000D01*
X78486000Y-192532000D02*
X78486000Y-172212000D01*
X87884000Y-162814000D02*
X87884000Y-137668000D01*
X121426000Y-187706000D02*
X117348000Y-187706000D01*
X83896000Y-133680000D02*
X82000000Y-133680000D01*
X106680000Y-198374000D02*
X84328000Y-198374000D01*
X117348000Y-187706000D02*
X106680000Y-198374000D01*
X87884000Y-137668000D02*
X83896000Y-133680000D01*
%TO.N,Fuel_level*%
X46736000Y-176276000D02*
X46736000Y-167894000D01*
X211328000Y-202946000D02*
X205975000Y-208299000D01*
X66000000Y-151958000D02*
X69784000Y-151958000D01*
X46736000Y-167894000D02*
X58420000Y-156210000D01*
X161290000Y-208299000D02*
X161290000Y-208280000D01*
X58420000Y-156210000D02*
X68072000Y-156210000D01*
X69850000Y-154432000D02*
X69850000Y-151892000D01*
X66548000Y-206756000D02*
X59182000Y-199390000D01*
X74092000Y-146380000D02*
X79460000Y-146380000D01*
X58420000Y-156210000D02*
X59000000Y-155630000D01*
X220700000Y-184684000D02*
X211582000Y-193802000D01*
X161290000Y-208280000D02*
X159766000Y-206756000D01*
X69850000Y-150622000D02*
X74092000Y-146380000D01*
X65786000Y-151958000D02*
X65946000Y-151798000D01*
X68072000Y-156210000D02*
X69850000Y-154432000D01*
X59182000Y-199390000D02*
X53340000Y-182880000D01*
X59000000Y-155630000D02*
X59000000Y-151958000D01*
X69784000Y-151958000D02*
X69850000Y-151892000D01*
X211582000Y-202946000D02*
X211328000Y-202946000D01*
X205975000Y-208299000D02*
X161290000Y-208299000D01*
X53340000Y-182880000D02*
X46736000Y-176276000D01*
X69850000Y-151892000D02*
X69850000Y-150622000D01*
X211582000Y-193802000D02*
X211582000Y-202946000D01*
X159766000Y-206756000D02*
X66548000Y-206756000D01*
X220700000Y-183540000D02*
X220700000Y-184684000D01*
%TO.N,Illum+*%
X95184372Y-164900000D02*
X92202000Y-161917628D01*
X92202000Y-133604000D02*
X87198000Y-128600000D01*
X129562000Y-178562000D02*
X152400000Y-178562000D01*
X96400000Y-164900000D02*
X100530000Y-164900000D01*
X301498000Y-176530000D02*
X313128000Y-164900000D01*
X203962000Y-200660000D02*
X203962000Y-192658000D01*
X213080000Y-181000000D02*
X213080000Y-180366000D01*
X163576000Y-199390000D02*
X168656000Y-204470000D01*
X236474000Y-176530000D02*
X301498000Y-176530000D01*
X87198000Y-128600000D02*
X82000000Y-128600000D01*
X116354000Y-165354000D02*
X129562000Y-178562000D01*
X213080000Y-183540000D02*
X213080000Y-181000000D01*
X156718000Y-197612000D02*
X158496000Y-199390000D01*
X233680000Y-173736000D02*
X236474000Y-176530000D01*
X106934000Y-164084000D02*
X108204000Y-165354000D01*
X313128000Y-164900000D02*
X319786000Y-164900000D01*
X200152000Y-204470000D02*
X203962000Y-200660000D01*
X152400000Y-178562000D02*
X156718000Y-182880000D01*
X213080000Y-180366000D02*
X219710000Y-173736000D01*
X108204000Y-165354000D02*
X116354000Y-165354000D01*
X203962000Y-192658000D02*
X213080000Y-183540000D01*
X168656000Y-204470000D02*
X200152000Y-204470000D01*
X92202000Y-161917628D02*
X92202000Y-133604000D01*
X96400000Y-164900000D02*
X95184372Y-164900000D01*
X100530000Y-164900000D02*
X101346000Y-164084000D01*
X156718000Y-182880000D02*
X156718000Y-197612000D01*
X101346000Y-164084000D02*
X106934000Y-164084000D01*
X219710000Y-173736000D02*
X233680000Y-173736000D01*
X158496000Y-199390000D02*
X163576000Y-199390000D01*
%TO.N,LH_ind*%
X75006000Y-138760000D02*
X68580000Y-132334000D01*
X79460000Y-138760000D02*
X75006000Y-138760000D01*
X186000000Y-72500000D02*
X190000000Y-68500000D01*
X68580000Y-119920000D02*
X116000000Y-72500000D01*
X190000000Y-68500000D02*
X200000000Y-68500000D01*
X116000000Y-72500000D02*
X186000000Y-72500000D01*
X68580000Y-132334000D02*
X68580000Y-119920000D01*
%TO.N,Park_brake_ind-*%
X249114000Y-182206000D02*
X249114000Y-180280000D01*
X79460000Y-154000000D02*
X78500000Y-154960000D01*
X209296000Y-202184000D02*
X209296000Y-192404000D01*
X78500000Y-154960000D02*
X78500000Y-161784000D01*
X61976000Y-177800000D02*
X56896000Y-182880000D01*
X221106000Y-178054000D02*
X218160000Y-181000000D01*
X60452000Y-196088000D02*
X69088000Y-204724000D01*
X163830000Y-207010000D02*
X204470000Y-207010000D01*
X69088000Y-204724000D02*
X161544000Y-204724000D01*
X209296000Y-192404000D02*
X218160000Y-183540000D01*
X204470000Y-207010000D02*
X209296000Y-202184000D01*
X218160000Y-183540000D02*
X218160000Y-181000000D01*
X56896000Y-186182000D02*
X60452000Y-196088000D01*
X78500000Y-161784000D02*
X71120000Y-169164000D01*
X56896000Y-182880000D02*
X56896000Y-186182000D01*
X71120000Y-175006000D02*
X68326000Y-177800000D01*
X248412000Y-179578000D02*
X233680000Y-179578000D01*
X233680000Y-179578000D02*
X232156000Y-178054000D01*
X68326000Y-177800000D02*
X61976000Y-177800000D01*
X71120000Y-169164000D02*
X71120000Y-175006000D01*
X161544000Y-204724000D02*
X163830000Y-207010000D01*
X232156000Y-178054000D02*
X221106000Y-178054000D01*
X249114000Y-180280000D02*
X248412000Y-179578000D01*
%TO.N,+12 T15_ACC*%
X222250000Y-116870000D02*
X219680000Y-116870000D01*
X225806000Y-139954000D02*
X218186000Y-147574000D01*
X204470000Y-152908000D02*
X196342000Y-166116000D01*
X79460000Y-123520000D02*
X77546000Y-123520000D01*
X196342000Y-166116000D02*
X196342000Y-181660000D01*
X225806000Y-118110000D02*
X225806000Y-139954000D01*
X189738000Y-81280000D02*
X195326000Y-86868000D01*
X218186000Y-147574000D02*
X205740000Y-147574000D01*
X195326000Y-86868000D02*
X195326000Y-96012000D01*
X77546000Y-123520000D02*
X77216000Y-123190000D01*
X222250000Y-116870000D02*
X224566000Y-116870000D01*
X216180000Y-120370000D02*
X213250000Y-120370000D01*
X205740000Y-147574000D02*
X204470000Y-148844000D01*
X195326000Y-96012000D02*
X199390000Y-100076000D01*
X204978000Y-115316000D02*
X210032000Y-120370000D01*
X204978000Y-101600000D02*
X204978000Y-115316000D01*
X117602000Y-81280000D02*
X189738000Y-81280000D01*
X77216000Y-123190000D02*
X77216000Y-121666000D01*
X77216000Y-121666000D02*
X117602000Y-81280000D01*
X198222000Y-183540000D02*
X200380000Y-183540000D01*
X204470000Y-148844000D02*
X204470000Y-152908000D01*
X203454000Y-100076000D02*
X204978000Y-101600000D01*
X219680000Y-116870000D02*
X216180000Y-120370000D01*
X210032000Y-120370000D02*
X213250000Y-120370000D01*
X196342000Y-181660000D02*
X198222000Y-183540000D01*
X199390000Y-100076000D02*
X203454000Y-100076000D01*
X224566000Y-116870000D02*
X225806000Y-118110000D01*
%TO.N,Low_Fuel_ind-*%
X49500000Y-156000000D02*
X52000000Y-156000000D01*
X159512000Y-209804000D02*
X158242000Y-208534000D01*
X223240000Y-183540000D02*
X223240000Y-185192000D01*
X52000000Y-156000000D02*
X55372000Y-152628000D01*
X48470000Y-156000000D02*
X49500000Y-156000000D01*
X48300000Y-155300000D02*
X49000000Y-156000000D01*
X43180000Y-177038000D02*
X43180000Y-161290000D01*
X208280000Y-209804000D02*
X159512000Y-209804000D01*
X214376000Y-194056000D02*
X214376000Y-203708000D01*
X223240000Y-185192000D02*
X214376000Y-194056000D01*
X49000000Y-156000000D02*
X49500000Y-156000000D01*
X57912000Y-202184000D02*
X52324000Y-186182000D01*
X214376000Y-203708000D02*
X208280000Y-209804000D01*
X158242000Y-208534000D02*
X64262000Y-208534000D01*
X55372000Y-148628000D02*
X60160000Y-143840000D01*
X43180000Y-161290000D02*
X48470000Y-156000000D01*
X60160000Y-143840000D02*
X79460000Y-143840000D01*
X55372000Y-152628000D02*
X55372000Y-148628000D01*
X52324000Y-186182000D02*
X43180000Y-177038000D01*
X64262000Y-208534000D02*
X57912000Y-202184000D01*
D34*
X79460000Y-143840000D02*
X79415099Y-143795099D01*
D32*
X48300000Y-150400000D02*
X48300000Y-155300000D01*
%TO.N,+5V*%
X174244000Y-201182000D02*
X175500000Y-202438000D01*
X130302000Y-177038000D02*
X154686000Y-177038000D01*
X203200000Y-140208000D02*
X199390000Y-144018000D01*
X188976000Y-184658000D02*
X194500000Y-190182000D01*
X192278000Y-202438000D02*
X194500000Y-200216000D01*
X94742000Y-147828000D02*
X109982000Y-163068000D01*
X199390000Y-150114000D02*
X188976000Y-168402000D01*
X82000000Y-126060000D02*
X88214000Y-126060000D01*
X188976000Y-168402000D02*
X188976000Y-184658000D01*
X160020000Y-196850000D02*
X171323905Y-196850000D01*
X175500000Y-202438000D02*
X192278000Y-202438000D01*
X88214000Y-126060000D02*
X94742000Y-132588000D01*
X158750000Y-195580000D02*
X160020000Y-196850000D01*
X116332000Y-163068000D02*
X130302000Y-177038000D01*
X210820000Y-140208000D02*
X203200000Y-140208000D01*
X194500000Y-190182000D02*
X194500000Y-197104000D01*
X194500000Y-200216000D02*
X194500000Y-197104000D01*
X222250000Y-130870000D02*
X220158000Y-130870000D01*
X109982000Y-163068000D02*
X116332000Y-163068000D01*
X220158000Y-130870000D02*
X210820000Y-140208000D01*
X154686000Y-177038000D02*
X158750000Y-181102000D01*
X158750000Y-181102000D02*
X158750000Y-195580000D01*
X94742000Y-132588000D02*
X94742000Y-147828000D01*
X171323905Y-196850000D02*
X174244000Y-199770095D01*
X174244000Y-199770095D02*
X174244000Y-201182000D01*
X199390000Y-144018000D02*
X199390000Y-150114000D01*
%TO.N,Brake_wear_sig-*%
X97028000Y-130810000D02*
X97028000Y-146304000D01*
X159258000Y-177292000D02*
X169926000Y-177292000D01*
X111252000Y-160528000D02*
X117094000Y-160528000D01*
X157480000Y-175514000D02*
X159258000Y-177292000D01*
X97028000Y-146304000D02*
X111252000Y-160528000D01*
X169926000Y-177292000D02*
X177000000Y-184366000D01*
X82000000Y-123520000D02*
X89738000Y-123520000D01*
X89738000Y-123520000D02*
X97028000Y-130810000D01*
X132080000Y-175514000D02*
X157480000Y-175514000D01*
X117094000Y-160528000D02*
X132080000Y-175514000D01*
X177000000Y-184366000D02*
X177000000Y-197104000D01*
%TO.N,Wheel_spd_output*%
X222250000Y-113370000D02*
X219370000Y-113370000D01*
X205493000Y-155201000D02*
X205486000Y-155194000D01*
X205486000Y-155194000D02*
X200406000Y-163068000D01*
X200406000Y-163068000D02*
X200380000Y-163068000D01*
X227330000Y-141732000D02*
X213868000Y-155194000D01*
X225384000Y-113370000D02*
X227330000Y-115316000D01*
X215870000Y-116870000D02*
X213250000Y-116870000D01*
X227330000Y-115316000D02*
X227330000Y-141732000D01*
X219370000Y-113370000D02*
X215870000Y-116870000D01*
X200380000Y-163068000D02*
X200380000Y-181000000D01*
X213868000Y-155194000D02*
X212090000Y-155194000D01*
X212090000Y-155194000D02*
X212083000Y-155201000D01*
X222250000Y-113370000D02*
X225384000Y-113370000D01*
X212083000Y-155201000D02*
X205493000Y-155201000D01*
%TO.N,Engine_spd_input*%
X204978000Y-145034000D02*
X212852000Y-145034000D01*
X320294000Y-149606000D02*
X320294000Y-151130000D01*
X210820000Y-175514000D02*
X207518000Y-175514000D01*
X299466000Y-171958000D02*
X239268000Y-171958000D01*
X202056000Y-186944000D02*
X198120000Y-186944000D01*
X202692000Y-147320000D02*
X204978000Y-145034000D01*
X202692000Y-152400000D02*
X202692000Y-147320000D01*
X218186000Y-168148000D02*
X210820000Y-175514000D01*
X235458000Y-168148000D02*
X218186000Y-168148000D01*
X193802000Y-182626000D02*
X193802000Y-167132000D01*
X193802000Y-167132000D02*
X202692000Y-152400000D01*
X198120000Y-186944000D02*
X193802000Y-182626000D01*
X207518000Y-175514000D02*
X205460000Y-177572000D01*
X205460000Y-177572000D02*
X205460000Y-181000000D01*
X320294000Y-151130000D02*
X299466000Y-171958000D01*
X220016000Y-137870000D02*
X222250000Y-137870000D01*
X212852000Y-145034000D02*
X220016000Y-137870000D01*
X205460000Y-183540000D02*
X205460000Y-181000000D01*
X239268000Y-171958000D02*
X235458000Y-168148000D01*
X205460000Y-183540000D02*
X202056000Y-186944000D01*
%TO.N,Brake_wear_ind+*%
X250698000Y-201422000D02*
X247650000Y-204470000D01*
X237744000Y-204470000D02*
X235779602Y-202505602D01*
X235779602Y-197824398D02*
X236500000Y-197104000D01*
X235779602Y-202505602D02*
X235779602Y-197824398D01*
X267208000Y-201422000D02*
X250698000Y-201422000D01*
X269294000Y-193206000D02*
X269294000Y-199336000D01*
X269294000Y-199336000D02*
X267208000Y-201422000D01*
X247650000Y-204470000D02*
X237744000Y-204470000D01*
%TO.N,Brake_fluid_ind-*%
X299720000Y-189203752D02*
X309906248Y-199390000D01*
X290068000Y-179578000D02*
X294132000Y-179578000D01*
X336804000Y-199390000D02*
X341499000Y-194695000D01*
X309906248Y-199390000D02*
X336804000Y-199390000D01*
X289500000Y-182206000D02*
X289500000Y-180146000D01*
X341499000Y-182241000D02*
X340614000Y-181356000D01*
X341499000Y-194695000D02*
X341499000Y-182241000D01*
X340614000Y-181356000D02*
X340614000Y-163576000D01*
X299720000Y-185166000D02*
X299720000Y-189203752D01*
X289500000Y-180146000D02*
X290068000Y-179578000D01*
X340614000Y-163576000D02*
X343154000Y-161036000D01*
X343154000Y-149606000D02*
X339928000Y-146380000D01*
X339928000Y-146380000D02*
X337500000Y-146380000D01*
X343154000Y-161036000D02*
X343154000Y-149606000D01*
X294132000Y-179578000D02*
X299720000Y-185166000D01*
%TO.N,Net-(U1-Vcc)*%
X350068000Y-169870000D02*
X350068000Y-172052000D01*
X355346000Y-168402000D02*
X351536000Y-168402000D01*
X364000000Y-172160000D02*
X363892000Y-172052000D01*
X357068000Y-172052000D02*
X357068000Y-170124000D01*
X363892000Y-172052000D02*
X357068000Y-172052000D01*
X357068000Y-170124000D02*
X355346000Y-168402000D01*
X351536000Y-168402000D02*
X350068000Y-169870000D01*
%TO.N,Net-(U2-Vcc)*%
X61351000Y-169607000D02*
X63649000Y-169607000D01*
X52070000Y-171958000D02*
X59000000Y-171958000D01*
X63649000Y-169607000D02*
X66000000Y-171958000D01*
X59000000Y-171958000D02*
X61351000Y-169607000D01*
%TO.N,Speed_pulse*%
X195834000Y-148336000D02*
X183896000Y-169926000D01*
X209296000Y-134874000D02*
X201168000Y-134874000D01*
X183896000Y-169926000D02*
X183896000Y-186436000D01*
X187500000Y-190040000D02*
X187500000Y-197104000D01*
X201168000Y-134874000D02*
X195834000Y-140208000D01*
X222250000Y-123870000D02*
X220300000Y-123870000D01*
X183896000Y-186436000D02*
X187500000Y-190040000D01*
X195834000Y-140208000D02*
X195834000Y-148336000D01*
X220300000Y-123870000D02*
X209296000Y-134874000D01*
%TO.N,cylinder_count*%
X181356000Y-170688000D02*
X181356000Y-187706000D01*
X200406000Y-132588000D02*
X194201000Y-138793000D01*
X194201000Y-148227000D02*
X181356000Y-170688000D01*
X184000000Y-190350000D02*
X184000000Y-197104000D01*
X222250000Y-120370000D02*
X219990000Y-120370000D01*
X207772000Y-132588000D02*
X200406000Y-132588000D01*
X194201000Y-138793000D02*
X194201000Y-148227000D01*
X219990000Y-120370000D02*
X207772000Y-132588000D01*
X181356000Y-187706000D02*
X184000000Y-190350000D01*
%TO.N,Distance_pulse*%
X197612000Y-149606000D02*
X186436000Y-169164000D01*
X186436000Y-185928000D02*
X191000000Y-190492000D01*
X191000000Y-190492000D02*
X191000000Y-197104000D01*
X210058000Y-137668000D02*
X202184000Y-137668000D01*
X197612000Y-142240000D02*
X197612000Y-149606000D01*
X222250000Y-127370000D02*
X220356000Y-127370000D01*
X186436000Y-169164000D02*
X186436000Y-185928000D01*
X220356000Y-127370000D02*
X210058000Y-137668000D01*
X202184000Y-137668000D02*
X197612000Y-142240000D01*
%TO.N,Temp_gauge*%
X232279602Y-191863602D02*
X229646000Y-189230000D01*
X367284000Y-170688000D02*
X367284000Y-178562000D01*
X232279602Y-191863602D02*
X232279602Y-196383602D01*
X367284000Y-178562000D02*
X359918000Y-185928000D01*
X359918000Y-185928000D02*
X356616000Y-197866000D01*
X350068000Y-155250000D02*
X351028000Y-156210000D01*
X232279602Y-203069602D02*
X232279602Y-197824398D01*
X355092000Y-156210000D02*
X359410000Y-160528000D01*
X250952000Y-204978000D02*
X249682000Y-206248000D01*
X352806000Y-201676000D02*
X347218000Y-201676000D01*
X343916000Y-204978000D02*
X250952000Y-204978000D01*
X232279602Y-197824398D02*
X233000000Y-197104000D01*
X359410000Y-162814000D02*
X367284000Y-170688000D01*
X347218000Y-201676000D02*
X343916000Y-204978000D01*
X232279602Y-196383602D02*
X233000000Y-197104000D01*
X350068000Y-151958000D02*
X350068000Y-155250000D01*
X235458000Y-206248000D02*
X232279602Y-203069602D01*
X351028000Y-156210000D02*
X355092000Y-156210000D01*
X357068000Y-154234000D02*
X355092000Y-156210000D01*
X356616000Y-197866000D02*
X352806000Y-201676000D01*
X249682000Y-206248000D02*
X235458000Y-206248000D01*
X357068000Y-151958000D02*
X357068000Y-154234000D01*
X359410000Y-160528000D02*
X359410000Y-162814000D01*
%TD*%
M02*
